<?xml version="1.0" encoding="utf-8"?>
<!-- Generator: Adobe Illustrator 17.1.0, SVG Export Plug-In . SVG Version: 6.00 Build 0)  -->
<!DOCTYPE svg PUBLIC "-//W3C//DTD SVG 1.1//EN" "http://www.w3.org/Graphics/SVG/1.1/DTD/svg11.dtd">
<svg version="1.1" id="Layer_1" xmlns="http://www.w3.org/2000/svg" xmlns:xlink="http://www.w3.org/1999/xlink" x="0px" y="0px"
	 viewBox="0 0 980 500" enable-background="new 0 0 980 500" xml:space="preserve">
<g>
	<path fill="#1186C8" d="M410.3,111.1c-3.1,0.3-6.3,0.8-9.4,1.4c0.8,0.2,1.5,0.5,2.1,0.9c0.6-0.3,1.2-0.5,1.8-0.8c0,0,0,0,0,0
		c0,0,0,0,0,0c0,0,0.1,0,0.1-0.1c0,0,0.1-0.1,0.1-0.1c1-0.7,2.1,0.2,2.2,1.2c0,0,0,0,0,0c1.2-0.8,2.6,0.7,2.2,1.9
		c0.5,0.3,0.9,0.9,0.9,1.5c0.5,0,0.9,0.3,1.1,0.8c0,0,0,0,0-0.1c0.2-0.7,0.9-1.1,1.6-1.1C412,114.3,415.2,110.7,410.3,111.1z"/>
	<path fill="#1186C8" d="M393.3,104.8c0.1-0.6,0.2-1.2,0.3-1.7c0.2-0.7,0.7-1,1.3-1c0-0.3,0-0.6,0-0.9c-0.7,0-1.3-0.1-2-0.1
		C393.1,102.3,393.2,103.6,393.3,104.8z"/>
	<path fill="#1186C8" d="M422,121c-2.1-1.3-5.5-1.5-7.7-2.9c0,0.2,0.1,0.5,0.1,0.7c0,0.1,0,0.1,0,0.2c1.2,2.1,4.8,5.7,6.6,6.9
		c0.5,0.3,1,0.6,1.3,1.1c0.4,0.1,0.8,0.3,1.2,0.5c0.5-0.3,1.1-0.3,1.5-0.1C424.8,124.9,424.4,122.4,422,121z"/>
	<path fill="#1186C8" d="M423.3,131.1c0.2,0.1,0.5,0.2,0.7,0.4c0,0,0.1,0,0.1,0.1c0.6-0.2,1-0.6,1.1-1.4c-0.3,0.4-0.8,0.7-1.3,0.6
		C423.8,130.9,423.6,131,423.3,131.1z"/>
	<path fill="#1186C8" d="M415.3,126.4c0.6,0,1.1-0.1,1.7-0.1c-0.8-0.8-1.5-1.5-1.9-1.9c-0.1,0.4-0.2,0.8-0.4,1.1
		C415,125.7,415.2,126,415.3,126.4z"/>
	<path fill="#1186C8" d="M417.8,129.1c0.5,0.4,1.1,0.8,2,1.1c0-0.3-0.1-0.6,0-1C419.1,129.1,418.5,129.1,417.8,129.1z"/>
</g>
<path fill="#954523" d="M386,214.1c0-0.6,0-1.2-0.1-1.8c0-0.4-0.2-0.6-0.4-0.8c0-0.1-0.1-0.2-0.1-0.4c0.3-0.3,0.5-0.8,0.1-1.3
	c-0.6-0.8-1.2-1.4-2.1-1.8c0-0.1-0.1-0.3-0.1-0.4c-0.5-0.8-1.4-0.9-2.3-0.8c-0.3-0.4-1.1-0.7-1.5-0.2c-0.2,0.2-0.4,0.5-0.6,0.7
	c-0.2,0-0.3,0-0.5,0.1c0.2-0.2,0.4-0.4,0.6-0.6c0.7-0.6-0.3-1.5-1-1c-1.5,1.2-2.8,3.2-2.8,5.2c0,0.4,0.2,0.6,0.5,0.7
	c0.1,0.3,0.4,0.4,0.7,0.5c0.1,0.2,0.2,0.3,0.4,0.4c0,0,0,0,0,0c-0.2,0.5,0,0.8,0.3,1c-0.1,0.7,0.4,1.2,1,1.3c-0.1,0.6,0,1.1,0.1,1.7
	c-0.4,0.2-0.7,0.6-0.6,1c0.1,0.6,0.2,1.1,0.4,1.6c-0.1,0.4-0.1,0.9,0.2,1.2c0.4,0.5,0.8,0.9,1.2,1.3c1.1,1.5,2.2,3.7,4.1,2.6
	c0.6-0.3,0.7-0.9,0.5-1.4c0.6-0.9,1.6-1.5,1.9-2.7C386.5,218.4,386.2,216.2,386,214.1z"/>
<path fill="#954523" d="M375,190.3c0-0.2,0-0.5,0-0.7c-0.1-1.2-1.5-1.4-2-0.6c-0.1-2.1-0.5-4.1-1.7-5.5c-1.4-1.7-4.4-1.8-6.4-0.6
	c-1.2-0.3-1.9,0.1-2.4,1.3c-0.3,0.8-0.2,1.8-0.7,2.6c-0.3,0.5-0.4,0.9-0.4,1.3c-0.2,0.2-0.3,0.4-0.3,0.8c0,2.1,1.2,3.6,1.6,5.6
	c0,0.5,0.1,0.9,0.2,1.4c-0.1,0.3-0.1,0.8,0.3,1c1.4,0.9,2.4,2.6,4.2,2.6c1.7,0,2.7-1.4,3.7-2.8c0.2-0.2,0.3-0.4,0.5-0.6
	c0.2,0,0.4-0.1,0.6-0.3C373.5,194.4,374.8,192.4,375,190.3z"/>
<g>
	<path fill="none" d="M407.1,115.9c0.3,0.2,0.5,0.5,0.7,0.8c0,0,0,0.1,0.1,0.1c0.1-0.3,0.3-0.5,0.6-0.6c-0.1,0-0.2-0.1-0.3-0.1
		c-0.3-0.2-0.4-0.5-0.4-0.8c-0.3-0.2-0.5-0.4-0.6-0.7c-0.2-0.1-0.5-0.2-0.6-0.4c-0.4-0.1-0.8-0.4-1-0.8c-0.3,0.1-0.6,0.1-0.8,0.1
		c-0.3,0.3-0.6,0.5-1,0.7c1.2,0.3,2.3,0.8,3.2,1.6C407,115.8,407.1,115.8,407.1,115.9z"/>
	<path fill="none" d="M242.4,292.7c0.4-0.3,0.8-0.5,1.2-0.8c-0.5-0.3-1-0.6-1.5-0.8c-0.4-0.2-0.8-0.3-1.1-0.4
		c-2.1-0.2-4.3-0.3-6.4-0.2c-0.2,0-0.3,0.1-0.5,0.1c2.6,0.1,5.3,0.6,7.8,1.6C242.2,292.2,242.4,292.4,242.4,292.7z"/>
	<path fill="none" d="M170.3,292.2c0.2-0.1,0.4-0.2,0.6-0.3c0,0-0.1-0.1-0.1-0.1c-0.2-0.1-0.3-0.3-0.5-0.4c-0.1,0-0.3,0-0.5,0
		c-0.7-0.1-1.3-0.3-1.9-0.6c0.8,0.4,1.5,0.8,2.2,1.3C170.3,292.1,170.3,292.2,170.3,292.2z"/>
	<path fill="none" d="M214.8,301.4c-3.3-2.9-6.8-5.7-9.3-9.2c-0.4-0.5-0.1-1.2,0.2-1.6c2.8-3.5,4-8.5,5.2-12.8
		c1.6-5.8,1-12.5-5.5-14.5c8.8,4.7,4.6,20.9-2,28.3C207.2,294.7,210.5,299.1,214.8,301.4z"/>
	<path fill="none" d="M397.2,118.6C397.2,118.6,397.2,118.6,397.2,118.6c0.5-0.7,1.1-1.3,1.7-1.8c-0.2,0-0.5,0-0.7,0
		C397.8,117.4,397.5,118,397.2,118.6z"/>
	<path fill="none" d="M396.5,122c0,0.1,0,0.2-0.1,0.3c0,0.2-0.1,0.3-0.2,0.4c-0.2,0.5-0.4,1-0.5,1.4c0.1,1.1,0,2.2-0.2,3.2
		c0.2,0.7,0.4,1.4,0.7,2.1c0.1,0.1,0.2,0.2,0.2,0.3c1.8,0.2,3.6,0.3,5.4,0.5c1.3,0.1,2.6,0.2,4,0.3c1-1.2,1.8-2.5,1.9-4.4
		c0.1-1.6,0.1-3.1-0.1-4.6c-0.1,0-0.1-0.1-0.2-0.2c-0.6-0.8-1.1-1.7-1.6-2.5c-0.2-0.2-0.3-0.5-0.4-0.7c-1.5-0.8-3.1-1.2-4.8-1.2
		c-0.1,0.1-0.2,0.1-0.3,0.2c-1,0.9-2.1,2.2-3,3.7C396.9,121.1,396.7,121.6,396.5,122z"/>
	<path fill="none" d="M134.4,293.1c0.3-0.4,0.7-0.6,0.9-1c0.1-0.2,0.3-0.2,0.4-0.2c7.1-8.5,22.7-6.1,32.1-1.2c-1.7-0.8-3-2.2-5-2.8
		c-2.7-0.9-5.4-2.1-8.3-2.2c-6.4-0.2-13.9,0.4-18.7,5.1c-2.1,2.1-3.6,2.8-5.4,3.1c1.1,0,2.3-0.1,3.4-0.1
		C134.1,293.7,134.3,293.4,134.4,293.1z"/>
	<path fill="none" d="M397.5,102.1C397.5,102.1,397.6,102.2,397.5,102.1c0.5-2.4,1-4.8,1.2-7.2c-0.2-0.3-0.2-0.7,0.1-0.9
		c0.1-1.9,0.2-3.7,0.2-5.6c-0.1,0-0.2,0-0.3,0C398.6,93,397.9,97.6,397.5,102.1z"/>
	<path fill="none" d="M396.9,111.1c0.1,0.1,0.2,0.2,0.3,0.3c0.4,0,0.7,0.2,1.7-0.2c0,0,0,0,0,0c-0.6,0-1.3-0.1-1.8-0.3
		C397,111,397,111.1,396.9,111.1z"/>
	<path fill="none" d="M386.9,213.1c0,0.6,0,1.2-0.1,1.8c0.2,0.1,0.4,0.2,0.6,0.3C387.3,214.5,387.1,213.8,386.9,213.1z"/>
	<path fill="none" d="M373.7,204.6c0-0.6,0-1.1-0.1-1.7c-0.3,1-0.6,2-0.9,3c0.1-0.3,0.2-0.7,0.4-1
		C373.3,204.7,373.5,204.6,373.7,204.6z"/>
	<path fill="none" d="M84.2,290.7c-0.7-2.1,1-5.6,1-7.7c0-3.6-0.3-7.1-0.5-10.7c-0.1-2.9-0.3-6.4-1.5-9.3c-0.5-0.6-1.1-1.1-1.7-1.4
		c-3.3-1.8-6.6-3.3-10.1-4c-0.3,0.2-0.6,0.2-1,0.1c-1.9-0.7-4.6-0.6-7.5,0c3.9-0.5,8-0.1,11.2,0.7c5.6,1.5,9,4.4,9.3,10.5
		c0.3,4.3,1,8.3,1.4,12.6c0.4,4.4-1.9,8-2.5,12.1c1.3-0.2,2.8-0.3,4.3-0.4C85.5,292.6,84.6,291.9,84.2,290.7z"/>
	<path fill="none" d="M362.5,209.3c0.1,0.4,0.1,0.9,0.2,1.3c-0.3-3.2-0.6-6.3-0.8-9.5c0,0.1-0.1,0.3-0.1,0.4
		c0.1,0.1,0.1,0.2,0.1,0.3C362.1,204.3,362.2,206.8,362.5,209.3z"/>
	<path fill="none" d="M316.1,244.1c7.2-1.3,14.7-0.3,22-0.7c7.7-0.4,15.3-1,23-1c0.1-3.4-0.1-7-0.1-10.3c0-3.7,0.5-8.1-0.3-11.8
		c-0.1-0.1-0.3-0.1-0.4-0.2c-0.5-0.2-0.4-0.8,0-0.9c0-0.1-0.1-0.1-0.1-0.2c0,0,0-0.1,0-0.1c-3.8,0.7-7.7,0.6-11.5,1.1
		c-4.9,0.6-9.9,1.4-14.8,1.3c-5.8-0.2-11.7-1-17.3-2.4c-0.2,0.1-0.3,0.1-0.5,0.2C317,227.4,316.2,235.8,316.1,244.1z"/>
	<path fill="none" d="M362.5,233.9c0.1,2.8,0.3,5.7,0.3,8.6c0.3,0,0.5,0,0.8,0c1.4,0,1.7,1.8,0.9,2.5c3.4,0.5,6.8,0,10.2,0.5
		c1.1,0.1,2.7,0.7,4.2,1c-0.1-5.6,0.6-11.2,0.8-16.8c0-0.8,1.1-0.8,1.2,0c0,0.4,0,0.8,0.1,1.2c0-0.1,0-0.1,0.1-0.2
		c0-0.1,0-0.2,0.1-0.4c0.1-0.5,0.3-1,0.5-1.4c-0.3,0.1-0.6,0.1-0.9-0.1c-1.3-0.9-2.9-1.2-4.4-1.6c-0.1,0-0.1,0-0.2,0
		c-0.3-0.1-0.6-0.2-0.9-0.3c-0.4,0.2-0.8,0.2-1.2-0.1c-0.2-0.2-0.3-0.3-0.5-0.4c-3.9-1.5-7.6-3.7-11.5-5.4
		C362.9,225.1,362.5,229.8,362.5,233.9z"/>
	<path fill="none" d="M108.1,299.8c-1.4-0.4-2.4-1.7-3.4-2.6c-2.9-2.7-5.6-3.5-9.7-3.6c-0.2,0-0.3,0-0.5,0c5.3,1,10.2,3.3,12.9,7.6
		c0.9-0.8,1.8-1.5,2.8-2.1c-0.2,0-0.4,0-0.6,0.1C109.4,299.7,108.9,300,108.1,299.8z"/>
	<path fill="none" d="M286.4,320.1c0,0,0.1-0.1,0.1-0.1c-2-3.9-2.7-8.5-2.9-13.1c-0.8-3.1-1.2-6.4-1.4-9.6c-0.4-1-0.8-2.1-1.1-3.2
		c-0.4-1.2-0.7-2.6-1.1-4c-0.5-0.8-0.9-1.7-1.3-2.4c-0.3-0.6-0.6-1.3-0.9-1.9c-1.3-1.4-2.8-2.6-4.7-3.8c-1.3-0.5-2.7-0.9-4.2-1.2
		c1.5,0.6,3.1,1.4,4.5,2.5c5.7,4.3,8,11.3,8.6,18.2c0.5,5,0.9,9.6,2.6,14.4C285.3,317.2,285.9,318.7,286.4,320.1z"/>
	<path fill="none" d="M379.9,303.4c-0.3-8.5-0.7-17-1.9-25.4c-0.3-0.3-0.3-2.3-0.3-3.6c0.4-8.9,0.4-17.5-0.1-26.1
		c0-0.1-2.6,0.1-2.5,0c-0.6-0.2-1.2-0.3-1.8-0.3c-3.1-0.2-7.6,0.2-10.8-1.2c-0.1,0.3-0.1,0.7-0.2,1c0,0,0,0,0,0
		c2.6,11.9,0.2,24.5,0.1,36.5c-0.1,7,0.5,13.9,1,20.9c1.1-0.3,2.2-0.5,3.2-0.7C371,303.7,375.5,303.6,379.9,303.4z"/>
	<path fill="none" d="M377.1,212.8c-0.1-0.4-0.2-0.8-0.2-1.2c0,0.7,0.2,1.3,0.4,2c0.4,0.2,0.7,0.6,0.6,1.1c0.1,0,0.2,0.1,0.2,0.2
		c0.2,0.4,0.3,0.8,0.4,1.2c0.2,0.4,0.4,0.7,0.5,1.1c0.1-0.1,0.4-0.1,0.4,0.1c0,0.3,0.1,0.5,0.1,0.8c0,0.2-0.1,0.2-0.2,0.3
		c0,0.3,0,0.5-0.1,0.8c0,0,0,0.1,0,0.1c0.3-0.1,0.6,0,0.7,0.4c0.4,1.7,1.3,2.9,2.3,4.3c0.2-0.1,0.5-0.3,0.7-0.4c0,0,0,0,0.1-0.1
		c0.9-0.7,1.5-1.7,2.1-2.8c0.2-1.5,0.2-3,0.1-4.5c0-0.4,0.1-0.7,0.3-0.9c0.3-1.6,0.9-3.2-0.7-4.3c-0.2,0.1-0.4,0-0.5-0.2
		c-0.5-1-1-2.5-2-3.1c-1.3-0.8-2.4,0.4-3.2,1.3c0,0,0,0,0,0c0,0.2-0.1,0.3-0.3,0.2c-0.1-0.1-0.2-0.2-0.3-0.2c-0.2-0.1,0-0.4,0.2-0.3
		c0,0,0,0,0,0c0.5-0.6,1.1-1.3,1.9-1.6c0,0-0.1-0.1-0.1-0.1c-0.3,0.1-0.7,0.3-1,0.5c0,0,0,0,0,0.1c-0.2,0.4-0.6,0.6-1,0.5
		c-0.4,0.5-0.9,0.9-1.6,1.1c0,0,0,0,0,0c0,0.1,0,0.2,0,0.2c0.1,0.2,0.2,0.4,0.1,0.6c-0.1,0.2-0.1,0.4-0.2,0.7c0,0.2,0,0.3,0,0.5
		c0.1-0.1,0.2,0,0.2,0.1c0,0.5,0.1,1,0.2,1.5c0,0,0,0.1,0,0.1c0.1-0.1,0.3-0.1,0.4,0.1c0.5,0.8,1.1,1.5,1.7,2.2
		c0.1,0.1,0.1,0.2,0.1,0.3c1,0,1.9-0.2,2.8-0.5c0.8-0.3,1.3,0.9,0.5,1.3c-1.1,0.5-2.2,0.7-3.4,0.6c-0.7-0.1-0.8-0.9-0.5-1.2
		c0,0,0,0,0,0c-0.6-0.7-1.2-1.5-1.8-2.3c-0.1-0.1-0.1-0.2,0-0.3C377.2,212.9,377.2,212.9,377.1,212.8z"/>
	<path fill="none" d="M397.1,81.3c0,1-0.1,2-0.1,3c0.1-0.4,0.1-0.8,0.2-1.2C397.2,82.5,397.2,81.9,397.1,81.3z"/>
	<path fill="none" d="M379.2,116.3c0,0.1,0,0.2-0.1,0.2c0.4,0,0.9-0.1,1.3-0.1c-0.2-0.2-0.2-0.4-0.1-0.7c-0.2-0.2-0.2-0.4-0.2-0.6
		c-0.1-0.2,0-0.4,0.1-0.6c0.3-0.4,0.6-0.7,1-1c0.2-0.3,0.4-0.6,0.7-0.9c-0.1,0-0.1,0-0.2,0C380.6,113.6,379.1,114.9,379.2,116.3z"/>
	<path fill="none" d="M390.4,118c-1.2,0.2-2.4,0.4-3.5,0.5c-0.9,0.1-1.7,0.2-2.6,0.3c0,0,0,0.1-0.1,0.1c0,0,0,0,0,0
		c1,0.3,0.6,1.7-0.4,1.5c-0.3-0.1-0.6,0-0.8,0.1c-1.3,2.5-1.1,5.6-0.4,8.2c0,0,0,0.1,0,0.1c3-0.1,5.9,0.1,8.8,0.4
		c0.4,0,0.7,0.1,1.1,0.1c0.5-0.6,0.7-1.3,0.9-1.9c0.1-0.5,0.1-1.1,0.3-1.7c0-0.4,0.1-0.8,0.1-1.3c0,0,0,0,0,0
		C393.5,121.9,392.8,119.3,390.4,118z"/>
	<path fill="none" d="M394,109.5c-0.1,0.3-0.3,0.5-0.6,0.6c0,0.1,0,0.1,0,0.2c-0.1,0.6-0.7,0.8-1.1,0.5c0,0,0,0.1-0.1,0.1
		c0,0.2,0,0.5-0.2,0.7c0.1,0.2,0.1,0.4-0.1,0.5c0,0,0,0.1-0.1,0.1c0.1,0.1,0.2,0.2,0.2,0.3c0.8-1.1,1.5-2.1,2.1-3.4
		c0,0-0.1-0.1-0.1-0.2C394,109.1,394,109.3,394,109.5z"/>
	<path fill="none" d="M412.2,118.1c-0.1-0.1-0.2-0.1-0.3-0.2c0,0,0,0.1,0,0.1c0.2,0.8,0.3,1.7,0.4,2.5c0-0.7-0.1-1.5-0.1-2.2
		C412.1,118.2,412.2,118.2,412.2,118.1z"/>
	<path fill="none" d="M426,123c0.3,1.5,0.5,3,0.5,4.5c0.2,1.9,0.3,3.8-0.6,5.7c0,0,0,0.1-0.1,0.1c0,0.1,0,0.2-0.1,0.3
		c0.1,0.2,0.2,0.5,0.2,0.8c1.2-3.5,1.6-10.1-0.7-13.4c0.1,0.5,0.1,1,0.2,1.5C425.7,122.5,426,122.7,426,123z"/>
	<path fill="none" d="M391.8,88.4c0,0-0.1,0-0.1,0c0,1.1,0,2.3,0.1,3.4C391.8,90.6,391.8,89.5,391.8,88.4z"/>
	<path fill="none" d="M392.8,114.8C392.8,114.8,392.8,114.8,392.8,114.8c0.1-0.2,0.2-0.3,0.3-0.5c-0.1-0.1-0.2-0.3-0.2-0.4
		c-0.4,0.2-0.9,0.1-1.1-0.2c-0.1,0-0.1,0.1-0.2,0.1c-0.2,0.2-0.4,0.4-0.6,0.6c-0.1,0.1-0.1,0.2-0.3,0.3c0,0-0.1,0.1-0.1,0.1
		c-0.2,0.2-0.5,0.3-0.8,0.5c0.6-0.1,1.3-0.2,1.9-0.3C392,114.9,392.4,114.9,392.8,114.8z"/>
	<path fill="none" d="M387.6,115.3c-0.1-0.1-0.2-0.2-0.3-0.2c0,0,0,0,0,0c-0.3,0.1-0.6,0.3-1,0.4c-0.7,0.2-1.3,0.4-1.9,0.6
		c1.1-0.1,2.2-0.3,3.3-0.4C387.7,115.5,387.7,115.4,387.6,115.3z"/>
	<path fill="none" d="M379.3,112.1c0,0.1,0,0.1-0.1,0.2c-0.8,0.7-1.7,1.4-2.6,2.1c0,0.1,0,0.2-0.1,0.3c-0.6,0.6-1.2,1.2-1.8,1.7
		c-0.1,0.2-0.1,0.3-0.2,0.5c0,0.1-0.1,0.1-0.1,0.2c0.7,0,1.4-0.1,2.2-0.1c0.5-0.1,1.1-0.1,1.6-0.2c0,0,0,0,0-0.1
		c-0.2-0.3-0.2-0.6-0.2-0.9c-0.1,0.2-0.2,0.4-0.3,0.6c-0.2,0.4-0.9,0.2-0.9-0.2c0-0.3,0.1-0.6,0.2-1c0-0.1,0-0.1,0.1-0.2
		c0,0,0,0,0,0c0.4-0.7,1-1.3,1.4-1.8C378.8,112.7,379.1,112.4,379.3,112.1C379.3,112.1,379.3,112.1,379.3,112.1z"/>
	<path fill="none" d="M410.4,130.4c0.4,0,0.8,0.1,1.2,0.1c-0.1-0.6-0.1-1.2-0.2-1.8c-0.5-0.1-0.9-0.8-0.4-1.2
		c0.1-0.1,0.2-0.2,0.3-0.3c-0.3-3.2-0.6-6.5-0.4-9.6c-0.2,0.1-0.6-0.2-0.4-0.5c-0.3-0.2-0.7-0.3-1-0.5c0,0,0,0.1,0.1,0.1
		C410.3,121.2,410.6,125.9,410.4,130.4z"/>
	<path fill="none" d="M412.2,109.9c0.9,0.3,2,0.7,3,1.2c-0.8-0.9-2.1-1.3-3.7-1.4c0,0.1-0.1,0.2-0.1,0.2
		C411.6,109.9,411.9,109.8,412.2,109.9z"/>
	<path fill="none" d="M395.7,103.6c-0.1,0.1-0.2,0.2-0.3,0.2c0,0.4,0,0.8,0,1.1c0,0.1,0,0.1,0.1,0.2c0.1,0,0.1,0,0.2,0
		C395.6,104.6,395.7,104.1,395.7,103.6z"/>
	<path fill="none" d="M360,284.3c0.4-12.3,1.9-24.3,0.7-36.5c0-0.1-0.1-0.3,0-0.4c-0.1-0.7-0.2-1.4-0.2-2.1
		c-7.5,0-14.9,0.7-22.4,0.9c-7.1,0.2-14.2-0.1-21.3,0c0.2,7.8-1.8,15.8-2.6,23.6c-0.2,2.3-0.4,4.6-0.6,6.9c1.6-1.4,3.5-2.4,5.6-2.9
		c7.9-1.9,14.7,2.9,16.4,10.6c1.2,5.1,1.7,10.5,2.6,15.7c0.8,4.8-3.1,7.8-4.9,11.7c6.8-2,14.4-3,20.8,0.1c0.8-2.9,3.6-4.7,6.6-5.8
		C360.1,298.8,359.8,291.5,360,284.3z"/>
	<path fill="none" d="M396.7,109.1c0-0.3,0-0.6,0.1-0.9c-0.1,0.1-0.2,0.1-0.4,0.1c0,0.2,0,0.3,0,0.5c0,0.1,0,0.1,0,0.2
		c0.1,0,0.1,0,0.2,0C396.5,109.1,396.6,109.1,396.7,109.1z"/>
	<path fill="none" d="M414.2,122.6C414.2,122.6,414.2,122.7,414.2,122.6c-0.2,0.1-0.3,0.1-0.4,0c0.1,0.6,0.1,1.3,0.2,1.9
		c0.2-0.2,0.4-0.5,0.6-0.7c0-0.4,0-0.8,0-1.2C414.4,122.7,414.3,122.7,414.2,122.6z"/>
	<path fill="none" d="M423.6,119.5c-0.3-0.1-0.6-0.2-0.9-0.3c-3-0.7-4.9-1.2-5.7-3.2c0,0,0,0,0,0c-0.1,0.3-0.2,0.6-0.2,0.8
		c-0.1,0.3-0.3,0.5-0.5,0.6c2.3,0.9,4.5,1.7,6.9,2.4C423.2,119.7,423.4,119.5,423.6,119.5z"/>
	<path fill="none" d="M414.5,121.7C414.5,121.7,414.5,121.8,414.5,121.7c0-0.8,0-1.7-0.1-2.6c-0.4-0.2-0.7-0.4-1.1-0.5
		c0.2,1.1,0.4,2.3,0.5,3.5c0,0,0,0,0.1-0.1C414,121.9,414.2,121.7,414.5,121.7z"/>
	<path fill="none" d="M423.1,133c-0.1-0.2-0.3-0.5-0.4-0.7c-0.4,0.1-0.8,0.2-1.2,0.4c-0.4,0.2-1,0.1-1.2-0.3c0-0.1-0.1-0.2-0.1-0.3
		c-0.3,0.2-0.5,0.5-0.7,0.7c1.3,0.3,2.7,0.5,4.1,0.5C423.4,133.3,423.2,133.2,423.1,133z"/>
	<path fill="none" d="M423.3,130.5C423.3,130.5,423.3,130.5,423.3,130.5c0.2,0.1,0.4,0.1,0.6,0.1c0,0,0,0,0-0.1c0-0.7,0-1.3,0.1-2
		c0,0,0-0.1,0-0.1c-0.1,0.6-0.2,1.2-0.4,1.7C423.5,130.3,423.4,130.4,423.3,130.5z"/>
	<path fill="none" d="M374,116.7c0-0.1,0-0.3,0.1-0.4c0,0,0,0,0-0.1c0.2-0.8,1-1.5,1.6-2c1-0.8,2-1.6,3-2.4c-0.3-0.1-0.6-0.2-1-0.3
		c-1.5,1.9-3.3,3.9-5.4,5.4c0.6,0,1.3,0,1.9-0.1C374.1,116.9,374,116.8,374,116.7z"/>
	<path fill="none" d="M924,319.1c-1.3,3.8-1.2,7.9,0.7,11.8c1.5,2.9,1.6,4.2-0.8,6.6c-1.8,1.8-3.8,2.5-5.9,3.8c-2,1.3-3.2,3.2-4.7,5
		c0.7,1.1-0.7,2.7-1.9,1.9c-3.9-2.9-2.2-9.6-3.5-13.7c-0.9-2.9-2-5.4-3.4-7.6c1.3,2.9,2.2,6.1,2.6,9c0.8,5.9,0.1,12.2,5.3,15.6
		c1.9-8.6,8.9-11.1,15.4-16.2C924.5,330.6,923,324.6,924,319.1z"/>
	<path fill="none" d="M965,314.3c1.7,4.2,0.9,8,0.9,12.3c0,4.3,1.2,7.7,5,10c1.2,0.7,2.5,1.4,3.5,2.3c4.6,4.3,2.7,11.7,2,17.3
		c-0.8,6-2.1,12.1-2.6,18.1c-0.1,1.5-0.2,3.1-0.3,4.6c0-0.1,0-0.2,0.1-0.4c1.4-9.7,3.5-19.3,5.1-29c-0.4-0.2-0.7-0.6-0.7-1.2
		c-0.1-3.2-0.2-7-2.7-9.5c-1.6-1.6-3.5-3.1-5-4.8c-2.5-3-3.6-5.2-3.4-9.2c0.2-5.1-0.1-12.2-4.7-15.7c-3.1-2.4-6.7-3.8-10.4-4.4
		C957.6,306.1,962.9,309.1,965,314.3z"/>
	<path fill="none" d="M878,305.8c-2.5-3.4-4.1-7.2-6.4-10.8c-0.4-0.6-1-1.6-1.6-2.6c-0.8-0.8-1.6-1.5-2.4-2.1c0.3,0.3,0.7,0.7,1,1
		c2.9,3.3,3.4,7.8,5.4,11.5c2.8,5.3,7.4,7.8,12.4,9.9C883.2,310.9,880.3,308.8,878,305.8z"/>
	<path fill="none" d="M828,301.1c-0.6-1.9-0.8-4.1-0.1-6c2.4-6.8,8.9-11.1,15.8-12.3c-0.1,0-0.3,0-0.4,0c-5.5,0.7-13.9,4.4-16.3,9.8
		c-1.5,3.3-1,8.8,1.6,11.6c0.8,0.9,1.5,1.7,1.8,2.9c1,5.3-11.8,4-14,3c-4.1-1.9-6.1-5.2-7.6-9.4c-1-2.8-1.7-6.1-3.4-8.5
		c-1.6-2.3-3.8-3.3-6.1-4.5c0,0.1,0,0.2,0,0.3c0.4,0.1,0.8,0.3,1.2,0.5c3.8,1.7,5.7,5.1,6.7,9c1.2,4.6,1.8,11.5,7.3,13
		c4,1.1,11.8,2.5,15.6-0.1C833.8,307.6,828.7,303.5,828,301.1z"/>
	<path fill="none" d="M399.7,102.6c19.1,3.5,39.5,0.9,58.6-0.8c32.4-2.8,64.6-9.7,97.2-8.4c33.1,1.3,66.1,2.7,99.2,3.7
		c32.7,1,65.6,2.5,98.2-1c15.9-1.7,31.8-4,47.7-5.2c12.9-1,25.7-0.9,38.6-0.8c0.1-0.6,0.3-1.2,0.4-1.8c0,0-0.1-0.1-0.1-0.1
		c-0.6-0.8,0.7-1.8,1.4-1.1c1.2,1.2,5.4,0.5,6.8,0.4c2.8-0.2,5.5-0.5,8.3-0.8c5.5-0.7,10.8-1.3,16.4-1.5c22.4-0.7,44.7-0.7,67.1-0.7
		c7.4,0,14.8,0,22.2,0c-1.1-0.1-2.2-0.1-3.3-0.2c-14.7-0.9-29.1-2.3-43.9-2.3c-21.7,0-43.4-1-65.1-1.2c-21-0.2-41.8,0.8-62.7,3
		c-32.3,3.4-64.8,3.7-97.3,5.9c-32.7,2.2-65.3,1.2-98.1,0.6c-32.9-0.5-65.7,1.3-98.5,2.4l-91.2,2.1c0.1,0.4-0.1,0.9-0.6,0.9
		c-0.2,0-0.3,0-0.4,0C400.4,98,400.1,100.3,399.7,102.6z"/>
	<g>
		<path fill="none" d="M412.2,109.9c0.9,0.3,2,0.7,3,1.2c-0.8-0.9-2.1-1.3-3.7-1.4c0,0.1-0.1,0.2-0.1,0.2
			C411.6,109.9,411.9,109.8,412.2,109.9z"/>
		<path fill="none" d="M396.5,122c0,0.1,0,0.2-0.1,0.3c0,0.2-0.1,0.3-0.2,0.4c-0.2,0.5-0.4,1-0.5,1.4c0.1,1.1,0,2.2-0.2,3.2
			c0.2,0.7,0.4,1.4,0.7,2.1c0.1,0.1,0.2,0.2,0.2,0.3c1.8,0.2,3.6,0.3,5.4,0.5c1.3,0.1,2.6,0.2,4,0.3c1-1.2,1.8-2.5,1.9-4.4
			c0.1-1.6,0.1-3.1-0.1-4.6c-0.1,0-0.1-0.1-0.2-0.2c-0.6-0.8-1.1-1.7-1.6-2.5c-0.2-0.2-0.3-0.5-0.4-0.7c-1.5-0.8-3.1-1.2-4.8-1.2
			c-0.1,0.1-0.2,0.1-0.3,0.2c-1,0.9-2.1,2.2-3,3.7C396.9,121.1,396.7,121.6,396.5,122z"/>
		<path fill="none" d="M410.4,130.4c0.4,0,0.8,0.1,1.2,0.1c-0.1-0.6-0.1-1.2-0.2-1.8c-0.5-0.1-0.9-0.8-0.4-1.2
			c0.1-0.1,0.2-0.2,0.3-0.3c-0.3-3.2-0.6-6.5-0.4-9.6c-0.2,0.1-0.6-0.2-0.4-0.5c-0.3-0.2-0.7-0.3-1-0.5c0,0,0,0.1,0.1,0.1
			C410.3,121.2,410.6,125.9,410.4,130.4z"/>
		<path fill="none" d="M407.1,115.9c0.3,0.2,0.5,0.5,0.7,0.8c0,0,0,0.1,0.1,0.1c0.1-0.3,0.3-0.5,0.6-0.6c-0.1,0-0.2-0.1-0.3-0.1
			c-0.3-0.2-0.4-0.5-0.4-0.8c-0.3-0.2-0.5-0.4-0.6-0.7c-0.2-0.1-0.5-0.2-0.6-0.4c-0.4-0.1-0.8-0.4-1-0.8c-0.3,0.1-0.6,0.1-0.8,0.1
			c-0.3,0.3-0.6,0.5-1,0.7c1.2,0.3,2.3,0.8,3.2,1.6C407,115.8,407.1,115.8,407.1,115.9z"/>
		<path fill="none" d="M397.2,118.6C397.2,118.6,397.2,118.6,397.2,118.6c0.5-0.7,1.1-1.3,1.7-1.8c-0.2,0-0.5,0-0.7,0
			C397.8,117.4,397.5,118,397.2,118.6z"/>
		<path fill="none" d="M397.5,102.1C397.5,102.1,397.6,102.2,397.5,102.1c0.5-2.4,1-4.8,1.2-7.2c-0.2-0.3-0.2-0.7,0.1-0.9
			c0.1-1.9,0.2-3.7,0.2-5.6c-0.1,0-0.2,0-0.3,0C398.6,93,397.9,97.6,397.5,102.1z"/>
		<path fill="none" d="M396.9,111.1c0.1,0.1,0.2,0.2,0.3,0.3c0.4,0,0.7,0.2,1.7-0.2c0,0,0,0,0,0c-0.6,0-1.3-0.1-1.8-0.3
			C397,111,397,111.1,396.9,111.1z"/>
		<path fill="none" d="M395.7,103.6c-0.1,0.1-0.2,0.2-0.3,0.2c0,0.4,0,0.8,0,1.1c0,0.1,0,0.1,0.1,0.2c0.1,0,0.1,0,0.2,0
			C395.6,104.6,395.7,104.1,395.7,103.6z"/>
		<path fill="none" d="M397.1,81.3c0,1-0.1,2-0.1,3c0.1-0.4,0.1-0.8,0.2-1.2C397.2,82.5,397.2,81.9,397.1,81.3z"/>
		<path fill="none" d="M21.6,288.7c0.4-4.8-3.1-9.4-6.6-12.3c-0.5-0.4-1.2,0.3-0.7,0.7c3.3,3,6,7.1,6.1,11.7
			C20.4,289.5,21.5,289.4,21.6,288.7z"/>
		<path fill="none" d="M412.2,118.1c-0.1-0.1-0.2-0.1-0.3-0.2c0,0,0,0.1,0,0.1c0.2,0.8,0.3,1.7,0.4,2.5c0-0.7-0.1-1.5-0.1-2.2
			C412.1,118.2,412.2,118.2,412.2,118.1z"/>
		<path fill="none" d="M414.2,122.6C414.2,122.6,414.2,122.7,414.2,122.6c-0.2,0.1-0.3,0.1-0.4,0c0.1,0.6,0.1,1.3,0.2,1.9
			c0.2-0.2,0.4-0.5,0.6-0.7c0-0.4,0-0.8,0-1.2C414.4,122.7,414.3,122.7,414.2,122.6z"/>
		<path fill="none" d="M396.7,109.1c0-0.3,0-0.6,0.1-0.9c-0.1,0.1-0.2,0.1-0.4,0.1c0,0.2,0,0.3,0,0.5c0,0.1,0,0.1,0,0.2
			c0.1,0,0.1,0,0.2,0C396.5,109.1,396.6,109.1,396.7,109.1z"/>
		<path fill="none" d="M118,321.7c0.5,0,0.9-0.3,0.9-0.9c0-0.2,0-0.3,0-0.5c0-0.1,0-0.2,0-0.2c0-0.1,0-0.3,0-0.4
			c0-1.1-1.7-1.1-1.7,0c0,0.1,0,0.3,0,0.4c0,0.1,0,0.1,0,0.2c0,0.2,0,0.3,0,0.5C117.1,321.4,117.5,321.7,118,321.7z"/>
		<path fill="none" d="M134.4,293.1c0.3-0.4,0.7-0.6,0.9-1c0.1-0.2,0.3-0.2,0.4-0.2c7.1-8.5,22.7-6.1,32.1-1.2c-1.7-0.8-3-2.2-5-2.8
			c-2.7-0.9-5.4-2.1-8.3-2.2c-6.4-0.2-13.9,0.4-18.7,5.1c-2.1,2.1-3.6,2.8-5.4,3.1c1.1,0,2.3-0.1,3.4-0.1
			C134.1,293.7,134.3,293.4,134.4,293.1z"/>
		<path fill="none" d="M170.3,292.2c0.2-0.1,0.4-0.2,0.6-0.3c0,0-0.1-0.1-0.1-0.1c-0.2-0.1-0.3-0.3-0.5-0.4c-0.1,0-0.3,0-0.5,0
			c-0.7-0.1-1.3-0.3-1.9-0.6c0.8,0.4,1.5,0.8,2.2,1.3C170.3,292.1,170.3,292.2,170.3,292.2z"/>
		<path fill="none" d="M62.2,294.7c0.1,0,0.2-0.1,0.2-0.1c-0.2,0.3-0.1,0.9,0.4,1.1c0.1,0,0.2,0.1,0.4,0.1c0.1,0.3,0.3,0.5,0.6,0.4
			c0.1,0,0.2,0,0.3-0.1c1.5,0.5,3,0.8,4.6,1.1c0.1,0.2,0.4,0.4,0.7,0.5c0.3,0.1,0.5,0.1,0.8,0.2c0.1,0,0.3,0.1,0.4,0.1
			c0.1,0.1,0.1,0.2,0.2,0.2c0.9,0.5,1.6,0.9,2.6,1.2c0.3,0.1,0.5,0.1,0.7-0.1c0.5,0.2,1,0.3,1.5,0.4c0.6,0.2,1.2,0.3,1.8,0.4
			c0.3,0.2,0.6,0.2,0.9,0c0.1,0,0.2,0,0.3,0c0.5,0,1-0.3,1.1-0.9c0.1-0.6,0.2-1.3,0.3-1.9c0.1-0.7-0.5-1.1-1.1-1.1
			c0-0.1,0-0.1-0.1-0.2c0.2,0,0.4,0,0.5,0c1.6,0,0.3,3.2,0.1,3.8c-0.1,0.3,0.3,0.7,0.6,0.5c2-1.3,2.7-3.1,1.6-5.3
			c-0.8-1.6-3.9-1.2-5.3-1.5c-3.7-0.8-11.8-3.1-14.7,0.5C61.4,294.4,61.8,294.9,62.2,294.7z"/>
		<path fill="none" d="M78.9,274.8c-1.1,0.5-1,2.6-1,3.5c-0.1,2.2,0.1,4.4,0.1,6.6c0,0.9,1.4,0.9,1.4,0c0-1.1,0-2.2,0-3.3
			c0.1,0,0.1,0,0.2,0c0,0,0.1,0,0.1,0c0.2,0,0.3-0.2,0.3-0.4c0-0.2-0.1-0.4-0.3-0.4c0,0-0.1,0-0.1,0c0,0-0.1,0-0.1,0
			c0-0.6,0.1-1.3,0.3-1.9c0.4,0.4,0.9,0.8,1.3,1.2c0.1,0.3,0.2,0.5,0.3,0.8c0.4,0.8,1.6,0.2,1.4-0.6c-0.5-1.9-1.3-3.5-2.8-4.6
			c-0.4-0.3-0.8-0.1-1,0.2c0.1-0.3,0.1-0.7,0.3-0.9C79.3,274.9,79.1,274.7,78.9,274.8z"/>
		<path fill="none" d="M55.5,314.9c0,0.1,0,0.1,0,0.2c0.2,0.7,1.1,0.8,1.5,0.2c0.1-0.2,0.2-0.4,0.3-0.6c0.4,0,0.8-0.3,0.9-0.8
			c0,0,0,0,0-0.1c0,1.4,0,2.7,0,4.1c0,0.5,0.4,0.8,0.8,0.8c0.4,0,0.8-0.3,0.8-0.8c0,0,0-0.1,0-0.1c0.1-0.1,0.2-0.2,0.2-0.3
			c0.7-2.1,0.3-4.9,0.3-7c0-1.9-0.1-4-0.7-5.8c0-0.6,0-1.1,0-1.7c0-0.7-0.9-0.7-1.1-0.2c0,0,0,0-0.1,0c-0.1,0-0.2,0-0.3,0
			c0,0-0.1,0-0.1,0c0,0,0,0,0,0c-0.2,0.1-0.3,0.4-0.2,0.6c0,0.1,0,0.1,0,0.2c-0.1,0.8-0.1,1.6-0.2,2.4c-0.1,1.9-0.2,3.7-0.4,5.6
			c0,0.1,0,0.1,0,0.1c-0.2,0.1-0.3,0.2-0.3,0.4c0,0.1,0,0.2-0.1,0.3c-0.4,0.1-0.6,0.4-0.7,0.8c-0.7,0-1.2-0.1-1.5-0.8
			c-0.3-0.8-1.4-0.5-1.2,0.3C53.6,314.1,54.4,314.8,55.5,314.9z"/>
		<path fill="none" d="M386.9,213.1c0,0.6,0,1.2-0.1,1.8c0.2,0.1,0.4,0.2,0.6,0.3C387.3,214.5,387.1,213.8,386.9,213.1z"/>
		<path fill="none" d="M205.6,286c0.9-1.8,1.4-3.6,1.8-5.5c0.3-0.1,0.6-0.3,0.7-0.6c0.5-1.7,0.6-3.4,0.4-5c0.3-0.7,0.8-1.5,0.7-2.3
			c-0.2-1.6-0.7-3.1-1.2-4.7c-0.1-0.5-0.2-0.9-0.4-1.4c-0.2-0.6-0.9-0.7-1.3-0.5c-0.5-0.2-1.1,0.1-1.1,0.7c0,1.6,0,3.2,0.1,4.8
			c0,0.2,0.1,0.4,0.3,0.6c-0.2,0.6-0.3,1.2-0.4,1.8c0,0.2,0.1,0.5,0.2,0.6c-0.1,0.3-0.2,0.6-0.3,0.9c-0.2,0.6,0.2,1,0.6,1.1
			c0,0.7,0,1.5,0.2,2.2c0,0.3-0.1,0.5-0.1,0.8c-0.4,2-1,3.9-1.8,5.9C203.6,286.3,205.2,286.9,205.6,286z"/>
		<path fill="none" d="M242.4,292.7c0.4-0.3,0.8-0.5,1.2-0.8c-0.5-0.3-1-0.6-1.5-0.8c-0.4-0.2-0.8-0.3-1.1-0.4
			c-2.1-0.2-4.3-0.3-6.4-0.2c-0.2,0-0.3,0.1-0.5,0.1c2.6,0.1,5.3,0.6,7.8,1.6C242.2,292.2,242.4,292.4,242.4,292.7z"/>
		<path fill="none" d="M214.8,301.4c-3.3-2.9-6.8-5.7-9.3-9.2c-0.4-0.5-0.1-1.2,0.2-1.6c2.8-3.5,4-8.5,5.2-12.8
			c1.6-5.8,1-12.5-5.5-14.5c8.8,4.7,4.6,20.9-2,28.3C207.2,294.7,210.5,299.1,214.8,301.4z"/>
		<path fill="none" d="M177,316.5c0.7,0,1.4,0.1,2,0.4c0.2,0.3,0.4,0.7,0.6,1.1c-0.6-0.4-1.2-0.7-1.8-1c-0.6-0.2-1,0.6-0.6,1.1
			c0.8,0.8,1.8,1.3,2.7,1.9c0.4,0.3,0.9,0.6,1.3,0.9c2.6,5,4.3,10.4,6,15.8c-0.2-0.3-0.4-0.6-0.6-0.9c-0.6-0.8-1.2-1.5-1.7-2.3
			c-0.1-0.1-0.2-0.3-0.2-0.4c0-0.3-0.2-0.6-0.4-0.7c-0.3-0.8-0.5-1.6-0.8-2.3c-0.2-0.4-0.8-0.2-0.9,0.1c-0.4,1-0.1,2,0.4,2.9
			c0,0-0.1,0.1-0.1,0.1c-0.3-0.4-0.6-0.7-0.9-1.1c-0.3-0.3-0.7,0.1-0.4,0.4c0.3,0.3,0.5,0.7,0.8,1.1c-0.4,0.3-0.8,0.5-1.2,0.8
			c-0.3,0.2-0.5,0.8-0.1,1c1.8,1.4,3.3,3,4.8,4.7c0.2,0.2,0.4,0.2,0.5,0.2c1.1,1.3,2.2,2.5,3.4,3.6c0,0,0,0,0,0
			c1.1,3.2,2.4,6.4,4,9.4c0.5,0.9,1.9,0.1,1.4-0.8c-4.7-9.6-6.8-20.4-11.6-29.9c0.5,0.2,1-0.4,0.8-0.9c-0.9-1.9-2.7-5-5-5.7
			c-0.1,0-0.1-0.1-0.2-0.1c-0.7-0.2-1.3-0.2-2.1,0.1C176.7,316.2,176.7,316.6,177,316.5z"/>
		<path fill="none" d="M177.4,358.7c-0.2-2.6,1.9-4.1,3.5-5.8c0.3-0.3-0.1-0.7-0.5-0.5c-1.9,1.7-4,3.5-3.8,6.2
			C176.7,359.1,177.4,359.1,177.4,358.7z"/>
		<path fill="none" d="M414.5,121.7C414.5,121.7,414.5,121.8,414.5,121.7c0-0.8,0-1.7-0.1-2.6c-0.4-0.2-0.7-0.4-1.1-0.5
			c0.2,1.1,0.4,2.3,0.5,3.5c0,0,0,0,0.1-0.1C414,121.9,414.2,121.7,414.5,121.7z"/>
		<path fill="none" d="M423.3,338.7c-0.4,0-0.3,0.5,0,0.5c0.5,0,0.9,0,1.3,0c0,0.2,0.2,0.4,0.4,0.4c3.1-1,5.6,0.1,8.6,0.4
			c3.5,0.4,6.8,0.1,10.3-0.1c5.7-0.5,12.1-0.9,17.3,1.8c1.5,0.8,2.8-1.5,1.3-2.2c-5.5-2.5-11.5-2.1-17.4-1.5
			c-4.4,0.4-8.5,1.2-12.8,0.5c-1.4-0.2-2.6-0.4-3.8-0.3c1.5-0.8,2.8-1.9,4.1-3.2c1.5-1.5,2.8-3.2,4.2-4.8c-0.4-0.2-0.9-0.4-1.4-0.6
			C432.1,333.6,429.2,338.4,423.3,338.7z"/>
		<path fill="none" d="M443,334.6c-0.1,0-0.1,0.1,0,0.1c2.5,0.1,5,0.4,7.4,0.5c-0.7-0.2-1.4-0.5-2.1-0.7
			C446.6,334.5,444.8,334.5,443,334.6z"/>
		<path fill="none" d="M413.5,311.6c-1,0.4-0.6,1.8,0.4,1.6c1.1-0.3,2.2-0.6,3.4-0.9c0.1-0.7,0.4-1.5,0.7-2.3
			C416.4,310.5,414.9,311,413.5,311.6z"/>
		<path fill="none" d="M494.9,346.6c1.6,2.2,2.1,5.2,3.2,7.6c0.5,1.1,2.4,0.3,1.9-0.8c-1.4-3.5-2.4-6.4-4.4-8.7c-1-0.1-2-0.2-3-0.3
			C493.4,345,494.2,345.7,494.9,346.6z"/>
		<path fill="none" d="M486.2,248.7c7.6,0.6,15.1,0.5,22.7,0c15.8-0.9,31.5-1.7,47.3-0.7c16.1,1,32.2,2.7,48.3,3.4
			c7.4,0.3,14.9,0.2,22.3,0.1c6.3,0,12.7,0.4,19.1-0.1c-0.5-12.7-2.6-25.2-2.3-37.9c0.3-13.4,1.8-26.6,2.8-40
			c1-14,1.3-28.2,0.7-42.3c-0.2-3.8-0.1-7.5-0.1-11.3c0-1.5,0.4-4.7,0.2-7.2c-15.1-0.3-30.3,0.4-45.4,0.8c-15.6,0.4-31,1.5-46.6,2.7
			c-15.3,1.2-30.6,1.2-45.9,1.1c-7.7-0.1-15.4,0-23-0.5c-5.5-0.4-11.4,0-16.8-1.6c0.1,0.1,0.1,0.2,0.1,0.3c0.3,12.4-0.3,24.7-0.5,37
			c-0.1,8.2-0.2,16.3-0.5,24.5c0.2,0.3,0.4,0.6,0.6,0.8c0.6,0.8,0.1,1.5-0.6,1.7c-0.1,2.5-0.2,4.9-0.3,7.4
			c-0.5,11.6-1,23.3-1.5,34.9c-0.2,5.1-0.4,10.3-1.1,15.4c-0.5,3.8-1.2,8-0.2,11.8C472.3,247.8,479.2,248.1,486.2,248.7z"/>
		<path fill="none" d="M423.6,292.3c1.2-5.5,2.1-11,2.5-16.6c0.3-3.8,1.6-11.1-0.7-14.5c-0.2-0.3-1.4,0.6-2,0.4
			c-1.4-0.4-2.5-1.7-3.2-2.9c-1.5-2.5-0.9-5.2-1.1-8c-0.4-4.5-2.6-7.1-4.8-10.8c-1-1.7-0.4-3.5,0.1-5.3c1-3.3,0.2-6.7,0.9-10.1
			c1.5-7.5,4.4-12.5,10.4-17.3c3.3-2.6,6.7-6,10.9-6.8c-0.3-4.1-0.9-10.3,2.5-13.2c3-2.5,7.1-2.9,10.5-0.7c1.8,1.2,2.7,3.6,2.9,5.6
			c0.1,1.4-0.3,3.1,0.7,4.3c0.5,0.5,0.9,1,1.1,1.6c0.4,1.5-0.8,3-1.8,3.9c-1.6,1.4-2.6,3.3-3.8,4.9c6.4,3.3,5,14.2,5,20.5
			c2.2-1,3.1-4,4.6-5.7c1.8-2.1,4.3-3.2,6.1-5.4c0,0,0,0,0,0c0.5-9.8,1-19.6,1.5-29.5c0.1-2.8,0.2-5.5,0.4-8.3
			c-0.1-0.8-0.1-0.8-0.5-1.7c-1.1-2.2-1.8-4.6-3.4-6.6c-2.4-3.1-5-5.8-7.9-8.4c-5.3-4.7-10.8-9.5-17-13c-9.9-5.6-22.3-8.9-34.1-10.4
			c-4.1,0.3-8.1,0.6-12.2,0.8c-3.7,0.1-8.9,1-12.3-0.7c-0.1,0-0.2-0.1-0.3-0.1c-10,1.4-19.7,4.3-30,6.2c-6.4,1.2-12.9,2.1-19.5,2
			c-5-0.1-10.1-1.1-15.1-0.8c0.8,4.9,1.6,9.9,2.5,14.8c2.9,14.9,10.4,30.3,9,45.8c1,5.1,2,8.3,2.1,12c0,0.1,0,0.1,0,0.2
			c2.7,0.3,5.3,0.5,8,0.3c3-0.2,6.3-0.7,9.5-1.3c-0.1-0.1-0.2-0.3-0.2-0.5c-0.1-4.8,1.6-9.6,3-14.3c-0.1-0.1-0.2-0.2-0.3-0.4
			c-0.5-1.4,2-2.8,3-3.1c1.4-0.4,3.4,0,5-0.3c1.4-0.2,3.1-0.5,4.1-1.5c0.3-0.5,0.7-1,1.2-1.4c0.4-0.4,0.8-0.4,1.1-0.3
			c0.3-0.2,0.8-0.1,0.8,0.3c0,0.1,0,0.3,0,0.4c0.1,0.2,0.2,0.5,0.1,0.8c0,0.1,0,0.1,0,0.2c0.4,4.6,1.4,9.3,1.9,13.9
			c0.6-2.4,1.6-4.7,2.3-7.1c0,0-0.1-0.1-0.1-0.1c-0.1-0.2-0.1-0.4-0.2-0.6c-0.5-0.4-1.1-0.7-1.8-0.6c-0.6,0.1-0.9-0.9-0.3-1.2
			c0.5-0.2,1-0.5,1.5-0.8c-0.1-0.3,0.2-0.7,0.6-0.7c0.3-0.2,0.7-0.3,1,0c0.1,0.1,0.3,0.3,0.4,0.5c0.1,0.2,0.3,0.4,0.4,0.6
			c0.1,0.2,0.1,0.5,0,0.7c0.2,0.1,0.4,0.3,0.6,0.4c0.1,0,0.1,0.1,0.1,0.1c0,0,0,0,0,0c0.5,0.2,0.4,1-0.1,1c0,0,0,0,0,0
			c-0.3,1.8-0.2,3.7-0.3,5.6c0.1,2.4,0.3,4.8,0.2,7.1c0.6-2.8,1-5.6,1.7-8.4c0.8-3.5,2.4-6.7,2.6-10.3c-0.4-0.7-0.7-1.5-0.8-2.4
			c-0.1-0.5,0.6-0.7,0.8-0.2c1.3,3.2,3.5,4.7,6.8,5.5c2.1,0.5,4.5,0.8,6.3,1.9c0.7,0.4,0.6,1.3,0,1.7c0.2,1.1,0.6,2.2,0.9,3.4
			c0.3,0.6,0.5,1.2,0.6,1.8c1.9,5.6,4.2,11.7,2.3,17c-0.1,0.4-0.4,0.6-0.7,0.6c-0.2,1.2-0.6,2.4-1.4,3.4c-1.3,1.7-3.4,2.1-5.3,1.7
			c0,0.2,0,0.3,0,0.5c0.2,0.1,0.4,0.4,0.3,0.7c-0.6,4.1-0.4,8.9-0.3,13.1c0,4,1.2,7.9,1.2,11.9c0,0.7-0.6,1.3-1.2,1.2
			c-0.5,0-0.9,0-1.4,0c-0.3,3.2-0.4,6.5-0.8,9.7c-0.3,2.2-0.6,4.6-0.6,6.9c0.2,1.3,0.4,2.6,0.5,4c0.9,7.5,2,15.6,2.2,23.4
			c1,0,2-0.1,3.1-0.1c4.9-0.3,16.8-2.1,19.5,3.7c1.3,2.7,1.4,5.7,1.8,8.6c0.1,1.1,0.3,2.3,0.6,3.3c0.5,1.5,3.4,4.9,1.8-0.4
			c-0.6-2.2-1.4-4.3-1.8-6.5c-0.1-0.7,0.5-1.2,1.1-1.2c0.1-0.2,0.3-0.3,0.5-0.3c2.9-0.3,5.7-0.8,8.5-1.4c-0.1-2.3,1-4.5,2-6.5
			C421.7,299.1,422.8,295.9,423.6,292.3z"/>
		<path fill="none" d="M425.3,121c0.1,0.5,0.1,1,0.2,1.5c0.3,0,0.5,0.2,0.6,0.5c0.3,1.5,0.5,3,0.5,4.5c0.2,1.9,0.3,3.8-0.6,5.7
			c0,0,0,0.1-0.1,0.1c0,0.1,0,0.2-0.1,0.3c0.1,0.2,0.2,0.4,0.2,0.6c0,0,0.1,0,0.1,0C427.2,130.6,427.6,124.2,425.3,121z"/>
		<path fill="none" d="M616.1,344.8c4.7,1.6,9.3,3.5,13.7,5.7c1.2,0.6,2.2-1.1,1-1.8c-1.4-0.8-2.8-1.6-4.3-2.2
			c-1.3-0.2-2.5-0.3-3.8-0.6C620.5,345.6,618.3,345.2,616.1,344.8z"/>
		<path fill="none" d="M807.1,297.4c1.2,4.6,1.8,11.5,7.3,13c4,1.1,11.8,2.5,15.6-0.1c3.8-2.7-1.3-6.9-2-9.2c-0.6-1.9-0.8-4.1-0.1-6
			c2.4-6.8,8.9-11.1,15.8-12.3c-0.1,0-0.3,0-0.4,0c-5.5,0.7-13.9,4.4-16.3,9.8c-1.5,3.3-1,8.8,1.6,11.6c0.8,0.9,1.5,1.7,1.8,2.9
			c1,5.3-11.8,4-14,3c-4.1-1.9-6.1-5.2-7.6-9.4c-0.9-2.5-1.6-5.3-2.9-7.7c-0.1,0.2-0.1,0.5-0.2,0.7
			C806.3,294.8,806.8,296.1,807.1,297.4z"/>
		<path fill="none" d="M501.9,350.9c-0.5,1,1,1.9,1.6,0.9c1.2-1.9,1.9-4.2,2.2-6.6c-0.7,0-1.4,0-2-0.1
			C503.3,347.2,502.8,349.2,501.9,350.9z"/>
		<path fill="none" d="M730.4,343c3.3,1.4,2.9,3.8,4.6,6.6c0.8,1.3,2.7,0.2,2-1.2c-1-1.5-1.5-3.2-1.5-5c0-0.6-0.4-1-0.9-1.2
			c-2-0.8-4-1.7-6-2.5c-2.1-0.1-4.2-0.1-6.3-0.2C725,340.6,727.7,341.8,730.4,343z"/>
		<path fill="none" d="M687.1,358.7c0.1,0.8,1.3,0.8,1.2,0c-0.3-3.4-0.7-6.9-1.5-10.4c7.9,0.2,15.1,3.1,22.3,6
			c3.1,1.3,7.1,2.1,8.9,5.2c0.9,1.6,5.2,0.9,6.7,0.9c1.3,0.1,1.6-2.1,0.3-2.3c-0.8-0.1-5-0.2-5.4-0.7c-0.5-0.8-1.3-1.3-2.1-1.9
			c-2.2-1.7-5.3-2.3-7.9-3.3c-7.4-2.6-15.2-5.8-23.2-5.2c-0.4-1.4-0.8-2.8-1.4-4.1c-0.4,0.1-0.7,0.1-1.1,0.2
			C686.1,348,686.6,353.6,687.1,358.7z"/>
		<path fill="none" d="M387.6,115.3c-0.1-0.1-0.2-0.2-0.3-0.2c0,0,0,0,0,0c-0.3,0.1-0.6,0.3-1,0.4c-0.7,0.2-1.3,0.4-1.9,0.6
			c1.1-0.1,2.2-0.3,3.3-0.4C387.7,115.5,387.7,115.4,387.6,115.3z"/>
		<path fill="none" d="M394,109.5c-0.1,0.3-0.3,0.5-0.6,0.6c0,0.1,0,0.1,0,0.2c-0.1,0.6-0.7,0.8-1.1,0.5c0,0,0,0.1-0.1,0.1
			c0,0.2,0,0.5-0.2,0.7c0.1,0.2,0.1,0.4-0.1,0.5c0,0,0,0.1-0.1,0.1c0.1,0.1,0.2,0.2,0.2,0.3c0.8-1.1,1.5-2.1,2.1-3.4
			c0,0-0.1-0.1-0.1-0.2C394,109.1,394,109.3,394,109.5z"/>
		<path fill="none" d="M390.4,118c-1.2,0.2-2.4,0.4-3.5,0.5c-0.9,0.1-1.7,0.2-2.6,0.3c0,0,0,0.1-0.1,0.1c0,0,0,0,0,0
			c1,0.3,0.6,1.7-0.4,1.5c-0.3-0.1-0.6,0-0.8,0.1c-1.3,2.5-1.1,5.6-0.4,8.2c0,0,0,0.1,0,0.1c3-0.1,5.9,0.1,8.8,0.4
			c0.4,0,0.7,0.1,1.1,0.1c0.5-0.6,0.7-1.3,0.9-1.9c0.1-0.5,0.1-1.1,0.3-1.7c0-0.4,0.1-0.8,0.1-1.3c0,0,0,0,0,0
			C393.5,121.9,392.8,119.3,390.4,118z"/>
		<path fill="none" d="M379.2,116.3c0,0.1,0,0.2-0.1,0.2c0.4,0,0.9-0.1,1.3-0.1c-0.2-0.2-0.2-0.4-0.1-0.7c-0.2-0.2-0.2-0.4-0.2-0.6
			c-0.1-0.2,0-0.4,0.1-0.6c0.3-0.4,0.6-0.7,1-1c0.2-0.3,0.4-0.6,0.7-0.9c-0.1,0-0.1,0-0.2,0C380.6,113.6,379.1,114.9,379.2,116.3z"
			/>
		<path fill="none" d="M379.3,112.1c0,0.1,0,0.1-0.1,0.2c-0.8,0.7-1.7,1.4-2.6,2.1c0,0.1,0,0.2-0.1,0.3c-0.6,0.6-1.2,1.2-1.8,1.7
			c-0.1,0.2-0.1,0.3-0.2,0.5c0,0.1-0.1,0.1-0.1,0.2c0.7,0,1.4-0.1,2.2-0.1c0.5-0.1,1.1-0.1,1.6-0.2c0,0,0,0,0-0.1
			c-0.2-0.3-0.2-0.6-0.2-0.9c-0.1,0.2-0.2,0.4-0.3,0.6c-0.2,0.4-0.9,0.2-0.9-0.2c0-0.3,0.1-0.6,0.2-1c0-0.1,0-0.1,0.1-0.2
			c0,0,0,0,0,0c0.4-0.7,1-1.3,1.4-1.8C378.8,112.7,379.1,112.4,379.3,112.1C379.3,112.1,379.3,112.1,379.3,112.1z"/>
		<path fill="none" d="M423.3,130.5C423.3,130.5,423.3,130.5,423.3,130.5c0.2,0.1,0.4,0.1,0.6,0.1c0,0,0,0,0-0.1c0-0.7,0-1.3,0.1-2
			c0,0,0-0.1,0-0.1c-0.1,0.6-0.2,1.2-0.4,1.7C423.5,130.3,423.4,130.4,423.3,130.5z"/>
		<path fill="none" d="M423.1,133c-0.1-0.2-0.3-0.5-0.4-0.7c-0.4,0.1-0.8,0.2-1.2,0.4c-0.4,0.2-1,0.1-1.2-0.3c0-0.1-0.1-0.2-0.1-0.3
			c-0.3,0.2-0.5,0.5-0.7,0.7c1.3,0.3,2.7,0.5,4.1,0.5C423.4,133.3,423.2,133.2,423.1,133z"/>
		<path fill="none" d="M773.8,332.4c2.9-0.3,5.8-0.2,8.8-0.3c1.2-0.1,1.6-2,0.3-2.1c-0.4-0.1-0.7-0.1-1.1-0.1
			c-0.4,0.1-0.7,0.2-1.1,0.3C778.5,330.9,776.2,331.7,773.8,332.4z"/>
		<path fill="none" d="M458.3,101.8c32.4-2.8,64.6-9.7,97.2-8.4c4.7,0.2,9.5,0.4,14.2,0.6c2.3-0.2,4.7-0.3,7-0.4
			c15.5-0.2,30.9-0.2,46.4,1.4c7.7,0.8,15.1,0.8,22.8,0.7c2.8,0,7,1.2,10.3,1c0.2-0.1,0.4-0.1,0.6,0c0,0,0,0,0,0
			c1-0.1,1.9-0.3,2.7-0.8c1.1-0.7,2.2,0.4,2.2,1.4c4.7,0.1,9.4,0.3,14,0.4c0.3,0,0.5,0,0.8,0c7.8,0.1,15.6,0.4,23.4,0.1
			c15.1-0.6,30.1-1.7,45.2-2c8-0.2,16.2-0.3,24.1-1.6c7-1.2,13.9-2.5,21-3c4.1-0.3,8.3-0.4,12.5-0.4c10.8-0.8,21.5-0.8,32.3-0.7
			c1.3-0.1,2.9-0.3,4.4-0.2c0.1-0.5,0.2-1,0.4-1.5c0,0-0.1-0.1-0.1-0.1c-0.6-0.8,0.7-1.8,1.4-1.1c1.2,1.2,5.4,0.5,6.8,0.4
			c2.8-0.2,5.5-0.5,8.3-0.8c5.5-0.7,10.8-1.3,16.4-1.5c22.4-0.7,44.7-0.7,67.1-0.7c7.4,0,14.8,0,22.2,0c-1.1-0.1-2.2-0.1-3.3-0.2
			c-14.7-0.9-29.1-2.3-43.9-2.3c-21.7,0-43.4-1-65.1-1.2c-21-0.2-41.8,0.8-62.7,3c-32.3,3.4-64.8,3.7-97.3,5.9
			c-32.7,2.2-65.3,1.2-98.1,0.6c-32.9-0.5-65.7,1.3-98.5,2.4l-91.2,2.1c0.1,0.4-0.1,0.9-0.6,0.9c-0.2,0-0.3,0-0.4,0
			c-0.2,2-0.4,3.9-0.7,5.8c9.3,0.6,18.6,1.8,27.9,2.7C438.1,103.8,448.4,102.6,458.3,101.8z"/>
		<path fill="none" d="M391.8,88.4c0,0-0.1,0-0.1,0c0,1.1,0,2.3,0.1,3.4C391.8,90.6,391.8,89.5,391.8,88.4z"/>
		<path fill="none" d="M374,116.7c0-0.1,0-0.3,0.1-0.4c0,0,0,0,0-0.1c0.2-0.8,1-1.5,1.6-2c1-0.8,2-1.6,3-2.4c-0.3-0.1-0.6-0.2-1-0.3
			c-1.5,1.9-3.3,3.9-5.4,5.4c0.6,0,1.3,0,1.9-0.1C374.1,116.9,374,116.8,374,116.7z"/>
		<path fill="none" d="M423.6,119.5c-0.3-0.1-0.6-0.2-0.9-0.3c-3-0.7-4.9-1.2-5.7-3.2c0,0,0,0,0,0c-0.1,0.3-0.2,0.6-0.2,0.8
			c-0.1,0.3-0.3,0.5-0.5,0.6c2.3,0.9,4.5,1.7,6.9,2.4C423.2,119.7,423.4,119.5,423.6,119.5z"/>
		<path fill="none" d="M392.8,114.8C392.8,114.8,392.8,114.8,392.8,114.8c0.1-0.2,0.2-0.3,0.3-0.5c-0.1-0.1-0.2-0.3-0.2-0.4
			c-0.4,0.2-0.9,0.1-1.1-0.2c-0.1,0-0.1,0.1-0.2,0.1c-0.2,0.2-0.4,0.4-0.6,0.6c-0.1,0.1-0.1,0.2-0.3,0.3c0,0-0.1,0.1-0.1,0.1
			c-0.2,0.2-0.5,0.3-0.8,0.5c0.6-0.1,1.3-0.2,1.9-0.3C392,114.9,392.4,114.9,392.8,114.8z"/>
		<path fill="none" d="M388.9,337.4c-6.4-1.1-13-3.4-19.5-3c-0.8,0-0.8,1.1,0,1.2c5.5,0.4,10.7,2.3,16.1,3.5c5.4,1.3,10,1.9,14,6.1
			c1,1.1,3-0.4,2.1-1.6C398.5,339.5,393.7,338.2,388.9,337.4z"/>
		<path fill="none" d="M598.7,379.3c-5.6-5.4-13.5-7-19.4-12c-0.5-0.4-1.1,0.3-0.7,0.7c5.8,5,13.4,7.1,19.3,12
			C598.5,380.4,599.2,379.8,598.7,379.3z"/>
		<path fill="none" d="M789.5,343c0.6-11.3,13.4-20.6,24.6-19c1.2,0.2,1.8-1.7,0.5-1.9c-11.9-2.3-26.5,8.7-26.1,21
			C788.5,343.6,789.5,343.6,789.5,343z"/>
		<path fill="none" d="M603.3,366.5c3.6-2.1,9.8-1.2,13.7-1.1c4.2,0.1,8.7,0.2,12.5-1.8c1.1-0.6,0.3-2.3-0.8-2
			c-5.6,1.9-11.2,1.5-17.1,1.9c-2.9,0.2-6.8-0.1-9,2.1C602.1,366.1,602.7,366.8,603.3,366.5z"/>
		<path fill="none" d="M622.3,388c-9.3,0.2-17.1-1.1-24.1-7.6c-0.7-0.7-1.7,0.4-1.1,1.1c6.9,7.1,15.5,9.3,25.2,8.4
			C623.5,389.8,623.6,388,622.3,388z"/>
		<path fill="none" d="M644.2,387.3c-4-1.3-12.8-3.9-16.3-0.5c-0.4,0.4-0.2,0.9,0.3,1.1c0.3,0.1,0.6,0.2,0.9,0.3
			c0.4,0.1,0.7-0.2,0.7-0.6c4.6-0.7,10.6,1.2,14.6,2.9c7,3,13.8,6,20.1,10.5c1.4,1,3-1.2,1.8-2.3
			C660.7,393.2,651.7,389.8,644.2,387.3z"/>
		<path fill="none" d="M402.7,325c-6.2-3.8-12.9-7-19.7-9.5c-3.8-1.4-12.8-4.8-15,0.7c-0.2,0.4,0.5,0.7,0.7,0.3
			c2.8-5.6,15,0.6,18.7,2.2c5,2.2,9.8,4.8,14.6,7.5C402.8,326.7,403.5,325.5,402.7,325z"/>
		<path fill="none" d="M381.5,354.9c-7-0.9-14.4-1.7-21.5-1.8c-0.8,0-0.8,1.2,0,1.2c3.4,0.2,6.7,0.9,10,1.3c3.9,0.4,7.6,2,11.5,1.9
			C383.2,357.5,383.1,355.1,381.5,354.9z"/>
		<path fill="none" d="M556.4,364.1c-10.7-7.5-24.6-3.7-36.7-3.5c-0.6,0-0.6,0.9,0,0.9c11.7-0.1,25.3-2.4,35.3,5.2
			C556.4,367.7,558,365.2,556.4,364.1z"/>
		<path fill="none" d="M360,284.3c0.4-12.3,1.9-24.3,0.7-36.5c0-0.1-0.1-0.3,0-0.4c-0.1-0.7-0.2-1.4-0.2-2.1
			c-7.5,0-14.9,0.7-22.4,0.9c-7.1,0.2-14.2-0.1-21.3,0c0.2,7.8-1.8,15.8-2.6,23.6c-0.2,2.3-0.4,4.6-0.6,6.9c1.6-1.4,3.5-2.4,5.6-2.9
			c7.9-1.9,14.7,2.9,16.4,10.6c1.2,5.1,1.7,10.5,2.6,15.7c0.8,4.8-3.1,7.8-4.9,11.7c6.8-2,14.4-3,20.8,0.1c0.8-2.9,3.6-4.7,6.6-5.8
			C360.1,298.8,359.8,291.5,360,284.3z"/>
		<path fill="none" d="M965,314.3c1.7,4.2,0.9,8,0.9,12.3c0,4.3,1.2,7.7,5,10c1.2,0.7,2.5,1.4,3.5,2.3c4.6,4.3,2.7,11.7,2,17.3
			c-0.8,6-2.1,12.1-2.6,18.1c-0.1,1.5-0.2,3.1-0.3,4.6c0-0.1,0-0.2,0.1-0.4c1.4-9.7,3.5-19.3,5.1-29c-0.4-0.2-0.7-0.6-0.7-1.2
			c-0.1-3.2-0.2-7-2.7-9.5c-1.6-1.6-3.5-3.1-5-4.8c-2.5-3-3.6-5.2-3.4-9.2c0.2-5.1-0.1-12.2-4.7-15.7c-3.1-2.4-6.7-3.8-10.4-4.4
			C957.6,306.1,962.9,309.1,965,314.3z"/>
		<path fill="none" d="M447.9,358.6c-4.1-0.6-8.1,0.2-12.2,0.4c-4.5,0.2-8.9,0.6-13.4,0.9c-0.5,0-0.6,0.7-0.1,0.8
			c8.1,1.7,16.7-1.4,24.9,0.7C449,361.9,449.8,358.8,447.9,358.6z"/>
		<path fill="none" d="M822,383.1c-1.2-0.1-2.5-0.2-3.7-0.2c-0.1-0.3-0.5-0.6-0.9-0.6c-2.5-0.1-4.8,0.2-7.2,0.8
			c-1.2,0.3-0.7,2,0.5,1.8c0.1,0,0.3,0,0.4-0.1c0.1,0.4,0.5,0.7,1.1,0.7c3.3,0.1,6.7,0.3,10,0C823.5,385.4,823.5,383.3,822,383.1z"
			/>
		<path fill="none" d="M54.8,383.3c-2,1.5-4,2.9-5.7,4.8c-0.3,0.4,0.2,0.9,0.5,0.5c1.7-1.8,3.6-3.2,5.6-4.6
			C55.7,383.7,55.2,383,54.8,383.3z"/>
		<path fill="none" d="M353.3,430.1c-6.7-0.4-12.6-2.7-19.4-1.6c-6.7,1.1-13.8,2.1-19.8,5.4c-0.6,0.3-0.1,1.2,0.5,0.9
			c5.8-3.1,13.1-3.6,19.6-4.3c6.7-0.7,12.6,2.4,19.2,2.1C354.9,432.5,354.9,430.2,353.3,430.1z"/>
		<path fill="none" d="M705.9,404.4c-7.9-1.3-15.9-2.4-23.8-3.8c-3.8-0.7-9.4-2.4-13-0.5c-0.3,0.2-0.1,0.6,0.2,0.6
			c12.3,0.7,24.1,4.3,36.3,5.6C706.8,406.4,707,404.6,705.9,404.4z"/>
		<path fill="none" d="M784.3,348.3c-10.4,0.1-20.8-1-31.1,1.2c-0.7,0.1-0.4,1.1,0.3,1c10.3-1.9,20.5,0.9,30.9,0.5
			C786.1,351,786.1,348.3,784.3,348.3z"/>
		<path fill="none" d="M754.4,373.7c-9.7-7.3-23.9-8.6-35.7-8.8c-6.6-0.1-12.9,1.9-19.3,3c-3.5,0.5-8.7,1-10.7,4.3
			c-0.2,0.4,0.3,0.7,0.6,0.5c3.2-3.1,8.5-3,12.6-3.5c6.2-0.8,11.9-2.2,18.2-1.8c11.4,0.8,22.9,3.2,32.8,9
			C754.6,377.3,756,374.8,754.4,373.7z"/>
		<path fill="none" d="M868.3,352.1c-10.1-3.5-22.7-3.9-32.9-0.1c-0.8,0.3-0.5,1.5,0.4,1.3c10.7-1.7,21.3-1.2,31.8,1.2
			C869.3,354.9,869.9,352.6,868.3,352.1z"/>
		<path fill="none" d="M878,305.8c-2.5-3.4-4.1-7.2-6.4-10.8c-0.4-0.6-1-1.6-1.6-2.6c-0.8-0.8-1.6-1.5-2.4-2.1c0.3,0.3,0.7,0.7,1,1
			c2.9,3.3,3.4,7.8,5.4,11.5c2.8,5.3,7.4,7.8,12.4,9.9C883.2,310.9,880.3,308.8,878,305.8z"/>
		<path fill="none" d="M839.7,288.9c0.5,0,0.6-0.5,0.4-0.8c0.7-0.2,1.5-0.3,2.2-0.3c0.9-0.1,0.9-1.5,0-1.4c-6,0.2-11.1,3.8-14.3,8.7
			c-0.5,0.8,0.6,1.6,1.2,1C831.9,292.9,835.3,289,839.7,288.9z"/>
		<path fill="none" d="M911.5,379.8c-4,0.8-8,1.3-12,2.4c-2.3,0.7-6.2,1.7-6.7,4.4c-0.1,0.3,0.3,0.3,0.4,0.1c1.3-3.1,7-3.7,9.9-4.3
			c2.9-0.6,5.9-0.9,8.7-1.5C912.6,380.7,912.3,379.6,911.5,379.8z"/>
		<path fill="none" d="M841.3,375c-4.8-0.2-10.5-3.5-15.1-1.1c-0.9,0.5-0.3,1.9,0.7,1.6c4.7-1.4,9.7,1.6,14.4,1.4
			C842.6,376.9,842.6,375.1,841.3,375z"/>
		<path fill="none" d="M924,319.1c-1.3,3.8-1.2,7.9,0.7,11.8c1.5,2.9,1.6,4.2-0.8,6.6c-1.8,1.8-3.8,2.5-5.9,3.8
			c-2,1.3-3.2,3.2-4.7,5c0.7,1.1-0.7,2.7-1.9,1.9c-3.9-2.9-2.2-9.6-3.5-13.7c-0.9-2.9-2-5.4-3.4-7.6c1.3,2.9,2.2,6.1,2.6,9
			c0.8,5.9,0.1,12.2,5.3,15.6c1.9-8.6,8.9-11.1,15.4-16.2C924.5,330.6,923,324.6,924,319.1z"/>
		<path fill="none" d="M799.9,382.7c-2.8,0-5.7-0.2-8.5-0.2c-0.7-0.1-1.4-0.2-2.1-0.3c-0.5-0.1-0.8,0.1-1,0.4c0,0-0.1,0-0.1,0
			c-0.9,0.1-0.9,1.3,0,1.4c0,0,0,0,0,0c-0.2,0.6,0,1.4,0.8,1.6c1.2,0.3,2.2,0.4,3.3,0.2c0.3,0,0.5,0,0.7-0.1
			c0.3-0.1,0.5-0.1,0.8-0.2c0.2-0.1,0.4-0.2,0.6-0.4c1.8-0.1,3.6-0.4,5.5-0.5C801.2,384.6,801.3,382.6,799.9,382.7z"/>
		<path fill="none" d="M173.7,432.9c0.7,0,1.2-1,0.6-1.5c-4.9-4.9-10.4-8.8-17-11c-7.1-2.5-15.1-1.4-22.7-1.8
			c-0.5-0.1-1.1-0.1-1.6-0.1c-0.4,0-0.9-0.1-1.3-0.1c-1.6-0.2-1.7,2.2-0.4,2.7c2.9,1.1,5.9,1.3,9,1.3c0.3,0.1,0.6,0.2,0.9,0.3
			c2,0.5,4,1.1,6,1.7c0.1,0.1,0.3,0.3,0.5,0.3c5.4,1.2,10.1,4.1,15.2,6c0.2,0.1,0.4,0.1,0.5,0.1c0.4,0.3,0.8,0.6,1.1,0.9
			c2,1.7,3.5,3.9,6.3,4.3c0.2,0,0.4,0,0.6,0c0.1,0.1,0.1,0.2,0.2,0.3c0.9,1.3,2.9,0.4,2.8-0.8c0.1-0.2,0.1-0.4,0.1-0.6
			C174.5,433.9,174.1,433.4,173.7,432.9z"/>
		<path fill="none" d="M84.2,290.7c-0.7-2.1,1-5.6,1-7.7c0-3.6-0.3-7.1-0.5-10.7c-0.1-2.9-0.3-6.4-1.5-9.3c-0.5-0.6-1.1-1.1-1.7-1.4
			c-3.3-1.8-6.6-3.3-10.1-4c-0.3,0.2-0.6,0.2-1,0.1c-1.9-0.7-4.6-0.6-7.5,0c3.9-0.5,8-0.1,11.2,0.7c5.6,1.5,9,4.4,9.3,10.5
			c0.3,4.3,1,8.3,1.4,12.6c0.4,4.4-1.9,8-2.5,12.1c1.3-0.2,2.8-0.3,4.3-0.4C85.5,292.6,84.6,291.9,84.2,290.7z"/>
		<path fill="none" d="M196.9,382.6c-15.6-4.5-32.3-5.6-47.9-0.8c-0.2,0.1-0.1,0.5,0.1,0.4c15.8-4.6,31.7-1.4,47.4,1.9
			C197.4,384.3,197.8,382.9,196.9,382.6z"/>
		<path fill="none" d="M214.1,351.9c-4.8-0.7-9.5,0.2-14.2,1.2c-6.1,1.3-12.4,1.7-18.3,3.6c-0.4,0.1-0.2,0.8,0.2,0.7
			c4.9-1.5,10-1.6,15-2.5c5.8-1.1,11.3-2.3,17.3-2C214.5,352.8,214.7,352,214.1,351.9z"/>
		<path fill="none" d="M249.3,501.6c-5.7-2.9-11.6-7.6-18.1-8.6c-1.2-0.2-1.7,1.5-0.5,1.8c5.7,1.8,10.7,5.3,15.9,8.1
			c6.7,3.6,12.8,6.9,18.2,12.4c0.9,0.9,2.6-0.3,1.8-1.4C262.3,508.2,255.7,504.9,249.3,501.6z"/>
		<path fill="none" d="M108.1,299.8c-1.4-0.4-2.4-1.7-3.4-2.6c-2.9-2.7-5.6-3.5-9.7-3.6c-0.2,0-0.3,0-0.5,0c5.3,1,10.2,3.3,12.9,7.6
			c0.9-0.8,1.8-1.5,2.8-2.1c-0.2,0-0.4,0-0.6,0.1C109.4,299.7,108.9,300,108.1,299.8z"/>
		<path fill="none" d="M240.1,360.4c0.8,1.3,3.1,0.4,2.6-1.1c-1.6-4.3-7.2-5.2-11.2-6c-6.7-1.2-13.3-3.9-20.2-3.3
			c-0.4,0-0.4,0.6,0,0.6c6.1,0,10.9,2.4,16.5,4.6C231.7,356.8,237.8,356.4,240.1,360.4z"/>
		<path fill="none" d="M77.1,350.3c-2.2-2.3-5.7-3.9-8.4-5.4c-2.7-1.4-5.8-2.2-8.7-3c-3.2-0.9-5.7-2.9-8.9-3.7c1.2,0,2.4,0,3.6,0
			c0.9-0.1,1.3-0.9,1.1-1.6c1.1-0.1,1.1-1.8-0.1-1.9c-1.2-0.1-2.5-0.2-3.8-0.4c-0.2-0.3-0.5-0.6-1-0.6c-0.7,0-1.4,0-2,0.1
			c-5.4-1.1-10.8-2.8-16.1-3.9c-2-0.4-12.2-3.4-13.4-0.3c-0.1,0.3,0.3,0.5,0.5,0.3c1.2-1.5,6.3,0.1,7.8,0.4c3.7,0.7,7.4,1.7,11,2.6
			c1.8,0.4,3.6,1,5.4,1.6c-0.4,0.1-0.8,0.2-1.2,0.4c-0.2,0.1-0.4,0.2-0.5,0.4c-0.6,0.1-1.3,0.2-1.9,0.3c0,0,0,0,0,0
			c-2.3,0-4.5,0.1-6.8,0.3c-1.8-0.2-3.6-0.5-5.4-0.8c-1.4-0.2-2,1.8-0.6,2.2c0.6,0.2,1.2,0.4,1.8,0.5c0,0,0,0.1,0,0.1
			c-1-0.2-1.9-0.4-2.9-0.6c-0.6-0.1-0.9,0.8-0.3,0.9c1.2,0.3,2.4,0.5,3.6,0.8c0.1,0.1,0.3,0.2,0.4,0.2c0.7,0.1,1.4,0.2,2.1,0.3
			c5.4,0.9,11,1.2,16.1-0.9c0,0,0,0,0.1,0c0,0,0,0,0,0c0.1,0,0.1-0.1,0.2-0.1c0.1-0.1,0.2-0.1,0.3-0.2c0.1,0,0.1,0,0.2,0
			c-0.3,0.3-0.3,1.1,0.3,1.2c3.1,0.6,5.6,2.3,8.4,3.7c2.3,1.1,5,1.6,7.4,2.4c3.7,1.3,7.4,3.9,10.4,6.3c2.1,1.8,3.2,4.9,5,7
			c0.8,0.9,2.4-0.3,1.7-1.3C80.5,355,79.2,352.4,77.1,350.3z"/>
		<path fill="none" d="M78.4,358.5c-7.1,5.5-18.5,11.1-18.7,21.5c0,1.3,1.8,1.2,1.9,0c0.7-9.7,10.8-15,17.4-20.6
			C79.5,359,78.9,358.2,78.4,358.5z"/>
		<path fill="none" d="M99.6,310.7c-2-0.8-4.3-1.3-6.4-1.7c-1.1-0.3-3.7-1-4.4,0.4c-0.2,0.5,0.3,1.1,0.8,0.8
			c0.9-0.6,3.6,0.6,4.4,0.9c1.7,0.5,3.3,1.3,5,1.6C100.4,312.9,100.8,311.2,99.6,310.7z"/>
		<path fill="none" d="M105.2,305.9c0.3,0.1,0.2,0.1,0.2-0.1c0.1-0.8-1.3-1-1.4-0.2c-0.1,0.8-0.4,1.7-0.2,2.4c0.2,0.6,0.9,0.5,1.1,0
			c0,0,0,0,0,0c0.1-0.2,0.1-0.4,0.2-0.6C105.8,307.5,106.2,306.2,105.2,305.9z"/>
		<path fill="none" d="M322.5,333c-8.4-3.4-19.3-7.4-28.3-3.8c-0.6,0.2-0.4,1.2,0.3,1c9.2-3.1,19,1.2,27.7,4.2
			C323,334.6,323.3,333.3,322.5,333z"/>
		<path fill="none" d="M112.8,439c0-1-1.5-1-1.5,0c-0.4,7.5-0.1,14.8,6.6,19.5c1,0.7,2-1,1-1.7C112.9,452.5,112.6,445.7,112.8,439z"
			/>
		<path fill="none" d="M286.4,320.1c0,0,0.1-0.1,0.1-0.1c-2-3.9-2.7-8.5-2.9-13.1c-0.8-3.1-1.2-6.4-1.4-9.6c-0.4-1-0.8-2.1-1.1-3.2
			c-0.4-1.2-0.7-2.6-1.1-4c-0.5-0.8-0.9-1.7-1.3-2.4c-0.3-0.6-0.6-1.3-0.9-1.9c-1.3-1.4-2.8-2.6-4.7-3.8c-1.3-0.5-2.7-0.9-4.2-1.2
			c1.5,0.6,3.1,1.4,4.5,2.5c5.7,4.3,8,11.3,8.6,18.2c0.5,5,0.9,9.6,2.6,14.4C285.3,317.2,285.9,318.7,286.4,320.1z"/>
		<path fill="none" d="M362.5,233.9c0.1,2.8,0.3,5.7,0.3,8.6c0.3,0,0.5,0,0.8,0c1.4,0,1.7,1.8,0.9,2.5c3.4,0.5,6.8,0,10.2,0.5
			c1.1,0.1,2.7,0.7,4.2,1c-0.1-5.6,0.6-11.2,0.8-16.8c0-0.8,1.1-0.8,1.2,0c0,0.4,0,0.8,0.1,1.2c0-0.1,0-0.1,0.1-0.2
			c0-0.1,0-0.2,0.1-0.4c0.1-0.5,0.3-1,0.5-1.4c-0.3,0.1-0.6,0.1-0.9-0.1c-1.3-0.9-2.9-1.2-4.4-1.6c-0.1,0-0.1,0-0.2,0
			c-0.3-0.1-0.6-0.2-0.9-0.3c-0.4,0.2-0.8,0.2-1.2-0.1c-0.2-0.2-0.3-0.3-0.5-0.4c-3.9-1.5-7.6-3.7-11.5-5.4
			C362.9,225.1,362.5,229.8,362.5,233.9z"/>
		<path fill="none" d="M373.7,204.6c0-0.6,0-1.1-0.1-1.7c-0.3,1-0.6,2-0.9,3c0.1-0.3,0.2-0.7,0.4-1
			C373.3,204.7,373.5,204.6,373.7,204.6z"/>
		<path fill="none" d="M311.9,304.5c8.9-1.6,14.1,4.3,20.8,9.1c0.7,0.5,1.4-0.6,0.7-1.2c-3.8-2.9-7.4-6.1-11.8-8
			c-1.5-0.7-3.1-0.9-4.7-1.1c-0.7-0.1-1.8,0-2.5,0.1c-0.9,0.2-2.4,1-1.1-0.2c0.2-0.2-0.1-0.6-0.4-0.4c-0.4,0.4-0.8,0.8-1.2,1.3
			C311.5,304.3,311.6,304.6,311.9,304.5z"/>
		<path fill="none" d="M316.1,244.1c7.2-1.3,14.7-0.3,22-0.7c7.7-0.4,15.3-1,23-1c0.1-3.4-0.1-7-0.1-10.3c0-3.7,0.5-8.1-0.3-11.8
			c-0.1-0.1-0.3-0.1-0.4-0.2c-0.5-0.2-0.4-0.8,0-0.9c0-0.1-0.1-0.1-0.1-0.2c0,0,0-0.1,0-0.1c-3.8,0.7-7.7,0.6-11.5,1.1
			c-4.9,0.6-9.9,1.4-14.8,1.3c-5.8-0.2-11.7-1-17.3-2.4c-0.2,0.1-0.3,0.1-0.5,0.2C317,227.4,316.2,235.8,316.1,244.1z"/>
		<path fill="none" d="M362.5,209.3c0.1,0.4,0.1,0.9,0.2,1.3c-0.3-3.2-0.6-6.3-0.8-9.5c0,0.1-0.1,0.3-0.1,0.4
			c0.1,0.1,0.1,0.2,0.1,0.3C362.1,204.3,362.2,206.8,362.5,209.3z"/>
		<path fill="none" d="M377.1,212.8c-0.1-0.4-0.2-0.8-0.2-1.2c0,0.7,0.2,1.3,0.4,2c0.4,0.2,0.7,0.6,0.6,1.1c0.1,0,0.2,0.1,0.2,0.2
			c0.2,0.4,0.3,0.8,0.4,1.2c0.2,0.4,0.4,0.7,0.5,1.1c0.1-0.1,0.4-0.1,0.4,0.1c0,0.3,0.1,0.5,0.1,0.8c0,0.2-0.1,0.2-0.2,0.3
			c0,0.3,0,0.5-0.1,0.8c0,0,0,0.1,0,0.1c0.3-0.1,0.6,0,0.7,0.4c0.4,1.7,1.3,2.9,2.3,4.3c0.2-0.1,0.5-0.3,0.7-0.4c0,0,0,0,0.1-0.1
			c0.9-0.7,1.5-1.7,2.1-2.8c0.2-1.5,0.2-3,0.1-4.5c0-0.4,0.1-0.7,0.3-0.9c0.3-1.6,0.9-3.2-0.7-4.3c-0.2,0.1-0.4,0-0.5-0.2
			c-0.5-1-1-2.5-2-3.1c-1.3-0.8-2.4,0.4-3.2,1.3c0,0,0,0,0,0c0,0.2-0.1,0.3-0.3,0.2c-0.1-0.1-0.2-0.2-0.3-0.2
			c-0.2-0.1,0-0.4,0.2-0.3c0,0,0,0,0,0c0.5-0.6,1.1-1.3,1.9-1.6c0,0-0.1-0.1-0.1-0.1c-0.3,0.1-0.7,0.3-1,0.5c0,0,0,0,0,0.1
			c-0.2,0.4-0.6,0.6-1,0.5c-0.4,0.5-0.9,0.9-1.6,1.1c0,0,0,0,0,0c0,0.1,0,0.2,0,0.2c0.1,0.2,0.2,0.4,0.1,0.6
			c-0.1,0.2-0.1,0.4-0.2,0.7c0,0.2,0,0.3,0,0.5c0.1-0.1,0.2,0,0.2,0.1c0,0.5,0.1,1,0.2,1.5c0,0,0,0.1,0,0.1c0.1-0.1,0.3-0.1,0.4,0.1
			c0.5,0.8,1.1,1.5,1.7,2.2c0.1,0.1,0.1,0.2,0.1,0.3c1,0,1.9-0.2,2.8-0.5c0.8-0.3,1.3,0.9,0.5,1.3c-1.1,0.5-2.2,0.7-3.4,0.6
			c-0.7-0.1-0.8-0.9-0.5-1.2c0,0,0,0,0,0c-0.6-0.7-1.2-1.5-1.8-2.3c-0.1-0.1-0.1-0.2,0-0.3C377.2,212.9,377.2,212.9,377.1,212.8z"/>
		<path fill="none" d="M368.3,304.6c-0.5,0-0.6,0.8-0.1,0.9c9.6,1.8,19.7,1.3,29.4,1.1c1.1,0,1.1-1.6,0-1.6
			C387.8,304.7,378.1,305.5,368.3,304.6z"/>
		<path fill="none" d="M379.9,303.4c-0.3-8.5-0.7-17-1.9-25.4c-0.3-0.3-0.3-2.3-0.3-3.6c0.4-8.9,0.4-17.5-0.1-26.1
			c0-0.1-2.6,0.1-2.5,0c-0.6-0.2-1.2-0.3-1.8-0.3c-3.1-0.2-7.6,0.2-10.8-1.2c-0.1,0.3-0.1,0.7-0.2,1c0,0,0,0,0,0
			c2.6,11.9,0.2,24.5,0.1,36.5c-0.1,7,0.5,13.9,1,20.9c1.1-0.3,2.2-0.5,3.2-0.7C371,303.7,375.5,303.6,379.9,303.4z"/>
		<path fill="none" d="M366.3,323.1c0.1,0,0.1-0.2,0-0.2S366.2,323.1,366.3,323.1z"/>
		<path fill="none" d="M283.6,318.7c5,8.9,1,18.7-0.5,27.9c-0.3,1.7,2.3,2.4,2.6,0.7c1.5-8.8,3.1-20.8-1.9-28.8
			C283.7,318.5,283.5,318.6,283.6,318.7z"/>
	</g>
	<path fill="#1186C8" d="M806.4,93.6c-13.4,0.9-26.8,2.6-40.1,4.1c-15.9,1.9-31.9,3.6-47.9,3.5c-16.6,0-33.1-0.3-49.7-0.7
		c-33.1-0.9-66.2-2.3-99.2-3.6c-16.4-0.7-32.6-0.9-49,0.7c-16.2,1.5-32.3,3.9-48.5,5.7c-23.2,2.5-49.2,6.3-72.4,0.5
		c-0.3,1.8-0.6,3.6-0.8,5.5c0.5,0,1.1-0.1,1.7-0.2c0,0,0,0,0-0.1c0.4-0.4,0.9-0.4,1.2-0.1c0.1,0,0.1,0,0.2,0
		c0.4-0.3,0.7-0.3,1.1-0.2c0,0,0.1,0,0.1,0c0.2-0.1,0.5-0.2,0.7-0.1c1.6-0.3,3.4-0.5,5-0.7c0.1-0.1,0.1-0.2,0.2-0.3
		c0.5-0.7,1.3-0.5,1.7,0.1c0.1,0,0.1,0,0.2,0c4.6-0.2,8.2,0.6,7.2,4.9c0,0,0,0.1,0,0.1c0.5,4.8,4.9,3.6,8.2,5.7
		c1.4,0.9,1.9,2.9,2.2,4.4c0.7,3.5,2,10.9-1.1,13.7c-0.5,0.5-1.1,0.4-1.5,0c-0.2,0.4-0.7,0.8-1.3,0.8c-7.2,0-14.3,0.7-21.5,1.3
		c11.8,1.5,24.2,4.8,34.1,10.4c6.2,3.5,11.7,8.3,17,13c2.9,2.6,5.5,5.3,7.9,8.4c1.5,2,2.3,4.4,3.4,6.6c0.4,0.9,0.4,0.9,0.5,1.7
		c-0.1,2.8-0.2,5.5-0.4,8.3c-0.5,9.8-1,19.6-1.5,29.5c0,0,0,0,0,0c-1.7,2.2-4.2,3.4-6.1,5.4c-1.5,1.7-2.4,4.7-4.6,5.7
		c0-6.3,1.4-17.2-5-20.5c1.2-1.7,2.1-3.5,3.8-4.9c1-0.9,2.2-2.4,1.8-3.9c-0.2-0.7-0.7-1.2-1.1-1.6c-1.1-1.1-0.6-2.9-0.7-4.3
		c-0.2-2.1-1.1-4.5-2.9-5.6c-3.4-2.2-7.4-1.7-10.5,0.7c-3.4,2.8-2.8,9.1-2.5,13.2c-4.2,0.8-7.7,4.2-10.9,6.8
		c-5.9,4.7-8.9,9.8-10.4,17.3c-0.7,3.4,0,6.7-0.9,10.1c-0.5,1.7-1.1,3.5-0.1,5.3c2.2,3.7,4.4,6.3,4.8,10.8c0.2,2.8-0.4,5.5,1.1,8
		c0.7,1.2,1.8,2.5,3.2,2.9c0.7,0.2,1.8-0.8,2-0.4c2.3,3.3,1,10.7,0.7,14.5c-0.4,5.6-1.2,11.1-2.5,16.6c-0.8,3.6-1.8,6.8-3.4,10.1
		c-0.9,2-2.1,4.2-2,6.5c7.4-1.7,14.6-4.4,22.1-5.8c0,0,0-0.1,0.1-0.1c0.2-0.2,0.4-0.4,0.6-0.5c0.1,0,0.2-0.1,0.2-0.1
		c-4.8-1.7-3.4-11.2-2.4-15.1c2-7.5,10.4-14.9,17.6-17.2c8.1-2.6,14.2,5.4,16.8,12.1c3.2,8.3,4.3,17.2,4.7,26
		c10-2.8,21.2-6.5,31.2-1.9c7.3,3.4,9.8,10.2,11.5,17.6c0,0.2,0,0.4,0,0.6c0.2,0.1,0.4,0.2,0.6,0.3c1.8-0.6,3.6-0.8,5.4-0.8
		c-2.2-3.4,0-5.2,1.9-9c2.1-4.4-1-13,3.4-16.4c2.7-2.1,5.9-2.1,9.1-2.3c3.3-0.2,7.7-0.4,10-3.2c3.1-3.8,2.4-8.4,0.9-12.7
		c-1.3-3.6-0.6-5.8,0.8-9.5c2.5-6.7,8.4-15.1,16.2-9c3,2.4,3.6-0.3,6.3-1.6c1.5-0.7,3-1.3,4.6-1.5c3.7-0.5,7.8,0,11,2.3
		c3.9,2.8,5.3,6,6.3,10.5c1,4.4,6.5,6.1,6.5,10.8c-0.1,4.1-3,5.7-5.5,8.4c-1.9,2.1-3.7,5.4-3.5,8.1c-0.5-0.5-1-1-1.4-1.5
		c-0.4-0.5-1.2-0.1-0.9,0.5c0.6,1.3,1.4,2.3,2.4,3.1c0,0.1,0,0.2,0.1,0.3c2,2.5,4.9,4,8.1,4.4c0.5,0.1,0.9-0.2,1-0.6
		c0,0,5.3,0,9.7,0.4c3.3,0.3,6.7,0.6,9.9,1.3c9.3,2.2,18,6.2,21.3,15.8c0.1-0.2,0.3-0.3,0.6-0.2c0.3-0.3,0.8-0.4,1.1,0.1
		c0.6,1,1.5,1.8,2.5,2.3c0.2,0.1,0.4,0.3,0.4,0.5c0.4-0.4,0.8-0.6,1.3-0.9c0.4-0.2,0.7-0.4,1.1-0.7c0.1-0.1,0.3-0.2,0.4-0.3
		c0.2-2.1-0.6-5.6-0.7-6.8c-0.1-2.4-0.1-4.5,0.7-6.8c1.6-4,6.6-5.7,9.5-8.8c-0.7-5.5,1.2-11.6,3.4-16.4c0.7-1.6,1.5-3.3,2.5-5
		c0.9-1.7,1.9-3.3,3.1-4.5c3.4-3.4,4.1-3.5,4.1-3.5c1.1-0.7,2.3-1,2.3-1l0,0c11.4-4,14.5,9,20.9,15.7c0.1,0.2,0.2,0.3,0.2,0.5
		c0.3,0.3,0.5,0.5,0.7,0.8c0.3-0.2,0.6-0.2,0.9,0.1c2.2,2.3,5.5,4.1,7,7c0.1-0.1,0.2-0.3,0.3-0.4c-2.1-3.1-2.3-6.1-1.4-8.7
		c3.4-13,16.7-10.9,16.7-10.9c3.5-0.6,6.9-0.5,9.5,0.4c9.2,3.2,11.6,12.2,9.8,21.1c-0.8,3.7-1.3,8.6-4.3,11.1
		c-0.8,0.6-1.7,1.1-2.5,1.7c-3.1,2,0.1,5.9,3.2,5.1c2.2-0.6,4.1-1.4,6.1-2.4c-2.5-6,3.6-12.1,8-15.6c7.1-5.6,14.8-9,23.2-4
		c2.6,1.6,5.8,2.7,7.8-0.9c0.3-0.6,0.7-1.3,1.2-1.8c1.3-1.3,2.7-2,4.6-2.4c2.4-0.5,5.5-0.4,8.2,0.2c1.5-8.5,2.8-17,4-25.5
		c2.8-20.1,6.4-39.9,10.2-59.7c3.8-19.6,8.3-38.9,13.8-58.1c4.9-16.8,9.5-33.7,13.6-50.7C827.8,93,817.1,92.9,806.4,93.6z
		 M646.3,173.6c-1,13.3-2.5,26.6-2.8,40c-0.3,12.7,1.8,25.3,2.3,37.9c-6.3,0.6-12.7,0.1-19.1,0.1c-7.4,0-14.9,0.2-22.3-0.1
		c-16.1-0.7-32.2-2.4-48.3-3.4c-15.8-1-31.5-0.2-47.3,0.7c-7.6,0.4-15.1,0.6-22.7,0c-7-0.6-13.9-0.9-20.9,0.3
		c-1-3.8-0.3-7.9,0.2-11.8c0.7-5.1,0.9-10.2,1.1-15.4c0.5-11.6,1-23.3,1.5-34.9c0.1-2.5,0.2-4.9,0.3-7.4c0.7-0.2,1.2-1,0.6-1.7
		c-0.2-0.3-0.4-0.6-0.6-0.8c0.2-8.2,0.3-16.3,0.5-24.5c0.2-12.3,0.9-24.7,0.5-37c0-0.1-0.1-0.2-0.1-0.3c5.3,1.7,11.2,1.2,16.8,1.6
		c7.7,0.5,15.4,0.5,23,0.5c15.3,0.1,30.6,0.1,45.9-1.1c15.5-1.2,31-2.4,46.6-2.7c15.1-0.4,30.3-1.1,45.4-0.8
		c0.3,2.5-0.2,5.7-0.2,7.2c-0.1,3.8-0.1,7.5,0.1,11.3C647.6,145.4,647.3,159.6,646.3,173.6z"/>
</g>
<path fill="none" stroke="#1A1C19" stroke-width="0" stroke-linecap="round" stroke-linejoin="round" d="M365.2,189.5
	C365.2,189.5,365.2,189.4,365.2,189.5"/>
<g>
	<path fill="#1A1C19" d="M980,77.6v-3.8c-0.1,0.4-0.2,0.8-0.3,1.3C979.5,76,979.7,76.9,980,77.6z"/>
	<path fill="#1A1C19" d="M182.5,335.1c0.3,0.3,0.6,0.6,0.9,0.8c0-0.1,0.1-0.1,0.2-0.2c-0.2-0.3-0.4-0.7-0.6-1
		C182.8,334.8,182.6,335,182.5,335.1z"/>
	<path fill="#1A1C19" d="M894.5,66.7c-30.9-2.5-61.1-5-92.1-2c-16,1.5-31.9,4.2-47.9,5.9c-16.2,1.7-32.5,2.3-48.8,2.9
		c-32.8,1.3-65.4,4.3-98.2,5.1c-32.9,0.8-65.7,0.8-98.6,2.4c-16.2,0.8-32.4,2.4-48.6,3.6c-16.1,1.1-32.2,1.1-48.3,1.1
		c-3.7,0-7.5,0-11.2,0c0-2.6-0.1-5.1-0.2-7.6c0-0.9-1.3-0.9-1.3,0c-0.1,2.5-0.2,5.1-0.2,7.6c-0.1,0-0.2,0-0.3,0c0-1.3,0-2.7-0.2-4
		c0.2-0.7,0.3-1.5,0.5-2.2c0.1-0.5-0.5-0.8-0.8-0.5c0-0.1-0.1-0.3-0.1-0.4c0.1,0,0.2,0,0.3,0c0,0,0,0,0,0c0.2-0.1,0.3-0.2,0.4-0.3
		c0,0,0,0,0,0c0.1-0.2,0.1-0.3,0.2-0.5c0.2-0.4,0.1-0.8-0.3-1c-0.3-0.2-0.6-0.4-0.8-0.6c-0.3-0.2-0.7-0.1-0.9,0.1
		c0,0-0.1,0.1-0.1,0.1c-0.3-0.6-1.2-0.6-1.5,0c-0.1,0-0.1,0-0.2,0c0-0.2,0-0.4,0-0.7c0-1-1.5-1-1.5,0c0,0.2,0,0.3,0,0.5
		c-0.1,0.1-0.2,0.3-0.2,0.5c-0.1,0.1-0.2,0.2-0.3,0.4c-0.1,0.3-0.1,0.6-0.2,0.8c0-0.9,0-1.9-0.1-2.8c0-0.6-0.9-0.6-0.9,0
		c0,0.6,0.1,1.1,0.1,1.7c-0.1-0.1-0.3-0.1-0.5-0.1c-0.1-0.1-0.3-0.2-0.5-0.2c0-0.7-0.1-1.4-0.1-2.1c0-0.4-0.6-0.4-0.6,0
		c0,0.8,0,1.7,0,2.5c0,0.1,0,0.1,0,0.2c0,0.8,0,1.5,0,2.2c0,1,0,1.9,0.1,2.9c0,0.1,0,0.2,0.1,0.3c-0.3,1.1-0.4,2.1-0.5,3.2
		c-25.6,0.1-51.2,0.2-76.8,1.2c-16.6,0.6-33.1,1.7-49.7,2.1c-16.6,0.4-33.1,0.4-49.7,0.7c-15.7,0.3-31.9,0.4-47.6,1.8
		c-7.8,0.7-25.4,1.4-27.7,11.3c-0.2,1,1.2,1.4,1.5,0.4c1.9-7.6,14.7-8.6,20.9-9.2c7.9-0.8,15.9-0.8,23.9-0.9c13.7-0.1,27.3-0.9,41-1
		c16.6-0.2,33.1-0.2,49.7-0.7c33.1-1.1,66.1-2.9,99.3-3c5,0,10.1,0,15.1,0c0,1.5,0,3,0.1,4.5c0.1,2.7-0.1,5.4-0.2,8.2
		c-0.1,3.2-0.2,6.3,0.3,9.4c-3,0.9-5.7,0.7-8.6,0.3c0.1-0.2,0.3-0.3,0.4-0.5c0.3-0.4-0.4-1-0.7-0.6c-0.2,0.3-0.5,0.6-0.8,0.9
		c-1.1-0.2-2.2-0.4-3.4-0.6c-0.7-0.1-1,0.6-0.8,1c-2.7,2.8-5.8,5-9.4,6.2c-0.7,0-1.4,0.1-2.2,0.2c-0.2-0.3-0.8-0.4-1,0.1
		c-0.1,0-0.1,0-0.2,0c-0.2,0-0.3,0-0.5,0.1c-0.4,0.1-0.5,0.4-0.5,0.8c0,0.3,0.1,0.6,0.5,0.8c0.1,0.1,0.2,0.1,0.3,0.1
		c-0.8,4.2-0.6,8.5-0.6,12.8c0,0.5,0.4,1.1,0.9,1.1c0,0,0.1,0,0.1,0c0.1,0.2,0.4,0.4,0.7,0.4c0.5,0.1,1,0.2,1.5,0.3
		c0.1,0.3,0.3,0.6,0.7,0.8c1.6,0.6,3.1,1.3,4.8,1.7c1.6,0.6,3.2,1.3,4.7,1.9c0.5,0.2,0.9,0,1.1-0.3c0.3,0.2,0.6,0.4,1,0.5
		c0.1,0,0.2,0.1,0.3,0.1c3.4,1.7,8.7,0.9,12.3,0.7c4.1-0.1,8.2-0.4,12.2-0.8c7.1-0.6,14.3-1.3,21.5-1.3c0.6,0,1.1-0.3,1.3-0.8
		c0.4,0.4,1,0.4,1.5,0c3.1-2.7,1.8-10.2,1.1-13.7c-0.3-1.5-0.9-3.5-2.2-4.4c-3.3-2.1-7.7-0.9-8.2-5.7c0-0.1,0-0.1,0-0.1
		c0.9-4.3-2.7-5.1-7.2-4.9c-0.1,0-0.1,0-0.2,0c-0.4-0.5-1.2-0.8-1.7-0.1c-0.1,0.1-0.1,0.2-0.2,0.3c-1.7,0.2-3.4,0.5-5,0.7
		c-0.2,0-0.5,0-0.7,0.1c0,0-0.1,0-0.1,0c-0.3-0.1-0.7-0.1-1.1,0.2c-0.1,0-0.1,0-0.2,0c-0.4-0.3-0.8-0.3-1.2,0.1c0,0,0,0,0,0.1
		c-0.6,0.1-1.2,0.2-1.7,0.2c0.2-1.8,0.5-3.6,0.8-5.5c23.2,5.7,49.1,2,72.4-0.5c16.2-1.8,32.3-4.1,48.5-5.7c16.4-1.5,32.6-1.3,49-0.7
		c33.1,1.3,66.1,2.8,99.2,3.6c16.6,0.4,33.1,0.7,49.7,0.7c16,0,32-1.7,47.9-3.5c13.4-1.6,26.7-3.2,40.1-4.1
		c10.7-0.7,21.4-0.5,32.1-0.4c-4.1,17-8.7,33.9-13.6,50.7c-5.5,19.2-10,38.5-13.8,58.1c-3.8,19.9-7.4,39.7-10.2,59.7
		c-1.2,8.5-2.5,17-4,25.5c-2.7-0.6-5.8-0.7-8.2-0.2c-1.9,0.4-3.2,1-4.6,2.4c-0.5,0.5-0.8,1.2-1.2,1.8c-2.1,3.7-5.2,2.5-7.8,0.9
		c-8.4-5-16.1-1.5-23.2,4c-4.4,3.4-10.5,9.6-8,15.6c-2,1-3.9,1.9-6.1,2.4c-3.2,0.8-6.4-3.1-3.2-5.1c0.8-0.5,1.8-1,2.5-1.7
		c3.1-2.5,3.6-7.5,4.3-11.1c1.8-8.9-0.6-17.9-9.8-21.1c-2.6-0.9-6-1-9.5-0.4c0.6,0.4,0.8,1.3,0,1.8c-2.5,1.7-5.3,2.1-8.2,2.8
		c-2,0.5-3.5,1.2-4.7,2.2c-0.9,1.1-1.7,2.4-2.5,3.6c-0.3,0.5-0.8,0.6-1.3,0.5c-1,2.6-0.7,5.6,1.4,8.7c-0.1,0.1-0.2,0.3-0.3,0.4
		c-1.5-2.9-4.8-4.7-7-7c-0.3-0.3-0.6-0.3-0.9-0.1c-0.2-0.3-0.5-0.6-0.7-0.8c0-0.2-0.1-0.4-0.2-0.5c-6.5-6.8-9.6-20.4-21.8-15.3
		c-0.5,0.2-0.9,0.4-1.3,0.7c2.1-1,4.5-1,7.3,0.3c0.4,0.2,0.1,0.9-0.3,0.7c-10.2-3.4-14,13.8-15.3,20.6c-0.3,1.7-2.8,1-2.5-0.7
		c0.8-4.7,2.9-12.7,6.7-17.5c-2.4,2.8-4.2,6.4-5.6,9.5c-2.2,4.9-4,11-3.4,16.4c-2.9,3.1-7.9,4.8-9.5,8.8c-0.9,2.2-0.9,4.4-0.7,6.8
		c0.1,1.2,0.9,4.7,0.7,6.8c-0.1,0.1-0.2,0.2-0.4,0.3c-0.3,0.3-0.7,0.5-1.1,0.7c-0.4,0.3-0.9,0.6-1.3,0.9c-0.1-0.2-0.2-0.4-0.4-0.5
		c-1-0.5-1.9-1.3-2.5-2.3c-0.3-0.5-0.8-0.4-1.1-0.1c-0.2-0.1-0.4,0-0.6,0.2c-3.3-9.6-12-13.6-21.3-15.8c-3.2-0.8-6.6-1.1-9.9-1.3
		c0.3,0.1,0.6,0.2,0.8,0.3c3.2,1.3,4.3,3.4,5.1,5.8c0.5-0.1,1.1,0,1.3,0.7c1.1,2.8,3.4,4.9,4.6,7.7c0.9,2.1,1.3,4.6,3,6.2
		c0.4,0.3-0.1,1-0.5,0.7c-2-1.6-2.6-4-3.7-6.2c-0.8-1.5-1.9-2.8-2.9-4.2c0.1,0.2,0.1,0.3,0.2,0.5c0.6,1.3-1.2,2.4-1.9,1.1
		c-1.3-2.3-1.5-4.8-2.5-7.2c-1.6-3.8-9.1-4.8-12.6-5.8c-0.2,0-0.3-0.1-0.5-0.1c-0.1,0.4-0.4,0.7-1,0.6c-3.2-0.4-6.1-1.9-8.1-4.4
		c-0.1-0.1-0.1-0.2-0.1-0.3c-1-0.8-1.8-1.9-2.4-3.1c-0.3-0.6,0.5-1.1,0.9-0.5c0.4,0.6,0.9,1.1,1.4,1.5c-0.1-2.7,1.6-6,3.5-8.1
		c2.5-2.7,5.4-4.4,5.5-8.4c0.1-4.7-5.5-6.4-6.5-10.8c-1-4.5-2.4-7.7-6.3-10.5c-3.1-2.2-7.3-2.8-11-2.3c-1.6,0.2-3.1,0.8-4.6,1.5
		c-2.8,1.3-3.4,3.9-6.3,1.6c-7.8-6.1-13.6,2.3-16.2,9c-1.4,3.6-2,5.9-0.8,9.5c1.5,4.3,2.2,8.9-0.9,12.7c-2.3,2.8-6.7,3-10,3.2
		c-3.3,0.2-6.5,0.3-9.1,2.3c-4.4,3.4-1.3,12-3.4,16.4c-1.8,3.9-4,5.7-1.9,9c-1.8,0.1-3.6,0.3-5.4,0.8c-0.2-0.1-0.4-0.2-0.6-0.3
		c0.1-0.2,0.1-0.4,0-0.6c-1.7-7.4-4.1-14.2-11.5-17.6c-10-4.7-21.2-0.9-31.2,1.9c-0.4-8.8-1.5-17.8-4.7-26
		c-2.6-6.7-8.7-14.8-16.8-12.1c-7.2,2.4-15.5,9.8-17.6,17.2c-1.1,3.9-2.4,13.4,2.4,15.1c-0.1,0-0.2,0.1-0.2,0.1
		c-0.2,0.1-0.4,0.3-0.6,0.5c0,0,0,0.1-0.1,0.1c-7.5,1.4-14.7,4.1-22.1,5.8c-2.8,0.7-5.6,1.2-8.5,1.4c-0.3,0-0.4,0.2-0.5,0.3
		c-0.6,0-1.2,0.5-1.1,1.2c0.3,2.3,1.1,4.3,1.8,6.5c1.5,5.3-1.4,1.8-1.8,0.4c-0.3-1-0.5-2.2-0.6-3.3c-0.4-3-0.5-5.9-1.8-8.6
		c-2.7-5.8-14.7-4-19.5-3.7c-1,0.1-2,0.1-3.1,0.1c-0.2-7.8-1.3-15.8-2.2-23.4c-0.2-1.3-0.3-2.7-0.5-4c0-2.3,0.3-4.7,0.6-6.9
		c0.4-3.2,0.5-6.5,0.8-9.7c0.5,0,0.9,0,1.4,0c0.7,0,1.2-0.6,1.2-1.2c0-4-1.2-7.9-1.2-11.9c0-4.2-0.3-8.9,0.3-13.1
		c0-0.3-0.1-0.6-0.3-0.7c0-0.2,0-0.3,0-0.5c2,0.3,4,0,5.3-1.7c0.8-1,1.2-2.2,1.4-3.4c0.3-0.1,0.6-0.3,0.7-0.6
		c1.9-5.3-0.5-11.4-2.3-17c0-0.6-0.2-1.2-0.6-1.8c-0.4-1.2-0.7-2.3-0.9-3.4c0.5-0.4,0.7-1.3,0-1.7c-1.9-1.1-4.2-1.4-6.3-1.9
		c-3.3-0.8-5.5-2.4-6.8-5.5c-0.2-0.5-0.9-0.3-0.8,0.2c0.2,0.9,0.5,1.7,0.8,2.4c-0.2,3.6-1.8,6.8-2.6,10.3c-0.7,2.8-1.1,5.6-1.7,8.4
		c0-2.4-0.1-4.7-0.2-7.1c0-1.9,0-3.7,0.3-5.6c0,0,0,0,0,0c0.6,0,0.7-0.8,0.1-1c0,0,0,0,0,0c0,0-0.1-0.1-0.1-0.1
		c-0.2-0.1-0.4-0.2-0.6-0.4c0.1-0.2,0.1-0.5,0-0.7c-0.1-0.2-0.3-0.4-0.4-0.6c-0.1-0.2-0.2-0.3-0.4-0.5c-0.3-0.3-0.7-0.2-1,0
		c-0.4,0-0.7,0.4-0.6,0.7c-0.5,0.3-1,0.6-1.5,0.8c-0.6,0.3-0.3,1.2,0.3,1.2c0.7-0.1,1.3,0.2,1.8,0.6c0,0.2,0.1,0.4,0.2,0.6
		c0,0.1,0.1,0.1,0.1,0.1c-0.8,2.4-1.7,4.7-2.3,7.1c-0.5-4.6-1.5-9.3-1.9-13.9c0-0.1,0-0.1,0-0.2c0.1-0.3,0-0.6-0.1-0.8
		c0-0.1,0-0.3,0-0.4c0-0.4-0.5-0.6-0.8-0.3c-0.4-0.1-0.8,0-1.1,0.3c-0.5,0.5-0.8,0.9-1.2,1.4c-1.1,1-2.8,1.2-4.1,1.5
		c-1.5,0.3-3.5-0.1-5,0.3c-1,0.3-3.5,1.7-3,3.1c0.1,0.2,0.1,0.3,0.3,0.4c-1.4,4.6-3,9.4-3,14.3c0,0.2,0.1,0.4,0.2,0.5
		c-3.3,0.6-6.5,1.1-9.5,1.3c-2.7,0.2-5.3,0-8-0.3c0-0.1,0-0.1,0-0.2c-0.1-3.6-1.1-6.9-2.1-12c1.4-15.4-6.1-30.9-9-45.8
		c-1-4.9-1.8-9.8-2.5-14.8c-2-12.6-3.7-25.3-6.8-37.7c1-0.1,2-0.3,3-0.6c0.8-0.2,1.1-0.8,1.1-1.4c4.2,0.1,8.5,0.7,12.7,1.1
		c8.2,0.8,16.7,0.6,24.9,0.6c7,0,14.1-0.3,21.1-0.7c5.7-0.3,11.9-0.6,17.1-3c1.3-0.6,0.4-2.6-0.9-2.2c-10.3,2.8-21.3,3.3-32.1,3.4
		c-3,0-5.9,0.1-8.9,0.1c-5.5,0-11,0.1-16.6,0c-2.1-0.1-4.1-0.2-6.2-0.3c-5.1-0.4-10.3-1.1-15.3-0.4c-1.3,0.2-2.6,0.4-3.9,0.8
		c-4.1,0.2-8.4,0-12.2,0.2c-6.5,0.3-13.1,0.3-19.6,0.6c-13.1,0.5-26.1,1.6-39.1,1.7c-12.9,0.1-25.7-0.2-38.6,0.6
		c-6.3,0.4-12.5,0.7-18.8,0.9c-5.8,0.2-11.7-0.3-17.5,0.8c-0.1-0.1-0.2-0.2-0.3-0.1c0,0,0,0,0,0c-0.1,0-0.2-0.1-0.2-0.1
		c-6.7-0.3-13.3-2.1-19.9-3c-7-1-14-1.7-21-3c-13.6-2.5-27.6-2.8-41.3-2.8c-14.2-0.1-28.3-0.7-42.4-2.4c-7.2-0.9-14.3-2.4-21.4-3.9
		c-3.5-0.7-7-1.2-10.6-1.6v469.9c4,0.6,8,1.1,12,1.4c16.2,1.4,32.6,0.4,48.8,0.5c34.9,0.1,69.9,3.4,104.6,6.4
		c35,3.1,69.9,5.9,104.9,8.2c70.1,4.6,140.2,7.6,210.4,9.6c34.5,1,68.8,0.9,103.2-1.1c34.1-2,68-5.4,101.9-9.4
		c33.9-4,67.8-8.6,101.7-12.9c34.2-4.4,68.4-8,102.6-12.2c29.6-3.6,59.8-6.8,89.7-5.8V84.4c-2.4,0-4.8,0-7.2,0.1
		c2.5-0.2,4.9-0.6,7.2-1.3v-2.9c-6,2-13.5,1.6-19.1,1.4c-9.5-0.3-19-1.8-28.5-2.1c-16.5-0.6-33,0-49.5-0.3
		c-16.4-0.3-32.7-1.3-49.1-1.1c-16.4,0.3-32.7,1.5-48.9,3.2c-16.3,1.7-32.4,2.7-48.8,3c-32.5,0.6-64.8,4.4-97.4,4.2
		c-20.4-0.1-40.7-0.9-61.1-0.9c-21,0-42,1.5-63.1,2.3c-37.8,1.5-76.5-3.6-113.8,3.4c0.1-1.7,0.1-3.4,0.1-5.1
		c23.8,0.1,47.5,0,71.2-1.9c32.7-2.6,65.2-3.8,98-4.4c32.9-0.5,65.7-1,98.5-3.7c32-2.6,64.2-1.9,96.1-6.2
		c31.8-4.3,63.2-7.6,95.4-5.5c39.9,2.6,80.8,9.6,120-0.9v-3C952.1,70.4,923,69,894.5,66.7z M391.8,88.4c0,1.1,0,2.3,0,3.4
		c-0.1-1.1-0.1-2.3-0.1-3.4C391.7,88.4,391.8,88.4,391.8,88.4z M390.5,114.8c0,0,0.1-0.1,0.1-0.1c0.2-0.1,0.3-0.2,0.3-0.3
		c0.2-0.2,0.4-0.4,0.6-0.6c0.1,0,0.1-0.1,0.2-0.1c0.2,0.3,0.7,0.4,1.1,0.2c0,0.2,0.1,0.3,0.2,0.4c-0.1,0.2-0.2,0.3-0.3,0.5
		c0,0,0,0,0,0c-0.4,0.1-0.7,0.1-1.1,0.2c-0.6,0.1-1.3,0.2-1.9,0.3C390,115.1,390.3,115,390.5,114.8z M386.4,115.4
		c0.3-0.1,0.7-0.3,1-0.4c0,0,0,0,0,0c0.1,0.1,0.2,0.2,0.3,0.2c0,0.1,0.1,0.2,0.2,0.3c-1.1,0.2-2.2,0.3-3.3,0.4
		C385.1,115.8,385.7,115.6,386.4,115.4z M372.3,117c2.1-1.5,3.9-3.5,5.4-5.4c0.3,0.1,0.6,0.2,1,0.3c-1,0.8-2,1.5-3,2.4
		c-0.6,0.5-1.4,1.2-1.6,2c0,0,0,0,0,0.1c0,0.1-0.1,0.3-0.1,0.4c0,0.1,0.1,0.2,0.2,0.3C373.6,117,373,117,372.3,117z M378.6,113
		c-0.4,0.5-1,1.1-1.4,1.8c0,0,0,0,0,0c-0.1,0.1-0.1,0.1-0.1,0.2c-0.1,0.3-0.2,0.6-0.2,1c0,0.4,0.7,0.7,0.9,0.2
		c0.1-0.2,0.2-0.4,0.3-0.6c0,0.3,0,0.6,0.2,0.9c0,0,0,0,0,0.1c-0.5,0.1-1.1,0.1-1.6,0.2c-0.7,0.1-1.4,0.1-2.2,0.1
		c0.1,0,0.1-0.1,0.1-0.2c0-0.2,0.1-0.3,0.2-0.5c0.6-0.6,1.2-1.1,1.8-1.7c0.1-0.1,0.1-0.2,0.1-0.3c0.8-0.7,1.7-1.4,2.6-2.1
		c0.1,0,0.1-0.1,0.1-0.2c0,0,0,0,0,0C379.1,112.4,378.8,112.7,378.6,113z M381.2,113.5c-0.4,0.3-0.7,0.6-1,1
		c-0.1,0.2-0.2,0.4-0.1,0.6c-0.1,0.2,0,0.5,0.2,0.6c-0.1,0.3-0.1,0.5,0.1,0.7c-0.4,0-0.9,0.1-1.3,0.1c0-0.1,0.1-0.1,0.1-0.2
		c-0.1-1.4,1.4-2.7,2.6-3.7c0.1,0,0.1,0,0.2,0C381.7,113,381.5,113.3,381.2,113.5z M393.8,125.8c-0.1,0.6-0.2,1.1-0.3,1.7
		c-0.2,0.7-0.4,1.3-0.9,1.9c-0.4,0-0.7-0.1-1.1-0.1c-3-0.3-5.8-0.5-8.8-0.4c0,0,0-0.1,0-0.1c-0.7-2.6-0.9-5.7,0.4-8.2
		c0.2-0.1,0.5-0.2,0.8-0.1c1,0.2,1.4-1.3,0.4-1.5c0,0,0,0,0,0c0,0,0-0.1,0.1-0.1c0.9-0.1,1.7-0.2,2.6-0.3c1.1-0.1,2.3-0.3,3.5-0.5
		c2.4,1.3,3.1,3.9,3.4,6.5c0,0,0,0,0,0C393.8,124.9,393.8,125.3,393.8,125.8z M392.1,112.5c-0.1-0.1-0.1-0.2-0.2-0.3
		c0,0,0-0.1,0.1-0.1c0.1-0.2,0.1-0.4,0.1-0.5c0.2-0.2,0.2-0.4,0.2-0.7c0,0,0-0.1,0.1-0.1c0.4,0.3,1.1,0.1,1.1-0.5c0-0.1,0-0.1,0-0.2
		c0.3-0.1,0.5-0.2,0.6-0.6c0-0.2,0.1-0.3,0.1-0.5c0,0.1,0,0.1,0.1,0.2C393.6,110.4,392.8,111.4,392.1,112.5z M426.1,134.2
		c0,0.1,0,0.2-0.1,0.2C426,134.3,426,134.3,426.1,134.2c-0.1-0.2-0.1-0.4-0.2-0.6c0-0.1,0-0.2,0.1-0.3c0,0,0-0.1,0.1-0.1
		c0.8-1.9,0.8-3.8,0.6-5.7c0-1.5-0.2-3-0.5-4.5c-0.1-0.3-0.3-0.5-0.6-0.5c-0.1-0.5-0.1-1-0.2-1.5
		C427.6,124.2,427.2,130.6,426.1,134.2z M411.9,118c0,0,0-0.1,0-0.1c0.1,0.1,0.2,0.1,0.3,0.2c0,0.1-0.1,0.2-0.1,0.2
		c0.1,0.7,0.1,1.5,0.1,2.2C412.2,119.7,412,118.9,411.9,118z M413.3,118.6c0.4,0.2,0.7,0.4,1.1,0.5c0.1,0.9,0.2,1.7,0.2,2.6
		c0,0,0,0-0.1,0c-0.2,0-0.5,0.2-0.7,0.3c0,0-0.1,0-0.1,0.1C413.6,120.9,413.5,119.8,413.3,118.6z M414.5,123.9
		c-0.2,0.2-0.4,0.5-0.6,0.7c0-0.6-0.1-1.3-0.2-1.9c0.1,0.1,0.2,0.1,0.4,0c0,0,0,0,0,0c0.1,0.1,0.2,0.1,0.3,0
		C414.5,123,414.5,123.4,414.5,123.9z M419.4,132.8c0.2-0.2,0.5-0.5,0.7-0.7c0,0.1,0.1,0.2,0.1,0.3c0.2,0.4,0.8,0.5,1.2,0.3
		c0.4-0.2,0.8-0.3,1.2-0.4c0.1,0.2,0.3,0.4,0.4,0.7c0.1,0.2,0.3,0.3,0.4,0.3C422.1,133.3,420.8,133.1,419.4,132.8z M424,128.5
		c0,0.7,0,1.3-0.1,2c0,0,0,0,0,0.1c-0.2,0-0.4,0-0.6,0c0,0,0-0.1,0-0.1c0.1-0.1,0.2-0.2,0.3-0.3C423.7,129.6,423.8,129,424,128.5
		C424,128.5,424,128.5,424,128.5z M416.8,116.9c0.1-0.3,0.1-0.6,0.2-0.8c0,0,0,0,0,0c0.8,2,2.7,2.5,5.7,3.2c0.3,0.1,0.6,0.2,0.9,0.3
		c-0.2,0-0.4,0.2-0.4,0.5c-2.4-0.7-4.6-1.5-6.9-2.4C416.5,117.4,416.7,117.2,416.8,116.9z M411.5,109.8c1.5,0.1,2.8,0.4,3.7,1.4
		c-1-0.5-2.1-0.9-3-1.2c-0.3-0.1-0.6,0-0.8,0.1C411.4,109.9,411.5,109.8,411.5,109.8z M410.4,117.2c-0.2,0.3,0.2,0.5,0.4,0.5
		c-0.2,3.2,0.1,6.4,0.4,9.6c-0.1,0.1-0.2,0.2-0.3,0.3c-0.4,0.4-0.1,1.1,0.4,1.2c0.1,0.6,0.1,1.2,0.2,1.8c-0.4-0.1-0.8-0.1-1.2-0.1
		c0.2-4.5-0.1-9.2-0.9-13.6c0,0,0-0.1-0.1-0.1C409.7,116.8,410.1,117,410.4,117.2z M397.1,81.3c0,0.6,0.1,1.2,0.1,1.8
		c-0.1,0.4-0.2,0.8-0.2,1.2C397.1,83.3,397.1,82.3,397.1,81.3z M396.4,108.9c0-0.2,0-0.3,0-0.5c0.1,0,0.3,0,0.4-0.1
		c0,0.3,0,0.6-0.1,0.9c-0.1,0-0.1,0-0.2,0c-0.1,0-0.1,0-0.2,0C396.3,109,396.4,109,396.4,108.9z M395.3,105c0-0.4,0-0.8,0-1.1
		c0.1,0,0.2-0.1,0.3-0.2c0,0.5-0.1,1-0.1,1.5c-0.1,0-0.1,0-0.2,0C395.4,105.1,395.4,105,395.3,105z M404.8,113.4
		c0.3,0.1,0.6,0,0.8-0.1c0.2,0.4,0.5,0.7,1,0.8c0.2,0.2,0.4,0.3,0.6,0.4c0.1,0.3,0.3,0.6,0.6,0.7c0,0.3,0.1,0.6,0.4,0.8
		c0.1,0,0.2,0.1,0.3,0.1c-0.3,0.1-0.6,0.3-0.6,0.6c0,0,0-0.1-0.1-0.1c-0.2-0.3-0.5-0.6-0.7-0.8c0,0-0.1-0.1-0.1-0.1
		c-0.9-0.8-2-1.3-3.2-1.6C404.1,113.9,404.5,113.7,404.8,113.4z M400.1,117c0.1-0.1,0.2-0.1,0.3-0.2c1.7,0.1,3.3,0.5,4.8,1.2
		c0.1,0.2,0.3,0.5,0.4,0.7c0.5,0.8,1,1.7,1.6,2.5c0.1,0.1,0.1,0.1,0.2,0.2c0.2,1.5,0.2,3,0.1,4.6c-0.1,1.9-0.8,3.2-1.9,4.4
		c-1.3-0.1-2.7-0.2-4-0.3c-1.8-0.1-3.6-0.3-5.4-0.5c0-0.1-0.1-0.2-0.2-0.3c-0.2-0.7-0.5-1.4-0.7-2.1c0.2-1,0.3-2.1,0.2-3.2
		c0.2-0.5,0.3-1,0.5-1.4c0.1-0.1,0.2-0.2,0.2-0.4c0-0.1,0-0.2,0.1-0.3c0.2-0.4,0.4-0.9,0.7-1.3C398,119.2,399,117.8,400.1,117z
		 M397.2,118.6C397.2,118.6,397.2,118.6,397.2,118.6c0.3-0.6,0.6-1.2,1-1.8c0.2,0,0.5,0,0.7,0C398.3,117.3,397.7,117.9,397.2,118.6z
		 M398.9,111.3C398.9,111.3,398.9,111.3,398.9,111.3c-1,0.5-1.2,0.2-1.7,0.2c-0.1-0.1-0.1-0.2-0.3-0.3c0.1-0.1,0.1-0.1,0.1-0.2
		C397.6,111.2,398.2,111.3,398.9,111.3z M398.8,94c-0.2,0.2-0.3,0.7-0.1,0.9c-0.2,2.4-0.7,4.8-1.1,7.2c0,0-0.1,0-0.1,0
		c0.4-4.6,1-9.2,1.2-13.7c0.1,0,0.2,0,0.3,0C398.9,90.3,398.9,92.1,398.8,94z M386.9,213.1c0.2,0.7,0.3,1.4,0.5,2.2
		c-0.2-0.2-0.4-0.3-0.6-0.3C386.9,214.3,387,213.7,386.9,213.1z M234.6,290.4c2.1-0.1,4.3,0,6.4,0.2c0.4,0.1,0.8,0.3,1.1,0.4
		c0.5,0.2,1,0.5,1.5,0.8c-0.4,0.3-0.8,0.6-1.2,0.8c-0.1-0.2-0.3-0.4-0.5-0.5c-2.5-1-5.2-1.5-7.8-1.6
		C234.3,290.5,234.4,290.4,234.6,290.4z M204,285.3c0.8-2,1.4-3.9,1.8-5.9c0-0.3,0.1-0.5,0.1-0.8c-0.2-0.7-0.2-1.4-0.2-2.2
		c-0.4-0.1-0.8-0.5-0.6-1.1c0.1-0.3,0.2-0.6,0.3-0.9c-0.2-0.2-0.3-0.4-0.2-0.6c0.1-0.6,0.3-1.2,0.4-1.8c-0.1-0.1-0.3-0.3-0.3-0.6
		c-0.2-1.6-0.1-3.2-0.1-4.8c0-0.6,0.7-0.9,1.1-0.7c0.4-0.2,1.1-0.1,1.3,0.5c0.2,0.5,0.3,0.9,0.4,1.4c0.4,1.5,1,3,1.2,4.7
		c0.1,0.8-0.4,1.5-0.7,2.3c0.2,1.7,0.1,3.3-0.4,5c-0.1,0.3-0.4,0.6-0.7,0.6c-0.3,1.9-0.8,3.7-1.8,5.5
		C205.2,286.9,203.6,286.3,204,285.3z M205.4,263.2c6.4,2,7,8.7,5.5,14.5c-1.1,4.3-2.4,9.3-5.2,12.8c-0.3,0.4-0.6,1.1-0.2,1.6
		c2.5,3.5,6,6.3,9.3,9.2c-4.3-2.3-7.6-6.7-11.3-9.8C210,284.1,214.3,267.9,205.4,263.2z M176.9,316.1c0.7-0.3,1.4-0.3,2.1-0.1
		c0.1,0,0.1,0,0.2,0.1c2.3,0.7,4,3.8,5,5.7c0.3,0.6-0.3,1.1-0.8,0.9c4.9,9.5,7,20.3,11.6,29.9c0.5,0.9-0.9,1.8-1.4,0.8
		c-1.6-3-2.8-6.2-4-9.4c0,0,0,0,0,0c-1.2-1.1-2.4-2.4-3.4-3.6c-0.2,0.1-0.4,0-0.5-0.2c-1.4-1.8-3-3.3-4.8-4.7
		c-0.4-0.3-0.2-0.8,0.1-1c0.4-0.3,0.8-0.5,1.2-0.8c-0.2-0.4-0.5-0.7-0.8-1.1c-0.2-0.3,0.2-0.7,0.4-0.4c0.3,0.4,0.6,0.7,0.9,1.1
		c0,0,0.1-0.1,0.1-0.1c-0.5-0.9-0.8-1.9-0.4-2.9c0.1-0.4,0.7-0.5,0.9-0.1c0.4,0.8,0.5,1.6,0.8,2.3c0.3,0.1,0.4,0.4,0.4,0.7
		c0.1,0.1,0.2,0.3,0.2,0.4c0.5,0.8,1.1,1.6,1.7,2.3c0.2,0.3,0.4,0.6,0.6,0.9c-1.7-5.4-3.5-10.8-6-15.8c-0.4-0.3-0.8-0.6-1.3-0.9
		c-0.9-0.6-1.9-1.1-2.7-1.9c-0.4-0.4,0-1.3,0.6-1.1c0.6,0.2,1.2,0.6,1.8,1c-0.2-0.4-0.4-0.7-0.6-1.1c-0.6-0.3-1.2-0.5-2-0.4
		C176.7,316.6,176.7,316.2,176.9,316.1z M180.4,352.4c0.3-0.3,0.8,0.2,0.5,0.5c-1.6,1.6-3.8,3.2-3.5,5.8c0,0.5-0.7,0.5-0.7,0
		C176.4,355.9,178.6,354.1,180.4,352.4z M169.9,291.4c0.2,0,0.3,0,0.5,0c0.2,0.1,0.4,0.2,0.5,0.4c0,0,0.1,0.1,0.1,0.1
		c-0.2,0.1-0.4,0.2-0.6,0.3c0,0-0.1-0.1-0.1-0.1c-0.7-0.4-1.4-0.9-2.2-1.3C168.6,291.1,169.2,291.3,169.9,291.4z M135.9,290.8
		c4.8-4.7,12.3-5.3,18.7-5.1c2.8,0.1,5.6,1.3,8.3,2.2c1.9,0.6,3.3,2,5,2.8c-9.4-4.8-25-7.2-32.1,1.2c-0.1,0-0.3,0-0.4,0.2
		c-0.3,0.4-0.7,0.6-0.9,1c-0.2,0.3-0.3,0.5-0.5,0.8c-1.1,0-2.3,0-3.4,0.1C132.3,293.7,133.8,292.9,135.9,290.8z M117.1,320.1
		c0-0.1,0-0.3,0-0.4c0-1.1,1.7-1.1,1.7,0c0,0.1,0,0.3,0,0.4c0,0.1,0,0.1,0,0.2c0,0.2,0,0.3,0,0.5c0,0.6-0.4,0.9-0.9,0.9
		c-0.5,0-0.9-0.3-0.9-0.9c0-0.2,0-0.3,0-0.5C117.1,320.2,117.1,320.2,117.1,320.1z M61.7,294c2.9-3.6,11-1.3,14.7-0.5
		c1.4,0.3,4.5-0.1,5.3,1.5c1.1,2.2,0.5,4-1.6,5.3c-0.3,0.2-0.8-0.1-0.6-0.5c0.2-0.5,1.5-3.8-0.1-3.8c-0.2,0-0.4,0-0.5,0
		c0,0.1,0,0.1,0.1,0.2c0.6,0,1.1,0.4,1.1,1.1c0,0.6-0.1,1.3-0.3,1.9c-0.1,0.5-0.6,0.8-1.1,0.9c-0.1,0-0.2,0-0.3,0
		c-0.3,0.1-0.6,0.1-0.9,0c-0.6-0.1-1.2-0.2-1.8-0.4c-0.5-0.1-1-0.2-1.5-0.4c-0.2,0.1-0.4,0.1-0.7,0.1c-1-0.3-1.8-0.6-2.6-1.2
		c-0.1-0.1-0.2-0.1-0.2-0.2c-0.1,0-0.3-0.1-0.4-0.1c-0.3-0.1-0.5-0.1-0.8-0.2c-0.3-0.1-0.5-0.3-0.7-0.5c-1.5-0.3-3.1-0.6-4.6-1.1
		c-0.1,0-0.2,0-0.3,0.1c-0.3,0.1-0.6-0.1-0.6-0.4c-0.1,0-0.2-0.1-0.4-0.1c-0.5-0.2-0.6-0.7-0.4-1.1c-0.1,0-0.2,0.1-0.2,0.1
		C61.8,294.9,61.4,294.4,61.7,294z M79.9,275.8c1.5,1.2,2.3,2.8,2.8,4.6c0.2,0.8-1,1.4-1.4,0.6c-0.1-0.3-0.2-0.5-0.3-0.8
		c-0.4-0.4-0.9-0.8-1.3-1.2c-0.1,0.6-0.2,1.2-0.3,1.9c0.1,0,0.1,0,0.1,0c0,0,0.1,0,0.1,0c0.2,0,0.3,0.2,0.3,0.4
		c0,0.2-0.1,0.4-0.3,0.4c0,0-0.1,0-0.1,0c0,0-0.1,0-0.2,0c0,1.1,0,2.2,0,3.3c0,0.9-1.4,0.9-1.4,0c0-2.2-0.2-4.4-0.1-6.6
		c0-0.9,0-3,1-3.5c0.2-0.1,0.4,0.1,0.3,0.3c-0.1,0.3-0.2,0.6-0.3,0.9C79.1,275.7,79.5,275.5,79.9,275.8z M54.6,312.5
		c0.3,0.7,0.8,0.9,1.5,0.8c0.2-0.3,0.4-0.6,0.7-0.8c0-0.1,0-0.2,0.1-0.3c0-0.2,0.2-0.4,0.3-0.4c0,0,0-0.1,0-0.1
		c0.2-1.9,0.3-3.7,0.4-5.6c0-0.8,0.1-1.6,0.2-2.4c0,0,0-0.1,0-0.2c-0.1-0.3,0-0.5,0.2-0.6c0,0,0,0,0,0c0,0,0.1,0,0.1,0
		c0.1-0.1,0.2-0.1,0.3,0c0,0,0,0,0.1,0c0.2-0.5,1.1-0.5,1.1,0.2c0,0.6,0,1.1,0,1.7c0.6,1.8,0.7,3.9,0.7,5.8c0,2.1,0.4,5-0.3,7
		c0,0.1-0.1,0.2-0.2,0.3c0,0,0,0.1,0,0.1c0,0.5-0.4,0.8-0.8,0.8c-0.4,0-0.8-0.3-0.8-0.8c0-1.4,0-2.7,0-4.1c0,0,0,0,0,0.1
		c-0.1,0.5-0.5,0.8-0.9,0.8c-0.1,0.2-0.2,0.4-0.3,0.6c-0.4,0.6-1.3,0.5-1.5-0.2c0-0.1,0-0.1,0-0.2c-1.1-0.2-1.9-0.9-2.1-2.1
		C53.3,312,54.3,311.7,54.6,312.5z M14.3,277c-0.5-0.4,0.2-1.1,0.7-0.7c3.5,2.9,6.9,7.6,6.6,12.3c-0.1,0.8-1.2,0.8-1.2,0
		C20.4,284.1,17.6,280,14.3,277z M55.2,384c-2,1.4-3.9,2.8-5.6,4.6c-0.3,0.4-0.9-0.2-0.5-0.5c1.7-1.8,3.7-3.3,5.7-4.8
		C55.2,383,55.7,383.7,55.2,384z M79,359.4c-6.7,5.6-16.7,11-17.4,20.6c-0.1,1.2-1.9,1.3-1.9,0c0.2-10.3,11.6-16,18.7-21.5
		C78.9,358.2,79.5,359,79,359.4z M80.6,358.8c-1.8-2.1-2.8-5.3-5-7c-3-2.5-6.7-5-10.4-6.3c-2.4-0.9-5.1-1.3-7.4-2.4
		c-2.8-1.4-5.3-3.1-8.4-3.7c-0.6-0.1-0.6-0.8-0.3-1.2c-0.1,0-0.1,0-0.2,0c-0.1,0.1-0.2,0.2-0.3,0.2c-0.1,0-0.1,0.1-0.2,0.1
		c0,0,0,0,0,0c0,0,0,0-0.1,0c-5.1,2.1-10.7,1.9-16.1,0.9c-0.7-0.1-1.4-0.2-2.1-0.3c-0.2,0-0.3-0.1-0.4-0.2c-1.2-0.3-2.4-0.5-3.6-0.8
		c-0.6-0.1-0.4-1.1,0.3-0.9c1,0.2,1.9,0.4,2.9,0.6c0,0,0-0.1,0-0.1c-0.6-0.2-1.2-0.3-1.8-0.5c-1.4-0.5-0.8-2.5,0.6-2.2
		c1.8,0.3,3.6,0.6,5.4,0.8c2.3-0.2,4.5-0.3,6.8-0.3c0,0,0,0,0,0c0.6-0.1,1.3-0.2,1.9-0.3c0.1-0.2,0.3-0.3,0.5-0.4
		c0.4-0.1,0.8-0.3,1.2-0.4c-1.9-0.6-3.7-1.1-5.4-1.6c-3.7-0.9-7.3-1.9-11-2.6c-1.4-0.3-6.6-1.9-7.8-0.4c-0.2,0.2-0.6,0-0.5-0.3
		c1.2-3.1,11.4-0.1,13.4,0.3c5.3,1.1,10.7,2.8,16.1,3.9c0.7,0,1.3,0,2-0.1c0.5,0,0.8,0.2,1,0.6c1.3,0.2,2.5,0.3,3.8,0.4
		c1.2,0.1,1.2,1.8,0.1,1.9c0.2,0.7-0.2,1.5-1.1,1.6c-1.2,0.1-2.4,0.1-3.6,0c3.1,0.8,5.7,2.8,8.9,3.7c2.9,0.8,6,1.5,8.7,3
		c2.8,1.5,6.3,3.1,8.4,5.4c2.1,2.2,3.4,4.8,5.2,7.2C83,358.4,81.3,359.7,80.6,358.8z M82.4,293.5c0.6-4.1,2.9-7.7,2.5-12.1
		c-0.4-4.2-1.2-8.3-1.4-12.6c-0.4-6-3.7-9-9.3-10.5c-3.2-0.8-7.3-1.2-11.2-0.7c2.9-0.6,5.7-0.7,7.5,0c0.3,0.1,0.7,0.1,1-0.1
		c3.5,0.7,6.8,2.1,10.1,4c0.6,0.3,1.2,0.8,1.7,1.4c1.2,2.8,1.4,6.4,1.5,9.3c0.2,3.6,0.5,7.1,0.5,10.7c0,2.2-1.7,5.6-1,7.7
		c0.4,1.2,1.3,2,2.5,2.4C85.2,293.1,83.7,293.3,82.4,293.5z M99.1,312.6c-1.7-0.3-3.4-1.1-5-1.6c-0.8-0.3-3.6-1.4-4.4-0.9
		c-0.5,0.3-1-0.3-0.8-0.8c0.7-1.4,3.3-0.7,4.4-0.4c2.1,0.5,4.4,1,6.4,1.7C100.8,311.2,100.4,312.9,99.1,312.6z M105,307.5
		c-0.1,0.2-0.1,0.4-0.2,0.6c0,0,0,0,0,0c-0.2,0.5-0.9,0.6-1.1,0c-0.2-0.8,0.1-1.7,0.2-2.4c0.1-0.8,1.5-0.6,1.4,0.2
		c0,0.2,0.2,0.2-0.2,0.1C106.2,306.2,105.8,307.5,105,307.5z M107.4,301.2c-2.7-4.4-7.6-6.7-12.9-7.6c0.2,0,0.3,0,0.5,0
		c4.1,0,6.8,0.9,9.7,3.6c1,0.9,2,2.2,3.4,2.6c0.7,0.2,1.2-0.1,1.5-0.6c0.2,0,0.4,0,0.6-0.1C109.2,299.8,108.3,300.5,107.4,301.2z
		 M117.8,458.5c-6.8-4.7-7.1-12-6.6-19.5c0.1-1,1.6-1,1.5,0c-0.2,6.7,0.1,13.5,6,17.8C119.8,457.5,118.9,459.2,117.8,458.5z
		 M174.5,435.3c0.1,1.2-1.9,2.1-2.8,0.8c-0.1-0.1-0.1-0.2-0.2-0.3c-0.2,0-0.4,0-0.6,0c-2.8-0.5-4.2-2.6-6.3-4.3
		c-0.4-0.3-0.7-0.6-1.1-0.9c-0.2,0-0.3,0-0.5-0.1c-5.2-1.9-9.9-4.7-15.2-6c-0.2-0.1-0.4-0.2-0.5-0.3c-2-0.6-4-1.1-6-1.7
		c-0.3-0.1-0.6-0.2-0.9-0.3c-3.1,0-6.1-0.2-9-1.3c-1.4-0.5-1.3-2.9,0.4-2.7c0.4,0.1,0.9,0.1,1.3,0.1c0.6,0,1.1,0,1.6,0.1
		c7.5,0.4,15.5-0.7,22.7,1.8c6.6,2.3,12.1,6.1,17,11c0.6,0.6,0,1.5-0.6,1.5c0.4,0.5,0.8,1,0.9,1.8
		C174.6,434.9,174.6,435.1,174.5,435.3z M196.5,384.1c-15.7-3.3-31.6-6.4-47.4-1.9c-0.3,0.1-0.4-0.3-0.1-0.4
		c15.6-4.8,32.3-3.7,47.9,0.8C197.8,382.9,197.4,384.3,196.5,384.1z M214,352.8c-6-0.2-11.4,1-17.3,2c-5,0.9-10.1,1-15,2.5
		c-0.4,0.1-0.6-0.5-0.2-0.7c5.9-1.9,12.3-2.3,18.3-3.6c4.7-1,9.4-1.9,14.2-1.2C214.7,352,214.5,352.8,214,352.8z M211.3,350.6
		c-0.4,0-0.4-0.5,0-0.6c6.9-0.6,13.5,2.1,20.2,3.3c4,0.7,9.6,1.6,11.2,6c0.6,1.5-1.8,2.4-2.6,1.1c-2.3-4-8.5-3.6-12.3-5.1
		C222.3,353,217.5,350.6,211.3,350.6z M264.9,515.5c-5.4-5.5-11.5-8.8-18.2-12.4c-5.2-2.8-10.2-6.4-15.9-8.1c-1.2-0.4-0.7-2,0.5-1.8
		c6.5,0.9,12.3,5.7,18.1,8.6c6.4,3.2,13,6.5,17.3,12.4C267.4,515.2,265.7,516.4,264.9,515.5z M273.5,283.3c-1.5-1.1-3-1.9-4.5-2.5
		c1.4,0.3,2.8,0.7,4.2,1.2c1.8,1.2,3.3,2.4,4.7,3.8c0.3,0.6,0.6,1.3,0.9,1.9c0.4,0.7,0.8,1.6,1.3,2.4c0.4,1.4,0.7,2.8,1.1,4
		c0.3,1.1,0.7,2.2,1.1,3.2c0.2,3.2,0.6,6.5,1.4,9.6c0.2,4.6,0.9,9.2,2.9,13.1c0,0-0.1,0.1-0.1,0.1c-0.5-1.4-1.1-2.8-1.6-4.2
		c-1.8-4.7-2.2-9.4-2.6-14.4C281.4,294.7,279.2,287.6,273.5,283.3z M285.6,347.4c-0.3,1.7-2.9,1-2.6-0.7c1.6-9.2,5.5-19,0.5-27.9
		c-0.1-0.1,0.1-0.3,0.2-0.1C288.7,326.6,287.2,338.6,285.6,347.4z M397.7,304.8c1.1,0,1.1,1.6,0,1.6c-9.8,0.2-19.8,0.8-29.4-1.1
		c-0.5-0.1-0.4-0.9,0.1-0.9C378.1,305.5,387.8,304.7,397.7,304.8z M363.4,305.2c-0.5-7-1-13.9-1-20.9c0.1-12.1,2.6-24.6-0.1-36.5
		c0,0,0,0,0,0c0.1-0.3,0.1-0.7,0.2-1c3.2,1.4,7.7,1,10.8,1.2c0.6,0,1.2,0.2,1.8,0.3c0,0.1,2.5-0.1,2.5,0c0.5,8.6,0.4,17.2,0.1,26.1
		c0,1.4,0.1,3.3,0.3,3.6c1.1,8.4,1.6,16.9,1.9,25.4c-4.5,0.2-8.9,0.3-13.3,1.1C365.6,304.7,364.5,304.9,363.4,305.2z M366.3,323.1
		c-0.1,0-0.1-0.2,0-0.2S366.4,323.1,366.3,323.1z M377.3,213.1c0.5,0.8,1.1,1.6,1.8,2.3c0,0,0,0,0,0c-0.4,0.3-0.2,1.1,0.5,1.2
		c1.2,0.1,2.3,0,3.4-0.6c0.7-0.4,0.2-1.6-0.5-1.3c-0.9,0.4-1.8,0.5-2.8,0.5c0-0.1,0-0.2-0.1-0.3c-0.6-0.7-1.2-1.4-1.7-2.2
		c-0.1-0.1-0.3-0.1-0.4-0.1c0,0,0,0,0-0.1c-0.1-0.5-0.2-1-0.2-1.5c0-0.1-0.2-0.2-0.2-0.1c0-0.2,0-0.3,0-0.5c0-0.2,0.1-0.5,0.2-0.7
		c0.1-0.3,0-0.5-0.1-0.6c0-0.1,0-0.2,0-0.2c0,0,0,0,0,0c0.6-0.2,1.1-0.6,1.6-1.1c0.4,0,0.8-0.1,1-0.5c0,0,0,0,0-0.1
		c0.3-0.2,0.6-0.4,1-0.5c0,0,0.1,0.1,0.1,0.1c-0.7,0.3-1.3,0.9-1.9,1.6c0,0,0,0,0,0c-0.2-0.1-0.4,0.2-0.2,0.3
		c0.1,0.1,0.2,0.2,0.3,0.2c0.1,0.1,0.3,0,0.3-0.2c0,0,0,0,0,0c0.8-0.9,1.9-2.1,3.2-1.3c1,0.6,1.5,2.1,2,3.1c0.1,0.2,0.3,0.3,0.5,0.2
		c1.5,1,1,2.7,0.7,4.3c-0.2,0.2-0.3,0.5-0.3,0.9c0.1,1.6,0,3-0.1,4.5c-0.6,1.1-1.2,2.1-2.1,2.8c0,0,0,0-0.1,0.1
		c-0.2,0.2-0.4,0.3-0.7,0.4c-1-1.4-1.9-2.6-2.3-4.3c-0.1-0.4-0.4-0.5-0.7-0.4c0,0,0,0,0-0.1c0.1-0.3,0.1-0.5,0.1-0.8
		c0.1,0,0.2-0.1,0.2-0.3c0-0.3,0-0.5-0.1-0.8c0-0.2-0.3-0.2-0.4-0.1c-0.1-0.4-0.3-0.7-0.5-1.1c-0.1-0.4-0.2-0.8-0.4-1.2
		c-0.1-0.1-0.1-0.2-0.2-0.2c0.1-0.5-0.2-0.9-0.6-1.1c-0.2-0.7-0.4-1.3-0.4-2c0.1,0.4,0.1,0.8,0.2,1.2c0,0.1,0.1,0.1,0.1,0.1
		C377.2,212.9,377.2,213,377.3,213.1z M373.7,202.9c0,0.6,0,1.1,0.1,1.7c-0.2,0-0.4,0.1-0.6,0.4c-0.1,0.3-0.3,0.6-0.4,1
		C373.1,204.9,373.4,203.9,373.7,202.9z M373.5,226.3c0.2,0.1,0.3,0.3,0.5,0.4c0.4,0.3,0.8,0.3,1.2,0.1c0.3,0.1,0.6,0.2,0.9,0.3
		c0.1,0,0.1,0,0.2,0c1.5,0.4,3.1,0.7,4.4,1.6c0.3,0.2,0.7,0.3,0.9,0.1c-0.2,0.5-0.3,0.9-0.5,1.4c-0.1,0.1-0.1,0.2-0.1,0.4
		c0,0.1,0,0.1-0.1,0.2c0-0.4,0-0.8-0.1-1.2c-0.1-0.8-1.2-0.8-1.2,0c-0.2,5.6-1,11.2-0.8,16.8c-1.5-0.3-3.1-0.9-4.2-1
		c-3.4-0.4-6.8,0-10.2-0.5c0.8-0.7,0.6-2.5-0.9-2.5c-0.3,0-0.5,0-0.8,0c0-2.9-0.3-5.8-0.3-8.6c-0.1-4,0.4-8.8-0.5-13
		C365.9,222.6,369.6,224.8,373.5,226.3z M361.9,201.1c0.2,3.2,0.5,6.3,0.8,9.5c-0.1-0.4-0.1-0.9-0.2-1.3c-0.3-2.5-0.4-5-0.6-7.4
		c0-0.1-0.1-0.3-0.1-0.3C361.8,201.4,361.8,201.2,361.9,201.1z M316.5,218.8c5.6,1.4,11.5,2.2,17.3,2.4c4.9,0.2,9.9-0.7,14.8-1.3
		c3.8-0.5,7.8-0.4,11.5-1.1c0,0,0,0.1,0,0.1c0,0.1,0,0.1,0.1,0.2c-0.4,0.1-0.5,0.8,0,0.9c0.1,0.1,0.3,0.1,0.4,0.2
		c0.8,3.8,0.3,8.1,0.3,11.8c0,3.3,0.2,6.9,0.1,10.3c-7.7,0-15.3,0.6-23,1c-7.3,0.4-14.7-0.7-22,0.7c0.1-8.4,0.9-16.8-0.1-25.1
		C316.2,219,316.3,218.9,316.5,218.8z M311.6,304.1c0.3-0.5,0.7-0.9,1.2-1.3c0.2-0.2,0.6,0.1,0.4,0.4c-1.3,1.2,0.2,0.3,1.1,0.2
		c0.7-0.1,1.8-0.2,2.5-0.1c1.6,0.2,3.2,0.5,4.7,1.1c4.4,1.9,8,5.2,11.8,8c0.7,0.5,0,1.7-0.7,1.2c-6.7-4.7-11.9-10.6-20.8-9.1
		C311.6,304.6,311.5,304.3,311.6,304.1z M294.5,330.2c-0.6,0.2-0.9-0.8-0.3-1c9-3.5,19.9,0.4,28.3,3.8c0.8,0.3,0.5,1.6-0.4,1.3
		C313.5,331.4,303.7,327.1,294.5,330.2z M353.3,432.6c-6.5,0.3-12.5-2.8-19.2-2.1c-6.5,0.7-13.7,1.2-19.6,4.3
		c-0.6,0.3-1.1-0.6-0.5-0.9c6-3.3,13.1-4.4,19.8-5.4c6.9-1.1,12.7,1.2,19.4,1.6C354.9,430.2,354.9,432.5,353.3,432.6z M354,311.8
		c-6.3-3.1-13.9-2.1-20.8-0.1c1.8-3.9,5.8-6.9,4.9-11.7c-0.9-5.2-1.4-10.5-2.6-15.7c-1.7-7.7-8.6-12.6-16.4-10.6
		c-2.1,0.5-3.9,1.5-5.6,2.9c0.2-2.3,0.4-4.7,0.6-6.9c0.7-7.7,2.8-15.8,2.6-23.6c7.1-0.1,14.2,0.2,21.3,0c7.5-0.2,14.9-0.9,22.4-0.9
		c0.1,0.7,0.2,1.4,0.2,2.1c0,0.2,0,0.3,0,0.4c1.3,12.3-0.3,24.2-0.7,36.5c-0.2,7.2,0.1,14.5,0.6,21.8
		C357.6,307.1,354.9,308.9,354,311.8z M381.5,357.5c-3.9,0.1-7.6-1.5-11.5-1.9c-3.4-0.3-6.6-1.1-10-1.3c-0.8,0-0.8-1.2,0-1.2
		c7.1,0.1,14.5,0.9,21.5,1.8C383.1,355.1,383.2,357.5,381.5,357.5z M399.4,345.3c-4-4.3-8.6-4.9-14-6.1c-5.4-1.3-10.5-3.1-16.1-3.5
		c-0.8-0.1-0.8-1.1,0-1.2c6.6-0.4,13.1,1.9,19.5,3c4.8,0.8,9.7,2.1,12.6,6.2C402.4,344.9,400.4,346.4,399.4,345.3z M402,326.3
		c-4.8-2.7-9.6-5.3-14.6-7.5c-3.7-1.6-15.9-7.8-18.7-2.2c-0.2,0.4-0.9,0.1-0.7-0.3c2.2-5.5,11.2-2.1,15-0.7
		c6.8,2.5,13.5,5.8,19.7,9.5C403.5,325.5,402.8,326.7,402,326.3z M486.8,308.2c6.9-2.7,23.7-5,26.7,4.4c0.4,1.3-1.7,2.2-2.2,0.9
		c-3.4-7.7-17.6-5.7-24.1-3.9C486.2,310,485.9,308.6,486.8,308.2z M413.9,313.1c-1,0.2-1.4-1.2-0.4-1.6c1.5-0.6,3-1.1,4.5-1.6
		c4.9-1.6,10-2.7,15-2.3c0.9,0.1,0.9,1.5,0,1.4c-5.5-0.1-10.6,1.7-15.8,3.2C416.1,312.6,415,312.9,413.9,313.1z M447.1,361.4
		c-8.2-2.1-16.8,1-24.9-0.7c-0.5-0.1-0.3-0.8,0.1-0.8c4.4-0.3,8.9-0.7,13.4-0.9c4.1-0.2,8.1-1,12.2-0.4
		C449.8,358.8,449,361.9,447.1,361.4z M461.3,341.8c-5.3-2.7-11.6-2.3-17.3-1.8c-3.5,0.3-6.8,0.6-10.3,0.1c-3-0.4-5.5-1.5-8.6-0.4
		c-0.2,0.1-0.4-0.1-0.4-0.4c-0.4,0-0.9,0-1.3,0c-0.3,0-0.4-0.5,0-0.5c5.8-0.3,8.8-5.1,12.3-9.1c0,0,0.1-0.1,0.1-0.1
		c3.1-3.5,6.8-6.6,11-8.8c0.8-0.4,1.4,0.7,0.7,1.1c2.7-0.3,5.5-0.8,8.2-0.9c0.1-0.2,0.3-0.3,0.6-0.2c0.3,0.1,0.5,0.1,0.8,0.2
		c0.9,0,1.7,0.1,2.6,0.2c0.2,0,0.4,0.1,0.5,0.3c4.7,0.4,9.2-0.7,13.8-2.2c0.9-0.3,1.3,1.1,0.4,1.4c-4.6,1.6-9.6,2.5-14.5,1.9
		c-0.1,0.1-0.2,0.2-0.4,0.2c-4.4,0.6-9.5,0.7-13.9,0.4c-2.9,1.9-5.7,3.8-8,6.4c-0.2,0.2-0.3,0.4-0.5,0.6c-1.4,1.6-2.7,3.3-4.2,4.8
		c-1.3,1.3-2.6,2.4-4.1,3.2c1.2,0,2.4,0.1,3.8,0.3c4.4,0.7,8.5-0.1,12.8-0.5c5.8-0.6,11.9-1,17.4,1.5
		C464.1,340.2,462.8,342.5,461.3,341.8z M455.8,335.2c-1.8,0.2-3.6,0.2-5.4,0.1c-2.5-0.1-4.9-0.4-7.4-0.5c-0.1,0-0.1-0.1,0-0.1
		c1.8-0.1,3.6-0.1,5.3-0.1c2.4,0.1,4.9,0.1,7.3-0.3c3.8-0.7,7.4-1.8,11.2-2.4c0.6-0.1,0.9,0.8,0.3,1
		C463.5,333.9,459.6,334.7,455.8,335.2z M498.1,354.2c-1.1-2.4-1.6-5.5-3.2-7.6c-0.7-0.9-1.4-1.6-2.3-2.2c-2-1.4-4.4-2-6.8-2.9
		c-5.9-2-11.8-3.1-18.1-2.8c-0.4,0-0.5-0.6-0.1-0.7c0.1,0,0.2,0,0.2,0c0-3.2-0.2-6.3,1.1-9.2c0.2-0.5,1.2-0.1,0.9,0.4
		c-1.1,2.8-1,5.7-1,8.6c7.2-1.2,14.8,1,21.5,3.5c2.4,0.9,4,2,5.2,3.5c2,2.3,3,5.2,4.4,8.7C500.5,354.5,498.6,355.3,498.1,354.2z
		 M505.7,345.2c-0.3,2.4-1.1,4.7-2.2,6.6c-0.6,1-2.1,0.1-1.6-0.9c0.9-1.7,1.5-3.7,1.8-5.8c1.5-10.3-3.4-24-13.4-26.9
		c-0.3-0.1-0.2-0.6,0.1-0.5C500.6,320.2,507.1,334.4,505.7,345.2z M503.7,323c-0.9-0.1-0.9-1.3,0-1.3c5.7-0.3,10.7,2.6,16.2,3.4
		c4.5,0.6,10,0.5,13.3,4.1c0.9,1-0.3,2.7-1.4,1.9c-4.3-2.9-8.9-2.6-13.7-4C513.3,325.6,508.7,323.3,503.7,323z M554.9,366.6
		c-10-7.6-23.6-5.2-35.3-5.2c-0.6,0-0.6-0.9,0-0.9c12.1-0.2,26-4,36.7,3.5C558,365.2,556.4,367.7,554.9,366.6z M557.7,301.5
		c-8.3,1.1-7.9,10.3-11.3,15.9c-0.5,0.9-1.6,0.2-1.5-0.6c0.5-3.6,2.5-8.1,4.5-11.1c2.1-3,4.6-4.8,8.2-5.2
		C558.3,300.4,558.3,301.4,557.7,301.5z M822.8,191.4c1.9-7.6,4.5-15,6.7-22.6l-14.3,70.6C817,223.3,818.8,207.1,822.8,191.4z
		 M814.6,322c1.3,0.2,0.7,2.1-0.5,1.9c-11.2-1.5-24,7.7-24.6,19c0,0.6-1,0.6-1,0C788.1,330.7,802.7,319.8,814.6,322z M768.5,332
		c4-1.6,9-2.5,13.4-2.1c0.4,0,0.7,0.1,1.1,0.1c1.3,0.2,0.9,2.1-0.3,2.1c-3,0.2-5.9,0.1-8.8,0.3c-1.6,0.1-3.3,0.4-5,0.9
		C767.9,333.6,767.6,332.3,768.5,332z M745.3,309.4c2.3-6.9,10.3-21,19.4-16.9c0.7,0.3,0.2,1.4-0.5,1.2
		c-7.8-3.2-14.8,10.6-16.8,16.4C746.9,311.3,744.8,310.7,745.3,309.4z M706.1,331.3c2.2,1.9,6.1,1.9,8.8,2.9
		c2.2,0.8,4.3,1.7,6.5,2.5c2.5,0.9,4.9,2,7.4,3c2,0.8,4,1.7,6,2.5c0.5,0.2,0.9,0.6,0.9,1.2c0,1.8,0.5,3.5,1.5,5
		c0.7,1.3-1.3,2.5-2,1.2c-1.7-2.8-1.4-5.2-4.6-6.6c-2.7-1.2-5.4-2.4-8.1-3.5c-0.6-0.3-1.2-0.5-1.9-0.8c-3.5-1.5-6.9-3.2-10.6-4.2
		c-1.9-0.5-3.3-0.9-4.6-2.4C704.8,331.5,705.5,330.8,706.1,331.3z M688.3,358.7c0.1,0.8-1.1,0.8-1.2,0c-0.5-5-1-10.7-3.1-15.5
		c-0.7-1.6-1.6-3.1-2.7-4.5c-0.4-0.5,0.3-1.3,0.8-0.8c1.3,1.5,2.3,3.2,3,5c0.6,1.3,1,2.7,1.4,4.1c8.1-0.6,15.8,2.6,23.2,5.2
		c2.5,0.9,5.7,1.6,7.9,3.3c0.7,0.6,1.6,1.1,2.1,1.9c0.3,0.5,4.5,0.6,5.4,0.7c1.3,0.2,1,2.4-0.3,2.3c-1.4-0.1-5.8,0.7-6.7-0.9
		c-1.8-3.2-5.8-4-8.9-5.2c-7.2-3-14.5-5.8-22.3-6C687.6,351.7,687.9,355.3,688.3,358.7z M679,330.6c-0.8,0-0.8-1.2,0-1.2
		c7.4-0.1,14.4,1.5,21.8,0.1c1.1-0.2,1.6,1.4,0.5,1.7C694.2,333.6,686.2,331,679,330.6z M678.3,323.1c4-0.1,7.9,0.2,11.8,0.9
		c3.9,0.7,8.2,2.2,12.2,1.4c0.5-0.1,1.1,0.1,1.2,0.7c0.6,1.1,1.2,2.2,1.8,3.3c0.9,0.8-0.4,2-1.3,1.3c-0.4-0.3-2.3-3.1-2.6-3.1
		c-1.6,0.3-3.5-0.1-5.1-0.4c-6-1.4-11.9-2.5-18-2.9C677.6,324.2,677.5,323.1,678.3,323.1z M672.3,331.9c2.5-0.2,2.2-3.3,4.1-4.2
		c0.3-0.1,0.8,0.2,0.5,0.5c-0.8,1-1.3,2.2-2.1,3.2c-0.3,0.4-0.7,0.8-1.3,1c-0.6,0.1-0.9,0-1.4-0.2
		C672.1,332.1,672.2,331.9,672.3,331.9z M645.9,331.9c10.8-5,22.1-1.7,31.1,5.4c0.5,0.4-0.2,1.3-0.7,0.9c-9-6.6-19.4-10-30.3-6.1
		C645.9,332.1,645.8,332,645.9,331.9z M630.8,348.8c1.1,0.7,0.1,2.3-1,1.8c-4.4-2.3-9-4.1-13.7-5.7c-0.1,0-0.2-0.1-0.4-0.1
		c-2.5-0.9-6.3-3.5-8.9-2.4c-0.6,0.2-1-0.6-0.6-1c2.3-2.2,5.9,0.3,8.4,1.1c4,1.3,8.1,2.5,11.9,4.3
		C628,347.2,629.5,347.9,630.8,348.8z M629.5,363.6c-3.8,2.1-8.3,1.9-12.5,1.8c-4-0.1-10.2-1-13.7,1.1c-0.6,0.3-1.2-0.4-0.7-0.9
		c2.2-2.2,6.2-1.9,9-2.1c5.8-0.3,11.5,0,17.1-1.9C629.9,361.2,630.6,363,629.5,363.6z M601.6,325.9c1.5-0.4,3.2,0,4.7,0.2
		c1.8,0.3,3.6,0.6,5.4,1.2c0.5,0.2,0.7,0.6,0.7,1c4.5-1.1,9.6-2.4,14.2-1.7c0.9,0.1,0.6,1.4-0.2,1.5c-4.8,0.5-9.7,0.7-14.5,1.4
		c-0.2,0-0.3,0-0.4-0.1c-0.1,0-0.2,0-0.3-0.1c-3.1-1.1-6.6-1.3-9.6-2.6C601.1,326.5,601.2,326,601.6,325.9z M571.2,301.1
		c7.2,1.2,14.2,1.6,21.5,1.7c1.2,0,1.1,1.7,0,1.8c-7.3,0.4-14.7-0.8-21.8-2.3C570.1,302.1,570.4,300.9,571.2,301.1z M578.7,368
		c-0.5-0.4,0.2-1,0.7-0.7c5.9,4.9,13.8,6.6,19.4,12c0.5,0.5-0.2,1.1-0.7,0.7C592.1,375.1,584.5,373,578.7,368z M622.3,390
		c-9.7,0.9-18.3-1.3-25.2-8.4c-0.7-0.7,0.4-1.7,1.1-1.1c7,6.5,14.9,7.8,24.1,7.6C623.6,388,623.5,389.8,622.3,390z M664.6,401
		c-6.2-4.5-13-7.5-20.1-10.5c-4.1-1.7-10-3.6-14.6-2.9c0,0.4-0.3,0.7-0.7,0.6c-0.3-0.1-0.6-0.2-0.9-0.3c-0.4-0.2-0.6-0.7-0.3-1.1
		c3.5-3.4,12.3-0.8,16.3,0.5c7.4,2.4,16.5,5.8,22.2,11.3C667.6,399.8,666,402,664.6,401z M705.7,406.3c-12.2-1.3-24.1-5-36.3-5.6
		c-0.3,0-0.5-0.5-0.2-0.6c3.6-1.8,9.2-0.1,13,0.5c7.9,1.4,15.9,2.5,23.8,3.8C707,404.6,706.8,406.4,705.7,406.3z M752.9,376.3
		c-9.9-5.8-21.4-8.2-32.8-9c-6.3-0.5-12,0.9-18.2,1.8c-4.2,0.6-9.4,0.4-12.6,3.5c-0.3,0.3-0.8-0.1-0.6-0.5c2-3.4,7.3-3.8,10.7-4.3
		c6.5-1,12.7-3.1,19.3-3c11.8,0.2,25.9,1.5,35.7,8.8C756,374.8,754.6,377.3,752.9,376.3z M784.3,351c-10.3,0.4-20.6-2.4-30.9-0.5
		c-0.7,0.1-1-0.9-0.3-1c10.3-2.2,20.7-1.1,31.1-1.2C786.1,348.3,786.1,351,784.3,351z M799.9,384.7c-1.8,0.1-3.6,0.4-5.5,0.5
		c-0.1,0.2-0.3,0.3-0.6,0.4c-0.3,0.1-0.5,0.1-0.8,0.2c-0.2,0.1-0.4,0.1-0.7,0.1c-1.1,0.1-2.2,0.1-3.3-0.2c-0.8-0.2-1-1-0.8-1.6
		c0,0,0,0,0,0c-0.9-0.1-0.9-1.3,0-1.4c0,0,0.1,0,0.1,0c0.2-0.3,0.5-0.5,1-0.4c0.7,0.1,1.4,0.2,2.1,0.3c2.8,0,5.7,0.2,8.5,0.2
		C801.3,382.6,801.2,384.6,799.9,384.7z M822,385.5c-3.3,0.3-6.7,0.2-10,0c-0.6,0-0.9-0.3-1.1-0.7c-0.1,0-0.3,0-0.4,0.1
		c-1.2,0.2-1.7-1.5-0.5-1.8c2.4-0.6,4.8-0.9,7.2-0.8c0.5,0,0.8,0.3,0.9,0.6c1.3,0,2.5,0.1,3.7,0.2
		C823.5,383.3,823.5,385.4,822,385.5z M814.4,310.5c-5.5-1.5-6.1-8.4-7.3-13c-0.3-1.3-0.8-2.6-1.4-3.7c-1.2-2.3-2.8-4.2-5.3-5.3
		c-0.4-0.2-0.8-0.3-1.2-0.5c0-0.1,0-0.2,0-0.3c2.3,1.2,4.5,2.2,6.1,4.5c0.2,0.3,0.4,0.6,0.5,0.9c1.3,2.3,2,5.2,2.9,7.7
		c1.4,4.2,3.5,7.5,7.6,9.4c2.2,1,15,2.3,14-3c-0.2-1.2-0.9-2-1.8-2.9c-2.6-2.8-3.1-8.3-1.6-11.6c2.4-5.4,10.8-9.2,16.3-9.8
		c0.1,0,0.3,0,0.4,0c-7,1.3-13.4,5.6-15.8,12.3c-0.7,1.9-0.4,4.1,0.1,6c0.7,2.4,5.8,6.5,2,9.2C826.2,313,818.4,311.6,814.4,310.5z
		 M839.7,288.9c-4.3,0.2-7.7,4.1-10.4,7.1c-0.6,0.7-1.7-0.2-1.2-1c3.2-4.9,8.3-8.5,14.3-8.7c0.9,0,0.9,1.4,0,1.4
		c-0.8,0-1.5,0.2-2.2,0.3C840.3,288.3,840.1,288.8,839.7,288.9z M841.3,377c-4.8,0.1-9.8-2.9-14.4-1.4c-1,0.3-1.6-1.2-0.7-1.6
		c4.6-2.4,10.3,1,15.1,1.1C842.6,375.1,842.6,376.9,841.3,377z M867.7,354.6c-10.5-2.4-21.1-3-31.8-1.2c-0.9,0.1-1.2-1-0.4-1.3
		c10.1-3.8,22.7-3.4,32.9,0.1C869.9,352.6,869.3,354.9,867.7,354.6z M874,302.9c-2-3.8-2.5-8.2-5.4-11.5c-0.3-0.4-0.7-0.7-1-1
		c0.9,0.6,1.7,1.3,2.4,2.1c0.6,1,1.2,2,1.6,2.6c2.3,3.5,3.9,7.4,6.4,10.8c2.2,3,5.2,5.2,8.3,7C881.4,310.7,876.8,308.2,874,302.9z
		 M911.8,380.9c-2.9,0.6-5.8,0.9-8.7,1.5c-2.8,0.6-8.6,1.2-9.9,4.3c-0.1,0.2-0.4,0.2-0.4-0.1c0.6-2.8,4.4-3.8,6.7-4.4
		c3.9-1.1,8-1.6,12-2.4C912.3,379.6,912.6,380.7,911.8,380.9z M912.5,351.6c-5.3-3.4-4.5-9.7-5.3-15.6c-0.4-2.9-1.3-6.1-2.6-9
		c1.3,2.2,2.4,4.7,3.4,7.6c1.3,4.1-0.4,10.7,3.5,13.7c1.1,0.9,2.6-0.8,1.9-1.9c1.5-1.8,2.7-3.7,4.7-5c2.1-1.3,4.1-2,5.9-3.8
		c2.4-2.5,2.3-3.7,0.8-6.6c-2-3.8-2-7.9-0.7-11.8c-1,5.5,0.5,11.4,4,16.3C921.4,340.5,914.5,343,912.5,351.6z M966.8,325
		c-0.1,4,1,6.2,3.4,9.2c1.5,1.8,3.3,3.2,5,4.8c2.4,2.5,2.6,6.3,2.7,9.5c0,0.6,0.3,0.9,0.7,1.2c-1.6,9.7-3.7,19.2-5.1,29
		c0,0.1,0,0.2-0.1,0.4c0.1-1.5,0.2-3.1,0.3-4.6c0.5-6.1,1.8-12.1,2.6-18.1c0.8-5.5,2.7-13-2-17.3c-1-0.9-2.3-1.6-3.5-2.3
		c-3.7-2.3-5-5.7-5-10c0-4.3,0.8-8.1-0.9-12.3c-2.2-5.2-7.4-8.2-13.3-9.5c3.7,0.6,7.3,2,10.4,4.4C966.7,312.8,967,319.9,966.8,325z
		 M401,95.7c0.6,0.1,0.8-0.4,0.6-0.9l91.2-2.1c32.9-1.1,65.6-3,98.5-2.4c32.8,0.5,65.4,1.6,98.1-0.6c32.5-2.2,64.9-2.4,97.3-5.9
		c20.8-2.2,41.7-3.3,62.7-3c21.7,0.2,43.4,1.2,65.1,1.2c14.8,0,29.2,1.4,43.9,2.3c1,0.1,2.1,0.1,3.3,0.2c-7.4,0-14.8,0-22.2,0
		c-22.4,0-44.7,0-67.1,0.7c-5.6,0.2-10.9,0.8-16.4,1.5c-2.8,0.3-5.5,0.6-8.3,0.8c-1.4,0.1-5.6,0.8-6.8-0.4c-0.7-0.7-2,0.3-1.4,1.1
		c0,0,0.1,0.1,0.1,0.1c-0.1,0.5-0.2,1-0.4,1.5c0,0.1,0,0.2-0.1,0.3c-1.4,0-2.9,0-4.3,0c-10.8-0.1-21.5,0-32.3,0.7
		c-0.7,0-1.3,0.1-2,0.1c-16,1.3-31.8,3.5-47.7,5.2c-25.6,2.7-51.4,2.3-77.2,1.6c-4.7-0.1-9.4-0.3-14-0.4c-2.3-0.1-4.6-0.1-7-0.2
		c-28.3-0.8-56.7-2-85-3.1c-4.7-0.2-9.5-0.4-14.2-0.6c-32.6-1.2-64.8,5.6-97.2,8.4c-10,0.9-20.3,2-30.6,2.4
		c-9.4,0.4-18.9,0.1-28-1.6c0.1-0.4,0.1-0.7,0.2-1.1c0.3-1.9,0.5-3.9,0.7-5.8C400.7,95.7,400.8,95.7,401,95.7z"/>
	<path fill="#1A1C19" d="M78.8,276.8c0,0.5,0,1,0,1.5c0-0.1,0.1-0.2,0.1-0.4c0.1-0.2,0.2-0.3,0.4-0.4
		C79.2,277.4,79,277.1,78.8,276.8C78.8,276.8,78.8,276.8,78.8,276.8z"/>
	<path fill="#1A1C19" d="M380.8,211.3c0.3,0,0.7,0,1,0c0.3,0,0.3-0.5,0-0.5c-0.3,0-0.7,0-1,0C380.4,210.7,380.4,211.3,380.8,211.3z"
		/>
	<path fill="#1A1C19" d="M383.5,212.4c-1,0.1-2,0.4-2.9,0.9c-0.2,0.1,0,0.5,0.2,0.4c0.9-0.4,1.7-0.9,2.7-1.1
		C383.6,212.6,383.6,212.4,383.5,212.4z"/>
	<path fill="#1A1C19" d="M372.8,193.2c-0.1,0.4-0.1,0.7-0.1,1.1c0,0.2,0.4,0.3,0.4,0.1c0.1-0.3,0.1-0.7,0.2-1
		C373.4,193,372.9,192.8,372.8,193.2z"/>
	<path fill="#1A1C19" d="M371.1,178.4c-0.6-0.3-1.3-0.4-1.9-0.3c-0.2-0.1-0.3-0.1-0.5-0.1c-1.4,0.1-2.7,0.9-4,1.6
		c-0.1,0.1-0.3,0.1-0.4,0.2c-0.1,0-0.1,0.1-0.2,0.1c-0.9,0.4-1.5,0.9-1.7,1.8c-0.5,0.8-0.8,1.9-0.9,3.2c0,0.3,0.3,0.5,0.5,0.4
		c-0.1,0.4,0,0.7,0,1.1c0,0,0,0,0,0c-0.3,0.5-0.9,0.6-1.1,1.2c-0.2,0.5,0,1.1,0,1.6c0,0.2,0.4,0.2,0.4,0c0-0.5-0.2-1-0.1-1.6
		c0.1-0.5,0.8-0.7,1-1.2c0-0.1,0-0.1-0.1-0.1c0.1-1.2,0.4-2.2,1.4-2.9c0,0,0,0,0,0c0.1,0,0.1,0,0.2-0.1c0.1,0,0.3,0,0.5,0
		c0.9-0.2,1.9,0.2,2.8,0.2c0.2,0,0.4-0.1,0.5-0.1c1,0.1,1.9,0.4,2.9,0.5c0.1,0.4,0.2,0.8,0.4,1.2c0.2,0.6,0.3,1.2,0.4,1.8
		c0,0.2,0.2,0.3,0.4,0.3c0,0,0,0,0,0c0.3,0.6,0,1.2-0.1,1.9c0,0.2,0.1,0.3,0.2,0.3c0,0,0,0.1-0.1,0.1c-0.4,0.4,0.1,1.1,0.6,0.8
		c0.4-0.2,0.6-0.6,0.9-1c0.2-0.1,0.5-0.1,0.8-0.1c0,0,0,0,0,0c0.2,0.2,0.5,0.3,0.6,0.1c1.3-1.6,0.3-4.6,0-6.4c0-0.1-0.1-0.2-0.2-0.2
		c0,0,0,0,0-0.1C374.3,180.2,373,179.3,371.1,178.4z"/>
	<path fill="#1A1C19" d="M368,190.1c0,0.1,0.1,0.2,0.2,0.2c0.1,0,0.1,0,0.2,0c0,0,0.1,0.1,0.2,0.1c0.1,0,0.2-0.1,0.2-0.1
		c0.1-0.1,0.3-0.1,0.4-0.3c0.2-0.2,0.1-0.5-0.2-0.5c0-0.1-0.1-0.1-0.1-0.2c0.5,0,1-0.2,1.5-0.3c0.6-0.2,0.3-1.1-0.2-0.9
		c-0.7,0.2-1.3,0.5-2,0.5c-0.4,0-0.4,0.5-0.1,0.7c0,0-0.1,0.1-0.1,0.1C367.7,189.5,367.7,189.9,368,190.1z"/>
	<path fill="#1A1C19" d="M369.6,198.4c0.6-0.4,1.2-0.9,1.7-1.4c0.4-0.4,0.9-1,0.8-1.6c-0.1-0.2-0.4-0.2-0.5,0
		c-0.4,1-1.5,1.8-2.3,2.4C368.9,198.1,369.3,198.6,369.6,198.4z"/>
	<path fill="#1A1C19" d="M361.4,190.5c-0.1-0.3-0.5-0.2-0.5,0.1c0.1,0.6,0.4,1.1,1,1.4c0.5,0.2,0.8-0.5,0.3-0.7
		C361.8,191.2,361.5,190.9,361.4,190.5z"/>
	<path fill="#1A1C19" d="M364.9,189.3c-0.3-0.1-0.6,0.4-0.3,0.6c0.1,0,0.1,0.1,0.2,0.1c0,0.2,0.2,0.3,0.4,0.3c0.1,0,0.2,0,0.2-0.1
		c0.2,0,0.3-0.1,0.3-0.2c0,0,0,0,0,0c0.1,0,0.1-0.2,0.1-0.3c0-0.1-0.1-0.2-0.2-0.3c0-0.1,0-0.1-0.1-0.1c0,0,0,0,0,0
		c0.5,0.1,0.7-0.6,0.2-0.7c-0.7-0.3-1.4-0.7-2.2-0.6c-0.4,0-0.4,0.6,0,0.6c0.5,0,1,0.3,1.5,0.5C365,189.2,365,189.3,364.9,189.3
		C364.9,189.3,364.9,189.3,364.9,189.3z"/>
	<path fill="#1A1C19" d="M366.6,193.1c0.1,0,0.1,0,0.2,0c0,0,0.1-0.1,0.1-0.1c0.1-0.1-0.1-0.2-0.2-0.2c0,0-0.1,0.1-0.1,0.1
		c0,0-0.1,0.1-0.1,0.1c0,0-0.1,0-0.1,0c0,0-0.1,0-0.1,0c0-0.1-0.1-0.1-0.2-0.1c0,0,0,0,0,0c0,0,0,0,0-0.1c-0.1-0.1-0.3-0.2-0.5-0.3
		c-0.1-0.1-0.2,0.1-0.1,0.2c0.1,0.1,0.3,0.2,0.4,0.3c-0.1,0.2-0.1,0.5,0.2,0.5c0.1,0,0.2,0,0.2-0.1c0,0,0.1,0,0.1,0
		C366.6,193.3,366.6,193.2,366.6,193.1z"/>
	<path fill="#1A1C19" d="M366.3,193.6C366.4,193.6,366.4,193.5,366.3,193.6C366.3,193.5,366.3,193.6,366.3,193.6z"/>
	<path fill="#1A1C19" d="M379,99.4c1.3,0,1.3-2,0-2c-27.6-0.6-53.2-2-73.3-1.1c-1,0-1,1.5,0,1.5C330.1,97.5,354.5,99.5,379,99.4z"/>
	<path fill="#1A1C19" d="M1001,19.6c-33.5,0-66.9,0.7-100.4,1.3c-16.7,0.3-33.4,0.6-50.1,0.7c-16.1,0.2-32.1-1.1-48.1-2.1
		c-15.9-1-31.8-1.5-47.7-0.1c-15.6,1.4-31.1,4.8-46.6,7.2c-32.9,5.2-66,9.4-99.2,12.2c-32.4,2.7-64.9,3.3-97.5,2.5
		c-32.7-0.8-65.3-2.6-98-2.6c-32.7,0-64.8,3.5-97.3,6.9c-32.5,3.5-65,6.7-97.7,8.5c-38.8,2.2-77.7,1.4-116.5,4.2
		c-18.6,1.4-37.5,2.5-56,5.5c-18.9,3-37.8,7.6-57.1,6.5c-0.8-0.1-0.8,1.2,0,1.3c15,1.2,29.9-1.1,44.7-3.6
		c16.2-2.7,32.4-4.5,48.7-5.8c32.9-2.7,65.6-3.6,98.6-4.1c32.8-0.6,65.5-3,98.2-6.1c32.4-3.1,64.8-7.7,97.3-9.7
		c65.1-3.9,130.2,3.9,195.3,1.4c32.7-1.3,65.4-4.5,97.8-8.8c15.7-2.1,31.3-4.4,46.9-6.9c16.6-2.7,33-6,49.7-6.6
		c18.4-0.7,36.8,1,55.2,2.1c19.7,1.2,39.4,0.8,59.1,0.5c40.1-0.6,80.3-1.6,120.4-1.6C1002.8,22.4,1002.8,19.6,1001,19.6z"/>
</g>
<path fill="#86BEDB" d="M474.3,123.6C474.3,123.6,474.3,123.7,474.3,123.6C474.4,123.7,474.4,123.6,474.3,123.6z"/>
</svg>
