<?xml version="1.0" encoding="utf-8"?>
<!-- Generator: Adobe Illustrator 18.0.0, SVG Export Plug-In . SVG Version: 6.00 Build 0)  -->
<!DOCTYPE svg PUBLIC "-//W3C//DTD SVG 1.1//EN" "http://www.w3.org/Graphics/SVG/1.1/DTD/svg11.dtd">
<svg version="1.1" id="Layer_1" xmlns="http://www.w3.org/2000/svg" xmlns:xlink="http://www.w3.org/1999/xlink" width="1920px" height="1080px" x="0px" y="0px"
	 viewBox="0 0 1920 1080" enable-background="new 0 0 1920 1080" xml:space="preserve">
<rect x="-49.7" y="-130.7" fill="#1A1C19" width="2037.1" height="1306.6"/>
<path fill="none" stroke="#86BEDB" stroke-width="104" stroke-miterlimit="10" d="M2098.1-242c-20,10-276,224.7-334,405.3
	s-24,343.7-72,479.2s-234,229.5-216,363.5s160,298,160,298"/>
<path fill="#FDD007" d="M2401,487.6c-190.7-7.6-381.3-15.2-572-22.8C1707.5,256,1586,47.2,1464.5-161.6l-84.7,35
	c6.2,10.7,12.5,21.4,18.7,32.1l-44.1-5.1c78.5,35.9,119.8,127.3,120.1,213.6s-32.9,168.9-68.3,247.6
	c-67.4,149.9-144.4,288-225.8,424.6l-0.3,0.1c-16.7,18.1-38.2,31.4-60.9,40.7c-22.8,9.4-46.9,15-71.1,19.5
	c-11.6,2.2-23.4,4-35.2,4.4c-30.4,0.8-60-8.8-88.9-18.6c-31.7-23.7-63.3-47.5-94.7-71.5c92.6-136.4,183.1-269.8,271.9-400.7
	c-92-64.6-185.2-129.2-275.6-197.1C874.2,79.7,920.5-5,963.2-91.6l-19-25c-44,89.2-91.7,176.3-142,262
	c-45.3-34.5-89.8-69.9-133-106.5c-35.9-30.5-71.1-61.8-108.1-91c-6.2-4.9-12.4-9.7-18.7-14.4c4.9-7.8,9.8-15.6,14.7-23.3l-22.8-13
	c-4.3,6.9-8.7,13.8-13,20.7c-87.7-63.8-182.9-117.1-277.7-170.1L223.5-230C320-176.4,416.7-122.3,505.6-57.1
	C428.1,66.1,350.5,189.4,273,312.6C161.9,218,52.3,121.6-55.7,23.4l-74.7,74.7C-16.6,201.7,99,303.2,216.4,402.7
	C86.5,609.2-43.4,815.6-173.2,1022.1c-0.3,0.4-0.7,0.8-1.2,0.9l22.8,13c0.5-0.1,0.9-0.5,1.2-0.9c129-205.1,258-410.2,387-615.3
	C320.9,491,406,561.1,492.1,630.2c-130.4,194.4-262,388.1-379.7,590.1l19,25c118.9-204.2,252.1-400,383.9-596.5
	c74.8,59.8,150.3,118.7,226.4,176.9c-89.3,131.5-178.5,263.1-267.8,394.6l33.9,13.9c89.5-131.9,176.9-260.6,262.5-386.8
	c31.2,23.7,62.5,47.3,93.9,70.7l0,0c0,0,0,0,0.1,0c1.2,0.9,2.4,1.8,3.7,2.7c3.4,3.5,5.8,8.7,8,12.6c23.7,41,36.9,88,37.9,135.4
	c1,47.4-10.1,94.9-32.1,136.9l24.2,14.5l42.2-68.6c6.9-22.2,11.2-45.2,12.7-68.4c2.6-39.4-3.6-81-26.9-112.9v-0.4
	c30.9,22.8,62,45.4,93.1,67.9c-17.2,28.2-34.5,56.6-51.8,85.2l112.3,28.1c9.9-16.3,19.7-32.5,29.6-48.8
	c135.1,95.9,272,189.3,410.6,280.1l74.7-74.7c-93-60.9-185.2-123-276.7-186.2l-0.3-1.1c-34.6-35.6-49.7-86.7-50.8-136.3
	c-0.2-10.4,0.1-20.8,0.4-31.2c0.5-17.1,1.1-34.1,1.6-51.2c0.4-11.4,0.7-22.8,2.1-34.2c3-24.3,10.6-47.9,19.9-70.5l-0.5,0.2
	c79.4-138.8,154.6-279.8,220.5-425.4c23.3-51.4,39.1-130.9,51.6-185.7c94.8,162.9,196.2,352.2,291,515.1
	c93.1,160,186.4,320.4,260.8,490l84.7-35c-74.3-169.5-167.7-330-260.8-490c-32-55-64-110-96-165c183.6,7.3,367.2,14.6,550.8,21.9
	v-35.5H2401z M293.2,329.8C371,206,448.8,82.3,526.6-41.4c4.9,3.7,9.7,7.5,14.5,11.3c37,29.2,72.2,60.5,108.1,91
	c44.9,38.1,90.9,74.8,137.6,110.6c-74.8,125.9-154.7,248.8-236.1,371C464,472.7,378.1,401.7,293.2,329.8z M574,561.2
	c81.5-122.4,161.5-245.7,236.2-372c80,60.4,162,118.4,244.1,176c-84.5,124.6-169,249.1-253.6,373.7
	C724.5,680.5,648.9,621.2,574,561.2z M999.2,888.1c48.4,9.7,100.8-2.8,139.5-33.5l0.8-0.4c-19.1,31.4-38.3,62.8-57.6,94.4
	C1054.3,928.5,1026.7,908.4,999.2,888.1z M1250.8,1069.1c-26.5-18.6-53-37.3-79.4-56.1c22.6-37.5,45-75.1,67.3-112.9
	C1224.7,955.8,1229,1015.9,1250.8,1069.1z"/>
<g>
	<path fill="none" stroke="#1A1C19" stroke-width="2" stroke-miterlimit="10" d="M-117,47c0,0,814,702,1166,940"/>
	<line fill="none" stroke="#1A1C19" stroke-width="2" stroke-miterlimit="10" x1="1147" y1="1055" x2="1619" y2="1382.4"/>
	<path fill="none" stroke="#1A1C19" stroke-width="2" stroke-miterlimit="10" d="M1521,93c0,0,0,122-28,192
		c-17.1,42.8-33.7,102.1-144,304c-70.1,128.4-171.7,300.1-356,608"/>
	<line fill="none" stroke="#1A1C19" stroke-width="2" stroke-miterlimit="10" x1="754" y1="836" x2="459" y2="1277"/>
	<path fill="none" stroke="#1A1C19" stroke-width="2" stroke-miterlimit="10" d="M814,746l262-384c0,0-297-214-389-290
		S534-63,453-114S211-252.4,211-252.4"/>
	<path fill="none" stroke="#1A1C19" stroke-width="2" stroke-miterlimit="10" d="M946-88c0,0-86,170-161,290S620,472,563,550"/>
	<path fill="none" stroke="#1A1C19" stroke-width="2" stroke-miterlimit="10" d="M501,640c0,0-152,229-215,325S95,1277,95,1277"/>
	<path fill="none" stroke="#1A1C19" stroke-width="2" stroke-miterlimit="10" d="M224,412c0,0-161,259-195,311s-208,333.5-208,333.5
		"/>
	<line fill="none" stroke="#1A1C19" stroke-width="2" stroke-miterlimit="10" x1="283" y1="321" x2="582" y2="-153"/>
	<path fill="none" stroke="#1A1C19" stroke-width="2" stroke-miterlimit="10" d="M1417-153c0,0,582,994,636,1100s138,282,138,282"/>
	<line fill="none" stroke="#1A1C19" stroke-width="2" stroke-miterlimit="10" x1="1843" y1="483" x2="2501" y2="512"/>
	<path fill="none" stroke="#1A1C19" stroke-width="2" stroke-miterlimit="10" d="M1160.3,822.3c0,0-103.3,78-204.7,38"/>
	<path fill="none" stroke="#1A1C19" stroke-width="2" stroke-miterlimit="10" d="M1260.3,860.3c0,0-28.7,158.7,20.7,230.7"/>
	<path fill="none" stroke="#1A1C19" stroke-width="2" stroke-miterlimit="10" d="M909,955c0,0,33.3,76,28,125s-34,149-34,149"/>
</g>
<g>
	<g>
		<g>
			<g>
				<path fill="#EF402A" d="M857.1,768.6c0,0,0.7,0.6,2,1.8s3.4,2.8,6.1,5c1.3,1.1,2.8,2.3,4.5,3.6c1.7,1.2,3.6,2.6,5.6,4
					c1,0.7,2.1,1.5,3.1,2.3c1.1,0.8,2.3,1.5,3.5,2.3s2.4,1.6,3.7,2.4c1.3,0.8,2.6,1.7,4,2.5c2.8,1.6,5.7,3.3,8.7,5.1
					c3.1,1.6,6.4,3.3,9.9,5.1c3.5,1.7,7.2,3.3,10.9,5c1.9,0.8,3.9,1.6,5.9,2.4c2,0.8,4,1.7,6.1,2.4s4.2,1.5,6.4,2.2
					c1.1,0.4,2.2,0.8,3.3,1.1s2.2,0.7,3.4,1c2.3,0.7,4.6,1.3,6.9,2c2.3,0.7,4.8,1.1,7.2,1.7c4.8,1.2,9.9,2,15.1,2.9
					c1.3,0.3,2.6,0.4,3.9,0.5c1.3,0.2,2.6,0.3,4,0.5c1.3,0.2,2.7,0.3,4,0.5c1.3,0.1,2.7,0.2,4.1,0.3c2.7,0.1,5.5,0.4,8.3,0.4
					s5.6,0,8.4,0c5.7,0,11.4-0.6,17.3-1.2c11.7-1.4,23.8-3.8,36.3-6.1c12.5-2.4,25.2-4.9,37.7-8.8c6.3-2,12.5-4.2,18.5-7.1l2.3-1.1
					l2.2-1.2c1.5-0.8,3-1.6,4.5-2.4c1.5-0.7,2.9-1.7,4.4-2.5c1.4-0.9,2.9-1.8,4.3-2.6c11.5-7.3,22.2-16.2,32-26.3s18.9-21.2,27.1-33
					c2.6-3.5,4.9-7.3,7.4-10.9c1.2-1.9,2.3-3.7,3.5-5.6c1.2-1.9,2.3-3.8,3.4-5.7s2.3-3.8,3.4-5.7s2.2-3.9,3.3-5.8
					c1.1-1.9,2.2-3.9,3.2-5.9l1.5-2.9l0.1-0.2c-4-2.4-8-4.8-12.1-7.2c-5-3-10-6-15-9c-12.7-7.7-25.3-15.5-37.7-23.6
					c-6.2-4-12.4-8.2-18.4-12.5c-3-2.2-5.9-4.3-8.9-6.5c-2.9-2.1-5.9-4.2-8.9-6.3c-11.9-8.3-24.1-16.1-36.1-23.8
					c-12.1-7.6-24-15.3-35.7-22.8s-23.2-14.9-34.5-22.1c-5-3.2-10-6.4-14.9-9.6l-0.1-0.1L996,547l-0.2,0.3l-0.7,1
					c-0.9,1.4-1.8,2.7-2.7,4c-1.8,2.7-3.6,5.3-5.4,8c-14.3,21.1-28.2,40.8-41.1,58.9c-12.9,18.1-24.8,34.7-35.3,49.4
					c-10.6,14.7-19.8,27.4-27.4,37.9c-7.6,10.5-13.6,18.8-17.7,24.4c-4.1,5.6-6.3,8.6-6.3,8.6c-7.5,10.4-14.9,18.5-16.5,18.2
					s3.3-9,10.8-19.4c0.5-0.6,1-1.3,1.4-1.9c0,0,2.2-3,6.3-8.6s10.2-13.8,17.9-24.2c7.7-10.5,16.9-23.2,27.5-37.8
					s22.4-31.2,35.3-49.4c12.8-18.2,26.6-37.9,40.8-59c1.8-2.6,3.5-5.3,5.3-8c0.9-1.3,1.8-2.7,2.7-4l2-3.1l1.2-1.7l0.6-0.9l0.9,0.6
					c6.1,3.9,12.3,7.8,18.6,11.8c11.3,7.2,22.8,14.5,34.6,21.9c11.7,7.4,23.6,15,35.8,22.6c12.1,7.6,24.4,15.4,36.5,23.7
					c3,2.1,6,4.2,9,6.3s5.9,4.3,8.9,6.4c5.9,4.2,12,8.2,18.2,12.2c12.4,8,25,15.7,37.7,23.3c5,3,10,6,15,8.9c6,3.5,11.9,7,17.8,10.4
					c-1.6,3-3.1,6-4.7,8.9c-1,2-2.1,4-3.2,6s-2.2,4-3.3,5.9c-1.1,2-2.3,3.9-3.4,5.9s-2.3,3.9-3.5,5.8c-1.2,1.9-2.3,3.8-3.6,5.7
					c-2.5,3.7-4.9,7.5-7.5,11.2c-8.4,12.1-17.6,23.6-27.8,34c-10.1,10.4-21.2,19.7-33.2,27.4c-1.5,0.9-3,1.9-4.5,2.8
					c-1.5,0.9-3,1.9-4.6,2.7s-3.1,1.6-4.7,2.5l-2.3,1.2l-2.4,1.1c-6.4,3-12.9,5.4-19.4,7.4c-13,4.1-26,6.6-38.6,9
					c-12.5,2.3-24.8,4.7-36.9,6.1c-6,0.7-12,1.2-18,1.2c-2.9,0-5.9,0-8.8,0c-2.9-0.1-5.7-0.3-8.6-0.5c-1.4-0.1-2.8-0.2-4.2-0.3
					c-1.4-0.2-2.8-0.3-4.1-0.5c-1.4-0.2-2.7-0.3-4.1-0.5c-1.4-0.2-2.7-0.3-4-0.6c-5.3-1-10.5-1.8-15.5-3.1c-2.5-0.6-5-1.1-7.4-1.8
					s-4.8-1.4-7.1-2.1c-1.2-0.3-2.3-0.7-3.5-1c-1.1-0.4-2.3-0.8-3.4-1.2c-2.2-0.8-4.4-1.6-6.6-2.3c-2.2-0.8-4.2-1.7-6.3-2.5
					c-2-0.8-4.1-1.7-6-2.5c-3.9-1.8-7.6-3.6-11.2-5.3c-3.5-1.9-6.8-3.7-10-5.4c-3.1-1.9-6.1-3.7-8.9-5.4c-1.4-0.8-2.7-1.8-4-2.6
					c-1.3-0.9-2.5-1.7-3.7-2.5s-2.4-1.6-3.5-2.4c-1.1-0.8-2.1-1.6-3.2-2.4c-2-1.5-3.9-3-5.6-4.3c-1.7-1.4-3.2-2.7-4.5-3.8
					c-2.7-2.3-4.8-4-6.1-5.3s-2-1.9-2-1.9c-1.1-1-2.1-2-3-3s-1.9-1.8-2.6-2.8c-1.5-1.8-2.8-3.5-3.8-4.8c-1.9-2.7-2.5-4.2-1.4-4
					c0.9,0.2,2.8,1.4,5.2,3.4c1.2,1,2.5,2.2,4,3.5C853.9,765.7,855.5,767.1,857.1,768.6z"/>
			</g>
		</g>
	</g>
</g>
<g>
	<g>
		<g>
			<g>
				<path fill="#EF402A" d="M1047,468c0,0-1.2,2.4-3.7,6.8s-6.2,10.8-11.2,18.7c-5,7.9-11.1,17.5-18.4,28.3l-4.1,6l-2,2.9l-0.2,0.3
					l21.8,13.7c13.5,8.5,28.2,17.8,43.7,27.6s31.8,20.2,48.7,30.9c16.9,10.8,34.3,21.9,52,33.2c8.8,5.7,17.8,11.4,26.7,17.1
					c4.5,2.9,9,5.7,13.4,8.6l6.7,4.3l3,1.9c0.1,0.1,0.2,0,0.3,0c0.7-0.5,1.6-1.3,2.5-2.2c0.8-0.9,1.7-1.8,2.5-2.8
					c1.6-2,3.2-4.1,4.7-6.2c3-4.3,5.9-8.7,8.8-13.1c5.6-8.9,11-18,16.2-27.1c2.6-4.5,5.2-9.1,7.7-13.6c1.3-2.3,2.5-4.5,3.8-6.8
					l1.7-3l0.2-0.3l0.1-0.2l-0.1-0.1c-8.2-5-16.3-9.9-24.3-14.8c-34.2-20.8-66.1-40.2-93.5-56.8c-13.7-8.3-26.3-15.9-37.4-22.6
					c-11.2-6.7-20.9-12.5-28.9-17.3s-14.3-8.5-18.6-11.1c-4.3-2.6-6.6-3.9-6.6-3.9c-7.9-4.7-14.1-9.7-13.7-11.2s7.1,1.1,15,5.8
					c0.5,0.3,1,0.6,1.5,0.9c0,0,2.3,1.4,6.5,4c4.3,2.6,10.5,6.4,18.5,11.3c8,4.8,17.7,10.7,28.8,17.5c11.1,6.7,23.7,14.3,37.4,22.6
					c27.5,16.5,59.5,35.6,93.9,56.2c9.2,5.5,18.5,11.1,27.9,16.7l0.7,0.4l0.4,0.2l0.2,0.1l0.1,0.1v0.1l-0.8,1.5l-1.6,3.1
					c-0.7,1.3-1.4,2.5-2,3.8c-1.2,2.3-2.5,4.6-3.7,6.9c-2.5,4.6-5,9.2-7.6,13.8c-5.2,9.2-10.5,18.4-16.1,27.5
					c-2.8,4.5-5.7,9.1-8.8,13.5c-1.6,2.2-3.2,4.4-4.9,6.6c-0.9,1.1-1.8,2.2-2.8,3.2c-1,1.1-2,2.1-3.5,3.1c-0.2,0.1-0.6,0.4-0.8,0.5
					c-0.3,0.2-0.6,0.3-0.9,0.4c-0.3,0.1-0.6,0.3-0.9,0.3c-0.3,0.1-0.6,0.2-0.9,0.2c-1.2,0.2-2.5-0.2-3.5-0.8l-3.7-2.4l-6.8-4.3
					c-4.5-2.8-9-5.7-13.5-8.5c-9-5.7-17.9-11.3-26.8-17c-17.7-11.3-35.2-22.3-52.1-33.1s-33.2-21.2-48.7-31
					c-15.4-9.9-30-19.3-43.5-27.9l-27.4-17.6l10.2-14.7c7.3-10.7,13.7-20.1,18.8-27.9s9-13.9,11.6-18.2c2.6-4.2,3.9-6.5,3.9-6.5
					c2.1-3.6,3.9-6.5,5-8.4c0.6-0.9,0.9-1.5,1.1-1.7c0.3-0.2-0.1-0.8,0.6-0.8c0.3,0,0.6,0.3,0.8,0.7c0.2,0.4,0.3,0.8,0.3,1.3
					c0.1,0.9,0,2-0.3,3.2C1049.7,462.3,1048.5,465.1,1047,468z"/>
			</g>
		</g>
	</g>
</g>
<g>
	<g>
		<g>
			<g>
				<path fill="#EF402A" d="M1107.8,382c0,0-5.9,8.9-16.4,24.2c-5.3,7.7-11.7,17-19,27.6l-4.9,7l-2.4,3.5l-0.3,0.4l-0.1,0.1
					l-0.1,0.2l19.6,12c13.6,8.4,28.3,17.4,43.8,27s31.9,19.8,48.8,30.3c16.9,10.5,34.4,21.4,52.2,32.5c17.6,11,35.5,22.2,53.4,33.4
					l0.2,0.2l46.3-81.8l-15.9-9.3c-34.4-20.1-66.5-38.9-94.1-55c-13.8-8-26.4-15.4-37.6-21.9s-21-12.1-29.1-16.8
					c-8.1-4.6-14.4-8.3-18.7-10.7c-4.3-2.5-6.6-3.8-6.6-3.8c-8-4.5-14.2-9.5-13.9-11c0.3-1.5,7.1,1,15.1,5.5c0.5,0.3,1,0.6,1.5,0.9
					c0,0,2.3,1.4,6.6,3.9c4.3,2.5,10.6,6.2,18.6,10.9c8,4.7,17.8,10.4,29,16.9s23.9,13.8,37.7,21.8c27.6,15.9,59.9,34.5,94.4,54.4
					l20.9,12l-51.7,93.2l-5.4-3.3c-18.2-11.2-36.5-22.5-54.4-33.5c-17.8-11-35.3-21.8-52.3-32.3c-16.9-10.5-33.3-20.7-48.8-30.3
					c-15.5-9.7-30.1-18.8-43.7-27.3l-25.3-15.9l11.9-16.8c7.5-10.5,14.1-19.7,19.5-27.3c10.9-15.1,17.2-23.7,17.2-23.7
					c5-6.7,9.3-10.7,9.6-8.8C1113.7,371.8,1111.3,376.7,1107.8,382z"/>
			</g>
		</g>
	</g>
</g>
<g>
	<g>
		<g>
			<g>
				<path fill="#EF402A" d="M1012.7,255.4c0,0,9.4-16.1,26.1-44.1c2.3-3.9,4.8-8,8.5-14.1c11.9-1.2,27.7-2.7,45.1-4.5
					c22.6-2.2,48.1-4.7,75.9-7.4s57.9-5.6,89.8-8.6s65.5-6.2,100.2-9.5c17.4-1.6,35.1-3.3,53-5c8.9-0.8,17.9-1.7,27-2.5
					c4.5-0.4,9.1-0.8,13.6-1.3c2.6-0.2,5.1-0.5,7.7-0.7l6.7-0.6l0.8-0.1h0.2h0.1h0.1l-0.1,0.4l-0.3,1.7l-0.7,3.3
					c-0.6,2.9-1.2,5.8-1.8,8.8c-0.5,2.3-1,4.5-1.5,6.8c-1,4.5-2,9-3,13.5c-2.1,9-4.2,18-6.5,27.1c-4.5,18-9.5,36.1-15.4,53.9
					c-0.7,2.2-1.5,4.4-2.3,6.7c-0.8,2.2-1.5,4.4-2.4,6.6l-2.5,6.6c-0.8,2.2-1.7,4.4-2.6,6.5c-1.8,4.3-3.5,8.7-5.4,12.9
					c-1.8,4.3-3.7,8.6-5.5,12.8c-7.5,17-15.3,33.8-23.1,50.4c-15.8,33.2-31.7,65.5-47.5,96.7c-2.3,4.6-4.6,9.1-6.9,13.6l-0.6,1.3
					l-0.2,0.3c-0.1,0-0.2-0.1-0.3-0.2l-0.6-0.4l-2.4-1.5l-3.9-2.4c-1.8-1.1-3.7-2.3-5.5-3.4c-7.3-4.5-14.5-9-21.6-13.4
					c-14.3-8.9-28.2-17.5-41.8-26c-27.2-16.9-52.9-32.8-76.7-47.5c-23.8-14.7-45.5-28.2-64.8-40.1s-36.2-22.3-50-30.8
					c-13.9-8.5-24.8-15.2-32.2-19.8c-7.4-4.6-11.4-7-11.4-7c-13.7-8.4-24.8-16.6-24.8-18.3c0.1-1.7,11.3,3.8,25,12.2
					c0.8,0.5,1.7,1.1,2.6,1.6c0,0,3.9,2.5,11.4,7.1c7.4,4.6,18.3,11.4,32.1,20c13.9,8.6,30.7,19,50,31
					c19.3,11.9,41.1,25.4,64.9,40.1c23.8,14.6,49.6,30.5,76.8,47.3c13.6,8.4,27.6,17,42,25.8c7.2,4.4,14.4,8.8,21.7,13.3
					c1.8,1.1,3.7,2.2,5.5,3.4l1.6,1l0.3,0.2l0.1,0.1l0,0l0,0l0.1-0.2c1.6-3.2,3.2-6.4,4.8-9.7c15.6-31.2,31.4-63.6,47-96.8
					c7.7-16.6,15.4-33.4,22.8-50.3c1.8-4.3,3.6-8.5,5.4-12.8s3.5-8.6,5.2-12.9c0.9-2.1,1.7-4.3,2.5-6.5l2.4-6.5
					c0.8-2.2,1.5-4.4,2.3-6.5c0.7-2.2,1.5-4.4,2.2-6.6c5.7-17.6,10.6-35.5,15-53.5c2.2-9,4.4-18,6.4-26.9c1-4.5,2-9,3-13.5
					c0.8-3.8,1.6-7.6,2.4-11.4V165h-0.1c-2,0.2-4,0.4-6,0.6c-4.5,0.4-9.1,0.9-13.6,1.3c-9,0.9-18,1.7-27,2.6
					c-17.9,1.7-35.6,3.4-52.9,5c-34.8,3.3-68.4,6.4-100.2,9.4c-31.9,2.9-62,5.7-89.8,8.3c-27.8,2.5-53.3,4.9-75.9,6.9
					c-16.3,1.5-31,2.8-42.2,3.8c-3,4.9-5.1,8.3-7,11.5c-17.1,27.8-26.9,43.6-26.9,43.6c-7.7,12.4-14,20.3-14,17.7
					C1002.9,273.4,1007,265,1012.7,255.4z"/>
			</g>
		</g>
	</g>
</g>
<g>
	<g>
		<g>
			<g>
				<path fill="#EF402A" d="M998.2-79c0,0,15.7,8.9,43,24.7c13.7,7.9,30.2,17.5,49.3,28.5c19,11.1,40.4,23.5,63.8,37.1
					s48.7,28.4,75.4,44c26.7,15.7,54.9,32.2,84.1,49.3c23.1,13.6,46.8,27.5,71.2,41.8c6.3,0,13,0,19.8,0c16.7,0,33.4,0,50.3,0.1
					v-0.1l0.1-0.6l0.5-3.3c0.3-2.2,0.5-4.4,0.8-6.6c0.5-4.4,0.8-8.9,1.1-13.3c0.6-8.9,0.7-17.8,0.5-26.7c-0.4-17.8-2.3-35.6-6.1-53
					c-1.9-8.7-4.3-17.2-7.2-25.5c-2.9-8.3-6.3-16.4-10.5-24c-8.4-15.2-20-28.4-32.4-40.2c-12.5-11.8-26.2-22.1-40.1-31.4
					c-14-9.3-28.3-17.6-42.7-24.9c-3.6-1.8-7.2-3.6-10.8-5.3c-1.8-0.8-3.6-1.7-5.4-2.5l-1-0.5c-0.1,0-0.1-0.1-0.2,0h-0.3l-3,0.2
					c-7.9,0.6-15.8,1.2-23.5,1.8c-30.9,2.4-60.1,4.7-87.1,6.8c-27,2.2-51.7,4.1-73.6,5.9s-41,3.3-56.7,4.6
					c-15.7,1.3-28.1,2.3-36.5,3s-12.9,1.1-12.9,1.1c-15.5,1.3-28.9,1.3-29.8-0.1c-0.9-1.4,10.9-3.6,26.5-4.9c1-0.1,2-0.2,2.9-0.2
					c0,0,4.5-0.3,12.9-1c8.4-0.6,20.8-1.6,36.5-2.8c15.7-1.2,34.8-2.7,56.7-4.5c21.9-1.8,46.6-3.8,73.6-5.9
					c27-2.2,56.2-4.6,87.1-7.1c7.7-0.6,15.6-1.3,23.5-1.9l3-0.2l1.2-0.1c0.2,0,0.4-0.1,0.6,0l0.6,0.3l1.7,0.7
					c1.9,0.8,3.7,1.7,5.5,2.5c3.7,1.7,7.3,3.5,11,5.3c14.6,7.4,29.2,15.7,43.4,25c14.2,9.4,28.1,19.8,41,31.8
					c12.8,12,24.9,25.6,33.8,41.4c4.5,8,8,16.3,11.1,24.9c3.1,8.5,5.6,17.3,7.6,26.2c4,17.8,6.1,36,6.6,54.2
					c0.2,9.1,0.1,18.2-0.4,27.3c-0.3,4.5-0.6,9.1-1.1,13.6c-0.2,2.3-0.5,4.5-0.8,6.8l-0.5,3.4l-0.4,2.7l-0.6,3.2l-0.1,0.4v0.2v0.1
					h-0.1h-0.8h-1.6h-3.3h-3.5h-6.7c-4.5,0-9,0-13.4,0c-8.9,0-17.8,0-26.7,0c-7.4,0-14.8,0-21.7,0c-25-14.6-49.3-28.8-72.9-42.7
					c-29.2-17.1-57.4-33.7-84.1-49.3c-26.7-15.7-52-30.6-75.3-44.3s-44.7-26.3-63.6-37.5s-35.4-21-49-29C1011.4-65.7,996-75,996-75
					c-12.1-7.3-19.8-13.3-17.2-13.3C980.5-88.2,988.7-84.3,998.2-79z"/>
			</g>
		</g>
	</g>
</g>
<g>
	<g>
		<g>
			<g>
				<path fill="#7BC9DF" d="M968-58.9c0,0-5.7,10.8-15.8,29.5C947.1-20,941-8.7,933.8,4.3s-15.2,27.6-24.1,43.6
					c-8.8,16-18.5,33.2-28.7,51.5c-5.2,9.1-10.5,18.4-15.9,28c-2.7,4.8-5.5,9.6-8.3,14.4c-2.8,4.9-5.7,9.7-8.7,14.7
					c-0.4,0.6-0.8,1.2-1.2,1.9l-1.1,1.8l0,0l0,0l1.5,1c1.2,0.8,2.3,1.7,3.5,2.5c4.7,3.4,9.5,6.8,14.2,10.2
					c9.5,6.8,19.2,13.8,28.9,20.7c9.7,7,19.5,14,29.4,21.1c4.9,3.5,9.9,7.1,14.8,10.6l6.6,4.7c0.1,0.1,0.2,0.2,0.2,0l0.1-0.2
					l1.1-1.9c24.8-41.8,49.7-83.7,72.9-122.9c23.2-39.2,44.9-75.9,63.5-107.2c1.1-1.8,2.1-3.6,2.9-4.9c-12.7-7.2-23.9-13.6-34-19.4
					c-12.9-7.3-24.1-13.7-33.4-18.9c-9.3-5.2-16.6-9.3-21.5-12.1c-5-2.8-7.6-4.3-7.6-4.3c-9.2-5.1-16.4-10.6-16.2-12.1
					s7.9,1.4,17.1,6.5c0.6,0.3,1.1,0.7,1.7,1c0,0,2.6,1.5,7.6,4.4c4.9,2.8,12.2,7,21.4,12.3c9.2,5.3,20.5,11.7,33.3,19.1
					c11.4,6.5,24,13.7,38.3,21.8c-1.5,2.5-3.4,5.8-5.4,9.2c-18.4,31.5-39.9,68.2-62.9,107.6s-47.5,81.4-72,123.4l-3.4,5.8l-1.1,1.9
					l-0.3,0.5l-0.1,0.2c0,0.1-0.1,0.2-0.2,0.1l-0.9-0.6l-3.6-2.5l-8.3-5.9c-5-3.5-9.9-7-14.8-10.5c-9.9-7-19.7-14-29.4-20.9
					s-19.4-13.8-29-20.6c-4.8-3.4-9.5-6.8-14.2-10.1c-3.1-2.2-6.1-4.3-9.1-6.5l-0.9-0.6l-0.4-0.3l-0.2-0.2c0-0.1,0.1-0.1,0.1-0.2
					l1.2-1.8l2.3-3.7l1.2-1.9c0.4-0.6,0.7-1.2,1.1-1.8c2.9-4.9,5.8-9.7,8.6-14.5s5.6-9.6,8.3-14.4c5.4-9.5,10.7-18.8,15.9-27.9
					c10.3-18.2,20-35.4,29-51.3S920.8,14.2,928,1.3c7.3-12.9,13.7-24.1,18.9-33.4c10.5-18.5,16.6-29,16.6-29
					c4.8-8.2,9.1-13.4,9.5-11.4C973.6-71.1,971.4-65.4,968-58.9z"/>
			</g>
		</g>
	</g>
</g>
<g>
	<g>
		<g>
			<g>
				<path fill="#0EA1CF" d="M962.2,224.2c0,0,7.4-12.9,20.6-35.4c6.6-11.2,14.7-24.9,23.9-40.5c9.3-15.6,19.7-33.3,31.1-52.5
					s23.8-40,36.9-62.1c6.4-10.7,12.9-21.6,20-33.6c13.2,7.5,27.6,15.6,42.3,23.8c24.3,13.7,49.5,28,75,42.4
					c25.5,14.5,51.5,29.2,77.4,43.9c6.5,3.7,13,7.4,19.4,11l4.9,2.8l2.4,1.4l1.2,0.7c0.5,0.3,0.9,0.5,1.3,0.8
					c3.3,2.1,6.4,4.3,9.4,6.9c1.5,1.3,2.9,2.6,4.3,4.2c1.3,1.6,2.7,3.2,3.7,5.4c0.5,1.1,0.9,2.4,0.9,3.8c0.1,1.4-0.3,3.1-1.1,4.4
					l-0.7,1.2c-0.2,0.3-0.4,0.7-0.6,1.1c-0.2,0.4-0.4,0.8-0.6,1.2l-0.6,1.3c-0.9,1.7-2.1,3.8-3.9,5.4c-1.7,1.6-3.7,2.6-5.6,3.4
					c-3.9,1.5-7.7,2.2-11.4,2.8l-2.8,0.4l-2.8,0.3c-1.9,0.2-3.7,0.3-5.6,0.5c-3.6,0.3-7.3,0.5-10.9,0.8c-7.2,0.6-14.4,1.1-21.6,1.7
					c-14.3,1.2-28.5,2.4-42.4,3.5c-55.7,4.7-107.6,9.3-152.2,13.3c-8.7,0.8-17.2,1.5-23.8,2.1c-7.4,11-13.7,20.3-19.5,28.9
					c-10.1,15.1-19,28.2-26.2,39L993.5,275l-12.5-9.8c-5.5-4.3-8.4-6.6-8.4-6.6c-10.2-7.9-18.1-15.6-17.7-17.2s8.9,3.6,19.1,11.5
					c0.6,0.5,1.3,1,1.9,1.5c0,0,2.9,2.3,8.4,6.7l8.1,6.5l8.1-11.9c7.3-10.8,16.2-23.9,26.4-38.9c6.2-9.2,12.8-19,20.7-30.7
					c7.3-0.7,16.5-1.5,26.1-2.4c44.5-4.1,96.5-8.9,152.1-14c13.9-1.2,28.1-2.5,42.4-3.8c7.2-0.6,14.4-1.2,21.6-1.8
					c3.6-0.3,7.3-0.6,10.9-0.8c1.8-0.1,3.6-0.3,5.4-0.5l2.7-0.3l2.6-0.4c3.5-0.5,7-1.2,10-2.4c1.4-0.6,2.8-1.3,3.8-2.3
					c1-0.9,1.7-2.1,2.5-3.6l0.6-1.2c0.2-0.4,0.4-0.8,0.6-1.3c0.2-0.4,0.4-0.9,0.7-1.3l0.4-0.7l0.2-0.3l0.1-0.2c0,0,0,0,0-0.1
					c0.2-0.3,0.2-0.6,0.2-1s-0.1-0.9-0.4-1.5c-0.5-1.2-1.5-2.5-2.6-3.7s-2.4-2.4-3.7-3.5c-2.7-2.3-5.6-4.4-8.6-6.2
					c-0.4-0.2-0.8-0.5-1.1-0.6l-1.2-0.7l-2.4-1.4l-4.9-2.7c-6.5-3.6-13-7.3-19.5-10.9c-26-14.6-52-29.2-77.6-43.5
					c-25.6-14.4-50.7-28.5-75.1-42.2c-12.5-7.1-24.8-14-36.1-20.4c-5.9,9.8-11.2,18.7-16.5,27.5c-13.2,22-25.7,42.7-37.2,61.9
					c-11.5,19.1-22.1,36.7-31.5,52.3c-9.4,15.5-17.6,29.1-24.4,40.2c-13.6,22.3-21.4,34.9-21.4,34.9c-6.2,9.9-11.4,16.2-11.6,13.9
					C954.6,238.8,957.8,232,962.2,224.2z"/>
			</g>
		</g>
	</g>
</g>
<g>
	<g>
		<g>
			<g>
				<path fill="#7BC9DF" d="M805.4,217.9c0,0-5.3,9.7-14.7,26.6c-4.8,8.4-10.5,18.7-17.1,30.4c-1.6,2.9-3.3,5.8-5.1,8.9l-0.1,0.3
					c0,0.1,0.1,0.1,0.2,0.2c1.3,0.9,2.6,1.8,3.9,2.7c6.2,4.4,12.7,8.9,19.5,13.7c13.6,9.5,28.3,19.9,43.8,30.8
					c15.6,10.9,32,22.4,49,34.3c17,11.8,34.6,24.1,52.6,36.3c9,6.1,18.1,12.3,27.2,18.3c4.6,3,9.2,6,13.8,9c2.3,1.5,4.6,2.9,7,4.3
					c1.2,0.7,2.3,1.4,3.5,2c0.6,0.3,1.2,0.6,1.7,0.9l1.2,0.6c0.1,0,0.2,0.1,0.2,0l0.1-0.1l0.1-0.1l0.4-0.5c1.1-1.4,2.2-2.8,3.2-4.3
					c2.1-2.9,4.2-5.9,6.3-8.9c4.2-6,8.2-12.1,12.3-18.2l12.1-18.3l10.5-16.1l-31.3-23.4c-33.2-24.8-64.4-47.8-91.1-67.4
					c-13.4-9.8-25.7-18.7-36.7-26.5c-11-7.8-20.6-14.6-28.5-20.1s-14.2-9.8-18.5-12.6s-6.6-4.3-6.6-4.3c-4-2.6-7.6-5.2-10.1-7.2
					c-1.3-1-2.3-1.9-3-2.5c-0.3-0.3-0.6-0.6-0.8-0.8c-0.1-0.2-0.3-0.4-0.3-0.6c-0.1-0.2,0-0.4,0.2-0.5c0.1-0.1,0.3-0.1,0.5-0.2
					c0.2,0,0.4,0,0.6,0c0.9,0,2.2,0.3,3.6,0.8c2.9,1.1,6.7,3,10.8,5.6c0.5,0.3,1,0.7,1.5,1c0,0,2.3,1.6,6.6,4.5s10.5,7.3,18.5,12.9
					c7.9,5.6,17.5,12.4,28.4,20.3c10.9,7.9,23.3,16.8,36.7,26.5c26.9,19.4,58.2,42.3,91.6,66.8l36,26.5l-13.4,20.9l-12,18.5
					c-4,6.1-8.1,12.3-12.2,18.4c-2.1,3-4.2,6.1-6.3,9.1c-1.1,1.5-2.2,3-3.4,4.5l-0.5,0.6c-0.2,0.3-0.5,0.6-0.8,0.9l-0.9,0.9
					c-0.2,0.1-0.3,0.3-0.5,0.5l-0.5,0.3c-1.4,0.9-3.1,0.6-4.7-0.1l-0.9-0.4l-0.6-0.3l-1-0.5c-0.7-0.3-1.3-0.7-1.9-1
					c-1.3-0.7-2.5-1.4-3.7-2.1c-2.4-1.4-4.8-2.9-7.2-4.3c-4.7-2.9-9.4-5.9-14-9c-9.2-6-18.4-12.1-27.4-18.3
					c-18.1-12.2-35.7-24.4-52.7-36.2c-17-11.8-33.4-23.4-49-34.3c-15.5-11-30.1-21.5-43.6-31.1c-6.7-4.8-13.2-9.5-19.3-13.9
					c-1.8-1.3-3.5-2.5-5.2-3.8c-0.7-0.5-1.4-1-2.1-1.5l-1.1-0.8l-0.3-0.2l-0.1-0.1h-0.1c0,0,0,0,0-0.1l0.3-0.6
					c0.9-1.5,1.7-3,2.6-4.4c1.8-3.2,3.6-6.2,5.3-9.2c6.8-11.6,12.8-21.8,17.7-30.1c9.8-16.7,15.6-26.1,15.6-26.1
					c4.5-7.4,8.6-11.9,9-10.1C810.6,206.8,808.6,212,805.4,217.9z"/>
			</g>
		</g>
	</g>
</g>
<g>
	<g>
		<g>
			<g>
				<path fill="#EF402A" d="M757,301.7c0,0-3.1,5.4-8.7,14.6c-2.8,4.6-6.2,10.3-10.2,16.7c-4,6.4-8.4,13.6-13.3,21.5
					c-4.9,7.9-10.2,16.4-15.8,25.4c-0.8,1.3-1.6,2.6-2.4,3.9c-0.2,0.3-0.4,0.7-0.6,1l-0.1,0.1l0,0l0,0l0,0c5.4,3.5,11.1,7.4,17,11.3
					c9.6,6.4,19.6,13.1,29.7,19.8c10,6.7,20.1,13.5,30.2,20.3l0.2,0.2l37.6-54.6c6.1-8.9,12.1-17.5,16.8-24.3
					c-8.9-6.9-16.2-12.6-22.9-17.8c-7.3-5.7-14.1-10.8-20-15.4c-6-4.6-11.2-8.5-15.5-11.8s-7.7-5.8-10-7.6c-2.3-1.7-3.6-2.7-3.6-2.7
					c-4.3-3.2-7.2-6.9-6.5-8.2c0.7-1.3,4.7,0.2,9,3.4c0.3,0.2,0.5,0.4,0.8,0.6c0,0,1.2,1,3.5,2.8s5.6,4.4,9.9,7.7
					c4.3,3.3,9.5,7.3,15.4,12c6,4.6,12.7,9.8,20.1,15.4c7.9,6,16.4,12.5,26.9,20.5c-5.4,8-12.1,18.1-19.1,28.6l-40.5,60.6l-4.8-3.2
					c-10.5-6.9-21-13.8-31.3-20.5c-10.2-6.7-20.2-13.3-29.8-19.7c-7.9-5.3-15.7-10.4-22.9-15.2c2.5-4,4.7-7.5,7-11
					c5.7-9,11.1-17.4,16.1-25.2c5-7.8,9.6-15,13.7-21.3c4.1-6.3,7.7-11.8,10.7-16.3c6-9,9.5-14.1,9.5-14.1c2.8-4,5.6-6.1,6.3-4.8
					C759.8,295.4,758.9,298.4,757,301.7z"/>
			</g>
		</g>
	</g>
</g>
<g>
	<g>
		<g>
			<g>
				<path fill="#EF402A" d="M852.6,376.3c0,0-4.2,6.2-11.8,17c-3.8,5.4-8.4,11.9-13.7,19.3s-11.4,15.8-18,25
					c-1.3,1.8-2.6,3.6-3.9,5.4c-0.7,0.9-1.4,1.9-2.1,2.9L803,446l0,0l0,0v0.1l0.1,0.1l0,0c0,0,0,0,0.2,0.1c0.4,0.3,0.7,0.5,1.1,0.8
					c1.5,1,2.9,2.1,4.5,3.2c3,2.2,6.2,4.5,9.4,6.8c10.5,7.6,21.5,15.6,32.9,23.9s23.1,16.9,35.1,25.7c11.8,8.7,23.8,17.5,35.8,26.3
					l0.2,0.2l45.5-67.7c1.5-2.2,3-4.4,4.3-6.4c0.6-1,1.3-1.9,1.9-2.7c0.2-0.2,0.3-0.5,0.5-0.7c-18.2-13.2-34.3-24.9-48.6-35.1
					c-9.2-6.6-17.6-12.6-25-18c-7.5-5.3-14-9.9-19.3-13.8c-5.4-3.8-9.6-6.8-12.5-8.8s-4.4-3.1-4.4-3.1c-5.3-3.7-9.2-7.9-8.6-9.3
					c0.6-1.4,5.4,0.5,10.7,4.2c0.3,0.2,0.7,0.5,1,0.7c0,0,1.5,1.1,4.4,3.2c2.8,2.1,7,5.1,12.3,9s11.8,8.5,19.2,13.9
					c7.5,5.3,15.9,11.3,25,17.9c15.5,11,33.2,23.6,53.1,37.7c-2.6,3.9-5.9,9.1-9.4,14.3l-48.5,74.1l-5.1-3.7
					c-12.3-8.9-24.7-17.8-36.8-26.5c-12-8.7-23.8-17.2-35.2-25.5S824.4,470.6,814,463c-7.4-5.4-14.5-10.7-20.8-15.3
					c3.9-5.2,7.2-9.8,10.4-14.1c6.7-9.1,12.9-17.4,18.3-24.7c5.5-7.4,10.3-13.7,14.2-19c7.9-10.5,12.6-16.4,12.6-16.4
					c3.6-4.6,7-7.2,7.6-5.6C856.7,369.1,855.1,372.6,852.6,376.3z"/>
			</g>
		</g>
	</g>
</g>
<g>
	<g>
		<g>
			<g>
				<path fill="#EF402A" d="M689.9,407.5c0,0-4.8,7.7-13.3,21c-4.3,6.7-9.5,14.7-15.5,24c-6,9.2-12.8,19.6-20.3,31
					c-7.4,11.3-15.5,23.6-24.1,36.6c-7.6,11.5-15.6,23.6-23.9,36.1l0,0c12.9,10.5,26.3,21.3,39.9,32.2c12.1,9.8,24.3,19.7,36.5,29.6
					l0.2-0.2c20.7-29.4,41.5-58.9,60.9-86.5c18.1-25.8,35.1-50,49.6-70.6c-0.6-0.4-0.9-0.7-1.3-1c-11.1-7.8-21.2-15-30.2-21.4
					c-9-6.3-16.9-11.9-23.4-16.4s-11.6-8.1-15.1-10.5s-5.3-3.7-5.3-3.7c-6.4-4.5-11.2-9.2-10.7-10.7s6.2,1,12.6,5.5
					c0.4,0.3,0.8,0.6,1.2,0.8c0,0,1.8,1.3,5.3,3.8c3.4,2.5,8.5,6.1,14.9,10.7s14.3,10.2,23.3,16.6s19.2,13.5,30.2,21.4
					c1.6,1.1,3.1,2.2,5.3,3.7c-15.1,21.9-32.8,47.5-51.8,75c-19.3,28.1-40,58-60.6,88c-1.2,1.8-2.5,3.5-3.7,5.3
					c-14.2-11.4-28.4-22.7-42.4-33.9c-14.2-11.4-28.1-22.5-41.6-33.4c-1.2-1-2.5-2-3.6-2.9c9.6-14.5,18.8-28.4,27.6-41.6
					c8.6-12.9,16.8-25.2,24.4-36.4c7.6-11.3,14.5-21.6,20.6-30.8c6.1-9.2,11.6-17.1,16-23.6c8.9-13.1,14.2-20.5,14.2-20.5
					c4.1-5.8,7.8-9.2,8.3-7.5C694.6,398.7,692.8,402.9,689.9,407.5z"/>
			</g>
		</g>
	</g>
</g>
<g>
	<g>
		<g>
			<g>
				<path fill="#EF402A" d="M792.7,476.7c0,0-5.7,8.6-16,23.6c-5.1,7.5-11.4,16.5-18.6,26.9c-7.2,10.4-15.3,22.1-24.2,34.8
					s-18.5,26.6-28.7,41.2c-5.1,7.3-10.4,14.8-15.7,22.4c-0.7,1-1.3,1.9-2,2.9l-0.5,0.7c-0.1,0.1,0,0,0,0l0,0l0,0
					c0.7,0.6,1.5,1.1,2.2,1.7c3.8,2.9,7.5,5.9,11.4,8.9c15.3,11.9,31.1,24.3,47.2,36.8c8.1,6.2,16.2,12.5,24.4,18.7
					c4.1,3.1,8.2,6.2,12.4,9.3c4.1,3.1,8.3,6.2,12.5,8.9l0.3,0.2c0,0,0.1,0.1,0.2,0l0.1-0.1l0.9-1.1c1.6-2,3.1-4,4.6-6.1
					c3-4.1,6-8.4,9-12.6c5.9-8.4,11.7-16.9,17.5-25.3c11.5-16.8,22.7-33.5,33.5-49.6s21.2-31.7,31.1-46.6c4.8-7.3,9.5-14.4,14-21.2
					l0.3-0.4l0.1-0.2l0.1-0.1l-0.1-0.1l-0.8-0.6c-1.6-1.2-3.3-2.5-4.9-3.7c-3.2-2.4-6.4-4.8-9.5-7.1c-12.5-9.3-23.9-17.8-34-25.4
					c-10.1-7.5-19-14.1-26.3-19.5s-13-9.6-16.9-12.5s-6-4.4-6-4.4c-7.2-5.3-12.7-10.8-12.2-12.2c0.5-1.5,6.8,1.7,14,7
					c0.4,0.3,0.9,0.7,1.3,1c0,0,2.1,1.6,5.9,4.5c3.9,2.9,9.6,7.2,16.8,12.7c7.3,5.4,16.1,12,26.2,19.6c10.1,7.5,21.6,16,34,25.3
					c3.1,2.3,6.3,4.7,9.6,7.1c1.6,1.2,3.3,2.4,4.9,3.6c1.4,1,2.8,2,4.1,3.1l0.5,0.4c0,0.2-0.2,0.4-0.3,0.5l-0.7,1.1L913,553
					c-4.7,7.1-9.5,14.5-14.5,22.1c-9.8,14.9-20.1,30.6-30.7,46.8c-10.7,16.2-21.8,33-33.1,49.9c-5.7,8.5-11.4,17-17.3,25.5
					c-2.9,4.3-5.9,8.5-8.9,12.8c-1.5,2.1-3.1,4.2-4.7,6.3l-0.6,0.8l-0.3,0.4l-0.6,0.7c-0.8,0.9-1.7,1.9-2.6,2.3
					c-0.2,0.1-0.5,0.1-0.8,0.2h-0.2c0,0,0-0.1,0,0.1l0,0h-0.1c-0.1,0-0.3,0-0.4,0c-0.5-0.1-1.1-0.2-1.6-0.4s-1.1-0.5-1.6-0.8
					l-1.4-0.9c-4.5-2.9-8.6-6-12.9-9.1c-4.2-3.1-8.3-6.2-12.5-9.3c-8.3-6.2-16.5-12.4-24.6-18.6c-16.2-12.4-32.1-24.7-47.4-36.7
					c-3.8-3-7.6-6-11.4-8.9c-1.1-0.9-2.3-1.8-3.4-2.7l-2.8-2.2l-1.4-1.1c0.3-0.5,0.7-1,1-1.4c1.9-2.6,3.7-5.3,5.5-7.9
					c5.4-7.6,10.7-15.1,15.8-22.4c10.3-14.5,20-28.3,29-40.9c9-12.7,17.3-24.3,24.6-34.6c7.4-10.3,13.8-19.2,19.1-26.6
					c10.6-14.7,16.8-23,16.8-23c4.8-6.5,9.1-10.4,9.4-8.6C798.5,466.8,796.2,471.5,792.7,476.7z"/>
			</g>
		</g>
	</g>
</g>
<g>
	<g>
		<g>
			<g>
				<path fill="#7BC9DF" d="M801.8,116.4c0,0,4.6-8.7,12.9-23.7c4.1-7.5,9.1-16.7,14.9-27.1c5.8-10.5,12.2-22.3,19.3-35.2
					c7-12.9,14.7-26.9,22.6-41.8c8-14.8,16.3-30.5,24.8-46.8c4.2-8.2,8.4-16.5,12.5-25c1-2.1,2.1-4.2,3-6.4l1.5-3.2
					c0.3-0.8,0.2-0.5,0.3-0.6l0,0c0.1-0.1,0-0.1-0.1-0.1c-2.1,0-4.2-0.1-6.3-0.1c-19.2-0.2-38.8,0.1-58.2,1.5
					c-9.7,0.7-19.4,1.6-29,3c-4.8,0.7-9.5,1.5-14.2,2.5l-3.5,0.8l-1.7,0.4c-0.2,0-0.4,0.1-0.4,0.1c-1,1.8-2.1,3.5-3.1,5.3
					c-9.8,16.7-19.4,33-28.8,48.9c-18.6,31.7-36,61.4-50.9,86.8c-0.4,0.7-0.8,1.4-1.1,1.9c9.7,8,18.4,15.1,26.2,21.6
					c9.3,7.6,17.3,14.2,24,19.6s11.9,9.7,15.5,12.6s5.5,4.4,5.5,4.4c6.6,5.3,11.5,10.8,10.9,12.2s-6.4-1.8-13-7.1
					c-0.4-0.3-0.8-0.7-1.2-1c0,0-1.9-1.6-5.4-4.5s-8.7-7.3-15.3-12.8s-14.6-12.1-23.9-19.8c-8.7-7.2-18.5-15.2-29.4-24.2
					c0.9-1.5,2-3.4,3.1-5.4C728,27.7,745.2-2,763.6-33.9c9.2-15.9,18.7-32.4,28.3-49.2c1.4-2.4,2.8-4.8,4.2-7.3l0.1-0.2
					c0,0,0.1,0,0.2-0.1l0.4-0.1l0.8-0.2l1.5-0.4l1.9-0.5l3.6-0.8c4.8-1,9.7-1.9,14.6-2.7c9.8-1.5,19.6-2.6,29.4-3.4
					c19.7-1.6,39.4-2.1,58.8-2c2.7,0,5.4,0.1,8.1,0.1c2.4,0,4.8,0.1,7.1,0.1h1.8c0.5-0.1,0.1,0.3,0.1,0.5l-0.4,0.8l-1.4,3.2
					c-1.4,3.1-2.8,6.2-4.1,9.3c-1,2.2-2,4.3-3.1,6.5c-4.1,8.6-8.3,17-12.5,25.2c-8.4,16.4-16.8,32.1-24.9,46.9
					c-8.1,14.8-15.8,28.8-23,41.7c-7.2,12.8-13.8,24.6-19.7,35S824.3,87.9,820,95.4c-8.6,14.9-13.7,23.3-13.7,23.3
					c-4,6.6-7.7,10.6-8.2,8.9C797.3,126.3,799,121.6,801.8,116.4z"/>
			</g>
		</g>
	</g>
</g>
<g>
	<g>
		<g>
			<g>
				<path fill="#EF402A" d="M703.9,37.3c0,0,3.8-7.1,10.7-19.4c3.5-6.2,7.7-13.6,12.6-22.1c4.9-8.5,10.4-18.1,16.4-28.6
					s12.6-21.8,19.5-33.8c6.2-10.7,12.8-22,19.6-33.7l0,0c-12.5,0-25.4-0.1-38.6-0.1c-15.9-0.1-32-0.1-48.1-0.2l-51-0.3l-25.1,32.1
					c-8.1,10.4-16,20.5-22.3,28.4c12.5,10.2,22.7,18.6,32.1,26.3c9.4,7.6,18,14.6,25.6,20.8s14.3,11.6,19.8,16s9.8,7.9,12.8,10.2
					c3,2.4,4.5,3.6,4.5,3.6c5.5,4.3,9.4,9,8.7,10.3s-5.6-1-11.1-5.4c-0.3-0.3-0.7-0.6-1-0.8c0,0-1.6-1.3-4.5-3.7s-7.2-5.9-12.6-10.4
					c-5.5-4.5-12.1-9.9-19.7-16.1c-7.6-6.2-16.2-13.2-25.6-20.8C616-19,604.5-28.3,590.4-39.6c7-9.1,15.9-20.7,25-32.7L642-107
					l54-0.3c16.1-0.1,32.2-0.1,48.1-0.2c17.5,0,34.6-0.1,51.2-0.1c-0.6,1-1.2,2-1.7,2.9C785.2-90.3,777-76.3,769.3-63
					c-7,11.9-13.7,23.2-19.8,33.6C743.3-19,737.7-9.5,732.7-1s-9.4,15.8-13.1,21.8C712.3,32.9,708,39.7,708,39.7
					c-3.4,5.4-6.6,8.5-7.3,6.9C700.2,45.5,701.6,41.6,703.9,37.3z"/>
			</g>
		</g>
	</g>
</g>
<g>
	<g>
		<g>
			<g>
				<path fill="#9E9E80" d="M376.5,224.3c0,0-9.4,14.9-26,40.9c-8.3,13-18.4,28.7-30,46.8l-8,12.4l39.7,32.9
					c20.3,16.9,42.4,35.1,65.7,54.5c14.3,11.9,29.1,24.2,44.9,37.3c5.2-7.3,11-15.4,16.8-23.6c5.6-7.8,11.2-15.7,17.2-24.1
					c5.5,4.6,11.1,9.1,17.1,14.1c-11.3,14.9-23.1,30.5-35,46.4l0.1,0.1c23.7,18.5,47.6,37.3,71.7,56.2l0.1-0.2l0.6-0.9
					c0.9-1.4,1.8-2.8,2.8-4.2l17.2-26.2L558,463.3l25.7-37.7l25.5,4.1l22.7-33.3l-25-19.2c-15.1-11.6-29.9-22.9-41.3-31.7
					c-15,19.5-28.9,37.7-39.5,51.4c-6.4-4.8-12.4-9.3-16-12c6.7-8.6,12.5-16.1,16.6-21.5c-0.8-7.9-1.5-13.6-2.1-19.2
					c-1.1-9.9-2.1-19.6-2.9-27.1c-12.7-10.2-23.5-18.8-33.4-26.8c-16.8-13.4-31.4-25.1-43.4-34.7c-12.1-9.6-21.5-17.1-28-22.3
					c-6.5-5.1-9.9-7.9-9.9-7.9c-11.9-9.5-21.4-18.5-21-20.1c0.3-1.6,10.2,4.7,22.2,14.2c0.7,0.6,1.5,1.2,2.2,1.8c0,0,3.4,2.8,9.8,8
					s15.8,12.8,27.8,22.5c12,9.7,26.6,21.4,43.3,34.8c10.4,8.3,21.6,17.3,35,28c0.9,8.1,2,18.5,3.2,29.1c0.7,6.2,1.4,12.5,2.3,21.2
					c-3.7,4.8-8.8,11.4-14.7,19.1c1.8,1.3,4.8,3.6,8,6c10.5-13.8,24.4-32.1,39.4-51.7c12.6,9.6,29,22,45.7,34.6l29.4,22.3
					l-27.8,41.2l-25.5-4l-21.1,31.3l13.5,23.2l-19.2,29.7c-2.5,3.9-5,7.7-7.5,11.5c-26.3-20.4-52.4-40.8-78.3-60.8
					c-1.7-1.3-3.4-2.7-5-3.9c11.9-15.9,23.7-31.5,34.9-46.5l0,0l0,0l-0.3-0.2c-1-0.8-1.9-1.6-2.9-2.4c-0.9-0.7-1.7-1.4-2.6-2.1l0,0
					c-4.4,6.2-8.5,12-12.6,17.7c-7.4,10.4-14.7,20.7-21.4,30c-18-15-34.7-29-50.9-42.4c-23.2-19.4-45.2-37.8-65.4-54.7l-44-36.8
					l11.2-17.2c11.8-17.9,22.1-33.6,30.6-46.5c17-25.7,26.8-40.3,26.8-40.3c7.7-11.5,13.9-18.7,13.9-16.2
					C386.3,207.5,382.2,215.3,376.5,224.3z"/>
			</g>
		</g>
	</g>
</g>
<g>
	<g>
		<g>
			<g>
				<path fill="#EF402A" d="M688.8,121.2c0,0-3.7,6.4-10.4,17.5c-3.3,5.5-7.4,12.2-12.2,19.9c-4.7,7.7-10.1,16.3-15.9,25.7
					c-5.9,9.4-12.2,19.6-18.9,30.4c-4.1,6.5-8.3,13.2-12.8,20.4l0,0c0.7,0.5,1.4,1.1,2.1,1.6c1.7,1.3,3.4,2.5,5.1,3.8
					c11.1,8.3,22.5,16.9,34.2,25.6c11.6,8.7,23.4,17.6,35.1,26.5l0.3,0.2l41.8-67.3c11.2-18,21.7-35.1,30.5-49.2
					c-4.2-3.4-7.4-5.9-10.4-8.4c-8.7-6.9-16.6-13.2-23.6-18.9c-7.1-5.6-13.2-10.5-18.3-14.5s-9.1-7.1-11.8-9.3
					c-2.7-2.1-4.2-3.3-4.2-3.3c-5-3.9-8.6-8.2-7.9-9.6s5.3,0.7,10.3,4.6c0.3,0.2,0.6,0.5,0.9,0.7c0,0,1.4,1.2,4.1,3.4
					c2.7,2.2,6.6,5.4,11.7,9.4c5,4,11.2,9,18.2,14.6s15,11.9,23.7,18.8c4.1,3.2,8.3,6.6,13.9,11c-9.3,15.3-20.5,33.8-32.3,53.3
					l-44.7,74.1l-6-4.4c-11.9-8.8-23.8-17.6-35.5-26.3c-11.7-8.7-23.2-17.2-34.3-25.5c-4.4-3.3-8.8-6.5-12.7-9.5
					c5.8-9.2,11.2-17.8,16.5-26.1c6.8-10.7,13.3-20.8,19.2-30.2c6-9.3,11.4-17.9,16.3-25.5c4.9-7.6,9.1-14.2,12.7-19.6
					c7.1-10.8,11.2-16.9,11.2-16.9c3.3-4.8,6.4-7.5,7.1-6C692.3,113.8,691,117.4,688.8,121.2z"/>
			</g>
		</g>
	</g>
</g>
<g>
	<g>
		<g>
			<g>
				<path fill="#7BC9DF" d="M679.3,112.9c0,0-3.7,6.1-10.4,16.5c-3.3,5.2-7.4,11.6-12.1,18.8c-4.7,7.2-10,15.4-15.8,24.3
					c-5.8,8.9-12.1,18.5-18.8,28.7c-6.2,9.4-12.7,19.3-19.6,29.7c-2.6-2-5.5-4.2-8.4-6.4c-10.5-8.1-21.4-16.5-32.5-25
					c-11.8-9.2-23.9-18.5-35.9-27.8l0.1-0.1c16.6-24.3,33.1-48.6,48.6-71.4c7.5-11,14.7-21.6,21.6-31.7c3.4-5,6.7-9.9,10-14.7
					c1.9-2.9,3.8-5.7,5.7-8.4l1-1.4l0.2-0.4l0.1-0.2c0,0,0.1-0.2,0.1-0.1l0.7,0.6c0.9,0.7,1.7,1.5,2.6,2.2c1.3,1.1,2.6,2.2,3.8,3.2
					c8.1,6.8,15.6,13.1,22.2,18.7c6.6,5.5,12.4,10.3,17.2,14.3c4.8,3.9,8.5,7,11.1,9.2c2.6,2.1,3.9,3.2,3.9,3.2
					c4.7,3.9,8,8.1,7.3,9.5c-0.7,1.3-5.1-0.7-9.9-4.6c-0.3-0.2-0.6-0.5-0.9-0.7c0,0-1.3-1.2-3.9-3.3c-2.5-2.2-6.2-5.3-11-9.4
					c-4.7-4-10.5-8.9-17.1-14.4S625.1,60,616.9,53.2c-0.8-0.6-1.6-1.3-2.3-1.9l-0.5-0.4l-0.1-0.1l-0.1,0.1l-0.2,0.3
					c-1.2,1.8-2.5,3.7-3.7,5.6c-3.2,4.8-6.5,9.7-9.8,14.8c-6.7,10.2-13.8,20.9-21.2,31.9c-14.1,21.3-29.2,44.1-44.3,66.9l0,0
					c10.4,7.9,20.9,15.8,31.1,23.6c11.1,8.5,22,16.8,32.6,24.9c0.7,0.6,1.5,1.1,2.2,1.7l0,0c5.4-8.1,10.5-15.8,15.4-23.1
					c6.8-10.1,13.2-19.7,19.1-28.5c5.9-8.8,11.4-16.9,16.2-24.1c4.8-7.2,9.1-13.4,12.6-18.5c7-10.2,11.2-16,11.2-16
					c3.2-4.5,6.4-7,7-5.5C682.8,105.8,681.5,109.2,679.3,112.9z"/>
			</g>
		</g>
	</g>
</g>
<g>
	<g>
		<g>
			<g>
				<path fill="#EF402A" d="M598.7,48.5c0,0-3.9,6.3-10.9,17.2c-3.5,5.4-7.8,12-12.8,19.6c-5,7.5-10.6,16-16.7,25.3
					c-6.1,9.3-12.8,19.3-19.8,29.9c-5.5,8.2-11.2,16.7-17.3,25.8c-4.1-3.1-8.7-6.6-13.3-10c-11.1-8.4-22.5-17-34.1-25.8
					c-10.3-7.9-20.8-15.8-31.3-23.8c1.9-3.1,3.9-6.2,5.8-9.3c15.8-25,31.6-50.1,46.4-73.6c7.4-11.7,14.5-23.1,21.3-33.9
					c3.4-5.4,6.7-10.6,9.8-15.7c1.3-2.1,2.6-4.1,3.8-6.1l0.1-0.1h0.1l0.2,0l0.4,0.3l0.7,0.6l1.4,1.2c0.9,0.8,1.8,1.5,2.8,2.3
					c2.2,1.9,4.4,3.7,6.5,5.5c8.5,7.2,16.2,13.9,23,19.9s12.6,11.3,17.3,15.8s8.4,8.1,10.8,10.6c1.2,1.3,2.2,2.2,2.8,2.9
					c0.6,0.7,0.9,1,0.9,1c2.2,2.4,3.9,5,4.9,7.2c0.9,2.2,1,4,0.4,4.4c-0.3,0.2-0.7,0.1-1.3-0.2c-0.3-0.1-0.5-0.3-0.8-0.6
					c-0.3-0.2-0.7-0.5-1-0.8c-1.4-1.3-3.3-3.2-5.4-5.6c-0.3-0.3-0.5-0.6-0.8-0.9c0,0-0.3-0.3-0.9-1c-0.6-0.7-1.4-1.6-2.6-2.9
					c-2.3-2.5-5.8-6.1-10.5-10.6c-4.6-4.5-10.4-9.8-17.1-15.8c-6.7-6-14.4-12.6-22.9-19.7c-2.1-1.8-4.3-3.6-6.5-5.4l-0.6-0.5
					c-0.2-0.1-0.4-0.3-0.5-0.4c-0.3,0.5-0.6,0.9-0.9,1.4c-3.1,5.1-6.4,10.4-9.7,15.8c-6.7,10.8-13.7,22.3-20.9,34.1
					c-14.5,23.7-30,48.9-45.4,74.2c-0.7,1.1-1.4,2.3-2.1,3.4l-0.3,0.5v0.1l-0.1,0.1c8.9,6.7,17.8,13.3,26.6,19.9
					c11.7,8.8,23.1,17.4,34.2,25.7c1.8,1.3,3.5,2.7,5.3,4c0.4,0.3,0.9,0.6,1.3,1l0.6,0.5l0,0l0,0c4.6-6.8,8.9-13.2,13-19.4
					c7.1-10.5,13.9-20.5,20.1-29.7c6.2-9.2,12-17.6,17-25c5.1-7.5,9.6-13.9,13.3-19.2c7.4-10.6,11.7-16.6,11.7-16.6
					c3.4-4.7,6.7-7.3,7.3-5.8C602.4,41.2,601,44.7,598.7,48.5z"/>
			</g>
		</g>
	</g>
</g>
<g>
	<g>
		<g>
			<g>
				<path fill="#7BC9DF" d="M436.2,128.1c0,0-4.1,6.9-11.6,18.8c-3.7,5.9-8.2,13.1-13.5,21.4l-13.6,21.3l0.1,0.1l0.1,0.1l0.9,0.7
					c9.4,7.5,19.6,15.6,30.4,24.1c10.7,8.6,22.1,17.7,33.8,27.1c11.7,9.4,23.8,19.2,36.1,29c11.4,9.2,23,18.6,34.6,28l0,0l44.7-69.4
					l-0.4-0.3l-1.3-1c-23.7-18.5-45.8-35.7-64.8-50.4c-9.5-7.3-18.2-14.1-25.9-20.1c-7.7-5.9-14.5-11.1-20.1-15.4
					c-5.6-4.2-10-7.6-13-9.8c-3-2.3-4.6-3.5-4.6-3.5c-5.5-4.2-9.5-8.7-8.9-10.1s5.6,0.9,11.1,5.1c0.3,0.3,0.7,0.5,1,0.8
					c0,0,1.6,1.2,4.5,3.6c3,2.3,7.3,5.7,12.8,10s12.3,9.5,20,15.5s16.5,12.7,26,20c19.1,14.6,41.4,31.6,65.2,49.9l5.8,4.4L535,308.6
					l-0.8-0.6c-13.4-10.6-26.8-21.3-39.9-31.8c-12.3-9.8-24.4-19.5-36.2-28.9c-11.7-9.4-23-18.5-33.8-27.1
					c-10.7-8.7-20.8-16.9-30.1-24.4l-5.8-4.7l17.2-26.3c5.4-8.2,10.1-15.2,14-21.1c7.8-11.6,12.4-18.2,12.4-18.2
					c3.6-5.2,7-8.1,7.6-6.5C440.1,120.2,438.6,124,436.2,128.1z"/>
			</g>
		</g>
	</g>
</g>
<g>
	<g>
		<g>
			<g>
				<path fill="#7BC9DF" d="M689.4,314.1c0,0-3.1,5.4-8.8,14.8c-2.9,4.7-6.3,10.4-10.4,16.8c-4,6.5-8.6,13.8-13.6,21.7
					c-3.8,6-7.7,12.3-12.2,19.3c-3.6-2.7-7.9-5.8-12.2-9c-8.7-6.4-17.8-13.2-27.2-20.2s-19.1-14.3-29-21.7
					c-10-7.5-20.1-15.1-30.2-22.7l-4.7-3.5l41.1-61.2c4-6,8-11.9,11-16.4c15.3,11.2,28.6,20.8,40.4,29.4c7.6,5.5,14.6,10.6,20.8,15
					s11.6,8.3,16.1,11.5s8,5.7,10.4,7.3c2.4,1.7,3.7,2.6,3.7,2.6c4.4,3.1,7.5,6.7,6.9,8.1s-4.7-0.1-9.2-3.2
					c-0.3-0.2-0.6-0.4-0.8-0.6c0,0-1.3-0.9-3.6-2.7c-2.4-1.7-5.8-4.3-10.3-7.5c-4.4-3.2-9.8-7.1-16-11.6s-13.2-9.5-20.8-15
					c-10.6-7.6-22.5-16-36.2-25.8c-0.2,0.3-0.3,0.6-0.5,0.9c-0.7,1.1-1.5,2.3-2.3,3.5c-1.6,2.4-3.3,5-5,7.6L550,308l0.2,0.1
					c10,7.3,20,14.7,29.9,21.9c9.9,7.3,19.7,14.5,29.1,21.5c9.4,7,18.5,13.8,27.2,20.2c1.6,1.2,3.2,2.4,4.7,3.5
					c0.4,0.3,0.8,0.6,1.1,0.8c0.1,0,0.1,0,0.1,0l0,0l0,0l0,0l0.1,0.1l0.1-0.1l0,0c0.2-0.3,0.4-0.6,0.6-1c0.9-1.4,1.8-2.7,2.6-4.1
					c1.7-2.6,3.4-5.2,5-7.7c5.1-7.9,9.8-15.1,14-21.5s7.8-12,10.9-16.5c6.1-9.1,9.7-14.3,9.7-14.3c2.8-4,5.7-6.2,6.4-4.8
					C692.3,307.7,691.3,310.8,689.4,314.1z"/>
			</g>
		</g>
	</g>
</g>
<g>
	<g>
		<g>
			<g>
				<path fill="#9E9E80" d="M1597.1,258.7c0,0,3.7,7.2,10.5,20.8c3.4,6.8,7.7,15.1,12.8,24.8c5.1,9.8,11,20.9,17.8,33.3
					c3.4,6.2,7.1,12.7,11.2,19.2c1,1.6,2,3.3,3.1,4.9c1.2,1.6,2.4,3.2,3.6,4.9c1.5,2.1,2.3,4.3,3,6.5s1.2,4.3,1.6,6.5
					c1.5,8.7,1.9,17.7,2.1,27c0.1,9.3-0.2,18.9-0.7,28.8c-1,19.8-3,40.8-5.6,62.8c-1.3,11-2.9,22.3-4.6,33.8
					c-1.8,11.5-3.8,23.3-6.3,35.3c-0.3,1.5-0.7,3-1,4.5l-0.5,2.3c-0.2,0.7-0.4,1.6-0.7,2.3l-0.7,2.4c-0.2,0.8-0.6,1.5-0.8,2.3
					c-0.6,1.5-1.1,3.1-1.8,4.5c-2.6,5.9-5.9,11.4-9.3,16.9c-6.9,10.9-14.6,21.3-22.7,31.6c-16.2,20.7-33.9,41.2-51.7,62.6
					c-17.8,21.3-35.9,43.4-52.8,67c-8.5,11.8-16.6,24-24.1,36.7c-7.5,12.9-15.3,25.8-23.2,38.8c-15.7,25.9-31.8,52.2-43.6,80.8
					c-1.5,3.5-2.8,7.2-4.2,10.8c-0.7,1.8-1.3,3.6-1.9,5.5l-0.9,2.7l-0.8,2.8c-2.3,7.4-4.1,14.9-5.5,22.5l-1,5.7l-0.7,5.8
					c-0.3,1.9-0.4,3.9-0.5,5.8l-0.2,2.9c-0.1,1-0.1,1.9-0.1,2.9l-0.1,5.8c-0.1,1.9,0.1,3.9,0.1,5.8c0,3.9,0.5,7.8,0.7,11.7
					c1.5,14.2,4.8,28.4,9.5,42l0.9,2.6l1,2.6l1.9,5.2c1.3,3.4,2.6,6.9,3.8,10.3c1.4,3.4,2.7,6.8,4.1,10.3l2,5.1
					c0.7,1.7,1.4,3.4,2.1,5.1c1.4,3.4,2.9,6.8,4.3,10.2l4.5,10.1c3.1,6.7,6.3,13.3,9.7,19.8l1.3,2.5l1.3,2.4l2.7,4.8
					c0.9,1.6,1.9,3.2,2.8,4.7l1.4,2.4c0.5,0.8,1,1.5,1.5,2.3c2,3.1,4,6.1,6.2,9l1.6,2.1c0.1,0.1,0.1,0.2,0.2,0.3l0.5,0.5l0.9,1
					l1.8,2l0.9,1c0.2,0.2,0.3,0.3,0.5,0.5l0.7,0.6l2.8,2.3l5.8,4.8c-1.2,0-1.8,0-3.3-0.1c-1.3-0.1-2.5-0.1-3.8-0.2
					c-2.5-0.1-5.1-0.3-7.6-0.4c-3.4-0.2-6.9-0.4-10.3-0.6l-24.2-1.4l-6.1-0.4l-2.2-0.1c-0.1,0-0.2,0-0.4,0l-0.3-0.2l-0.6-0.4
					l-0.9-0.6l-2.5-1.7c-3.4-2.3-6.7-4.6-10-7c-13.2-9.4-26.1-19.4-38.4-30s-24.1-21.8-34.8-34c-5.3-6.1-10.4-12.5-15-19.3
					c-4.5-6.8-8.6-14-11.5-21.8c-1.4-3.9-2.6-7.9-3.3-12.1c-0.2-1-0.3-2.1-0.4-3.1l-0.2-1.6l-0.1-1.5l-0.4-5.9
					c-0.5-7.9-1-15.8-1.4-23.7c-0.8-15.8-1.5-31.5-1.8-47.2s-0.4-31.2,0-46.7c0.2-7.7,0.5-15.4,1-23.1c0.5-7.7,1-15.3,1.8-22.9
					c0.8-7.6,1.7-15.1,2.9-22.6c1.2-7.5,2.7-14.9,4.5-22.2c0.5-1.8,1-3.7,1.5-5.5c0.6-1.8,1.1-3.6,1.7-5.4c0.6-1.8,1.2-3.6,1.9-5.4
					c0.6-1.8,1.4-3.5,2.1-5.2c2.7-7,5.9-13.6,8.9-20.3c12.7-26.4,26.6-51.5,40.2-75.8c13.7-24.2,27.1-47.7,40.1-70.5
					c12.9-22.8,25.1-44.9,36-66.5c10.7-21.8,21.7-42.4,32.2-61.9c10.5-19.5,20.5-37.9,29.7-55.4c9.2-17.4,17.5-33.9,24.7-49.3
					c7.1-15.4,13.2-29.8,17.4-43.2c0.5-1.7,1-3.3,1.4-5c0.5-1.6,0.8-3.3,1.2-4.8c0.4-1.6,0.7-3.2,1-4.7c0.3-1.6,0.6-3.2,0.9-4.7
					c0.6-3.1,1.1-6.1,1.7-9s1.1-5.7,1.7-8.4c2.3-10.8,4.5-19.9,6.3-27.3s3.2-13,4.2-16.8s1.5-5.8,1.5-5.8
					c7.1-27.2,15-49.8,16.8-50.7c1.8-1-3.2,20-10.3,47c-0.4,1.7-0.9,3.4-1.3,5c0,0-0.5,2-1.5,5.7c-1,3.8-2.4,9.4-4.3,16.8
					c-1.8,7.4-4,16.4-6.3,27.1c-0.6,2.7-1.1,5.5-1.8,8.3c-0.6,2.9-1.2,5.9-1.8,8.9c-0.3,1.5-0.6,3.1-0.9,4.7s-0.6,3.3-1,5
					s-0.8,3.3-1.3,5s-1,3.4-1.5,5.1c-4.3,13.7-10.5,28.2-17.7,43.8c-7.3,15.5-15.7,32-24.9,49.5c-9.2,17.5-19.2,35.9-29.7,55.4
					s-21.4,40-32.1,61.8c-10.9,21.8-23.2,44-36,66.8c-12.9,22.8-26.2,46.3-39.9,70.5c-13.6,24.3-27.3,49.3-39.9,75.5
					c-3,6.6-6.1,13.2-8.7,20c-0.7,1.7-1.4,3.4-2,5.1c-0.6,1.7-1.2,3.4-1.8,5.1c-0.5,1.7-1.1,3.5-1.6,5.2c-0.5,1.8-0.9,3.5-1.4,5.3
					c-1.8,7.1-3.2,14.4-4.4,21.8c-1.2,7.4-2.1,14.8-2.8,22.3c-0.7,7.5-1.3,15.1-1.7,22.7c-0.4,7.6-0.7,15.2-0.9,22.9
					c-0.3,15.4-0.3,30.8,0.1,46.4c0.4,15.6,1.1,31.2,1.9,47c0.5,7.9,1,15.8,1.5,23.7l0.4,5.9l0.1,1.5l0.1,1.4
					c0.1,0.9,0.2,1.8,0.4,2.8c0.6,3.7,1.6,7.3,3,10.9c2.7,7.2,6.5,14,10.9,20.5s9.3,12.7,14.5,18.6c10.5,11.9,22.1,22.9,34.3,33.3
					c12.2,10.4,24.9,20.2,38,29.5c3.3,2.3,6.6,4.6,9.9,6.8l2.5,1.7l0.3,0.2c0,0,0,0,0.1,0h0.8l6.1,0.3l24.2,1.4
					c1.9,0.1,3.7,0.2,5.6,0.3h0.3h0.2c0,0,0.1,0,0,0l-0.1-0.1c-0.1-0.1-0.2-0.2-0.3-0.4l-0.1-0.1l-0.1-0.1l0,0l-0.2-0.3l-1.8-2.3
					c-2.3-3.1-4.5-6.2-6.5-9.4c-0.5-0.8-1-1.6-1.5-2.4l-1.5-2.4c-1-1.6-2-3.2-2.9-4.9l-2.7-4.9l-1.4-2.5l-1.3-2.5
					c-3.5-6.6-6.7-13.4-9.9-20.1l-4.6-10.2c-1.5-3.4-2.9-6.8-4.4-10.3c-0.7-1.7-1.5-3.4-2.2-5.1l-2.1-5.2c-1.4-3.4-2.7-6.9-4.1-10.3
					c-1.3-3.5-2.6-6.9-3.9-10.4l-1.9-5.2l-1-2.6l-0.9-2.7c-4.9-14.1-8.4-28.8-10-43.6c-0.3-4.1-0.8-8.1-0.8-12.2
					c0-2-0.2-4.1-0.1-6.1l0.1-6.1c0-1,0.1-2,0.1-3l0.2-3c0.1-2,0.3-4,0.5-6l0.7-6l1-6c1.4-7.9,3.3-15.7,5.6-23.4l0.9-2.9l1-2.8
					c0.6-1.9,1.3-3.8,1.9-5.6c1.4-3.7,2.8-7.4,4.3-11.1c1.5-3.7,3.1-7.3,4.7-10.9l2.5-5.3c0.8-1.8,1.7-3.5,2.6-5.3
					c3.4-7,7.2-13.9,10.9-20.7c7.6-13.5,15.5-26.7,23.4-39.7s15.6-25.8,23.1-38.7c7.6-13,15.9-25.4,24.5-37.3
					c17.2-23.8,35.4-46,53.2-67.4c17.9-21.4,35.5-41.9,51.7-62.3c8.1-10.2,15.7-20.5,22.4-31c3.3-5.3,6.4-10.5,8.8-16
					c0.7-1.3,1.1-2.7,1.7-4.1c0.2-0.7,0.6-1.4,0.8-2l0.6-2.1c0.2-0.7,0.4-1.3,0.6-2.1l0.5-2.2c0.3-1.5,0.7-2.9,1-4.4
					c2.5-11.8,4.6-23.4,6.4-34.9c1.8-11.4,3.4-22.6,4.7-33.6c2.7-21.9,4.7-42.7,5.8-62.3c0.5-9.8,0.8-19.3,0.8-28.4
					c-0.1-9.1-0.5-17.9-1.8-26c-0.4-2-0.8-4-1.3-5.8s-1.3-3.6-2.1-4.8c-1.2-1.7-2.4-3.3-3.6-5s-2.2-3.4-3.2-5.1
					c-4.2-6.8-7.8-13.3-11.2-19.6c-6.8-12.5-12.6-23.8-17.5-33.6c-5-9.8-9.2-18.2-12.5-25c-6.7-13.6-10.2-20.9-10.2-20.9
					c-11.1-22.9-17.4-39.1-14.5-36.1C1580.6,227.1,1588.4,241.3,1597.1,258.7z"/>
			</g>
		</g>
	</g>
</g>
<g>
	<g>
		<g>
			<g>
				<path fill="#EF402A" d="M1779.4,597.9c0,0-0.4,2.6-1.1,7.4c-0.8,4.8-2,12-3.7,21c-1.8,9-4.1,19.9-7.4,32.3
					c-1.7,6.2-3.5,12.8-5.8,19.6s-4.9,14-8.4,21.3c-0.8,1.8-1.8,3.6-2.8,5.5c-1.1,1.8-2.1,3.6-3.3,5.4c-1.2,1.9-2.4,3.4-3.6,5.1
					c-1.2,1.7-2.5,3.4-3.7,5.1c-5,6.8-10.3,13.8-15.9,20.9c-4.8,6.1-9.8,12.3-14.9,18.6c-2.6,3.1-5.2,6.3-7.9,9.5
					c-2.2,2.6-4.4,5.3-6.7,8l0,0c0.2,0.4,0.4,0.9,0.6,1.3c0.5,1.2,1,2.4,1.6,3.6c7.7,18,15.7,36.5,23.8,55.4
					c2.4,5.7,4.9,11.4,7.4,17.3c10-6,20.2-12.1,30.4-18.2c35.8-21.4,71.6-42.9,105.2-63c5.5-3.3,11-6.6,15.1-9
					c-15.5-27.5-29.2-51.8-41.3-73.2c-7.7-13.6-14.8-26.1-21.1-37.1c-6.3-11-11.8-20.7-16.4-28.6c-4.6-7.9-8.1-14.1-10.6-18.4
					c-2.5-4.2-3.8-6.5-3.8-6.5c-4.5-7.8-7.4-15.1-6.3-16.2c1-1.1,5.6,4.3,10.1,12.1c0.3,0.5,0.6,1,0.8,1.5c0,0,1.3,2.3,3.7,6.5
					c2.4,4.3,5.9,10.5,10.4,18.5c4.5,7.9,10,17.6,16.2,28.7c6.3,11,13.4,23.5,21.2,37.1c13,22.7,27.8,48.4,44.4,77.5
					c-5.3,3.3-12.4,7.6-19.5,11.9c-33.4,20.4-69,42.2-104.6,63.9c-12.4,7.6-24.9,15.1-37.1,22.6c-3.6-8.3-7.2-16.5-10.7-24.6
					c-8.2-18.8-16.2-37.4-24-55.3c-1.4-3.2-2.7-6.3-3.9-9.1c1.9-2.2,3.7-4.4,5.6-6.6c1.3-1.6,2.7-3.2,4-4.8c2.6-3.2,5.3-6.4,7.8-9.5
					c5.1-6.3,10.1-12.4,14.9-18.5c5.6-7,10.9-13.9,15.9-20.6c1.3-1.7,2.5-3.3,3.7-5s2.5-3.3,3.5-4.9c1.1-1.6,2-3.3,3-4.9
					c0.9-1.7,1.8-3.4,2.6-5.1c3.3-6.8,6-13.8,8.3-20.4c2.3-6.7,4.2-13.1,5.9-19.2c3.4-12.2,5.9-22.9,7.9-31.8
					c2-8.9,3.4-15.9,4.3-20.7s1.4-7.3,1.4-7.3c1.6-8,3.6-13.4,4.7-11.9C1780.3,586.4,1780.3,591.7,1779.4,597.9z"/>
			</g>
		</g>
	</g>
</g>
<g>
	<g>
		<g>
			<g>
				<path fill="#EF402A" d="M1882.8,785.8c0,0-7.6,4.9-21.1,13.3c-6.8,4.2-15,9.3-24.4,15c-9.5,5.8-20.1,12.2-31.7,19.3
					s-24.3,14.7-37.6,22.8c-9,5.4-18.3,11-28.2,17l0,0c0.4,0.9,0.8,1.8,1.2,2.7c0.9,2,1.8,4,2.7,6c7,15.5,14.2,31.6,21.5,47.9
					c6.1,13.6,12.2,27.3,18.4,41.1l0.2-0.1l0,0l0.2-0.1l1.2-0.7c31.8-17.5,63.7-34.9,93.5-51.3c24.5-13.5,47.6-26.1,66.9-36.8
					c-2.3-4.2-4-7.3-5.6-10.3c-6.6-11.9-12.6-22.9-17.9-32.5c-5.4-9.7-10.1-18.1-13.9-25c-3.9-6.9-6.9-12.4-9-16.1
					c-2.1-3.7-3.2-5.7-3.2-5.7c-3.9-6.8-6.1-13.2-5-14.3s5.1,3.6,9,10.5c0.2,0.4,0.5,0.9,0.7,1.3c0,0,1.1,2,3.1,5.7s5,9.2,8.8,16.2
					s8.5,15.4,13.8,25.1c5.4,9.7,11.4,20.6,18,32.5c2.4,4.3,4.8,8.6,8.1,14.6c-20.5,11.5-45,25.2-70.9,39.7
					c-29.7,16.7-61.3,34.5-93,52.2c-2.7,1.5-5.3,3-8,4.5c-7.3-16-14.6-31.9-21.7-47.6c-7.4-16.3-14.7-32.3-21.7-47.8
					c-2.3-5.1-4.6-10.1-6.7-14.7c11.9-7.1,23.1-13.8,33.8-20.3c13.4-8,26.1-15.5,37.8-22.5c11.7-6.9,22.4-13.3,32-19
					c9.5-5.6,17.8-10.5,24.7-14.5c13.7-8,21.7-12.4,21.7-12.4c6.2-3.5,11-4.9,10.8-3.2C1890.8,779.8,1887.4,782.8,1882.8,785.8z"/>
			</g>
		</g>
	</g>
</g>
<g>
	<g>
		<g>
			<g>
				<path fill="#EF402A" d="M1799.9,979.3c0,0,8.2-4.8,22.6-13.1c7.2-4.1,16-9.1,26-14.8c10.1-5.7,21.4-12.1,33.8-19
					c12.4-7,25.9-14.5,40.1-22.4c10.8-6,22-12.3,34-18.9c3,5.3,6.2,11.2,9.5,17.2c8.6,15.6,17.5,31.6,26.6,47.9
					c9,16.3,18.2,32.9,27.3,49.6l3.7,6.8l-100.2,47.2c-29.8,14.1-57.9,27.4-81.6,38.6c-2.1-4.4-3.6-7.6-5.1-10.7
					c-6.2-12.8-11.8-24.6-16.8-35s-9.4-19.5-13.1-26.9c-3.6-7.5-6.5-13.3-8.5-17.3s-3-6.1-3-6.1c-3.6-7.4-5.6-14.1-4.5-15.2
					c1.1-1,5,4.1,8.6,11.5c0.2,0.5,0.4,0.9,0.7,1.4c0,0,1,2.1,2.9,6.2c1.9,4,4.7,9.9,8.2,17.4c3.6,7.5,7.9,16.6,12.9,27
					c5,10.4,10.7,22.2,16.9,35c0.9,1.8,1.8,3.7,3,6.3c22.3-10.8,48.7-23.5,76.9-37.1l93.3-45.1l-0.1-0.2v-0.1l-0.2-0.3
					c-9.3-16.5-18.6-33.1-27.7-49.4c-9.1-16.3-18.1-32.3-26.7-47.9c-2.1-3.7-4.2-7.4-6-10.8c-9.7,5.4-18.9,10.4-27.7,15.3
					c-14.3,7.9-27.8,15.3-40.3,22.1s-23.9,13.1-34,18.6s-19,10.3-26.3,14.3c-14.6,7.9-23,12.2-23,12.2c-6.6,3.4-11.7,4.8-11.3,3.1
					C1791.3,985.2,1795,982.2,1799.9,979.3z"/>
			</g>
		</g>
	</g>
</g>
<g>
	<g>
		<g>
			<g>
				<path fill="#EF402A" d="M1667.4,833.2c0,0,5,9.7,13.5,26.8c4.2,8.6,9.3,18.9,15.2,30.9c5.8,11.9,12.4,25.4,19.6,40.1
					c7.2,14.7,14.9,30.6,23.1,47.5c8.1,16.9,16.7,34.7,25.6,53.1c8.9,18.4,18,37.5,27.3,56.8c1.3,2.8,2.7,5.6,4.1,8.5
					c-19.1,8.3-38.4,16.6-57.8,25l-19.6,8.5l-47.3-102.7c-17.1-37.1-33.1-71.8-46.8-101.5c-6.9-14.9-13.3-28.6-18.9-40.7
					c-0.3-0.6-0.6-1.2-0.9-1.9l-0.2-0.5l-0.1-0.2l-0.1-0.1l0.1-0.1l0.6-0.8c0.7-0.9,1.3-1.8,2-2.7c1-1.3,1.9-2.6,2.8-3.8
					c1.9-2.5,3.7-4.9,5.4-7.2c3.5-4.6,6.7-8.8,9.7-12.6c5.9-7.5,10.7-13.4,14-17.3c3.3-3.9,5.2-6,5.2-6c3.2-3.5,6.6-6.5,9.5-8.4
					c1.4-0.9,2.8-1.5,3.8-1.8c1.1-0.3,1.8-0.2,2,0.1s0,0.8-0.4,1.4c-0.5,0.6-1.2,1.4-2.1,2.5c-1.9,2.1-4.6,5.2-7.7,8.6
					c-0.4,0.4-0.8,0.9-1.2,1.3c0,0-1.9,1.9-5.2,5.7c-3.3,3.8-8.1,9.5-14.1,16.9c-3,3.7-6.2,7.9-9.7,12.4c-1.7,2.3-3.5,4.7-5.4,7.1
					c-0.9,1.2-1.9,2.5-2.8,3.8c-0.3,0.4-0.6,0.8-0.9,1.2l-0.1,0.2c0,0.1,0,0.1,0.1,0.2l0.2,0.4c5.6,12,11.9,25.5,18.7,40.2
					c13.9,29.6,30.1,64.1,47.4,101.1l45.4,96.5l0.2-0.1l0.1-0.1l0.9-0.4l4.2-1.8l8.3-3.7c17.1-7.5,34.1-15,50.9-22.4v-0.1l0,0
					l-0.2-0.5l-0.6-1.3c-9.4-19.3-18.6-38.3-27.5-56.7c-8.9-18.4-17.4-36.2-25.6-53.1c-8.1-16.9-15.7-32.9-22.8-47.6
					c-7-14.8-13.5-28.3-19.2-40.3s-10.6-22.5-14.7-31.1c-8.1-17.3-12.6-27.2-12.6-27.2c-3.5-7.8-4.9-13.6-3.2-13
					C1661.3,822.8,1664.4,827.4,1667.4,833.2z"/>
			</g>
		</g>
	</g>
</g>
<g>
	<g>
		<g>
			<g>
				<path fill="#EF402A" d="M1598.3,930.1c0,0-8,4.5-22,12.3c-3.5,1.9-7.4,4.1-11.7,6.4c-2.1,1.2-4.3,2.4-6.6,3.6
					c-1.1,0.6-2.3,1.3-3.5,1.9c-0.6,0.3-1.2,0.6-1.8,1c-0.4,0.2-0.3,0.2-0.4,0.2l-0.1,0.1c0-0.1-0.2,0.3-0.3,0.6l-0.4,0.8
					c-0.3,0.5-0.5,1.2-0.8,1.8c-0.5,1.2-0.9,2.5-1.3,3.8s-0.7,2.7-1,4.1c-0.2,1.4-0.5,2.9-0.7,4.4c-0.7,5.9-0.7,12.3-0.1,19
					c1.3,13.3,5,27.5,10.5,42c0.7,1.8,1.4,3.6,2.1,5.5c0.4,0.9,0.7,1.8,1.1,2.8c0.4,0.9,0.8,1.8,1.2,2.7c1.6,3.6,3.3,7.3,5,11
					c3.6,7.4,7.3,15.1,11,22.8c7.5,15.5,15.3,31.4,23.3,47.6c4,8.1,8.1,16.2,12.2,24.4c2.1,4.1,4.1,8.1,6.2,12.2
					c0.4,0.7,0.2,0.5,0.3,0.6l0.1,0.1c0,0.1,0.1,0,0.2,0l5.8-2.6l71.9-31.9l-9.6-21c-14.3-31.3-27.7-60.4-39.2-85.4
					c-5.8-12.5-11.1-23.9-15.7-34.1c-4.7-10.1-8.8-19-12.2-26.2c-3.4-7.3-6.1-13-7.9-16.8c-1.8-3.9-2.8-6-2.8-6
					c-3.4-7.2-5.2-13.8-4.1-14.8c1.2-1,4.9,4,8.3,11.2c0.2,0.4,0.4,0.9,0.6,1.3c0,0,0.9,2.1,2.7,6c1.8,3.9,4.4,9.6,7.7,16.9
					c3.4,7.3,7.4,16.1,12.1,26.3c4.7,10.1,10,21.6,15.8,34c11.7,24.9,25.3,54,39.8,85.1l12.3,26.3l-77,35.1l-6.8,3.1l-3,1.4
					c-1,0.3-2.2,1.5-2.5-0.1l-2.8-5.4c-2.1-4.1-4.2-8.1-6.3-12.2c-4.2-8.1-8.3-16.3-12.3-24.3c-8.1-16.1-16-32.1-23.5-47.6
					c-3.7-7.7-7.4-15.4-11-22.8c-1.7-3.8-3.4-7.6-5.1-11.3c-0.4-0.9-0.8-1.9-1.2-2.8c-0.4-1-0.7-1.9-1.1-2.8
					c-0.7-1.9-1.5-3.8-2.2-5.6c-5.6-15-9.4-29.8-10.6-44c-0.5-7.1-0.5-13.9,0.4-20.4c0.3-1.6,0.6-3.2,0.8-4.8
					c0.4-1.6,0.8-3.1,1.2-4.6c0.5-1.5,0.9-3,1.6-4.4c0.3-0.7,0.6-1.4,1-2.1l0.5-1.1c0.2-0.4,0.3-0.6,0.7-1.3
					c0.2-0.3,0.4-0.5,0.5-0.8c0.1-0.1,0.2-0.3,0.3-0.4l0.4-0.2c0.5-0.3,1.3-0.7,1.5-0.8c0.6-0.3,1.2-0.6,1.8-0.9
					c1.2-0.6,2.4-1.2,3.5-1.8c2.3-1.2,4.5-2.4,6.7-3.5c4.3-2.2,8.2-4.2,11.8-6.1c14.3-7.3,22.5-11.4,22.5-11.4
					c6.5-3.2,11.4-4.4,11-2.7C1606.7,924.5,1603.1,927.4,1598.3,930.1z"/>
			</g>
		</g>
	</g>
</g>
<path fill="none" stroke="#8D8F81" stroke-width="18" stroke-linecap="round" stroke-miterlimit="10" d="M1591,660.3
	c0,0,57,90.7,85,145.7s181,367,181,367"/>
<g>
	<g>
		<g>
			<g>
				<path fill="#9E9E80" d="M1514.1,469c0,0,3.9,2,10.6,5.7c3.3,1.8,7.4,4.1,12,6.8c4.6,2.7,9.8,5.6,15.5,8.9
					c1.4,0.8,2.9,1.7,4.4,2.6c1.4,0.8,2.9,1.7,4.4,2.5l1.1,0.6l0.1,0.1c0,0,0.1,0,0.1,0.1l-0.1,0.3l-0.3,0.6
					c-0.4,0.8-0.8,1.5-1.2,2.3c-1.9,3.6-3.8,7.3-5.8,11.1c-3.5,6.6-7.1,13.7-11,20.9s-7.9,14.7-11.9,22.2
					c-4.1,7.5-8.3,15.2-12.5,22.9c-8.4,15.3-16.9,30.6-24.9,44.8c-2,3.6-4,7.1-6,10.5s-3.9,6.8-5.8,10c-1,1.6-1.9,3.2-2.9,4.8
					c-0.4,0.8-1,1.6-1.5,2.4c-0.5,0.8-1,1.5-1.6,2.4c-0.8,1-1.8,1.8-2.9,2.3s-2.2,0.8-3.2,0.9c-2.1,0.3-4,0.1-5.7-0.2
					c-3.5-0.7-6.6-1.8-9.4-3s-5.4-2.5-7.8-3.7c-4.8-2.5-8.8-4.9-12.1-7c-3.3-2-5.8-3.7-7.5-4.8s-2.6-1.8-2.6-1.8
					c-3.2-2.1-5.1-5-4.4-6.3s3.8-0.6,6.9,1.5c0.2,0.1,0.4,0.3,0.6,0.4c0,0,0.9,0.6,2.5,1.8c1.7,1.2,4.1,2.9,7.3,4.9
					c3.2,2,7.1,4.5,11.7,6.9c2.3,1.2,4.8,2.4,7.5,3.5s5.5,2.1,8.4,2.6s6,0.3,7.1-1.3c0.4-0.6,0.9-1.4,1.4-2.1
					c0.5-0.7,0.9-1.4,1.4-2.2c0.9-1.6,1.8-3.1,2.8-4.7c1.8-3.2,3.7-6.6,5.6-10c1.9-3.5,3.8-7,5.7-10.6c7.7-14.4,15.9-29.8,23.9-45.3
					c4.1-7.7,8.1-15.5,12.1-23.1s7.9-15.1,11.7-22.3c3.8-7.2,7.5-14.2,11-20.8c0.9-1.7,1.8-3.3,2.6-4.9c0.4-0.8,0.9-1.6,1.3-2.4
					l0.3-0.6l0.2-0.3l0,0l0,0c0.1-0.1,0-0.1,0-0.2c-1.4-0.9-2.8-1.7-4.2-2.5c-5.6-3.4-10.7-6.5-15.3-9.3c-4.5-2.8-8.5-5.2-11.7-7.3
					c-6.5-4.1-10.1-6.5-10.1-6.5c-2.8-1.9-4.2-4.2-3.1-5.1C1509.5,467.3,1511.8,467.8,1514.1,469z"/>
			</g>
		</g>
	</g>
</g>
<g>
	<g>
		<g>
			<g>
				<path fill="#9E9E80" d="M1533.2,450.4c0,0,9.1,5.3,24.9,14.8c7.9,4.8,17.5,10.6,28.5,17.3l8.8,5.4l-18.6,34.3
					c-2.8,5.1-5.6,10.4-8.9,16.5c6.7,3.6,14.3,7.8,22.2,12.1c8,4.3,16.1,8.8,24.5,13.4l1.6,0.9l0.4,0.2h0.1l0,0l0,0l0,0l0,0l0,0l0,0
					l0,0l0.1-0.2c0.4-1.1,0.9-2.2,1.2-3.3c1.6-4.5,3.1-9.1,4.5-13.8c2.8-9.4,5.2-19,7.2-28.9c2.1-9.9,3.8-19.9,5.2-30.2
					c0.8-5.1,1.3-10.2,1.9-15.4c0.6-5.2,1.1-10.4,1.7-15.6c1.1-10.4,2.3-20.9,3.2-31.4c0.8-10.4,1.8-20.9,0-30.6
					c-0.8-4.9-2.5-9.7-4.3-14.5c-0.9-2.3-1.9-4.7-3-7c-1-2.3-2.2-4.7-3.3-7c-4.5-9.3-9.3-18.4-14.1-27.3
					c-4.8-8.9-9.6-17.7-14.4-26.4c-2.5-4.5-5-9-7.4-13.2s-4.6-8.2-6.6-11.6l-0.3-0.7l-0.3-0.6l-0.6-1.2c-0.4-0.8-0.8-1.6-1.2-2.4
					c-0.9-1.5-1.8-3-2.8-4.3s-2.1-2.5-3.1-3c-0.1-0.1-0.2-0.1-0.3-0.2c-0.1,0-0.2-0.1-0.3-0.1c-0.1,0-0.1,0-0.2,0s-0.1,0-0.2,0
					c-0.2,0.1-0.5,0.1-0.9,0.5c-0.8,0.7-1.5,2.1-2.1,3.5s-1,3-1.4,4.6c-0.8,3.1-1.3,6.5-1.9,9.8c-2.4,13-4.3,25.2-6.3,36.8
					c-1.4,7.8-2.8,15.3-4.8,22.4c-0.3,0.9-0.5,1.8-0.8,2.6c-0.3,0.9-0.6,1.7-0.9,2.6c-0.6,1.7-1.3,3.3-1.9,4.9
					c-1.3,3.2-2.6,6.2-3.8,9.2c-5,11.9-9.3,22.2-12.9,30.7s-6.4,15.2-8.3,19.7c-1.9,4.6-2.9,7-2.9,7c-3.5,8.4-7.6,15.1-9.2,15
					c-1.5-0.2,0.1-7.1,3.6-15.5c0.2-0.5,0.5-1.1,0.7-1.6c0,0,1.1-2.4,3-6.9c2-4.5,4.9-11.2,8.5-19.6c3.6-8.5,8.1-18.8,13-30.6
					c1.2-3,2.5-6,3.8-9.2c0.6-1.6,1.3-3.2,1.9-4.8c0.3-0.8,0.6-1.6,0.8-2.4c0.2-0.8,0.5-1.7,0.8-2.5c1.9-6.8,3.3-14.2,4.6-22
					c1.9-11.5,3.8-23.7,6.1-36.8c0.6-3.3,1.1-6.5,2-10.1c0.4-1.7,0.9-3.5,1.6-5.3s1.5-3.6,3.3-5.4c0.9-0.9,2.3-1.7,3.8-1.9
					c0.4,0,0.8,0,1.1,0c0.4,0,0.7,0.1,1.1,0.2s0.7,0.2,1,0.3c0.3,0.1,0.6,0.3,0.9,0.4c2.2,1.2,3.5,2.8,4.8,4.4
					c1.2,1.6,2.3,3.2,3.3,4.9c0.5,0.8,0.9,1.7,1.4,2.6l0.7,1.3l0.6,1.2c1.9,3.3,4.2,7.2,6.5,11.3c2.4,4.2,4.9,8.6,7.5,13.1
					c4.9,8.6,9.8,17.4,14.7,26.3c4.9,8.9,9.8,18,14.4,27.4c1.2,2.3,2.3,4.7,3.4,7.1c0.5,1.2,1.1,2.4,1.6,3.6l1.6,3.7
					c1.9,4.9,3.7,10.1,4.7,15.6s1.3,11,1.2,16.4c-0.1,5.4-0.5,10.7-0.9,16c-0.9,10.6-1.9,21.1-3,31.5c-0.5,5.2-1.1,10.4-1.6,15.6
					c-0.6,5.2-1.1,10.4-1.9,15.6c-1.4,10.4-3.1,20.6-5.1,30.7c-2.1,10.1-4.5,19.9-7.3,29.5c-1.4,4.8-2.9,9.5-4.6,14.2
					c-0.4,1.2-0.9,2.3-1.3,3.5l-0.2,0.6l-0.3,0.8l-0.7,1.6c-0.5,1.1-0.9,2.2-1.4,3.3l-0.4,0.8l-0.2,0.4c0,0.1,0,0.2-0.1,0.2
					l-0.2-0.1l-1.6-0.8c-1-0.5-2.1-1.1-3.1-1.7c-1.4-0.8-2.8-1.6-4.2-2.3c-8.3-4.6-16.5-9.1-24.4-13.4c-10-5.5-19.8-10.9-28.3-15.6
					c4.6-8.3,8.6-15.6,12.5-22.5l16-28.7l-0.4-0.3l-3.1-1.9c-10.9-6.9-20.3-12.8-28.1-17.8c-15.6-9.9-24.4-15.7-24.4-15.7
					c-6.9-4.5-11.1-8.6-9.3-9C1522.8,445.1,1527.7,447.2,1533.2,450.4z"/>
			</g>
		</g>
	</g>
</g>
<g>
	<g>
		<g>
			<g>
				<path fill="#EF402A" d="M1557.9,554.9c0,0-1.3,3.2-3.9,8.7c-1.3,2.7-2.9,6.1-4.7,9.9c-1.9,3.8-4,8.1-6.3,12.7
					c-0.5,1.1-1.1,2.2-1.7,3.3l-0.2,0.4l0,0l0,0v0.1h0.1l0,0l0,0l0.3,0.1l0.5,0.3c1.4,0.7,2.7,1.6,4.1,2.4
					c5.2,3.2,10.6,6.7,15.8,10.9c5.2,4.1,10.4,8.8,15,14.4c1.1,1.4,2.2,2.9,3.3,4.3c0.1,0.2,0.2,0.4,0.4,0.6l0.3,0.5l0.1,0.1
					c0,0,0,0.1,0.1,0.1h0.1l0.9-0.5l1.1-0.6c1.5-0.8,2.9-1.6,4.4-2.5c1.4-0.9,2.8-1.8,4.1-2.7c0.3-0.2,0.6-0.5,0.9-0.7l0.4-0.4
					l0.1-0.1l0,0c0,0,0,0,0-0.1l0.3-0.5l0.7-1.1c1.7-3,3.5-6,5.2-8.9c3.4-5.9,6.8-11.7,10.1-17.3c0.9-1.5,1.7-2.9,2.5-4.3l0.3-0.5
					l0.1-0.1c0.1-0.1,0.1-0.2,0.2-0.2c0.1-0.2,0.2-0.3,0.3-0.5c-0.3-0.2-0.6-0.3-0.9-0.5c-1-0.6-2.1-1.1-3.1-1.7
					c-2-1.1-4-2.2-5.9-3.3c-3.8-2.1-7.4-4.1-10.8-5.9c-4.6-2.5-8.8-4.8-12.5-6.8s-7-3.7-9.7-5.1c-2.7-1.4-4.8-2.5-6.3-3.2
					c-1.4-0.7-2.2-1.1-2.2-1.1c-2.7-1.4-4.4-3.6-3.8-4.9s3.2-1.4,5.9,0c0.2,0.1,0.3,0.2,0.5,0.3c0,0,0.8,0.4,2.2,1.2
					c1.4,0.8,3.5,2,6.1,3.5c2.7,1.5,5.9,3.2,9.6,5.3c3.7,2,7.9,4.3,12.5,6.7c7.5,4,15.9,8.4,25.6,13.6c-1.6,2.9-3.7,6.7-5.8,10.5
					c-3.1,5.7-6.3,11.6-9.6,17.6c-1.6,3-3.3,6-4.9,9l-0.6,1.1l-0.3,0.6l-0.3,0.5c-0.1,0.2-0.2,0.4-0.4,0.5c-0.1,0.1-0.3,0.3-0.4,0.4
					l-0.4,0.4l-0.6,0.5c-0.4,0.3-0.7,0.6-1.1,0.9c-1.5,1.1-3,2.2-4.5,3.1c-1.5,1-3.1,1.9-4.6,2.8l-1.2,0.7l-1.3,0.7l-4.5,2.3
					l-0.6,0.3l-0.3,0.1c-0.1,0-0.2,0.2-0.2,0l-0.7-1.1l-1.3-2.1l-2-3.2c-1-1.3-1.9-2.6-3-3.8c-4.2-4.9-9.1-9.3-14-13.2
					c-5-3.9-10.1-7.4-15-10.4c-1.3-0.8-2.6-1.6-3.9-2.4l-0.5-0.3l-0.2-0.1l-0.5-0.3c-0.6-0.4-1.3-0.7-1.9-1c-1.2-0.7-2.5-1.3-3.7-2
					c1.2-2.4,2.4-4.6,3.5-6.7c0.6-1.1,1.2-2.2,1.7-3.3c2.4-4.6,4.7-8.8,6.7-12.5s3.8-6.9,5.3-9.6c3-5.3,4.8-8.3,4.8-8.3
					c1.4-2.3,3.4-3.4,4.4-2.4C1558.8,551,1558.7,552.9,1557.9,554.9z"/>
			</g>
		</g>
	</g>
</g>
<g>
	<g>
		<g>
			<g>
				<path fill="#EF402A" d="M1522.4,621c0,0,0.8,0.3,2.3,0.9c1.5,0.6,3.6,1.5,6.3,2.7c2.7,1.2,5.9,2.9,9.5,5s7.5,4.7,11.6,7.9
					c1,0.8,2,1.7,3.1,2.6c1,0.9,2,1.9,3,2.9s1.9,2.1,2.9,3.2c0.3,0.3,0.5,0.6,0.7,0.9l0.9,1.3c0.8,1.1,1.7,2.3,2.5,3.4l0.3,0.4
					l0.2,0.2l0.1,0.1c0,0,0,0.1-0.1,0.1l-0.7,0.8c-0.5,0.5-1,1-1.5,1.6l-1.5,1.6l-0.9,1c-1,1.1-1.9,2.1-2.9,3.3c-2,2.2-4,4.5-6,6.8
					c-4.1,4.7-8.2,9.5-12.5,14.5c-4.2,4.9-8.6,10-12.9,15l-5.1,6.1l-9.4-6.8l-6.9-5l-13.8-10c-4.2-3.1-8.3-6.1-11.5-8.4
					c5.4-7.9,9.9-14.5,14-20.5c2.8-4.1,5.3-7.9,7.6-11.2c2.2-3.4,4.2-6.3,5.8-8.7c1.6-2.4,2.8-4.4,3.7-5.7c0.8-1.3,1.3-2,1.3-2
					c1.5-2.4,3.8-3.8,5.1-3.1s1.1,3.2-0.4,5.7c-0.1,0.1-0.2,0.3-0.3,0.4c0,0-0.5,0.7-1.4,1.9c-0.9,1.3-2.2,3.1-3.9,5.5
					c-1.6,2.4-3.6,5.3-5.9,8.6c-2.2,3.4-4.8,7.1-7.6,11.3c-1.8,2.7-3.7,5.6-5.7,8.7c-1,1.5-2.1,3.1-3.2,4.8c-0.5,0.7-1,1.5-1.5,2.3
					c-0.2,0.2-0.3,0.5-0.5,0.7c0.2,0.1,0.4,0.3,0.6,0.4l0.2,0.1l0.4,0.3c0.4,0.3,0.8,0.5,1.2,0.8c1.6,1.1,3.4,2.3,5.1,3.5l14,9.7
					l7,4.8l3.5,2.4l0.7,0.5l0.1,0.1l0.2,0.1l0.1-0.2v-0.1l0,0l0.2-0.2l0.8-1c4.2-5.2,8.4-10.3,12.6-15.3s8.3-9.9,12.4-14.7
					c2-2.4,4.1-4.7,6.1-6.9c1-1.1,2-2.2,3-3.3l0.6-0.6l0,0l0,0l0,0l0,0c0,0,0,0,0-0.1l-0.3-0.4c-0.2-0.3-0.4-0.5-0.6-0.8
					c-0.8-1-1.6-1.9-2.5-2.9c-0.9-0.9-1.8-1.8-2.6-2.6c-0.9-0.8-1.8-1.6-2.7-2.4c-3.6-3.1-7.3-5.6-10.6-7.8
					c-3.3-2.1-6.3-3.9-8.8-5.3c-2.5-1.4-4.4-2.5-5.8-3.2c-1.3-0.7-2.1-1.1-2.1-1.1c-2.2-1.2-3.4-3-2.6-4.1
					C1518.6,620.5,1520.4,620.3,1522.4,621z"/>
			</g>
		</g>
	</g>
</g>
<g>
	<g>
		<g>
			<g>
				<path fill="#9E9E80" d="M1408.8,658.2c0,0-3.4,6.7-9.4,18.3c-3,5.8-6.8,12.8-11.1,20.9c-4.3,8-9.2,17.1-14.5,27
					s-11.1,20.6-17.2,31.9c-4.6,8.5-9.4,17.3-14.5,26.6l0,0c0.8,0.4,1.6,0.9,2.4,1.3c12.4,6.5,25.2,13.4,38.2,20.5
					c6.5,3.6,13,7.2,19.5,10.9c3.2,1.9,6.5,3.8,9.7,5.8c0.8,0.5,1.6,1,2.4,1.5l1.2,0.8l0.2,0.1h0.1l0,0l0,0l0,0l0.2,0.2l0.1-0.2l0,0
					l0,0v-0.1l0.7-1.2l1.4-2.5l2.8-4.9c1.9-3.2,3.8-6.5,5.7-9.7c3.9-6.4,7.8-12.8,11.7-19c7.8-12.5,15.8-24.7,23.8-36.3
					c6-8.7,11.9-17,17.9-24.7c3-3.9,6-7.5,9-11c0.7-0.9,1.5-1.7,2.3-2.5s1.6-1.6,2.4-2.4l0.6-0.6l0.3-0.3l0.1-0.1l0.6-0.5l0.3-0.2
					l0.2-0.2l0.4-0.3c-0.6-0.5-1.3-0.9-1.8-1.3c-1.4-1-2.7-1.9-4-2.7c-2.6-1.8-5-3.4-7.4-4.9c-9.3-6.2-18-11.8-25.6-16.7
					c-7.7-4.9-14.4-9.2-19.9-12.7s-9.9-6.2-12.9-8.1c-3-1.9-4.6-2.8-4.6-2.8c-5.5-3.4-9.6-7.3-9-8.7c0.5-1.4,5.4,0.2,10.9,3.6
					c0.3,0.2,0.7,0.4,1,0.6c0,0,1.6,1,4.5,2.9s7.3,4.7,12.8,8.3s12.2,7.9,19.8,12.9c7.7,5,16.3,10.6,25.7,16.7
					c2.4,1.6,4.8,3.2,7.4,4.9c1.3,0.9,2.7,1.8,4.2,2.8c2.3,1.6,4.7,3.2,7.2,4.9c-0.7,0.5-1.4,1.1-2.1,1.7l-1,0.8l-0.9,0.8
					c-0.6,0.5-1.2,1.1-1.9,1.6l-0.5,0.4l-0.3,0.3l-0.5,0.6c-0.7,0.7-1.5,1.5-2.2,2.3s-1.5,1.6-2.2,2.4c-2.9,3.3-5.8,7-8.7,10.8
					c-5.8,7.6-11.6,16-17.4,24.7c-7.8,11.6-15.5,23.9-23.2,36.4c-3.8,6.3-7.6,12.6-11.4,19.1c-1.9,3.2-3.7,6.4-5.6,9.7l-2.7,4.9
					l-3.3,6c-0.9,1.6-1.7,3.2-2.6,4.7l-4.3-3.2c-0.4-0.3-0.7-0.6-1.1-0.8l-0.9-0.6l-1.1-0.7c-0.7-0.5-1.5-1-2.3-1.4
					c-3.1-1.9-6.4-3.7-9.6-5.6c-6.5-3.7-13-7.2-19.4-10.7c-12.9-7-25.8-13.8-38.2-20.3c-3.1-1.6-6.2-3.3-9-4.7
					c6.3-11.6,12.4-22.6,18.1-33.1c6.2-11.3,12.1-21.9,17.6-31.7s10.5-18.8,14.9-26.8s8.4-14.9,11.6-20.6
					c6.5-11.4,10.3-17.8,10.3-17.8c3-5.1,6-8,6.8-6.5C1411.9,650.5,1410.8,654.1,1408.8,658.2z"/>
			</g>
		</g>
	</g>
</g>
<g>
	<g>
		<g>
			<g>
				<path fill="#9E9E80" d="M1331.2,807.5c0,0-0.5,1.3-1.3,3.7c-0.8,2.5-2,6-3.4,10.7c-1.4,4.6-3,10.3-4.5,16.8s-3.1,13.9-4.1,22.1
					c-0.3,2-0.5,4.1-0.7,6.3c-0.3,2.1-0.4,4.3-0.5,6.5c-0.1,1.1-0.1,2.2-0.2,3.3s-0.1,2.3-0.2,3.5c-0.1,2.3-0.2,4.7-0.3,7.1
					c-0.5,9.6-1,19.7-1.9,30.2c-0.1,1.5-0.3,2.9-0.4,4.4l-0.1,0.9l0,0l0,0c6.3,0.6,12.8,1.2,19.5,1.8c10.9,1,22,2.1,33.1,3.2h0.3
					l0.1-0.2v-0.1l0.3-0.9l1.1-3.8c0.8-2.5,1.6-5,2.4-7.5s1.7-5,2.6-7.5s1.8-4.9,2.7-7.4c3.7-9.8,7.9-19.5,12.4-29
					s9.5-18.5,14.5-26.8c0.4-0.7,0.8-1.3,1.2-1.9l0.3-0.5v-0.1l-0.1-0.1l-0.2-0.1c-1.6-0.9-3.1-1.7-4.6-2.6c-4-2.2-7.8-4.3-11.4-6.3
					c-7.4-4-14.1-7.7-20.1-10.9s-11.2-6-15.5-8.3s-7.7-4.1-10-5.3s-3.6-1.9-3.6-1.9c-4.3-2.2-7.4-5.2-6.9-6.6
					c0.5-1.4,4.4-0.7,8.6,1.5c0.3,0.1,0.5,0.3,0.8,0.4c0,0,1.2,0.7,3.5,2s5.6,3.1,9.9,5.5s9.5,5.2,15.4,8.5
					c6,3.2,12.7,6.9,20.1,10.9c3.7,2,7.5,4,11.5,6.2c2.4,1.3,4.9,2.6,7.4,4l1.3,0.7l0.7,0.4l0.3,0.2c0.1,0,0,0.1,0,0.1l-0.1,0.2
					c-0.5,0.9-1,1.7-1.5,2.6c-0.8,1.4-1.6,2.8-2.5,4.2c-4.8,8.2-9.5,17.1-13.8,26.5s-8.2,19-11.8,28.7c-0.9,2.4-1.7,4.9-2.6,7.3
					c-0.8,2.5-1.6,4.9-2.4,7.4s-1.5,4.9-2.2,7.4l-1,3.7l-0.8,2.8l-0.9,3.6l-5.7-0.5c-11.1-0.9-22.3-1.9-33.3-2.8
					c-9.2-0.8-18.3-1.6-27-2.3c0.2-1.6,0.5-3.2,0.7-4.7c0.1-0.8,0.2-1.5,0.3-2.2c0-0.4,0.1-0.9,0.1-1.3c0.1-1.5,0.3-2.9,0.4-4.3
					c0.8-10.4,1.4-20.4,1.9-30c0.1-2.4,0.3-4.7,0.4-7.1c0.1-1.2,0.1-2.3,0.2-3.5s0.2-2.3,0.3-3.5c0.2-2.3,0.3-4.6,0.6-6.7
					c0.3-2.2,0.5-4.4,0.8-6.5c1.2-8.4,2.9-16,4.6-22.7s3.6-12.4,5.2-17.1c1.6-4.7,3.1-8.3,4.1-10.7s1.6-3.7,1.6-3.7
					c1.9-4,4.3-6.3,5.2-5.1C1332.7,801.5,1332.3,804.4,1331.2,807.5z"/>
			</g>
		</g>
	</g>
</g>
<g>
	<g>
		<g>
			<g>
				<path fill="#EF402A" d="M1410.7,1148.8c0,0-0.5,0-1.6-0.1c-1-0.1-2.5-0.3-4.5-0.7c-3.9-0.8-9.5-2.5-15.8-6.2
					c-3.2-1.8-6.5-4.1-9.8-6.8c-3.4-2.7-6.8-5.8-10.4-9.2c-3.5-3.4-7.2-7-11.1-10.9c-3.9-3.8-8-7.8-12.3-12.1
					c-4.2-4.3-8.6-8.9-12.8-14c-4.2-5.1-8.3-10.7-11.7-17c-3.5-6.3-5.9-13.4-7.8-20.4c-1-3.5-1.8-7.1-2.7-10.7
					c-0.9-3.6-1.7-7.2-2.5-10.9c-0.8-3.7-1.5-7.5-1.9-11.4c-0.5-3.9-0.7-7.9-0.7-11.9c0-7.9,0.6-15.8,1-23.5
					c0.4-7.8,0.7-15.5-0.3-23l-0.2-1.4l-0.2-1.4c-0.2-0.9-0.3-1.9-0.5-2.8l-0.8-3.5c-0.5-1.9-0.4-3.6,0.7-5c1-1.4,2.7-2.1,4.6-2.3
					c0.5,0,0.9-0.1,1.4-0.1h0.9h1.5h6c16,0,32,0.3,47.7,1.1c2,0.1,3.9,0.2,5.9,0.3c2.2,0.1,4.3,0.2,6.5,0.4c1.7,0.1,3.4,0.2,5.1,0.3
					l1.3,0.1c0.2,0,0,0.1,0.1,0.2l-0.1,0.3l-0.1,0.6l-0.5,2.6l-0.5,2.6l-0.3,1.8c-0.2,0.9-0.3,1.8-0.4,2.8
					c-0.9,7.4-0.8,14.9-0.4,22.2c0.4,7.4,1.3,14.6,2,21.8c0.8,7.2,1.5,14.2,2.2,21c0.7,6.8,1.4,13.4,2.4,19.7c0.5,3.1,1,6.2,1.8,9.2
					c0.6,3,1.5,5.9,2.3,8.7c1.7,5.6,3.8,10.9,5.9,15.9c2.1,4.9,4.4,9.6,6.5,13.9c4.4,8.6,8.6,15.9,12.1,21.9s6.3,10.8,8.1,14
					c0.9,1.6,1.7,2.9,2.1,3.7c0.5,0.9,0.7,1.3,0.7,1.3c0.9,1.6,1.6,3.5,1.8,5.4c0.1,0.9,0,2-0.2,2.9s-0.6,1.7-1,2.3
					c-0.9,1.3-2.1,2.1-3,2.3c-1,0.2-1.5-0.1-1.7-0.4s0-0.7,0.3-1.2s0.5-1,0.7-1.8c0.2-0.7,0.3-1.7,0.2-2.6c-0.1-1-0.6-2.1-1.2-3.5
					c-0.2-0.3-0.4-0.7-0.5-1c0,0-0.2-0.4-0.7-1.2c-0.5-0.8-1.1-2.1-2-3.7c-1.8-3.3-4.5-8-7.9-14.1s-7.6-13.5-12.1-22.2
					c-2.2-4.4-4.5-9.1-6.7-14.1c-2.2-5.1-4.3-10.5-6.1-16.3c-0.9-2.9-1.8-5.9-2.5-9c-0.8-3.1-1.4-6.3-1.9-9.5
					c-1.1-6.5-1.8-13.1-2.6-19.9c-0.8-6.8-1.6-13.8-2.4-21c-0.8-7.1-1.7-14.5-2.3-22c-0.5-7.6-0.7-15.4,0.1-23.3
					c0.2-1.8,0.6-4.7,0.6-4.3v-0.3v-0.1h-0.2h-0.7c-3.7-0.1-7.4-0.3-11.1-0.4c-15.6-0.5-31.5-0.7-47.4-0.5l-6,0.1h-1.5h-0.6h-0.1
					c-0.1,0-0.1,0-0.2,0.1c0,0.1,0,0.1,0,0.2c0,0,0-0.1,0,0.1l0.2,0.8l0.4,1.5c0.3,1,0.4,2.1,0.6,3.1l0.3,1.5l0.2,1.5
					c1.1,8.2,0.9,16.4,0.5,24.3c-0.4,7.9-1,15.6-0.9,23.1c0.1,3.7,0.3,7.4,0.7,11c0.5,3.6,1.1,7.2,1.9,10.8
					c0.8,3.6,1.6,7.2,2.5,10.7c0.9,3.6,1.7,7.1,2.6,10.5c1.8,6.8,4,13.2,7.1,18.9c3.1,5.8,6.8,11.1,10.8,15.9
					c4,4.9,8.2,9.4,12.3,13.7c4.1,4.3,8.2,8.3,12,12.2c3.8,3.8,7.4,7.5,10.9,10.9s6.7,6.4,9.9,9c3.1,2.6,6.1,4.8,9,6.6
					c5.6,3.6,10.6,5.3,14,6.2c1.7,0.5,3,0.7,3.9,0.8c0.9,0.1,1.4,0.2,1.4,0.2c2.9,0.4,5.4,0.6,7.1,0.8c1.7,0.3,2.7,0.7,2.3,1.5
					c-0.3,0.6-1.4,1.3-3.2,1.8C1415.6,1148.6,1413.3,1148.9,1410.7,1148.8z"/>
			</g>
		</g>
	</g>
</g>
<g>
	<g>
		<g>
			<g>
				<path fill="#EF402A" d="M1348.9,957.5c0,0,0.4,1.3,0.8,3.5c0.2,1.1,0.4,2.5,0.5,4.1c0.1,1.5,0.2,3.3,0.3,5.1v0.2l0,0l0,0v0.1
					c0,0,0,0,0.1,0c0,0,0.1,0,0.1-0.1l0,0l0,0h0.4c0.5,0,1.1,0,1.7,0c1.1,0,2.2-0.1,3.4-0.1c2.3-0.1,4.7-0.2,7.1-0.4
					c1.2-0.1,2.4-0.2,3.7-0.3h0.5c0.2,0,0.3,0,0.3,0h0.1c0.1,0,0.1,0,0.2,0l0,0c0,0,0-0.1,0.1-0.1c0,0,0-0.1,0-0.2v-0.1
					c0,0,0-0.1,0-0.3l0.1-3.7l0.1-3.6v-1.8v-0.9c0-0.4,0-0.4,0-0.5c0-0.3,0-0.6,0-0.8c-0.2,0-0.5-0.1-0.7-0.1c-0.1,0-0.1,0-0.2,0
					c-0.2,0-0.4,0-0.6,0c-0.4,0-0.8,0-1.2,0c-1.6,0-3.2,0-4.6,0c-1.9,0.1-3.5,0.2-5,0.4s-2.8,0.3-3.9,0.5s-1.9,0.4-2.5,0.5
					s-0.9,0.2-0.9,0.2c-1,0.2-2.1-0.7-2.5-2.1c-0.3-1.4,0.3-2.8,1.4-3.1c0.1,0,0.1,0,0.2,0c0,0,0.3,0,0.9-0.1s1.5-0.1,2.6-0.3
					c1.1-0.1,2.5-0.2,4-0.4c1.6-0.1,3.3-0.3,5.3-0.4c1.5-0.1,3.1-0.2,4.8-0.3c0.4,0,0.9,0,1.3,0c0.2,0,0.4,0,0.7,0
					c0.4,0,0.7,0,1.1,0c1.5,0,3.1,0,4.8,0c0.2,1.3,0.4,3.1,0.6,4.9l0.2,2.3l0.1,1.9l0.2,3.7l0.1,3.6l0.1,3.1l0.2,3.5l-0.7,0.1
					c-2.2,0.3-4.3,0.6-6.5,1c-1.3,0.2-2.5,0.3-3.8,0.5c-2.5,0.3-5,0.5-7.4,0.6c-1.2,0.1-2.4,0.1-3.6,0.1c-0.6,0-1.2,0-1.7,0
					c-1,0-1.9,0-2.9,0c-1.6,0-3.1-0.1-4.5-0.1c-0.1-1.4-0.1-2.7-0.2-3.9c0-0.6,0-1.2-0.1-1.8c0-0.3,0-0.6,0-0.9v-0.4v-0.2
					c0-1.9,0.1-3.6,0.1-5.2c0-1.5,0.1-2.8,0.1-3.9c0.1-2.1,0.2-3.4,0.2-3.4c0.1-1,1.3-1.8,2.6-1.8
					C1347.8,956.2,1348.6,956.7,1348.9,957.5z"/>
			</g>
		</g>
	</g>
</g>
<g>
	<g>
		<g>
			<g>
				<path fill="#FCC211" d="M1398.7,1134.3c0,0-0.1,0-0.4-0.1s-0.7-0.2-1.2-0.4c-1.1-0.4-2.7-1-4.6-2c-3.8-1.9-9.2-4.9-15.3-10
					c-6-5.1-12.6-12.3-17.9-22.1c-0.6-1.3-1.3-2.5-1.9-3.8l-0.9-2c-0.3-0.7-0.6-1.5-0.9-2.4c-0.1-0.5-0.2-1-0.2-1.6s0-1.3,0.1-1.9
					c0.3-1.3,0.9-2.4,1.8-3.4c0.8-0.8,1.6-1.3,2.2-1.7c0.6-0.4,1.3-0.8,1.9-1.2c2.5-1.4,4.9-2.6,6.6-4c0.9-0.7,1.5-1.4,1.9-2.1
					c0-0.1,0.1-0.2,0.1-0.3c0-0.1,0.1-0.2,0.1-0.2l0,0v-0.1c0-0.1-0.1-0.1-0.2-0.1l0,0h-0.2c-0.2,0-0.5-0.1-0.7-0.1
					c-0.5,0-1.1,0.1-1.7,0.2c-1.2,0.3-2.5,0.8-3.9,1.5c-0.7,0.3-1.4,0.7-2.1,1.1c-0.8,0.4-1.6,0.9-2.4,1.3c-1.7,0.8-3.6,1.6-5.8,2
					c-1.1,0.2-2.3,0.3-3.5,0.3c-1.2-0.1-2.6-0.4-3.8-0.9c-1.2-0.5-2.4-1.3-3.3-2.2c-0.9-0.9-1.6-1.9-2.2-2.9c-1.2-2-1.9-3.9-2.5-5.7
					c-0.6-1.7-1.2-3.5-1.8-5.3c-0.6-1.9-1.3-3.8-2-5.7c-0.6-2-1.3-3.7-2-6.1c-0.3-1.2-0.6-2.5-0.6-4c0-0.7,0.1-1.5,0.2-2.3l0.1-0.6
					l0.2-0.7c0.2-0.4,0.3-0.9,0.6-1.3c0.9-1.6,2.1-2.9,3.8-3.8c0.9-0.5,2-0.8,3.1-0.9s2.2,0.1,3.2,0.6c0.8,0.3,1.5,0.8,2.1,1.4
					s1,1.1,1.4,1.6c0.7,1.1,1.1,2,1.5,2.9c0.8,1.7,1.5,3.4,2.2,5c1.4,3.3,2.8,6.5,4.7,9.2c0.5,0.7,1.1,1.4,1.6,2
					c0.3,0.3,0.5,0.5,0.7,0.6l0.2,0.1l0,0l0,0l0.1-0.1c0.1-0.1,0.2-0.3,0.2-0.4c0.1-0.3,0.2-0.8,0.1-1.5s-0.3-1.5-0.6-2.4
					c-0.6-1.8-1.3-3.7-2.1-5.5c-1.6-3.6-3.5-7.2-5.6-10.9l-1.6-2.7c-0.5-0.9-1-1.8-1.5-2.5s-1-1.3-1.5-1.8c-0.5-0.4-0.9-0.6-1.4-0.8
					c-1.1-0.3-2.9-0.2-5.1,0.1c-1.1,0.1-2.3,0.2-3.7,0.2c-1.4,0-3-0.3-4.6-1c-0.8-0.4-1.5-0.9-2.2-1.5s-1.2-1.3-1.6-2
					c-0.8-1.4-1.2-2.7-1.5-3.9c-0.3-1.2-0.5-2.2-0.7-3.3l-0.7-3.2c-0.9-4.3-1.6-8.6-2.2-13l-0.4-3.3c-0.1-1.1-0.3-2.2-0.4-3.4
					s-0.2-2.5,0-3.9c0.1-1.4,0.5-2.9,1.3-4.4s2-2.7,3.2-3.5s2.4-1.4,3.6-1.9c2.2-0.9,4.5-1.5,6.7-2c4.5-1,9-1.4,13.3-1.8
					c2.2-0.2,4.3-0.3,6.4-0.5c1-0.1,2.1-0.2,3.1-0.4l0.8-0.1l0.9-0.1c0.6-0.1,1.2-0.1,1.8-0.1c1.2,0,2.4,0,3.7,0.1
					c0.7,0.1,1.3,0.2,2.1,0.4c0.3,0.1,0.9,0.3,1.3,0.5s0.8,0.5,1.2,0.8c0.4,0.3,0.7,0.7,1,1.1c0.3,0.4,0.6,0.8,0.7,1.2
					c0.4,0.7,0.6,1.4,0.8,2.1c0.4,1.3,0.5,2.5,0.6,3.7c0.2,2.3,0.2,4.5,0.4,6.3c0.3,2.1,0.5,4.2,0.8,6.3c0.5,4.2,1.1,8.3,1.8,12.4
					c1.3,8.2,2.9,16.3,4.7,24.2c0.9,4,1.8,7.9,2.7,11.8c0.2,1,0.5,1.9,0.7,2.9c0.1,0.5,0.3,1,0.4,1.6c0.1,0.3,0.1,0.6,0.1,1
					s0,0.9,0,1.3c-0.1,1.7-1,3.3-2.5,4.2c-0.3,0.2-0.8,0.5-1.1,0.6l-0.7,0.3c-0.4,0.2-0.5,0.3-0.7,0.4c-0.3,0.2-0.5,0.6-0.6,1.1
					s-0.1,1.1,0,1.8c0.1,0.7,0.4,1.3,0.7,1.9c0.2,0.3,0.4,0.6,0.6,0.8c0.2,0.3,0.5,0.6,0.8,0.8c1.2,1.1,2.6,2.1,4.2,3.2
					s3.3,2.4,4.8,4c2.9,3.3,4.4,7.1,5.5,10.6c1.2,3.5,2.1,6.9,3.4,9.9c0.6,1.5,1.4,2.9,2.3,4.3c0.4,0.7,0.9,1.4,1.3,2.1
					c0.8,1.1,1.5,2.3,2.3,3.4c1.6,2.4,2.9,4.6,3.9,6.6s1.5,3.7,1.7,4.9l0.1,0.9v0.9c0,0.5-0.1,1.1-0.6,1.8c-0.3,0.3-0.7,0.6-1.1,0.8
					c-0.4,0.2-0.8,0.2-1.1,0.2c-0.7,0-1.2-0.1-1.7-0.3c-0.9-0.4-1.9-0.9-3.3-1.8c-0.4-0.3-0.7-0.6-1.1-0.9c-0.2-0.2-0.4-0.3-0.6-0.5
					l-0.6-0.6c-0.8-0.8-1.6-1.7-2.5-2.5c-1.6-1.7-3.3-3.5-4.9-5.3c-1-1.1-1.9-2.2-2.8-3.3c-0.7-0.9-1.5-1.8-2.2-2.7
					c-0.3-0.4-0.6-0.7-0.9-1.1c-0.1-0.2-0.3-0.4-0.4-0.5c-0.3-0.3-0.7-0.5-1.1-0.5s-0.8,0.2-1,0.6s0.1,0.8,0.3,1.1
					c0.2,0.3,0.4,0.6,0.6,1c0.1,0.3,2.9,4.7,4.9,7.1c4.5,5.6,9.6,8.1,13,8.9c1.8,0.4,2.7,0.5,4.8,0.5c0.9,0,1.6-0.1,2.1-0.1
					c0.4,0,0.7,0,0.7,0c1.5,0.1,2.4,0.4,3.3,1c0.8,0.5,1.6,1.3,2,2.3c0.2,0.5,0.3,1,0.3,1.5s-0.1,1-0.3,1.4
					c-0.4,0.8-0.9,1.2-1.6,1.6c-0.6,0.4-1.3,0.7-2.1,1c-0.8,0.3-1.6,0.5-2.3,0.6c-0.3,0.1-0.6,0.2-0.8,0.2c-0.1,0-0.3,0-0.4,0.1
					c-0.2,0-0.4,0.1-0.6,0c-0.2,0-0.3-0.1-0.4-0.4c-0.1-0.2-0.1-0.6,0.1-0.9c0.1-0.6,0.4-1,0.6-1.3c0.1-0.1,0.2-0.3,0.3-0.4
					c0.1-0.1,0.1-0.4-0.1-0.6c-0.2-0.3-0.5-0.5-0.8-0.5c-0.3-0.1-0.6-0.1-0.9-0.1c-0.1,0-0.3,0-0.4,0c0,0-0.1,0-0.4,0
					s-0.3,0-1.4-0.1c-0.9-0.1-1.9-0.3-3-0.6c-2.2-0.6-4.8-1.7-7.5-3.4c-2.7-1.7-5.5-4.3-8-7.4c-1.2-1.5-2.3-3-3.4-4.7
					c-0.8-1.2-3-4.8-4.6-7.6c-0.2-0.4-0.4-0.7-0.5-1.1c-0.2-0.3-0.2-0.6-0.3-1c-0.2-0.7-0.2-1.1-0.4-1.7c-0.1-0.5-0.1-0.9,0-1.4
					c0-0.5,0.2-1.1,0.6-1.6c0.8-1.2,2.2-1.9,3.5-2.1c1.4-0.2,2.6,0.1,3.7,0.7c0.4,0.2,1,0.6,1.6,1.1c0.6,0.4,1.3,1.3,2,2
					c0.3,0.4,0.7,0.8,1,1.3c0.3,0.4,0.7,0.9,1,1.3c0.6,0.7,1.1,1.4,1.7,2.2c0.4,0.5,0.9,1.1,1.3,1.6c0.9,1.1,1.8,2.2,2.7,3.2
					c0.3,0.4,0.7,0.7,1,1.1c0.7,0.7,1.4,1.5,2.2,2.2c0.2,0.2,0.4,0.3,0.7,0.4c0.2,0.1,0.6,0.1,0.7-0.2c0.1-0.3,0-0.5-0.1-0.8
					s-0.2-0.5-0.3-0.8c-0.5-1-1.1-1.9-1.8-2.9l-0.6-0.9c-0.5-0.7-1-1.5-1.4-2.2c-0.9-1.5-1.8-3.2-2.6-4.9c-1.5-3.5-2.5-7-3.6-10.3
					s-2.5-6.5-4.6-8.8c-1-1.2-2.3-2.1-3.9-3.2c-1.5-1-3.3-2.1-4.9-3.7c-0.4-0.4-0.8-0.8-1.2-1.3c-0.4-0.5-0.8-1-1.1-1.5
					c-0.6-1.1-1.1-2.2-1.4-3.5c-0.3-1.2-0.3-2.6,0-4s1-2.9,2.2-4c0.6-0.5,1.3-1,1.8-1.2l0.7-0.3c0.1-0.1,0.1-0.1,0.2-0.1
					c0.2-0.1,0.4-0.4,0.4-0.7c0-0.1,0-0.1,0-0.2c0,0,0-0.3-0.1-0.4c-0.1-0.4-0.2-0.8-0.3-1.3c-0.2-1-0.5-1.9-0.7-2.9
					c-1-3.9-2-7.8-2.9-11.8c-1.9-8-3.6-16.2-5-24.5c-0.7-4.2-1.4-8.4-2-12.6c-0.3-2.1-0.6-4.2-0.9-6.4c-0.3-2.5-0.2-4.5-0.5-6.5
					c-0.1-1-0.2-1.9-0.5-2.6c-0.1-0.4-0.2-0.7-0.3-0.9c-0.1-0.2-0.1-0.2-0.2-0.3c-0.1,0-0.1,0-0.1-0.1c0,0,0,0-0.2-0.1
					c-0.3-0.1-0.7-0.1-1.1-0.2c-0.8-0.1-1.8-0.1-2.7-0.1c-0.5,0-1,0.1-1.4,0.1l-0.7,0.1l-0.8,0.1c-1.1,0.2-2.2,0.3-3.3,0.4
					c-2.2,0.2-4.4,0.4-6.5,0.6c-4.3,0.4-8.5,0.8-12.4,1.8c-2,0.5-3.9,1-5.7,1.8c-0.9,0.3-1.6,0.7-2.2,1.1c-0.6,0.4-0.9,0.8-1.2,1.3
					c-0.5,0.9-0.6,2.5-0.4,4.5c0.1,0.9,0.3,2,0.4,3.1l0.5,3.2c0.6,4.2,1.4,8.4,2.3,12.6l0.7,3.1c0.2,1,0.5,2.1,0.7,3
					s0.5,1.6,0.8,2.1s0.5,0.6,0.9,0.8c0.3,0.2,0.9,0.3,1.7,0.3c0.8,0,1.7-0.1,2.8-0.2c2.1-0.2,4.6-0.7,7.7,0.1
					c1.5,0.4,3.1,1.3,4.2,2.3s2,2.1,2.7,3.1s1.3,2,1.8,2.9l1.6,2.8c2.2,3.7,4.3,7.5,6.1,11.6c0.9,2,1.7,4.1,2.4,6.2
					c0.3,1.1,0.7,2.3,0.8,3.7c0.2,1.4,0.2,2.9-0.4,4.7c-0.3,0.9-0.7,1.6-1.2,2.4c-0.3,0.4-0.6,0.7-0.9,1s-0.8,0.7-1.2,1
					c-1.7,1.2-3.9,1.5-5.8,0.9c-1-0.3-2-0.8-2.6-1.3s-1.2-1-1.6-1.4c-0.8-0.9-1.6-1.8-2.3-2.7c-2.5-3.5-4.1-7.2-5.6-10.6
					c-0.7-1.7-1.4-3.3-2.1-4.9c-0.4-0.8-0.7-1.4-0.9-1.8c-0.1-0.2-0.3-0.3-0.3-0.3l0,0c0,0,0.1,0-0.1,0c-0.2,0.1-0.6,0.5-0.8,0.8
					c-0.1,0.1-0.1,0.2-0.1,0.2v0.1v0.2c-0.1,0.3-0.1,0.5-0.1,0.9c0,0.6,0.1,1.4,0.3,2.2c0.4,1.6,1.2,3.7,1.8,5.6
					c0.7,1.9,1.3,3.8,1.9,5.7c0.6,1.8,1.2,3.5,1.8,5.3c0.6,1.7,1.1,3.2,1.8,4.4c0.7,1.2,1.4,1.9,2.2,2.2c0.4,0.2,0.9,0.3,1.4,0.3
					s1.1,0,1.7-0.1c1.3-0.2,2.7-0.8,4.1-1.4c0.7-0.3,1.4-0.7,2.1-1.1c0.8-0.4,1.6-0.8,2.4-1.2c1.7-0.8,3.5-1.5,5.5-2
					c1-0.2,2.1-0.3,3.3-0.3c0.6,0,1.1,0.1,1.7,0.2l0.5,0.1l0.6,0.2c0.4,0.1,0.8,0.2,1.1,0.4c1.7,0.6,3.1,1.7,3.7,3.3
					c0.5,1.1,0.6,2.4,0.2,3.7c-0.1,0.6-0.2,1.3-0.5,1.9l-0.3,0.8c-0.1,0.2-0.2,0.4-0.4,0.6c-1,1.7-2.3,3-3.6,4
					c-2.6,2-5.2,3.2-7.5,4.5c-0.6,0.3-1.1,0.6-1.6,1c-0.5,0.3-0.9,0.6-1.1,0.8c-0.1,0.1-0.1,0.1-0.1,0.2v0.1c0,0.1,0,0.3,0.1,0.5
					c0.1,0.4,0.3,0.9,0.5,1.4l0.8,1.8c0.5,1.2,1.1,2.4,1.7,3.5c4.7,9,10.6,15.8,16,20.7c5.4,4.9,10.4,7.9,13.8,9.8
					c1.7,1,3,1.5,3.9,1.9c0.4,0.2,0.8,0.3,1,0.4s0.3,0.1,0.3,0.1c2.9,1,5.2,1.3,6.9,1.2c0.8,0,1.5-0.1,2,0s0.8,0.3,0.7,0.7
					c-0.1,0.7-1.1,2-3.2,2.7C1404.4,1135,1401.4,1135.1,1398.7,1134.3z"/>
			</g>
		</g>
	</g>
</g>
<g>
	<g>
		<g>
			<g>
				<path fill="#EF402A" d="M1650.9,90.3c0,0,1.5-3,4.4-8.6s7.3-13.8,13.2-23.9c6-10.2,13.5-22.3,22.8-35.9
					c9.3-13.5,20.3-28.5,33.3-44c3.3-3.8,6.6-7.8,10.2-11.7c1.8-2,3.5-3.9,5.3-5.9c1.9-1.9,3.7-3.9,5.6-5.9c0.9-1,1.9-2,2.8-3
					c1-1,2-1.9,2.9-2.9c2-2,4-3.9,6-5.9c2.1-1.9,4.1-3.9,6.2-5.8c1-1,2.1-2,3.2-2.9c1.1-1,2.2-1.9,3.3-2.9c2.2-1.9,4.4-3.8,6.6-5.8
					c2.3-1.9,4.6-3.7,6.9-5.6c1.2-0.9,2.3-1.9,3.5-2.8s2.4-1.8,3.6-2.7c2.4-1.8,4.8-3.7,7.3-5.4c5.1-3.4,10.1-7,15.5-10.2
					c5.2-3.4,10.8-6.4,16.4-9.5c2.8-1.5,5.7-2.9,8.6-4.3l0.4-0.2l0,0l0,0l0,0l0,0l-0.7-1.3c-1.5-2.8-3-5.6-4.6-8.4
					c-1.5-2.8-3.1-5.6-4.7-8.4c-6.3-11.3-12.8-22.6-19.7-33.7c-4.2-6.8-8.6-13.5-13.3-19.9c-2.4-3.2-4.8-6.3-7.4-9.2
					c-1.3-1.4-2.7-2.8-4-3.9c-0.3-0.2-0.7-0.5-1-0.7c-0.2-0.1-0.3-0.2-0.5-0.3s-0.1-0.1-0.2-0.1s-0.1,0-0.2,0
					c-9.1,4.8-18.4,9.6-27.7,14.4c-47.6,24.8-95.1,49.5-139.7,72.7c-25.6,13.3-50.1,26.1-69.8,36.4c10.3,18.4,18.4,33,26,46.6
					c9.8,17.5,18.8,33.6,26.8,47.9c8,14.2,15,26.6,20.8,36.9c5.8,10.2,10.3,18.2,13.4,23.7s4.8,8.4,4.8,8.4
					c5.7,10.1,9.6,19.2,8.6,20.5s-6.4-5.9-12.2-16c-0.4-0.6-0.7-1.3-1.1-1.9c0,0-1.6-2.9-4.7-8.4s-7.5-13.5-13.2-23.8
					c-5.7-10.2-12.7-22.7-20.6-36.9c-8-14.2-17-30.3-26.9-47.8c-8.4-14.9-17.4-30.9-28.8-51.1c21-11.1,47.1-24.9,74.2-39.3
					c44.4-23.5,91.8-48.6,139.2-73.7c4.6-2.4,9.3-4.9,13.9-7.3c2.3-1.2,4.6-2.4,6.9-3.7c1.1-0.6,2.3-1.2,3.4-1.8l1.7-0.9l0.9-0.5
					l0.4-0.2l0.2-0.1l0.1-0.1c0,0,0.1,0,0.2,0c1.6-1.3,3.7-1.3,5.5-0.5c0.5,0.1,1,0.4,1.2,0.6c0.3,0.2,0.6,0.3,0.9,0.5
					c0.6,0.3,1,0.7,1.5,1.1c1.8,1.5,3.4,3,4.8,4.6c2.9,3.1,5.5,6.4,8,9.7c4.9,6.6,9.4,13.4,13.7,20.3c7.1,11.2,13.7,22.6,20,33.9
					c1.6,2.8,3.2,5.7,4.7,8.5c1.6,2.8,3.1,5.6,4.6,8.5c1.3,2.4,2.5,4.7,3.8,7.1l0.3,0.5l0.1,0.3l0.1,0.1l-0.1,0.1l-1.1,0.5l-2.1,1.1
					l-3.9,1.9c-2.8,1.4-5.6,2.7-8.3,4.2c-5.4,3-10.8,5.9-15.9,9.3c-5.2,3.1-10.2,6.6-15.1,10c-2.4,1.7-4.8,3.5-7.2,5.3
					c-1.2,0.9-2.4,1.8-3.5,2.6c-1.1,0.9-2.3,1.8-3.4,2.8c-2.3,1.8-4.5,3.7-6.8,5.5c-2.2,1.9-4.4,3.8-6.5,5.6
					c-1.1,0.9-2.2,1.8-3.2,2.8s-2.1,1.9-3.1,2.9c-2.1,1.9-4.1,3.8-6.2,5.7c-2,1.9-3.9,3.9-5.9,5.8c-1,1-1.9,1.9-2.9,2.9
					c-0.9,1-1.9,1.9-2.8,2.9c-1.9,1.9-3.7,3.9-5.6,5.8c-1.8,2-3.6,3.9-5.3,5.8c-3.5,3.8-6.8,7.7-10.1,11.5
					c-13,15.2-24,29.9-33.3,43.2s-17,25.3-23.1,35.2c-6.1,10-10.6,17.9-13.7,23.4s-4.6,8.4-4.6,8.4c-5,9.2-9.1,15.2-9.6,13.1
					C1645.2,104,1647.3,97.5,1650.9,90.3z"/>
			</g>
		</g>
	</g>
</g>
<g>
	<g>
		<g>
			<g>
				<path fill="#EF402A" d="M1843,424.9c0,0,0-4.1,0-11.9s0-19.1-0.2-33.6c-0.1-14.5-0.3-32.1-0.5-52.3c-0.3-20.2-0.6-43-0.9-67.8
					c-0.2-12.4-0.4-25.4-0.6-38.8c-0.1-6.7-0.2-13.5-0.3-20.4v-2.6v-1.8c-0.1-0.4,0.2-0.8,0.3-1.2l0.3-0.8c0.6-1.6,1.3-3.3,1.9-4.9
					c1.3-3.3,2.6-6.6,4-9.9c5.5-13.2,11.6-26.6,18.3-40.1c3.4-6.7,6.9-13.5,10.6-20.2c3.8-6.7,7.7-13.4,11.9-20.1
					c4.2-6.6,8.6-13.2,13.4-19.6s9.9-12.7,15.5-18.6s11.8-11.5,18.8-16.3c0.9-0.6,1.7-1.2,2.6-1.8l2.8-1.6c0.9-0.5,1.8-1.1,2.8-1.6
					l2.9-1.4l1.5-0.7l1.3-0.6h1.5h3.1c2,0,4.1,0,6.1,0c20.9,0,42.1,0.1,63.5,0.1c0.1,13.9,0.3,28.1,0.4,42.2
					c0.6,66.3,1.2,132.5,1.8,194.7c0.6,62.1,1.2,120.1,1.7,169.8c0.1,5.2,0.1,10.4,0.2,14.3c-21.9-1.2-41.2-2.3-58.6-3.3
					c-20.2-1.1-37.7-2-52.2-2.8c-14.5-0.7-25.9-1.3-33.6-1.7c-7.8-0.4-11.9-0.6-11.9-0.6c-14.3-0.7-26.4-2.5-27.1-4
					s10.4-2.2,24.7-1.4c0.9,0,1.8,0.1,2.7,0.1c0,0,4.1,0.3,11.9,0.7c7.8,0.5,19.1,1.1,33.6,2c14.5,0.8,32,1.8,52.2,3
					c15.9,0.9,33.5,1.8,53.4,2.9c0-2.5-0.1-5.8-0.1-9.1c-0.7-49.7-1.5-107.7-2.4-169.8s-1.9-128.4-2.9-194.7
					c-0.2-11.9-0.3-23.7-0.5-35.4c-19.1,0-38,0.1-56.7,0.1c-2,0-4.1,0-6.1,0h-3c0,0,0,0-0.1,0.1l-1.3,0.6l-2.6,1.2
					c-0.9,0.4-1.7,0.9-2.5,1.4l-2.5,1.5c-0.8,0.5-1.6,1.1-2.4,1.6c-6.4,4.4-12.2,9.7-17.6,15.3c-5.3,5.7-10.3,11.8-14.9,18
					s-8.9,12.7-13.1,19.2c-4.1,6.5-7.9,13.1-11.6,19.7c-3.7,6.6-7.1,13.3-10.5,19.9c-6.6,13.3-12.7,26.5-18.1,39.6
					c-1.4,3.3-2.7,6.5-4,9.8c-0.6,1.6-1.3,3.2-1.9,4.8c-0.2,0.6-0.1,0.3-0.2,0.4v0.8v2.6c0.1,6.9,0.2,13.7,0.3,20.4
					c0.1,13.4,0.3,26.3,0.4,38.8c0.2,24.9,0.3,47.6,0.5,67.8c0.1,20.2,0,37.8-0.1,52.3s-0.3,25.9-0.5,33.7
					c-0.2,7.8-0.4,11.9-0.4,11.9c-0.3,6.5-0.8,12-1.6,15.6c-0.4,1.8-0.9,3.1-1.3,3.9c-0.2,0.4-0.6,0.6-0.8,0.6
					c-0.1,0-0.1-0.1-0.2-0.2c0-0.1-0.1-0.1-0.1-0.3C1843.3,443.1,1842.9,434.8,1843,424.9z"/>
			</g>
		</g>
	</g>
</g>
<g>
	<g>
		<g>
			<g>
				<path fill="#7BC9DF" d="M1892.9,536.4c0,0,3.4,5.3,9,14.7c2.8,4.7,6.3,10.4,10.1,17.1c3.9,6.6,8.2,14.1,13,22.2
					c4.7,8.1,9.9,17,15.3,26.3c5.4,9.4,11.1,19.2,17,29.5c2.9,5,5.8,10.2,8.8,15.3c1.4,2.5,2.8,5,4.3,7.5l0.1,0.2l0,0v-0.1V669l0,0
					c0,0,0,0.1,0.1-0.4c0.7-3,1.4-6.1,2-9.1c1.4-6.1,2.7-12.2,4.1-18.4c5.5-24.5,11-49.1,16.2-72.1c1.5-6.4,2.9-12.7,4-17.6
					c-13.2-6.9-24.6-12.8-34.6-18c-0.9,0-1.5,0-2.2,0c-9.4,0-18.1,0-25.7,0c-7.7,0-14.3,0.1-19.8,0.1c-5.5,0.1-9.8,0.1-12.8,0.1
					c-2.9,0-4.5,0.1-4.5,0.1c-5.4,0.1-10.1-1.1-10.4-2.5c-0.3-1.5,3.9-2.7,9.3-2.8c0.3,0,0.7,0,1,0c0,0,1.6,0,4.5,0.1
					c2.9,0,7.3,0.1,12.8,0.1s12.2,0,19.8,0.1c7.7,0,16.3,0,25.7,0c1,0,2,0,3.4,0c11.4,5.8,24.4,12.4,39.4,20.1
					c-1.3,6-2.9,13.7-4.5,21.6c-4.8,23.1-10,47.7-15.1,72.3c-1.3,6.2-2.6,12.3-3.9,18.4c-1.9,9-3.8,17.9-5.7,26.7
					c-0.1,0.4-0.2,0.8-0.2,1.1c-7.7-13.3-15.2-26.3-22.5-39c-5.9-10.2-11.5-20.1-16.9-29.5c-5.3-9.4-10.4-18.3-15-26.5
					s-8.9-15.7-12.6-22.4c-3.8-6.7-7-12.5-9.6-17.4c-5.3-9.7-8.2-15.2-8.2-15.2c-2.3-4.4-2.9-7.9-1.3-7.9
					C1888.6,530.9,1890.9,533.2,1892.9,536.4z"/>
			</g>
		</g>
	</g>
</g>
<g>
	<g>
		<g>
			<g>
				<path fill="#EF402A" d="M758.8,889.4c0,0-5.7,9.4-16,25.6c-5.1,8.1-11.4,18-18.5,29.3c-7.2,11.3-15.3,24-24.2,37.9
					c-5.6,8.8-11.6,18.1-18.2,28.5h0.1c1.1,0.7,2.2,1.4,3.3,2.1c2.3,1.4,4.6,2.9,7,4.4c15.9,10.1,32.7,20.9,50,31.9
					c17.3,11.1,35.2,22.6,53.4,34.2c18.2,11.7,36.6,23.6,55.1,35.4c9.2,5.9,18.4,11.9,27.6,17.8c2.3,1.5,4.6,3,6.9,4.4l0.6,0.4
					l0.1,0.1v-0.1l0.1-0.3l0.1-0.3l0.5-1.9l1-3.9c0.6-2.6,1.2-5.2,1.8-7.8c4.4-20.9,6.7-42,6.2-62.3c-0.2-10.2-1.3-20.1-3.2-29.6
					c-0.2-1.2-0.5-2.4-0.8-3.5c-0.3-1.2-0.5-2.4-0.8-3.5c-0.7-2.3-1.2-4.6-2-6.9c-0.4-1.1-0.7-2.2-1.1-3.4c-0.4-1.1-0.9-2.2-1.3-3.3
					c-0.8-2.2-1.8-4.3-2.8-6.5c-1-2.1-1.9-4.3-2.9-6.3c-1-2.1-2-4.1-3.1-6.1c-0.5-1-1-2-1.5-3s-1.1-2-1.6-2.9
					c-1.1-1.9-2.2-3.9-3.2-5.8c-1.1-1.9-2.3-3.7-3.4-5.6c-1.1-1.8-2.2-3.7-3.5-5.4c-2.4-3.5-4.7-7-7.2-10.2
					c-9.8-13-20.2-23.9-29.9-32.9c-9.7-9.1-18.6-16.5-26.2-22.4c-1.9-1.5-3.7-2.9-5.3-4.2c-1.7-1.3-3.3-2.5-4.8-3.6
					c-3-2.2-5.5-4.2-7.6-5.6c-4.2-3-6.4-4.6-6.4-4.6c-7.7-5.5-13.7-11.1-13.2-12.6c0.4-1.5,7.1,1.7,14.9,7.2c0.5,0.3,1,0.7,1.4,1
					c0,0,2.2,1.6,6.3,4.7c2.1,1.5,4.6,3.5,7.6,5.8c1.5,1.1,3.1,2.4,4.8,3.7s3.5,2.8,5.3,4.3c7.6,6,16.6,13.5,26.4,22.7
					c9.8,9.2,20.4,20.2,30.5,33.5c2.6,3.3,4.9,6.8,7.4,10.3c1.3,1.8,2.4,3.6,3.6,5.5c1.2,1.9,2.4,3.7,3.5,5.7s2.2,3.9,3.3,5.9
					c0.6,1,1.1,2,1.7,3c0.5,1,1,2.1,1.6,3.1c1,2.1,2.1,4.1,3.2,6.2c1,2.1,2,4.3,3,6.4c1,2.2,2,4.3,2.9,6.6c0.5,1.1,0.9,2.3,1.4,3.4
					c0.4,1.2,0.8,2.3,1.2,3.5c0.9,2.3,1.4,4.7,2.2,7.1c0.3,1.2,0.6,2.4,0.9,3.6c0.3,1.2,0.6,2.4,0.8,3.7c2.1,9.9,3.3,20.1,3.6,30.5
					c0.7,20.9-1.5,42.4-5.7,63.7c-0.5,2.7-1.1,5.3-1.7,8l-1,4l-0.5,2c-0.3,1.2-0.6,2.4-1,3.6l-1,3.6l-0.3,0.9l-0.1,0.4
					c0,0.1-0.1,0.4-0.2,0.2l-1.6-1c-1.1-0.6-2.1-1.3-3.2-2l-3-1.9c-2.3-1.5-4.6-2.9-6.9-4.4c-9.2-5.8-18.5-11.7-27.8-17.6
					c-18.5-11.8-37.1-23.5-55.3-35.1s-36.2-23-53.5-34.1s-34.1-21.8-50-32c-5.8-3.7-11.5-7.4-16.3-10.5
					c8.1-12.4,15.4-23.7,22.3-34.3c9-13.8,17.2-26.4,24.5-37.6c7.4-11.2,13.8-20.9,19-28.9c10.6-16,16.8-25.1,16.8-25.1
					c4.8-7.1,9.1-11.4,9.5-9.5C764.5,878.7,762.2,883.7,758.8,889.4z"/>
			</g>
		</g>
	</g>
</g>
<g>
	<g>
		<g>
			<g>
				<path fill="#7BC9DF" d="M651.4,1056.9c0,0-6,9.3-16.7,25.5c-5.4,8.1-11.9,17.9-19.3,29.2l-22.6,33.9h0.1
					c13.5,8.3,28.1,17.3,43.6,26.9c16.2,10.1,33.3,20.7,50.9,31.6c17.6,11,35.9,22.4,54.4,33.9c18.1,11.4,36.6,22.9,55,34.4l0.2,0.1
					l66-98.6l-0.7-0.4c-35.3-21.8-68.2-42.1-96.5-59.5c-14.2-8.7-27.2-16.7-38.7-23.7s-21.6-13.2-29.9-18.2c-8.3-5-14.8-9-19.3-11.7
					s-6.8-4.1-6.8-4.1c-8.2-4.9-14.6-10.2-14.3-11.7s7.3,1.3,15.5,6.2c0.5,0.3,1,0.6,1.5,0.9c0,0,2.4,1.5,6.8,4.2
					c4.4,2.7,10.9,6.8,19.1,11.9c8.3,5.1,18.3,11.3,29.8,18.4s24.5,15,38.7,23.7c28.5,17.3,61.8,37.6,97.4,59.2l5.1,3.1l-72,109.4
					l-3.4-2.1c-19.2-11.9-38.5-23.8-57.4-35.5c-18.6-11.5-36.8-22.8-54.5-33.8s-34.7-21.6-50.9-31.7c-16.9-10.6-32.9-20.6-47.6-29.8
					l-1.9-1.2l26.9-39.5c7.7-11.1,14.3-20.8,19.8-28.8c11.1-16,17.5-25,17.5-25c5-7.1,9.4-11.3,9.8-9.5
					C657.5,1046.2,655,1051.3,651.4,1056.9z"/>
			</g>
		</g>
	</g>
</g>
<g>
	<g>
		<g>
			<g>
				<path fill="#7BC9DF" d="M509.5,699c0,0-6,9.7-16.6,26.4c-5.3,8.4-11.8,18.5-19.3,30.2c-7.5,11.6-15.9,24.7-25.1,39
					c-0.8,1.2-1.5,2.4-2.3,3.6c-0.2,0.3-0.4,0.6-0.6,0.9l-0.1,0.1l0,0l-0.1,0.1c10.6,7.6,22.3,16.1,34.6,24.9
					c15.8,11.4,32.4,23.5,49.7,36c17.2,12.5,35,25.4,53,38.6c17.3,12.6,34.8,25.5,52.4,38.3l0,0l73.2-106.4c0.3-0.5,0.6-0.9,0.9-1.2
					c-32.5-23.6-62.6-45.4-88.5-64.3c-13.8-10-26.4-19.1-37.6-27.2c-11.2-8.1-21-15.1-29.1-20.9c-8.1-5.8-14.4-10.3-18.8-13.4
					c-4.3-3.1-6.6-4.7-6.6-4.7c-8-5.7-14.1-11.5-13.7-13c0.5-1.5,7.3,1.9,15.3,7.6c0.5,0.4,1,0.7,1.5,1.1c0,0,2.3,1.7,6.6,4.8
					s10.6,7.7,18.6,13.6c8,5.8,17.8,12.9,29,21s23.9,17.2,37.7,27.1c27.3,19.6,59,42.3,93.2,66.9c-1,1.5-2.5,3.6-3.9,5.7
					l-76.2,112.7l-1.1-0.8c-19.2-13.8-38.3-27.6-57.2-41.3c-18.1-13.1-35.9-26-53.1-38.4c-17.2-12.5-33.8-24.6-49.6-36
					c-14.1-10.3-27.5-20.1-39.7-29c2.5-3.9,4.7-7.1,6.7-10.3c9.3-14.2,17.9-27.3,25.5-38.8s14.3-21.6,19.8-29.9
					c11-16.5,17.4-25.9,17.4-25.9c5-7.4,9.4-11.8,9.8-9.9C515.5,688,513.1,693.2,509.5,699z"/>
			</g>
		</g>
	</g>
</g>
<g>
	<g>
		<g>
			<g>
				<path fill="#0EA1CF" d="M411.4,844.4c0,0-7.7,11.8-21.3,32.2c-6.8,10.2-15.1,22.6-24.6,36.8s-20.3,30.2-32.1,47.6
					c-11.8,17.4-24.5,36.3-38,56.3c-0.1,0.2-0.3,0.4-0.4,0.6l0,0c18,11.7,37.1,24.1,56.8,36.9c22,14.4,44.8,29.2,67.9,44.3
					c23.1,15.1,46.6,30.5,70.1,45.8l2,1.3l0.2,0.2l87.4-128.7c13-19.1,25.6-37.7,35.5-52.3c-24.2-16.5-44-30.1-62.3-42.5
					c-17.4-11.8-33.3-22.7-47.5-32.3s-26.5-17.9-36.7-24.8c-10.2-6.9-18.2-12.2-23.6-15.9c-5.5-3.7-8.4-5.6-8.4-5.6
					c-10.1-6.8-18-13.5-17.7-15.1s8.7,2.6,18.8,9.4c0.6,0.4,1.3,0.9,1.9,1.3c0,0,2.9,2,8.3,5.7s13.4,9.2,23.5,16.1
					c10.1,6.9,22.4,15.3,36.6,25c14.1,9.6,30.1,20.4,47.5,32.3c19.5,13.2,40.8,27.6,66.7,45.2c-10.6,15.9-24.1,36-38,56.8
					l-90.2,134.8l-7.7-5c-23.6-15.2-47.1-30.5-70.3-45.5c-23.2-15-46-29.8-68-44.1c-21.8-14.2-43-28-62.9-41
					c1.7-2.4,3.1-4.6,4.6-6.7c13.6-19.9,26.4-38.7,38.3-56.1c11.9-17.4,22.8-33.3,32.4-47.4c9.7-14.1,18.1-26.4,25.1-36.5
					c14-20.2,22.1-31.6,22.1-31.6c6.4-9,11.6-14.5,11.8-12.3C419.3,831.1,416,837.4,411.4,844.4z"/>
			</g>
		</g>
	</g>
</g>
<g>
	<g>
		<g>
			<g>
				<path fill="#7BC9DF" d="M455.1,642c0,0-4.1,6.4-11.4,17.5c-3.7,5.6-8.1,12.3-13.3,20c-5.2,7.7-11,16.4-17.4,25.8
					c-6.4,9.4-13.3,19.7-20.6,30.5c-5.3,7.8-10.7,15.8-16.6,24.4c-4.8-3.5-10-7.5-15.4-11.4c-11.4-8.5-23.2-17.3-35.2-26.2
					c-12.6-9.4-25.3-18.9-38.1-28.5l-1.8-1.3l53.6-74c14.2-19.6,27.6-38.2,38.7-53.7c5.3,4.3,9.3,7.5,13.2,10.6
					c8.9,7.1,17,13.7,24.2,19.5s13.5,10.8,18.7,15c5.2,4.1,9.3,7.4,12.1,9.6c2.8,2.2,4.3,3.4,4.3,3.4c5.2,4.1,8.8,8.4,8.2,9.8
					s-5.4-0.8-10.6-4.9c-0.3-0.3-0.6-0.5-1-0.8c0,0-1.5-1.2-4.2-3.5c-2.8-2.3-6.8-5.6-12-9.8s-11.4-9.3-18.6-15.1
					s-15.4-12.3-24.3-19.5c-2.7-2.1-5.4-4.3-9.1-7.3c-10.1,14.3-22.3,31.6-35.2,49.8l-48.9,69.3l0.1,0.1
					c11.7,8.6,23.3,17.1,34.8,25.5c12,8.9,23.9,17.6,35.3,26.1c2.1,1.6,4.3,3.2,6.3,4.7c1,0.7,2,1.5,3,2.2l0,0
					c4.4-6.4,8.5-12.3,12.4-18.1c7.4-10.7,14.4-20.9,20.9-30.3c6.5-9.4,12.4-18,17.7-25.6c5.3-7.6,9.9-14.2,13.8-19.6
					c7.7-10.9,12.2-17,12.2-17c3.5-4.8,6.9-7.5,7.4-5.9C459,634.5,457.5,638.1,455.1,642z"/>
			</g>
		</g>
	</g>
</g>
<g>
	<g>
		<g>
			<g>
				<path fill="#EF402A" d="M350.8,560c0,0-4.8,7.3-13.5,19.8c-4.3,6.3-9.6,13.9-15.7,22.6c-6.1,8.7-13,18.5-20.5,29.2
					s-15.7,22.3-24.4,34.5c-2.5,3.5-5.1,7.1-7.9,11.1c-10.3-7.8-21.4-16.1-32.7-24.6c-13-9.9-26.5-20.1-40.2-30.4
					c-13-9.9-26.2-19.9-39.4-29.9c1.5-2.5,3-5,4.6-7.4c18.3-29.7,36.6-59.4,53.7-87.3c9.3-15.2,18.3-29.8,25.5-41.5
					c14.2,11.3,25.8,20.5,36.4,29c10.3,8.1,19.7,15.6,28,22.1c8.4,6.6,15.7,12.3,21.7,17s10.8,8.4,14,10.9s5,3.8,5,3.8
					c6,4.6,10.3,9.5,9.7,10.9c-0.6,1.4-5.9-1.2-11.9-5.8c-0.4-0.3-0.7-0.6-1.1-0.9c0,0-1.7-1.4-4.9-3.9c-3.2-2.6-7.9-6.3-13.8-11.1
					c-6-4.7-13.2-10.5-21.6-17.1c-8.3-6.6-17.8-14-28-22.1c-9.4-7.4-19.5-15.3-32.1-25.1c-6.2,10.3-14,23.3-22.1,36.7
					c-16.8,28-34.8,57.9-52.8,87.8c-0.4,0.7-0.8,1.4-1.2,2.1l-0.1,0.2c11.6,8.7,23.3,17.4,34.7,26c13.7,10.3,27.2,20.5,40.3,30.3
					c9.3,7,18.3,13.8,26.7,20.2l0,0l0,0l0,0l0.1-0.1c0.2-0.3,0.5-0.7,0.7-1c1-1.3,1.9-2.6,2.8-3.9c8.7-12.2,17-23.7,24.7-34.3
					s14.7-20.3,20.9-29c6.2-8.6,11.7-16.1,16.2-22.3c9-12.3,14.3-19.3,14.3-19.3c4.1-5.5,7.9-8.5,8.3-6.9
					C355.6,551.7,353.7,555.7,350.8,560z"/>
			</g>
		</g>
	</g>
</g>
<g>
	<g>
		<g>
			<g>
				<path fill="#0EA1CF" d="M353.9,806.5c0,0-8.1,12.6-22.5,34.6c-7.2,11-16,24.3-26.1,39.5l-19.5,29.3l-2.9-2.4
					c-0.5-0.4-1-0.8-1.4-1.1l-0.7-0.5l-0.6-0.4c-1-0.7-2-1.3-3-1.9c-2-1.2-4.1-2.3-6.3-3.3c-4.3-2-8.8-3.4-13.4-4.3
					c-5.2-1-10.7-1.4-16.1-0.8c-1.4,0.1-2.7,0.3-4.1,0.6c-1.4,0.3-2.7,0.5-4.1,0.9c-2.7,0.7-5.4,1.6-8,2.7
					c-10.6,4.4-20,12.3-27.8,22c-3.1,3.8-6,8-8.6,12.4c-1.3,2.2-2.6,4.5-3.8,6.9c-0.6,1.2-1.2,2.4-1.8,3.6c-0.6,1.3-1.2,2.6-1.7,3.9
					c-0.5,1.4-1.1,2.8-1.6,4.1c-13.8-9.5-28.7-19.9-44-30.5c-23.1-16-47-32.6-71.2-49.5c-20.2-14-40.6-28.2-61.1-42.5
					c3.8-6,7.7-12.2,11.5-18.3c32-50.8,64-101.5,94-149.1c10-15.9,19.8-31.4,27.3-43.3c33.1,24.7,61.4,45.8,86.8,64.7
					c18.1,13.4,34.6,25.7,49.3,36.6c14.7,10.9,27.5,20.4,38.1,28.2s18.9,13.9,24.5,18.1c5.7,4.2,8.7,6.4,8.7,6.4
					c10.5,7.7,18.7,15.2,18.3,16.8c-0.3,1.6-9.1-3.4-19.6-11c-0.6-0.5-1.3-1-1.9-1.4c0,0-3-2.3-8.6-6.5s-13.9-10.4-24.4-18.3
					c-10.5-7.8-23.3-17.4-38-28.3c-14.7-10.9-31.3-23.2-49.3-36.6c-24.1-17.8-51-37.7-82.5-61c-6.6,10.7-15.2,24.5-24,38.6
					C84,713.2,52.3,764.2,20.6,815.2c-2.7,4.3-5.3,8.6-8,12.8c18.8,13,37.5,25.9,55.9,38.6c24.3,16.8,48.2,33.3,71.4,49.3
					c12.7,8.8,25.1,17.4,36.5,25.3l0,0c0.6-1.3,1.3-2.6,1.9-3.9c1.3-2.5,2.7-5,4.1-7.3c2.8-4.7,5.9-9.1,9.2-13.2
					c4.2-5.2,8.9-9.9,14-14c2.6-2,5.3-3.9,8-5.6c2.8-1.6,5.7-3.1,8.6-4.4c5.9-2.4,12.1-4.1,18.3-4.6c6.2-0.6,12.3-0.2,18.1,1
					c5.1,1.1,10.1,2.7,14.8,4.9c2.4,1.1,4.7,2.3,6.9,3.6c1.1,0.7,2.2,1.4,3.3,2.1c0.2,0.1,0.1,0.1,0.1,0.1l0,0l0.1,0.1l0.1,0.1
					c0.1-0.1,0.1-0.2,0.2-0.3l2.2-3.3l4.4-6.6l8.8-13.1c10.3-15.1,19.2-28.3,26.6-39.2c14.8-21.7,23.4-34,23.4-34
					c6.7-9.7,12.2-15.7,12.3-13.4C362.2,792.3,358.7,798.9,353.9,806.5z"/>
			</g>
		</g>
	</g>
</g>
<g>
	<g>
		<g>
			<g>
				<path fill="#0EA1CF" d="M10.6,855c0,0,12.7,8,34.8,22.2c11,7.1,24.4,15.8,39.8,25.7c15.3,10,32.6,21.2,51.5,33.5
					s39.3,25.6,60.9,39.7c11.6,7.6,23.4,15.3,36.4,23.8c-7.7,11.7-16.1,24.6-24.7,37.6c-7.6,11.5-15.2,23.2-23.3,35.4
					c-13.9-9-28.5-18.5-43.3-28c-22.1-14.3-44.5-28.8-66.9-43.4l-0.2,0.2c-0.6,0.9-1.2,1.7-1.8,2.6l-79,110.5l-39.6-23.1
					c-32.5-19-63.6-37.1-88.8-51.8c12.2-18.8,21.7-33.4,30.7-47.3c12.2-18.9,23.4-36.2,33.4-51.6c9.9-15.4,18.5-28.8,25.6-39.8
					c7.1-11.1,12.7-19.8,16.4-25.7c3.8-5.9,5.8-9.1,5.8-9.1c7-10.9,13.9-19.6,15.5-19.4s-2.8,9.3-9.8,20.3c-0.4,0.7-0.9,1.4-1.3,2
					c0,0-2.1,3.1-5.9,9s-9.5,14.5-16.6,25.6c-7.1,11-15.8,24.4-25.8,39.8c-9.9,15.4-21.1,32.7-33.3,51.6
					c-8.1,12.6-16.6,25.9-27.6,42.9c24,13.8,53.6,30.9,84.5,48.7l35.1,20.2l75.3-106.6c1.9-2.7,3.8-5.4,5.7-8.1
					c24.3,15.6,48.6,31.2,72.5,46.6c12.7,8.2,25.3,16.3,37.3,24c6.7-10.2,13.1-19.9,19.3-29.5c7.2-10.9,14.2-21.7,20.7-31.5
					c-10.8-7.1-20.6-13.5-30.2-19.9c-21.5-14.2-41.9-27.6-60.7-40s-36-23.8-51.3-33.9c-15.2-10.1-28.5-18.9-39.5-26.2
					c-21.9-14.6-34.3-23-34.3-23c-9.7-6.6-15.8-12.1-13.5-12.2C-3.7,846.8,3,850.2,10.6,855z"/>
			</g>
		</g>
	</g>
</g>
<g>
	<g>
		<g>
			<g>
				<path fill="#7BC9DF" d="M71.6,1038.1c0,0-3.4,5.7-9.6,15.6c-3.1,4.9-6.9,10.9-11.3,17.7c-4.4,6.8-9.4,14.5-14.8,22.9
					s-11.3,17.5-17.5,27.1l-0.3,0.5l0,0l0,0c7.5,4.8,15.4,9.9,23.6,15.1c10.5,6.8,21.3,13.8,32.3,20.9c10.8,7,21.8,14.2,32.8,21.3
					l0.2,0.2l39.3-60.3c6.3-9.7,12.4-19,17.2-26.4c-10.3-6.9-18.6-12.5-26.3-17.7c-8.3-5.5-15.9-10.6-22.7-15.1
					c-6.8-4.5-12.7-8.4-17.5-11.6c-4.9-3.2-8.7-5.7-11.3-7.4c-2.6-1.7-4-2.6-4-2.6c-4.8-3.1-8.3-6.8-7.7-8.2c0.6-1.4,4.9,0,9.8,3.2
					c0.3,0.2,0.6,0.4,0.9,0.6c0,0,1.4,0.9,3.9,2.7c2.6,1.8,6.4,4.3,11.2,7.6c4.8,3.3,10.7,7.2,17.4,11.7c6.8,4.5,14.4,9.6,22.7,15.1
					c9,5.9,18.7,12.4,30.7,20.3c-5.5,8.7-12.4,19.6-19.5,30.9l-42,66.4l-4.8-3c-11.4-7.3-22.8-14.5-34.1-21.6
					c-11-7.1-21.9-14-32.4-20.7c-10.3-6.6-20.3-13.1-29.7-19.1c1.6-2.4,3-4.5,4.4-6.6c6.3-9.5,12.3-18.5,17.8-26.9
					c5.5-8.3,10.6-15.9,15.1-22.7c4.5-6.7,8.5-12.6,11.8-17.4c6.6-9.6,10.5-15,10.5-15c3-4.3,6-6.6,6.7-5.1
					C74.8,1031.4,73.6,1034.7,71.6,1038.1z"/>
			</g>
		</g>
	</g>
</g>
<g>
	<g>
		<g>
			<g>
				<path fill="#EF402A" d="M278.7,1046.8c0,0-3.3,5.5-9.4,14.9c-3,4.7-6.7,10.4-11,16.9c-4.3,6.5-9.1,13.8-14.4,21.9
					c-4.6,6.9-9.6,14.5-14.8,22.4l0,0c8.4,5.2,17.4,10.6,26.6,16.2c10.2,6.3,20.8,12.8,31.5,19.4c10.7,6.6,21.6,13.4,32.4,20.1
					l1,0.6l0.1,0.1l0.2,0.1l35.7-56.6c5.1-8.1,10.1-15.9,13.9-22.1c-11.1-7.3-20.3-13.4-28.6-19c-8-5.3-15.4-10.1-21.9-14.4
					c-6.5-4.2-12.2-7.9-16.9-11c-4.7-3-8.4-5.4-10.9-7s-3.9-2.5-3.9-2.5c-4.7-3-8-6.5-7.4-7.9s4.8-0.1,9.5,2.9
					c0.3,0.2,0.6,0.4,0.9,0.6c0,0,1.3,0.9,3.8,2.6s6.1,4.1,10.8,7.2c4.7,3.1,10.3,6.8,16.8,11.1c6.5,4.3,13.9,9.1,21.9,14.3
					c9.7,6.3,20.3,13.1,33.1,21.4c-4.5,7.4-10.3,16.9-16.3,26.6l-38.3,62.7l-7-4.2c-10.9-6.6-21.9-13.2-32.6-19.8
					c-10.8-6.5-21.3-13-31.6-19.2c-11.2-6.9-22.1-13.6-32.4-19.9c-0.2-0.1-0.4-0.2-0.6-0.3c6.9-10.1,13.3-19.6,19.3-28.5
					c5.4-7.9,10.4-15.2,14.8-21.6c4.4-6.4,8.3-12,11.5-16.6c6.4-9.2,10.2-14.3,10.2-14.3c3-4.1,5.9-6.2,6.6-4.8
					C281.8,1040.4,280.7,1043.5,278.7,1046.8z"/>
			</g>
		</g>
	</g>
</g>
<g>
	<g>
		<g>
			<g>
				<path fill="#EF402A" d="M482.8-36.4c0,0-6.5,9.9-18.2,27c-5.8,8.6-13,18.9-21.1,30.8L433.4,36l-31.3-19.8
					c-15-9.5-31.2-19.8-48.4-30.7c-17.2-11-35.2-22.5-54-34.4c-18.7-12-38-24.4-57.6-36.9c-19.6-12.6-39.5-25.4-59.4-38.2l-8.9-5.7
					l42.6-55.2l10.1-13.1l5.1-6.7l2.3-3l0.6-0.7l0.3-0.4l0.1-0.1h0.1l0.2,0.1l1.6,0.9l5,2.7c9.7,5.3,19.3,10.6,29,16
					c38.8,21.6,74.7,42.4,105.2,60.7c15.2,9.2,29.1,17.7,41.3,25.5c6.1,3.8,11.8,7.5,17,10.9s10.1,6.5,14.3,9.5
					c4.3,2.9,8.1,5.5,11.5,7.8c3.3,2.3,6.1,4.4,8.3,6c4.5,3.3,6.9,5,6.9,5c2.1,1.5,4,3.1,5.7,4.6s3.2,3,4.5,4.3
					c2.5,2.6,3.9,4.5,3.6,5.3c-0.6,1.4-7.4-2.5-15.4-8.8c-0.5-0.4-1-0.8-1.5-1.1c0,0-2.4-1.8-6.8-5.1c-2.2-1.6-4.9-3.7-8.2-6
					c-3.3-2.3-7.1-4.9-11.3-7.9c-4.2-3-9-6.1-14.2-9.5s-10.8-7.1-16.9-11c-12.2-7.7-26-16.2-41.2-25.3
					c-30.5-18.2-66.4-38.7-105.4-60c-9.7-5.3-19.3-10.5-29.1-15.7l-2.3-1.2l-0.2-0.1c-0.1,0-0.1,0.1-0.1,0.1l-0.2,0.3l-4.9,6.5
					l-10,13.2l-37.8,49.8l0.3,0.2l2.5,1.6c20,12.7,40,25.4,59.7,37.9s39,24.9,57.7,36.8c18.7,12,36.8,23.5,53.9,34.5
					S391,1,405.9,10.6l25.8,16.7l0.3-0.4l2.1-3l4.2-6c8.3-11.8,15.6-22,21.6-30.5c12-16.9,19-26.4,19-26.4
					c5.5-7.5,10.1-12,10.4-10.1C489.4-47.6,486.7-42.3,482.8-36.4z"/>
			</g>
		</g>
	</g>
</g>
<g>
	<g>
		<g>
			<g>
				<path fill="#EF402A" d="M401.8,41.1c0,0-10.5-6.3-28.6-17.5c-9.1-5.6-20.1-12.5-32.7-20.3c-12.6-7.9-26.8-16.8-42.3-26.5
					s-32.3-20.3-50-31.4c-17.7-11.2-36.4-23-55.8-35.2c-9.7-6.1-19.5-12.3-29.4-18.6l-1-0.6l0,0l0,0l0,0l-0.6,0.7
					c-1.8,2.4-3.6,4.7-5.3,7.1c-3.6,4.8-7.2,9.5-10.8,14.3c-7.2,9.6-14.4,19.3-21.6,29.1c-3.6,4.9-7.2,9.8-10.8,14.7
					c-1.8,2.5-3.6,4.9-5.3,7.4l-1,1.4c0,0.1,0.1,0.1,0.1,0.1l0.1,0.1l0.7,0.5c9.9,6.9,20.1,13.7,30.2,20.4s20.2,13.4,30.2,20
					C188,20,207.7,33,226.8,45.5c38.3,25.1,74,48.4,104.7,68.3c7.7,5,15,9.7,22,14.3c1.8,1.1,3.5,2.2,5.2,3.4
					c0.6,0.4,1.2,0.8,1.8,1.2l0.4,0.3c0.1,0.1,0.3,0.3,0.4,0c1.7-2.8,3.3-5.4,4.8-8c7.6-12.8,14.3-23.9,19.7-33.1
					c5.4-9.2,9.7-16.4,12.6-21.3c2.9-4.9,4.5-7.5,4.5-7.5c5.4-9.1,11-16.2,12.5-15.9s-1.6,7.9-6.9,17c-0.3,0.6-0.7,1.1-1,1.7
					c0,0-1.6,2.6-4.6,7.5s-7.3,12.1-12.9,21.2c-5.5,9.1-12.2,20.2-19.9,33c-2.3,3.8-4.6,7.7-7,11.7l-0.3,0.5l-0.1,0.1
					c0,0,0,0.1-0.1,0.1l-0.3-0.2l-1-0.7c-0.7-0.4-1.4-0.9-2.1-1.3c-1.1-0.7-2.2-1.4-3.3-2.1c-1.7-1.1-3.4-2.2-5.2-3.3
					c-7-4.5-14.4-9.3-22.1-14.2C298.1,98,262.2,74.9,223.7,50.1c-19.2-12.4-39.1-25.2-59.2-38.3C154.4,5.2,144.3-1.4,134.1-8
					c-10.2-6.7-20.4-13.3-30.5-20.3l-1.2-0.9c-0.6-0.4-1.2-0.8-1.7-1.3c-0.3-0.2-0.6-0.4-0.7-0.7l-0.3-0.4c-0.1-0.1-0.1-0.3-0.2-0.4
					l-0.3-0.8H99v-0.1c0,0-0.3,0-0.2,0l0,0V-33c0-0.1,0-0.3,0-0.4c0-0.3,0.1-0.6,0.2-0.9c0.1-0.3,0.1-0.6,0.3-0.9l0.5-0.9l0.6-0.9
					c1-1.5,1.2-1.8,1.7-2.5c1.7-2.6,3.5-5,5.3-7.5c3.6-5,7.1-9.9,10.7-14.8c7.2-9.8,14.4-19.6,21.5-29.2c3.6-4.8,7.2-9.6,10.7-14.4
					c1.8-2.4,3.6-4.8,5.3-7.1l2.1-2.8l1.3-1.8l0.7-0.9l0.3-0.4l0.2-0.2c0.1,0,0.2,0.1,0.2,0.1c2.1,1.4,4.3,2.7,6.4,4.1
					c10,6.3,19.8,12.5,29.5,18.6c19.3,12.2,38,24.1,55.7,35.3c17.7,11.3,34.4,21.9,49.8,31.7s29.6,18.9,42.1,26.9
					s23.4,15.1,32.4,20.8C394.2,30.3,404.4,37,404.4,37c8,5.3,12.8,9.9,10.9,10.2C413.6,47.5,408.1,44.9,401.8,41.1z"/>
			</g>
		</g>
	</g>
</g>
<g>
	<g>
		<g>
			<g>
				<path fill="#7BC9DF" d="M226.6,84.4c0,0-4.5,7.4-12.6,20.1c-4.1,6.4-9,14.1-14.7,22.9S187.1,146.2,180,157
					c-6,9.3-12.5,19.2-19.5,29.9l0,0c11.3,9.4,23.2,19.4,35.6,29.7c12.4,10.4,25.2,21.2,38.2,32.1c11.1,9.3,22.3,18.8,33.5,28.3
					l0.2-0.2c17.9-29.3,35.8-58.7,52.5-86.2c8.9-14.5,17.4-28.5,24.2-39.7c-12.2-7.9-22-14.2-31-20.1c-10.9-7-20.9-13.4-29.7-19.1
					c-8.9-5.7-16.6-10.6-23-14.7c-6.4-4-11.4-7.2-14.8-9.4c-3.4-2.2-5.3-3.3-5.3-3.3c-6.3-4-11.1-8.4-10.6-9.8s6,0.6,12.3,4.6
					c0.4,0.2,0.8,0.5,1.2,0.8c0,0,1.8,1.2,5.2,3.4c3.4,2.2,8.4,5.5,14.7,9.6s14,9.1,22.9,14.8c8.9,5.7,18.8,12.1,29.7,19.1
					c10.3,6.6,21.5,13.7,35.4,22.6c-7.4,12.5-16.7,28.1-26.3,44.2c-16.6,28-34.3,57.8-52.1,87.6c-1.2,2.1-2.5,4.1-3.7,6.2
					c-13.3-11.1-26.7-22.1-39.8-33s-25.9-21.6-38.3-31.9c-12.5-10.5-24.6-20.6-36-30.2c-1.6-1.3-3.1-2.6-4.4-3.7
					c8.3-12.5,16.1-24.2,23.3-35.1c7.2-10.8,13.8-20.6,19.6-29.4c5.8-8.7,11-16.3,15.2-22.6c8.5-12.5,13.5-19.6,13.5-19.6
					c3.9-5.5,7.5-8.7,8-7.1C231,76,229.3,80,226.6,84.4z"/>
			</g>
		</g>
	</g>
</g>
<g>
	<g>
		<g>
			<g>
				<path fill="#EF402A" d="M131.2,20.4c0,0-3.7,5.3-10.3,14.4c-3.3,4.6-7.3,10.1-12,16.4s-10,13.4-15.7,21.1
					c-5.8,7.7-12,16.1-18.6,24.9c-2.5,3.3-5.1,6.8-7.9,10.5c3.5,3,7.3,6.2,11.2,9.5c9.2,7.8,18.6,15.9,28.3,24.1
					c4.7,4,9.4,8.1,14.1,12.1c2.4,2,4.7,4.1,7.1,6.1l3.6,3.1l0.4,0.4l0.1,0.1l0,0l0.1,0.1l0.1,0.1v-0.1
					c14.2-20.3,28.4-40.6,41.7-59.6c10.8-15.4,20.9-29.9,29.4-42.1c-3.2-2.2-5.6-3.8-7.9-5.3c-8-5.4-15.4-10.3-21.9-14.6
					s-12.2-8.1-16.9-11.2s-8.4-5.5-10.9-7.1s-3.9-2.5-3.9-2.5c-4.7-3-8-6.6-7.4-8s4.8-0.1,9.5,3c0.3,0.2,0.6,0.4,0.9,0.6
					c0,0,1.3,0.9,3.8,2.6s6.1,4.2,10.8,7.3s10.3,7,16.8,11.3s13.9,9.2,21.9,14.6c3.6,2.4,7.2,4.8,12.2,8.1
					c-9.1,13.4-20.1,29.5-31.7,46.6c-14,20.7-29,42.8-44,64.8c-0.4,0.5-0.7,1-1.1,1.6c-10.5-8.9-21.1-17.7-31.5-26.5
					c-9.7-8.2-19.2-16.2-28.4-24c-5.7-4.8-11.3-9.6-16.5-14c4.3-5.7,8.3-10.9,12.1-16c6.7-8.8,13.1-17.1,18.9-24.7
					c5.9-7.6,11.3-14.7,16.1-20.9c4.8-6.2,9-11.6,12.5-16c7-8.8,11.1-13.8,11.1-13.8c3.2-3.9,6.3-5.9,6.9-4.5
					C134.7,14.2,133.4,17.2,131.2,20.4z"/>
			</g>
		</g>
	</g>
</g>
<g>
	<g>
		<g>
			<g>
				<path fill="#EF402A" d="M108,5c0,0-3.8,5.5-10.7,15c-3.5,4.7-7.7,10.5-12.5,17c-4.9,6.5-10.4,13.9-16.4,22
					c-6,8-12.6,16.7-19.5,26c-2.1,2.8-4.2,5.6-6.6,8.8c-7.9-7.1-16.3-14.4-24.9-22c-9.4-8.3-19.1-17-29-25.7
					c-9.8-8.8-19.8-17.7-29.8-26.6l-13-11.6l48.1-48.2C4.1-50.9,14.2-60.9,22.2-69C32.6-61.6,41-55.6,48.7-50.1
					c8.2,5.8,15.7,11.1,22.4,15.9c6.7,4.7,12.5,8.8,17.3,12.2c4.8,3.3,8.6,6,11.2,7.8s4,2.7,4,2.7c4.8,3.3,8.1,7.1,7.5,8.4
					c-0.6,1.4-5-0.2-9.7-3.5c-0.3-0.2-0.6-0.4-0.9-0.6c0,0-1.4-1-3.9-2.8s-6.3-4.5-11-8c-4.8-3.4-10.6-7.5-17.2-12.3
					C61.7-35,54.2-40.3,46-46.1c-6.8-4.7-14-9.8-23.1-16.2C15.7-55,6.9-45.9-2.3-36.5l-42.6,44l0.3,0.2l2.4,2.1l5.3,4.6
					C-26.8,23.2-16.7,32-6.8,40.7C3.1,49.5,12.8,58,22.3,66.3c6.5,5.8,12.9,11.4,18.9,16.7l0,0c0.7-0.9,1.3-1.7,1.9-2.5
					c7-9.1,13.6-17.8,19.8-25.7c6.1-8,11.8-15.2,16.8-21.7s9.4-12.1,13-16.7C99.9,7.2,104.1,2,104.1,2c3.3-4.1,6.5-6.2,7.1-4.7
					C111.7-1.5,110.3,1.7,108,5z"/>
			</g>
		</g>
	</g>
</g>
<g>
	<g>
		<g>
			<g>
				<path fill="#EF402A" d="M50.5,300.1c0,0-5.9,9-16.4,24.5c-5.3,7.7-11.7,17.2-19.1,27.9c-7.4,10.8-15.7,22.9-24.9,36.1
					c-9.1,13.2-19,27.6-29.5,42.7c-8.6,12.4-17.5,25.2-27,38.9c-4.4-3.5-9.4-7.5-14.4-11.4c-15.7-12.5-31.9-25.5-48.4-38.6
					c-16.7-13.3-33.6-26.9-50.6-40.5l-4-3.2l77.1-100.3c23-30,44.6-58.1,62.9-81.9c3.6,3.3,6.2,5.7,8.8,8
					c11.9,10.8,22.8,20.7,32.5,29.5c9.7,8.7,18.2,16.4,25.1,22.6c7,6.3,12.5,11.2,16.2,14.5c3.7,3.3,5.8,5.1,5.8,5.1
					c6.9,6.2,12,12.3,11.4,13.7c-0.6,1.4-6.8-2.4-13.7-8.6c-0.4-0.4-0.9-0.8-1.3-1.2c0,0-2-1.8-5.7-5.2c-3.7-3.4-9.1-8.4-16.1-14.7
					c-6.9-6.3-15.4-14-25-22.8c-9.7-8.8-20.6-18.6-32.5-29.4c-1.4-1.3-2.9-2.6-4.9-4.4c-17.2,22.7-37.5,49.5-59.1,78.1l-72.3,95.7
					l0.2,0.1c16.6,13.1,33.2,26.2,49.6,39.1c16.5,13.1,32.8,26,48.6,38.5c2,1.6,3.9,3.1,5.8,4.6c0.8,0.7,1.7,1.3,2.5,1.9l0,0
					c7.9-11.4,15.4-22.1,22.6-32.5c10.6-15.1,20.6-29.3,29.8-42.5s17.7-25.2,25.2-35.9c7.5-10.7,14.1-19.9,19.5-27.6
					C40.1,305.6,46.4,297,46.4,297c5-6.8,9.3-10.8,9.6-9C56.5,289.9,54.1,294.7,50.5,300.1z"/>
			</g>
		</g>
	</g>
</g>
<g>
	<g>
		<g>
			<g>
				<path fill="#9E9E80" d="M90.2,321c0,0,13.9,11.3,38,31.2c12,10,26.7,22.1,43.4,36l21.7,18.1l-27.2,42.9
					c-14.4,22.6-29.9,47.2-46.4,73.1c-5.3,8.3-10.7,16.8-16.7,26.2c-10.9-8.3-22.3-16.9-34.6-26.2c-3.9,5.7-8.2,12.1-12.5,18.6
					c-0.7,1-1.3,1.9-2,3c5.7,17.7,11.5,35.8,17.6,54.7c-7.3,11.4-15,23.4-22.8,35.5c-19,29.5-38.3,59.6-57.7,89.7l-14.1,21.9
					l-143.9-100l12.3-17.5c38.5-54.9,74.5-106.1,105.3-150c15.4-22,29.5-42.1,42-60s23.3-33.5,32.3-46.3c8.9-12.9,15.9-23,20.7-29.8
					c4.8-6.9,7.3-10.6,7.3-10.6c8.8-12.7,17.3-22.9,18.9-22.7s-4.1,10.7-12.9,23.4c-0.5,0.8-1.1,1.6-1.7,2.4c0,0-2.6,3.7-7.4,10.5
					S38,361.9,29,374.7c-9,12.8-19.9,28.4-32.4,46.2c-12.5,17.9-26.6,38-41.9,60c-30.6,44-66.4,95.4-104.7,150.4l-9,12.9l134.1,92.1
					l10.3-16.2c19.2-30.1,38.5-60.3,57.4-90C49.9,619,57,608,63.7,597.5c-6.1-18.9-12-37.1-17.7-54.8c1.4-2.1,2.7-4,4-5.9
					c5.8-8.7,11.6-17.3,16.8-25c12.2,9.3,23.6,18,34.4,26.2c4.5-7,8.5-13.3,12.5-19.5c16.6-25.9,32.3-50.3,46.7-72.9l24.3-37.8
					l-17.2-14.5c-16.6-14.1-31.1-26.4-43-36.5c-23.8-20.3-37.4-32-37.4-32c-10.6-9.2-17.2-16.3-14.6-15.9
					C74.5,309.1,81.9,314.2,90.2,321z"/>
			</g>
		</g>
	</g>
</g>
</svg>
