<?xml version="1.0" encoding="utf-8"?>
<!-- Generator: Adobe Illustrator 18.0.0, SVG Export Plug-In . SVG Version: 6.00 Build 0)  -->
<!DOCTYPE svg PUBLIC "-//W3C//DTD SVG 1.1//EN" "http://www.w3.org/Graphics/SVG/1.1/DTD/svg11.dtd">
<svg version="1.1" id="Layer_1" xmlns="http://www.w3.org/2000/svg" xmlns:xlink="http://www.w3.org/1999/xlink" x="0px" y="0px"
	 viewBox="232.8 343.7 974.5 1472.5" enable-background="new 232.8 343.7 974.5 1472.5" xml:space="preserve">
<g>
	<g>
		<path fill="#F04D2F" d="M299.2,1448.6V624.4L446.6,477l727-90.5V661l-67.5,67.5l67.5-8.5v503.3l-355.3,399.6l-149.2,149.2
			L299.2,1448.6z M1033.4,1318l98.5-110.7V767.3l-73.8,9.2l-31.9,31.9L579.4,864v52.7l454-56.5V1318z M753.3,1193v-17.1l-17.1,2.2
			L753.3,1193z"/>
		<path fill="#F1F2F2" d="M1160.3,401.6v253.8l-91.1,91.1l91.1-11.3v483.1l-2,2.2l-349.7,393.3l-140.2,140.2l-355.7-311.4v-215.3
			l11.3-11.3l-11.3,1.4V630l140.2-140.2L1160.3,401.6 M566.1,931.9l454-56.5v477.9l125.1-140.8V752.2l-93.2,11.7l-31.9,31.7
			l-454,56.5V931.9 M766.6,1222.4v-61.7l-60.3,7.6v1.4L766.6,1222.4 M1186.9,371.3l-30.1,3.8l-707.4,88.2l-9.2,1.1l-6.5,6.5
			L293.6,611.1l-7.7,7.7v11v587.3v30.2v194.9v12.1l9.2,7.9l355.7,311.4l18.7,16.4l17.6-17.6l140.2-140.2l0.5-0.5l0.5-0.5
			l349.9-393.5l2-2.2l6.7-7.6v-10.1V735.1v-30.2l-30.1,3.8l-13.9,1.8l36-36l7.7-7.7v-11V401.9v-30.6H1186.9z M1064.3,789.1l54.2-6.8
			v419.9l-71.6,80.6V875.3v-30.2l-30.1,3.8l-423.9,52.9v-25.9l430.6-53.6l9.2-1.1l6.5-6.5L1064.3,789.1L1064.3,789.1z"/>
	</g>
	<g>
		<polygon fill="#1186C8" points="1137.6,635.6 1137.6,427.3 475.4,509.8 475.4,1051.6 929.3,994.9 929.3,1149.3 806.6,1287.4 
			683.6,1179.9 683.6,1081.1 475.4,1107 475.4,1292 806.6,1582 1137.6,1209.6 1137.6,968.9 1137.6,760.7 1137.6,760.7 683.6,817.2 
			683.6,692.1 		"/>
	</g>
	<g>
		<path fill="#F1F2F2" d="M807.1,1592.6l-339.3-297v-195.3l223.4-27.9v104l114.7,100.4l115.9-130.5v-142.9l-454,56.5V503.1
			l677.3-84.4v223.4l-454,56.7v110l454-56.5v460.3l-2,2.2L807.1,1592.6z M482.9,1288.6l322.9,282.8l324.2-364.7V769.3l-454,56.5
			V685.4l454-56.5V435.8l-647.1,80.6v526.5l454-56.5v165.8l-129.8,146l-131-114.7v-93.8l-193.1,24.1V1288.6z"/>
	</g>
</g>
</svg>
