<?xml version="1.0" encoding="utf-8"?>
<!-- Generator: Adobe Illustrator 17.1.0, SVG Export Plug-In . SVG Version: 6.00 Build 0)  -->
<!DOCTYPE svg PUBLIC "-//W3C//DTD SVG 1.1//EN" "http://www.w3.org/Graphics/SVG/1.1/DTD/svg11.dtd">
<svg version="1.1" id="Layer_1" xmlns="http://www.w3.org/2000/svg" xmlns:xlink="http://www.w3.org/1999/xlink" x="0px" y="0px"
	 viewBox="0 0 530 530" enable-background="new 0 0 530 530" xml:space="preserve">
<g>
	<g>
		<g>
			<g>
				<path fill="#F04D2F" d="M21.2,68.9l19.2-19.2l4.1,0c13.6,0,20.4-0.3,34.8-1.2l6-0.4v6.4c2.4-2.5,5.1-4.8,8.6-6.2
					c4-2.1,8.6-3.4,13.7-4c1.7-0.2,3.3-0.3,4.9-0.3c3.1,0,6.1,0.4,8.8,1.1c2.9,0.8,5.5,2.1,7.7,3.8l6.8-6.8l3.4-0.5
					c5.8-0.9,8.7-1.4,14.6-2.4c10.4-1.8,16.7-2.6,20.4-2.6l0.5,0c3.2,0.1,6.1,0.9,8.6,2.5l6.9-6.9l3.2-0.7
					c10.8-2.3,16.2-3.5,26.8-5.9l5.7-1.3l0.2,1.1l1.5-1.5l2.8-0.6c10.7-2.5,15.9-3.7,27-6.4l6.9-1.6v90.5l-19,19l-3.1,0.7
					c-7.3,1.7-10.9,2.6-18.2,4.3l-6.8,1.6v0l-0.4,0.1c-5.2,1.2-7.8,1.8-12.9,3l-5.9,1.3l0,0l-1.8,0.4c-7.5,1.7-11.1,2.4-18.2,3.9
					l-6.7,1.4v0l-1.4,0.3c-7.9,1.6-38.6,7.2-46.7,8.5l-6.4,1v-9.5c-4,3.9-9.5,9-11.6,10.2c-4.1,2.3-8.8,3.8-14,4.4
					c-1.5,0.2-3,0.3-4.5,0.3c-3.3,0-6.4-0.5-9.3-1.4c-4.5-1.4-8.2-3.9-10.9-7.4c-0.7-0.8-1.3-1.7-1.8-2.7l-12.8,12.8l-3.9,0.2
					c-8.6,0.4-12.7,0.5-21,0.5l-5.6,0V68.9z"/>
				<path fill="#F1F2F2" d="M261.8,18.4v86.3L244,122.4l-2.4,0.6c-7.3,1.7-10.9,2.6-18.2,4.3l-3.8,0.9l0-1.1l-1.4,1.4l-2.1,0.5
					c-5.2,1.2-7.7,1.8-12.9,3l-3.2,0.7l-0.2-1.4l-1.8,1.8l-2.4,0.5c-7.3,1.6-10.9,2.4-18.2,3.9l-3.7,0.8v-1.5l-1.9,1.9l-2.5,0.5
					c-7.6,1.5-38.3,7.2-46.6,8.5l-3.6,0.6v-12.5c-6.4,6.3-13.3,12.8-15.4,13.9c-3.8,2.1-8.1,3.5-13,4.1c-1.4,0.2-2.9,0.2-4.2,0.2
					c-3.1,0-5.9-0.4-8.6-1.3c-4-1.3-7.3-3.5-9.7-6.6c-1.3-1.7-2.3-3.5-3.1-5.4l-14.6,14.6l-2.9,0.1c-8.5,0.4-12.6,0.5-20.9,0.5
					l-3.1,0V69.9l17.8-17.8l3.1,0c13.7,0,20.5-0.3,35-1.2l3.3-0.2v10.1c3.7-3.9,7-8.2,12.1-10.4c3.7-2,8.1-3.3,12.9-3.8
					c1.6-0.2,3.1-0.3,4.6-0.3c2.9,0,5.6,0.4,8.1,1c3.4,0.9,6.2,2.6,8.5,4.9l7.9-7.9l2.6-0.4c5.9-0.9,8.8-1.4,14.7-2.4
					c10.3-1.8,16.4-2.6,20-2.6l0.5,0c3.4,0.1,6.4,1.2,8.9,3.3l7.8-7.8l2.4-0.5c10.8-2.3,16.2-3.5,26.9-5.9l3.2-0.7l0.5,3.2
					c0,0,0,0,0,0l4.4-4.4l2.1-0.5c10.8-2.5,16.2-3.8,27-6.4L261.8,18.4 M108.4,67.6c0-0.1,0-0.2,0-0.3
					C108.3,67.3,108.3,67.4,108.4,67.6C108.3,67.5,108.3,67.5,108.4,67.6 M266.8,12l-6.2,1.5l-3.8,0.9c-10.5,2.5-16,3.8-27,6.4
					l-2.1,0.5l-1.4,0.3l0,0l-3.5,0.8l-3.2,0.7c-10.6,2.4-16,3.6-26.8,5.9l-2.4,0.5l-1.5,0.3l-1.1,1.1l-5,5c-2.4-1.2-5.1-1.8-8-1.9
					l0,0l0,0l-0.5,0l0,0h0c-3.9,0-10.1,0.8-20.9,2.7c-6,1-8.8,1.5-14.6,2.4l-2.6,0.4l-1.6,0.3l-1.1,1.2l-4.7,4.7
					c-2-1.3-4.3-2.3-6.8-3c-2.9-0.8-6.1-1.2-9.5-1.2c-1.7,0-3.4,0.1-5.1,0.3c-5.4,0.6-10.3,2.1-14.5,4.3c-1.8,0.8-3.5,1.8-5,2.9
					v-3.5l-5.3,0.4l-3.3,0.2c-14.3,1-21.1,1.2-34.7,1.2l-3.1,0l-2.1,0L38,48.6L20.2,66.4l-1.5,1.5v2.1V156v5l5,0l3.1,0
					c8.4,0,12.5-0.1,21.1-0.5l2.9-0.1l1.9-0.1l1.4-1.4l10-10c0.1,0.1,0.2,0.2,0.2,0.3c3.1,3.9,7.2,6.7,12.1,8.3
					c3.1,1,6.5,1.5,10.1,1.5c1.6,0,3.2-0.1,4.8-0.3c5.6-0.6,10.6-2.2,14.9-4.7c1.6-0.9,4.7-3.6,7.9-6.6v0.8v5.8l5.8-0.9l3.6-0.6
					c7.6-1.2,35.3-6.3,45.1-8.2v0l6-1.3l3.7-0.8c6.9-1.4,10.5-2.2,17.5-3.8l0,0l5.3-1.2l3.2-0.7c4.2-1,6.7-1.5,10.3-2.4v0l6.1-1.4
					l3.8-0.9c7.5-1.8,11.1-2.6,18.2-4.3l2.4-0.6l1.4-0.3l1-1l17.8-17.8l1.5-1.5v-2.1V18.4V12L266.8,12z"/>
			</g>
			<g>
				<path fill="#F04D2F" d="M21.2,182l19.2-19.2l4.1,0c13.6,0,20.4-0.3,34.8-1.2l2.6-0.2l2.1-0.2c8.1-0.6,12.2-1,20.6-1.9l5.9-0.7
					c8-1,12.1-1.5,20.6-2.8l4.6-0.7l0,0l3.4-0.5c6.8-1.1,10.2-1.6,17.3-2.9l4.7-0.8l0.8,2.2l2.9-2.9l3.3-0.6
					c7.1-1.3,10.5-2,17.3-3.4l6.7-1.4v8.4c3-3,6.5-6.3,8.1-7.4l0,0c1.1-0.9,2.2-1.7,3.2-2.4c4-2.6,8.7-4.6,13.8-5.7
					c3.4-0.8,6.6-1.1,9.5-1.1c3.2,0,6.2,0.5,8.8,1.4c0.7,0.3,1.4,0.5,2,0.8l5.4-5.4l3.1-0.7c11.2-2.6,18.9-4.5,27.5-6.6
					c4.1-1,13.9-3.3,18.3-4.4l4.4-1c8.3-2,12.5-3,20.8-4.9l6.8-1.6v8.7c1.6-1.6,3.1-3.1,4.5-4.4c2-2.3,4.3-4.3,6.8-5.9
					c4-2.6,8.6-4.5,13.7-5.6c2.8-0.6,5.5-0.9,8.1-0.9c2,0,3.9,0.2,5.7,0.6c2.9,0.6,5.5,1.7,7.7,3.3l7.1-7.1l3.3-0.6
					c7.2-1.4,10.6-2,17.5-3.2l4.7-0.8l0.8,2.3l2.9-2.9l3.4-0.5c7.2-1.1,10.6-1.7,17.5-2.6l6.3-0.9v41.2c1.2-2.9,3-5.5,5.3-7.8
					c1-1,2.4-2.5,4-4.2c8-8.4,15.5-16.1,19.4-17.8l0,0c3.9-2.1,8.4-3.3,13.4-3.7c0.7,0,1.4-0.1,2.1-0.1c6.5,0,11.9,2,16.1,5.9
					c4.6,4.3,6.9,9.9,6.9,16.6c0,5.5-1.7,10.6-5,15.2c0.8,1.4,1.5,2.6,2.2,3.9c1.8-1.2,3.5-2.3,5.9-3.9l8.6-5.6v26.4l-3.5,3.5
					c1.3,2.5,2.5,4.8,4.3,8.1l3.2,6.1L497,197.4h-6.1c-7.2,0-10.8,0.1-18.3,0.3l-3.4,0.1l-1.2-2.2c-5.2,2.9-10.3,4.5-15.1,4.8
					c-0.8,0.1-1.5,0.1-2.2,0.1c-6.6,0-11.9-2.2-15.7-6.6c-1.8-2.1-3.3-4.4-4.3-7l-15.8,15.8l-3.5,0.5c-7.2,1-10.7,1.5-18.1,2.7
					l-4.8,0.8L388,205l-2.1,2.1l-3.3,0.6c-6.8,1.2-10.2,1.8-17.3,3.1l-6.6,1.3v-8.6c-4.8,4.5-9.5,8.8-11.4,10
					c-3.9,2.5-8.5,4.4-13.7,5.5c-2.9,0.6-5.7,0.9-8.3,0.9c-1.9,0-3.7-0.2-5.4-0.5c-2.8-0.5-5.4-1.5-7.6-3l-7.3,7.3l-3.1,0.7
					c-8.3,1.9-12.5,2.9-20.8,4.9l-6.9,1.6v-5.4l-7.2,7.2l-30.7,7.4v-14.8c-6.1,6.2-13.7,13.3-16.4,15.7c-4.7,4.2-10.5,7-17.3,8.6
					c-3.4,0.8-6.7,1.2-9.6,1.2c-3.1,0-6-0.4-8.5-1.3c-1.6-0.5-3.1-1.3-4.4-2.1l-7,7l-3.2,0.7c-7.4,1.5-11,2.2-18.3,3.6l-4.9,0.9
					l-0.5-1.7l-2.2,2.2l-3.3,0.6c-7.1,1.3-10.5,1.8-17.5,2.9l-6.4,1v-9.2c-4.1,4-9.5,9-11.6,10.1c-3.8,2.1-8.3,3.5-13.3,4
					c-1.7,0.2-3.3,0.3-4.9,0.3c-3.7,0-7.1-0.5-10.2-1.6c-4.7-1.6-8.4-4.1-10.9-7.4c-0.6-0.8-1.1-1.5-1.6-2.4l-12.7,12.7l-3.9,0.2
					c-8.6,0.4-12.7,0.5-21,0.5l-5.6,0V182z M434,161.5c0.9-1,2.1-2,3.6-3.2c-1.3-1.8-2.6-3.7-3.6-5.8V161.5z"/>
				<path fill="#F1F2F2" d="M431.5,96.4v78.2c0.3-4,1.3-7.4,3.2-10.1c1.3-1.9,4.1-4.1,6.4-5.8c-2.7-3.3-6.6-8.6-6.6-13.9
					c0-6.4,2.2-11.8,6.5-16.1c4.5-4.5,17.8-19.4,22.6-21.4c0,0,0.1,0,0.1,0c3.5-2,7.7-3.2,12.5-3.4c0.7,0,1.3-0.1,1.9-0.1
					c5.9,0,10.7,1.7,14.4,5.2c4,3.8,6.1,8.8,6.1,14.8c0,5.4-1.9,10.5-5.5,15c1.6,2.9,2.8,5,4.3,7.7c2.7-1.8,4.8-3.2,8.2-5.3l4.7-3.1
					v20.8l-4,4c1.7,3.2,3,5.7,5.1,9.7l2.4,4.5L496,194.9h-5.1c-7.3,0-10.9,0.1-18.4,0.3l-1.9,0.1l-1.7-3.1
					c-5.6,3.5-11.1,5.4-16.3,5.8c-0.7,0.1-1.4,0.1-2.1,0.1c-5.8,0-10.5-1.9-13.9-5.8c-3.1-3.5-4.9-7.8-5.3-12.9v3.2l-17.8,17.8
					l-2.7,0.4c-7.2,1-10.7,1.5-18.2,2.7l-2.6,0.4l-1.1-3.6l-4.5,4.5l-2.6,0.4c-6.8,1.2-10.2,1.8-17.3,3.1l-3.7,0.7v-11.4
					c-6,5.9-13.1,12.3-15.2,13.7c-3.7,2.4-8,4.1-12.9,5.2c-2.7,0.6-5.3,0.9-7.8,0.9c-1.7,0-3.4-0.2-5-0.4c-3.3-0.6-6-1.9-8.3-3.9
					l-8.3,8.3l-2.4,0.6c-8.3,1.9-12.5,2.9-20.8,4.9l-3.8,0.9v-8.3l-10.9,10.9l-26.9,6.5v-18c-6,6.8-17.3,17.3-20.6,20.2
					c-4.4,3.9-9.8,6.6-16.2,8c-3.3,0.7-6.3,1.1-9,1.1c-2.8,0-5.4-0.4-7.7-1.2c-2.1-0.7-4-1.8-5.5-3.1l-8,8l-2.5,0.5
					c-7.5,1.5-11.1,2.2-18.3,3.6l-2.7,0.5l-1.1-3.5l-4.5,4.5l-2.5,0.4c-7.1,1.3-10.5,1.8-17.4,2.9l-3.6,0.6v-12.2
					c-6.3,6.2-13.3,12.8-15.3,13.8c-3.5,2-7.7,3.2-12.4,3.8c-1.6,0.2-3.1,0.3-4.6,0.3c-3.4,0-6.5-0.5-9.4-1.4
					c-4.2-1.4-7.5-3.6-9.7-6.5c-1.2-1.6-2.1-3.3-2.8-5.2l-14.5,14.5l-2.9,0.1c-8.5,0.4-12.6,0.4-20.9,0.5l-3.1,0v-86.1l17.8-17.8
					l3.1,0c13.7,0,20.5-0.3,35-1.2l2.6-0.2l2.2-0.2c8.1-0.6,12.2-1,20.7-1.9l5.9-0.7c8.1-1,12.2-1.5,20.7-2.8l3.5-0.5v1.6l1.9-1.9
					l2.6-0.4c6.8-1.1,10.2-1.6,17.3-2.9l2.6-0.5l0.3,0.8c0,0,0.4,1.2,1.1,3.1l5.2-5.2l2.5-0.5c6.9-1.3,10.4-2,17.3-3.4l3.7-0.8v11.4
					c5-5.2,10.1-10.2,12-11.4c0,0,0.1,0,0.1,0c1-0.8,2-1.6,3.2-2.4c3.8-2.5,8.1-4.3,13-5.4c3.2-0.7,6.2-1.1,8.9-1.1
					c3,0,5.6,0.4,8,1.3c1.2,0.4,2.3,1,3.3,1.6l6.2-6.2l2.4-0.6c11.2-2.6,18.9-4.5,27.5-6.6c5.1-1.2,18.9-4.5,20.3-4.9v0l0.5-0.1
					l0.9-0.2v0l1-0.2c8.3-2,12.5-3,20.8-4.9l3.8-0.9V129c3-3.1,6.2-6.1,8.9-8.7c1.8-2.1,3.9-4,6.3-5.6c3.7-2.4,8-4.2,12.9-5.3
					c2.6-0.6,5.2-0.9,7.6-0.9c1.8,0,3.6,0.2,5.2,0.5c3.3,0.7,6.1,2.1,8.4,4.2l8.2-8.2l2.5-0.5c7.2-1.4,10.6-2,17.4-3.2l2.6-0.4
					l0.3,0.8c0,0,0.4,1.3,1.1,3.2l5.1-5.1l2.6-0.4c7.2-1.1,10.6-1.7,17.5-2.6L431.5,96.4 M476.4,124.3c0.3-0.9,0.5-1.8,0.5-2.2
					c0-0.5-0.1-0.9-0.4-1.3l-0.1,0c-0.1,0-0.2,0-0.2,0c0,0-0.2,0.4-0.2,1.5C475.9,122.8,476.1,123.5,476.4,124.3 M436.5,90.7
					l-5.7,0.8l-3.5,0.5c-6.9,0.9-10.3,1.5-17.6,2.6l-2.6,0.4l-1.6,0.3l-0.6,0.6l-0.2-0.5l-4.2,0.7l-2.6,0.4
					c-6.9,1.2-10.3,1.8-17.5,3.2l-2.5,0.5l-1.5,0.3l-1.1,1.1l-5.2,5.2c-2.1-1.2-4.4-2-6.9-2.5c-2-0.4-4.1-0.6-6.2-0.6
					c-2.7,0-5.6,0.3-8.6,1c-5.5,1.2-10.4,3.2-14.6,6c-2.6,1.7-5.1,3.9-7.2,6.3c-0.1,0.1-0.2,0.2-0.2,0.2v-5.9l-6.1,1.4l-3.8,0.9
					c-6.5,1.5-10.5,2.4-15.6,3.7v0l-6.2,1.5l-0.9,0.2l-0.5,0.1l-2.9,0.7c-4.7,1.1-13.6,3.2-17.5,4.2c-8.3,2-16.1,3.9-27.5,6.6
					l-2.4,0.6l-1.4,0.3l-1,1l-3.7,3.7c-0.2-0.1-0.4-0.2-0.6-0.2c-2.9-1-6.1-1.6-9.7-1.6c-3.1,0-6.5,0.4-10,1.2
					c-5.4,1.2-10.4,3.3-14.6,6.1c-1.1,0.7-2.2,1.5-3.3,2.5c-1,0.7-2.5,2-4.2,3.5v-5.5l-6,1.2l-3.7,0.8c-6.8,1.4-10.2,2.1-17.3,3.4
					l-2.5,0.5l-1.5,0.3l-0.6,0.6l-0.1-0.4l-4.2,0.7l-2.6,0.5c-7.1,1.3-10.4,1.8-17.2,2.9l-2.6,0.4l-1.4,0.2l-0.5,0.1l-3.5,0.5
					c-8.5,1.3-12.5,1.8-20.6,2.7l-5.9,0.7c-8.4,0.9-12.4,1.3-20.5,1.9l-2.2,0.2l-2.5,0.2c-14.3,1-21.1,1.2-34.7,1.2l-3.1,0l-2.1,0
					l-1.5,1.5l-17.8,17.8l-1.5,1.5v2.1v86.1v5l5,0l3.1,0c8.4,0,12.5-0.1,21.1-0.5l2.9-0.1l1.9-0.1l1.4-1.4l9.9-9.9
					c2.8,3.7,6.8,6.4,12,8.2c3.4,1.1,7.1,1.7,11,1.7c1.7,0,3.4-0.1,5.2-0.3c5.3-0.6,10.1-2.1,14.2-4.3c1.5-0.9,4.6-3.5,7.9-6.5v0.5
					v5.8l5.8-0.9l3.6-0.6c7-1.1,10.4-1.7,17.5-2.9l2.5-0.4l1.3-0.2l0,0l4.4-0.8l2.7-0.5c7.3-1.4,10.9-2.1,18.3-3.6l2.5-0.5l1.5-0.3
					l1.1-1.1l5.1-5.1c1,0.5,2.1,1,3.2,1.4c2.8,1,5.9,1.4,9.3,1.4c3.1,0,6.5-0.4,10.1-1.2c7.2-1.6,13.3-4.7,18.4-9.1
					c2.1-1.9,7.2-6.6,12.3-11.5v5.5v6.3l6.2-1.5l26.9-6.5l1.4-0.3l1-1l2.4-2.4v2.6l6.2-1.5l3.8-0.9c8.1-1.9,12.3-2.9,20.7-4.9
					l2.4-0.6l1.4-0.3l1-1l5.4-5.4c2.1,1.1,4.3,1.9,6.8,2.3c1.9,0.4,3.9,0.5,5.9,0.5c2.8,0,5.8-0.3,8.8-1c5.5-1.2,10.3-3.1,14.5-5.8
					c1.5-1,4.4-3.5,7.5-6.3v5.8l5.9-1.1l3.7-0.7c7.1-1.4,10.5-2,17.3-3.1l2.6-0.4l1.6-0.3l0,0l4-0.6l2.6-0.4
					c7.4-1.2,10.9-1.7,18-2.7l2.7-0.4l1.7-0.2l1.2-1.2l12.7-12.7c0.9,1.6,1.9,3,3.1,4.4c4.3,4.9,10.4,7.5,17.6,7.5
					c0.8,0,1.6,0,2.4-0.1c4.5-0.3,9.2-1.7,13.9-4l0.8,1.4l3.1-0.1l1.9-0.1c7.4-0.3,11-0.3,18.2-0.3h5.1h2.1l1.5-1.5l17.8-17.8
					l2.6-2.6l-1.7-3.3l-2.4-4.5c-1.4-2.6-2.4-4.5-3.4-6.5l1.4-1.4l1.5-1.5v-2.1V138v-9.2l-7.7,5l-4.7,3.1c-1.4,0.9-2.6,1.7-3.7,2.4
					c0-0.1-0.1-0.2-0.1-0.2c3.1-4.7,4.6-9.8,4.6-15.3c0-7.3-2.6-13.7-7.7-18.4c-4.6-4.3-10.6-6.5-17.8-6.5c-0.7,0-1.5,0-2.2,0.1
					c-5.4,0.3-10.2,1.6-14.4,3.9c-4.4,1.9-11.4,9.1-20.1,18.3c-1.6,1.7-3,3.2-4,4.1c-0.4,0.4-0.7,0.7-1,1.1V96.4V90.7L436.5,90.7z"
					/>
			</g>
			<g>
				<path fill="#F04D2F" d="M48.9,386c-6,0-11.3-1.2-15.6-3.5c-5.2-2.8-8.8-6.9-10.5-12.2c-1.5-4.5-2.2-10.8-2.2-19.3v-23.4
					c0-6.1,0.2-10.6,0.6-13.7c0.5-3.8,2-7.4,4.5-10.9c2-2.7,19.1-21.4,23.9-23.6l0,0c1.4-1,2.8-1.7,4.1-2.4c4.1-1.9,8.8-3,14.1-3.2
					c0.9,0,1.7-0.1,2.5-0.1c6,0,11.3,1.1,15.5,3.3c1.5,0.8,2.9,1.7,4.1,2.7l6.3-6.3l3.6-0.4c8.2-0.8,12.2-1.3,20.6-2.4l6.3-0.8v14
					l16.6-16.6l3-0.5c12.3-2,18.3-3.2,29.9-5.4l5.7-1.1l1.7,11.2c2.9-3,5.8-5.9,8.3-8.2c1.7-1.9,3.7-3.7,5.9-5.1
					c4-2.7,8.9-4.7,14.5-6c3.5-0.8,6.8-1.2,9.8-1.2c2.3,0,4.5,0.2,6.4,0.7c4.2,1,7.5,2.8,9.6,5.3c4-4,8.2-8.1,10-9.4
					c0.1-0.1,0.2-0.1,0.3-0.2l0.2-0.2c0.4-0.3,0.8-0.6,1.2-0.9c4-2.8,8.9-4.9,14.5-6.3c3.7-0.9,7.1-1.3,10.3-1.3
					c2.1,0,4.2,0.2,6,0.6c5.5,1.2,9.3,3.8,11.3,7.6c1.7,3.2,2.5,8.2,2.5,15.7v6.6l-7.7,7.7c2,1.3,3.5,2.6,4.6,4
					c3.3,4,4.9,10.5,4.9,19.7c0,6.5-0.8,11.6-2.5,15.3c-0.4,0.9-0.9,1.9-1.5,2.8c-2.5,4.7-22.1,23.2-25.8,25.9
					c-4.4,3.2-9.5,5.5-15.3,6.8c-3.4,0.8-6.6,1.2-9.5,1.2c-2.7,0-5.3-0.4-7.7-1.1c-3.5-1.1-6.4-2.7-8.4-5
					c-4.5,4.4-9.4,8.9-11.5,10.4c-4.4,3.1-9.6,5.4-15.3,6.7c-3.1,0.7-6.1,1.1-8.9,1.1c-3,0-5.8-0.4-8.3-1.2
					c-0.5-0.2-1.1-0.4-1.6-0.6l-4,4l-3.6,0.7c-8.3,1.7-12.6,2.6-21.3,4.2l-6.1,1.2l0-0.5l-0.6,0.6l-3.1,0.6
					c-8.3,1.5-12.5,2.2-19.7,3.3v0l-3.2,0.5l-5.8,0.9l0,0c-10.3,1.5-17,2.4-29.4,3.6l-6.1,0.6v-9.3c-3.4,3.1-6.5,5.7-8.1,6.9
					c-4.9,3.6-10.9,5.5-17.8,5.9C50.5,386,49.7,386,48.9,386z"/>
				<path fill="#F1F2F2" d="M275.1,240.9c2,0,3.8,0.2,5.5,0.6c4.7,1,8,3.2,9.6,6.4c1.5,2.8,2.2,7.6,2.2,14.5v5.6l-9.3,9.3
					c3.1,1.7,5.3,3.4,6.7,5.1c2.9,3.5,4.3,9.5,4.3,18.1c0,6.2-0.7,10.9-2.3,14.3c-0.4,0.9-0.8,1.7-1.4,2.6c0,0,0,0,0,0
					c-1.5,3.5-20.9,22.1-25.1,25.1c-4.1,3-9,5.1-14.4,6.4c-3.2,0.8-6.2,1.1-8.9,1.1c-2.5,0-4.8-0.3-6.9-1c-4.1-1.2-7.1-3.4-8.9-6.4
					c-5.5,5.5-11.1,10.7-13.2,12.1c-4.1,2.9-9,5-14.4,6.3c-3,0.7-5.8,1-8.3,1c-2.7,0-5.2-0.4-7.5-1.1c-1-0.3-2-0.7-2.9-1.2l-4.7,4.7
					l-2.9,0.6c-8.3,1.7-12.5,2.6-21.3,4.2l-3.4,0.6l-0.2-3.1l-3.9,3.9l-2.3,0.4c-8.9,1.6-13.1,2.3-21.6,3.6l-0.2,0v0l-1.1,0.2
					l-2.7,0.4l0,0c-12.3,1.8-19,2.7-32.4,4.1l-3.4,0.3v-12.3c-5,4.7-10,9.1-12.1,10.6c-4.5,3.3-10.1,5.1-16.5,5.4
					c-0.8,0-1.5,0.1-2.3,0.1c-5.6,0-10.4-1.1-14.4-3.2c-4.6-2.5-7.8-6.1-9.3-10.8c-1.4-4.3-2.1-10.3-2.1-18.6v-23.4
					c0-6,0.2-10.3,0.6-13.4c0.5-3.4,1.8-6.6,4.1-9.7c2.2-3.1,19-20.9,22.9-22.8c0.1,0,0.1,0,0.1,0c1.2-0.9,2.6-1.7,4.1-2.4
					c3.8-1.8,8.2-2.8,13.1-3c0.8,0,1.6-0.1,2.4-0.1c5.7,0,10.4,1,14.3,3c2.1,1.1,3.9,2.4,5.4,3.9l7.3-7.3l2.8-0.3
					c8.2-0.8,12.2-1.3,20.7-2.4l3.5-0.5v33.8l2.5-19.1l17.8-17.8l2.3-0.4c12.3-2,18.3-3.2,30-5.5l3.1-0.6l2.1,13.6
					c3.9-4.1,8.3-8.5,11.8-11.8c1.5-1.7,3.3-3.4,5.5-4.8c3.8-2.5,8.4-4.4,13.7-5.6c3.4-0.7,6.5-1.1,9.3-1.1c2.1,0,4.1,0.2,5.9,0.6
					c4.7,1.1,7.9,3.2,9.6,6.4c0.1,0.1,0.1,0.3,0.2,0.5c5-5.2,10-10.1,11.8-11.4c0.1-0.1,0.2-0.1,0.2-0.1c0.5-0.4,1-0.8,1.5-1.2
					c3.8-2.6,8.4-4.6,13.7-5.9C268.9,241.3,272.1,240.9,275.1,240.9 M275.1,235.9c-3.3,0-7,0.5-10.9,1.4c-5.9,1.4-11.1,3.6-15.4,6.6
					c-0.5,0.4-1,0.7-1.4,1.1c0,0-0.1,0-0.1,0.1c-0.1,0.1-0.2,0.1-0.3,0.2c-1.9,1.3-5.6,4.9-8.6,7.9c-2.1-1.7-5-3.3-9.1-4.2
					c-2.2-0.5-4.5-0.7-7-0.7c-3.2,0-6.7,0.4-10.4,1.2c-5.9,1.3-11.1,3.5-15.4,6.3c-2.4,1.6-4.5,3.4-6.3,5.5c-1.5,1.4-3.1,3-4.8,4.6
					l-0.6-3.7l-0.8-5.2l-5.1,1l-3.1,0.6c-11.6,2.3-17.6,3.4-29.8,5.4l-2.2,0.4l-1.6,0.3l-1.1,1.1l-11.7,11.7v-5.1v-5.7l-5.7,0.8
					l-3.5,0.5c-8.4,1.1-12.4,1.6-20.6,2.4l-2.8,0.3l-1.8,0.2l-1.3,1.3l-4.1,4.1c-0.9-0.6-1.8-1.1-2.7-1.6
					c-4.6-2.4-10.2-3.6-16.6-3.6c-0.9,0-1.8,0-2.6,0.1c-5.6,0.3-10.6,1.4-15,3.5c-1.4,0.7-2.9,1.5-4.3,2.5
					c-5.6,2.8-22.8,21.6-24.7,24.3c-2.8,3.8-4.4,7.8-5,12c-0.4,3.3-0.7,7.9-0.7,14.1v23.4c0,8.8,0.8,15.4,2.3,20.1
					c2,5.9,5.9,10.5,11.7,13.7c4.7,2.5,10.3,3.8,16.8,3.8c0.8,0,1.7,0,2.5-0.1c7.4-0.4,13.8-2.5,19.1-6.4c1-0.7,2.4-1.9,4.1-3.4v1
					v5.5l5.5-0.6l3.4-0.3c11-1.1,17.5-1.9,26-3.1l0,0l6.6-1l2.7-0.4l1-0.2l4.3-0.6v0c6-0.9,10.2-1.7,17.7-3l1-0.2l0,0l5.5-1l3.4-0.6
					c8.9-1.7,13.1-2.5,21.4-4.2l2.9-0.6l1.5-0.3l1.1-1.1l2.3-2.3c0.1,0,0.1,0,0.2,0.1c2.8,0.9,5.8,1.3,9.1,1.3
					c2.9,0,6.1-0.4,9.4-1.1c6.1-1.4,11.6-3.7,16.2-7.1c2-1.4,6.1-5.2,10-9c2.1,1.7,4.7,3,7.7,3.9c2.6,0.8,5.4,1.2,8.4,1.2
					c3.1,0,6.5-0.4,10.1-1.3c6.1-1.5,11.5-3.9,16.2-7.2c3.6-2.6,23.2-20.8,26.5-26.6c0.7-1,1.2-2.1,1.7-3.1
					c1.8-4.1,2.7-9.4,2.7-16.3c0-10-1.7-16.7-5.4-21.3c-0.8-0.9-1.7-1.8-2.7-2.7l5-5l1.5-1.5v-2.1v-5.6c0-7.9-0.9-13.2-2.8-16.8
					c-1.6-3.1-5.2-7.2-13-8.9C279.6,236.1,277.4,235.9,275.1,235.9L275.1,235.9z"/>
			</g>
		</g>
		<g>
			<g>
				<path fill="#1186C8" d="M44.6,55.2c14.1,0,21.1-0.3,35.2-1.3c0,6.4,0,9.6,0,16c-5.8,0.4-8.7,0.6-14.4,0.8c0,6.1,0,9.1,0,15.2
					c5.1-0.2,7.7-0.4,12.8-0.7c0,6.1,0,9.1,0,15.2c-5.1,0.3-7.7,0.5-12.8,0.7c0,13.4,0,20.2,0,33.6c-8.3,0.4-12.5,0.4-20.8,0.5
					C44.6,108.5,44.6,81.8,44.6,55.2z"/>
			</g>
			<g>
				<path fill="#1186C8" d="M132.3,95c0,8-0.2,13.8-0.6,17.1c-0.4,3.4-1.6,6.6-3.6,9.7c-2,3-4.7,5.6-8.1,7.5
					c-3.4,1.9-7.3,3.2-11.9,3.7c-4.3,0.5-8.1,0.2-11.5-0.9c-3.4-1.1-6.1-2.9-8.2-5.6c-2.1-2.6-3.3-5.6-3.7-8.8
					c-0.4-3.3-0.6-9-0.6-17.2c0-5.5,0-8.2,0-13.7c0-8,0.2-13.7,0.6-17.1c0.4-3.4,1.6-6.5,3.6-9.4c2-2.9,4.7-5.3,8.1-7.1
					c3.4-1.8,7.3-3,11.9-3.5c4.3-0.5,8.1-0.3,11.5,0.7c3.4,1,6.1,2.7,8.2,5.2c2.1,2.5,3.3,5.4,3.7,8.6c0.4,3.2,0.6,9,0.6,17.2
					C132.3,86.8,132.3,89.5,132.3,95z M111.5,71.5c0-3.7-0.2-6.1-0.6-7.1c-0.4-1-1.3-1.4-2.5-1.3c-1.1,0.1-1.9,0.6-2.5,1.5
					c-0.6,0.9-0.9,3.4-0.9,7.5c0,14.9,0,22.4,0,37.3c0,4.6,0.2,7.5,0.6,8.5c0.4,1,1.3,1.5,2.6,1.3c1.4-0.2,2.3-0.9,2.7-2.2
					c0.4-1.3,0.6-4.3,0.6-9C111.5,93.5,111.5,86.2,111.5,71.5z"/>
			</g>
			<g>
				<path fill="#1186C8" d="M140.1,47c5.9-0.9,8.8-1.4,14.7-2.4c9.8-1.7,16.5-2.6,19.9-2.5c3.5,0.1,6.3,1.5,8.5,4.1
					c2.2,2.7,3.3,7.4,3.3,14.2c0,6.2-0.8,10.6-2.3,13c-1.5,2.5-9.1,5.7-9.1,5.7c0,0.1,6.9,1,8.3,2.5c1.4,1.4,2.3,2.8,2.6,4.2
					c0.3,1.4,0.5,5.3,0.5,11.7c0,8.4,0,12.7,0,21.1c-7.7,1.6-11.6,2.3-19.3,3.8c0-10.6,0-15.9,0-26.6c0-4.3-0.3-6.9-1-7.8
					c-0.7-0.9-2.4-1.1-5.3-0.6c0,14.4,0,21.6,0,36.1c-8.3,1.5-12.5,2.2-20.8,3.5C140.1,100.3,140.1,73.6,140.1,47z M160.9,57.1
					c0,7.1,0,10.7,0,17.8c2.3-0.4,4-1,4.9-1.9c0.9-0.8,1.4-3,1.4-6.5c0-1.8,0-2.6,0-4.4c0-2.5-0.5-4.1-1.4-4.7
					C164.9,56.8,163.3,56.7,160.9,57.1z"/>
			</g>
			<g>
				<path fill="#1186C8" d="M258.7,22.3c0,26.7,0,53.3,0,80c-7.3,1.7-10.9,2.6-18.2,4.3c0-21.6,0-32.4,0-54
					c-2.9,22.3-4.3,33.4-7.2,55.7c-5.2,1.2-7.7,1.8-12.9,3c-3.1-20.4-4.6-30.6-7.6-51c0,21.1,0,31.7,0,52.8
					c-7.3,1.6-10.9,2.4-18.2,3.9c0-26.7,0-53.3,0-80c10.8-2.3,16.1-3.5,26.9-5.9c0.8,4.6,1.6,10.1,2.5,16.4c1.2,7.9,1.8,11.8,3,19.7
					c1.9-15.4,2.9-23.1,4.8-38.4C242.5,26.1,247.9,24.8,258.7,22.3z"/>
			</g>
			<g>
				<path fill="#1186C8" d="M44.6,168.4c14.1,0,21.1-0.3,35.2-1.3c0,6.4,0,9.6,0,16c-5.8,0.4-8.7,0.6-14.4,0.8c0,6.1,0,9.1,0,15.2
					c5.1-0.2,7.7-0.4,12.8-0.7c0,6.1,0,9.1,0,15.2c-5.1,0.3-7.7,0.5-12.8,0.7c0,13.4,0,20.2,0,33.6c-8.3,0.4-12.5,0.4-20.8,0.5
					C44.6,221.7,44.6,195,44.6,168.4z"/>
			</g>
			<g>
				<path fill="#1186C8" d="M132.1,161.4c0,21.4,0,32.1,0,53.4c0,6.1-0.2,10.3-0.6,12.9c-0.4,2.5-1.6,5.2-3.5,8.1
					c-1.9,2.9-4.5,5.2-7.7,6.9c-3.2,1.8-6.9,2.9-11.2,3.4c-4.8,0.6-9,0.2-12.6-1c-3.7-1.2-6.4-3.1-8.2-5.4c-1.8-2.4-2.9-5-3.2-7.8
					c-0.3-2.8-0.5-8.7-0.5-17.7c0-18.9,0-28.4,0-47.3c8.3-0.6,12.5-1,20.8-1.9c0,20,0,40,0,60c0,3.5,0.2,5.7,0.6,6.6
					c0.4,0.9,1.1,1.3,2.3,1.2c1.3-0.2,2.2-0.8,2.5-1.9c0.4-1.1,0.6-3.7,0.6-7.6c0-19.6,0-39.3,0-58.9
					C119.6,163.2,123.8,162.6,132.1,161.4z"/>
			</g>
			<g>
				<path fill="#1186C8" d="M186.6,151.7c0,26.7,0,53.3,0,80c-7.3,1.5-10.9,2.2-18.2,3.6c-4.3-13.7-6.5-20.6-10.8-34.4
					c0,14.5,0,21.8,0,36.4c-7,1.2-10.4,1.8-17.4,2.9c0-26.7,0-53.3,0-80c7-1.1,10.4-1.7,17.4-2.9c4.7,13.6,7,20.3,11.7,33.9
					c0-14.4,0-21.6,0-36C176.1,153.8,179.6,153.1,186.6,151.7z"/>
			</g>
			<g>
				<path fill="#1186C8" d="M243.5,173.9c-8.3,2-12.5,2.9-20.8,4.8c0-5.6,0-8.3,0-13.9c0-4-0.2-6.5-0.7-7.4
					c-0.4-0.9-1.4-1.2-2.9-0.8c-1.7,0.4-2.8,1.2-3.3,2.6c-0.5,1.3-0.7,4-0.7,8.1c0,14.9,0,22.3,0,37.1c0,3.9,0.2,6.4,0.7,7.5
					c0.5,1.1,1.5,1.4,3.1,1.1c1.5-0.3,2.6-1.2,3-2.5c0.5-1.3,0.7-4.1,0.7-8.5c0-4,0-6,0-10.1c8.3-1.9,12.5-2.9,20.8-4.8
					c0,1.2,0,1.9,0,3.1c0,8.3-0.6,14.3-1.8,18c-1.2,3.7-3.8,7.4-7.8,10.9c-4,3.5-8.9,6-14.8,7.3c-6.1,1.4-11.1,1.4-15.1,0
					c-4-1.3-6.6-3.9-7.9-7.5c-1.3-3.6-1.9-9.4-1.9-17.2c0-9.3,0-14,0-23.4c0-5.8,0.2-10.1,0.6-13.1c0.4-3,1.6-6,3.5-9.1
					c2-3.1,4.7-5.8,8.2-8.1c3.5-2.3,7.5-3.9,12-5c6.1-1.4,11.2-1.4,15.2,0.1c4,1.4,6.6,3.8,7.9,7c1.3,3.2,1.9,8.6,1.9,16.1
					C243.5,169.3,243.5,170.8,243.5,173.9z"/>
			</g>
			<g>
				<path fill="#1186C8" d="M292.8,127.3c0,6.4,0,9.6,0,16c-4.9,1.2-7.4,1.8-12.3,3c0,21.3,0,42.6,0,64c-8.3,2-12.5,3-20.8,5
					c0-21.3,0-42.6,0-64c-4.9,1.2-7.4,1.8-12.3,2.9c0-6.4,0-9.6,0-16C265.5,133.8,274.6,131.6,292.8,127.3z"/>
			</g>
			<g>
				<path fill="#1186C8" d="M318.3,121.2c0,26.7,0,53.3,0,80c-8.3,1.9-12.5,2.9-20.8,4.9c0-26.7,0-53.3,0-80
					C305.9,124.2,310,123.2,318.3,121.2z"/>
			</g>
			<g>
				<path fill="#1186C8" d="M374.2,155.9c0,8-0.2,13.8-0.6,17.2c-0.4,3.4-1.6,6.7-3.6,9.9c-2,3.2-4.7,5.8-8.1,8
					c-3.4,2.2-7.3,3.8-11.9,4.7c-4.3,0.9-8.1,1.1-11.5,0.4c-3.4-0.6-6.1-2.1-8.2-4.4c-2.1-2.3-3.3-5.1-3.7-8.3
					c-0.4-3.2-0.6-8.9-0.6-17.2c0-5.5,0-8.2,0-13.7c0-8,0.2-13.8,0.6-17.2c0.4-3.4,1.6-6.8,3.6-10c2-3.2,4.7-6,8.1-8.2
					c3.4-2.2,7.3-3.8,11.9-4.8c4.3-0.9,8.1-1,11.5-0.3c3.4,0.7,6.1,2.2,8.2,4.6c2.1,2.4,3.3,5.2,3.7,8.4c0.4,3.2,0.6,8.9,0.6,17.2
					C374.2,147.7,374.2,150.5,374.2,155.9z M353.4,133.9c0-3.7-0.2-6.1-0.6-7c-0.4-0.9-1.3-1.3-2.5-1c-1.1,0.2-1.9,0.8-2.5,1.8
					c-0.6,1-0.9,3.5-0.9,7.6c0,14.9,0,22.4,0,37.3c0,4.6,0.2,7.5,0.6,8.5c0.4,1,1.3,1.4,2.6,1.1c1.4-0.3,2.3-1.1,2.7-2.5
					c0.4-1.3,0.6-4.4,0.6-9.1C353.4,156,353.4,148.6,353.4,133.9z"/>
			</g>
			<g>
				<path fill="#1186C8" d="M428.4,99.9c0,26.7,0,53.3,0,80c-7.3,1-10.9,1.5-18.2,2.7c-4.3-13.8-6.5-20.8-10.8-34.5
					c0,14.5,0,21.8,0,36.4c-7,1.2-10.4,1.8-17.4,3.2c0-26.7,0-53.3,0-80c7-1.3,10.4-2,17.4-3.2c4.7,13.6,7,20.4,11.7,34.1
					c0-14.4,0-21.6,0-36C417.9,101.4,421.4,100.9,428.4,99.9z"/>
			</g>
			<g>
				<path fill="#1186C8" d="M507.3,143.6c0,5.4,0,8.1,0,13.5c-2.2,1.4-3.3,2.2-5.6,3.6c2.8,5.3,4.2,8,7,13.3
					c-7.4,0-11.1,0.1-18.5,0.3c-1-1.7-1.4-2.6-2.4-4.3c-6.2,4.3-12,6.7-17.6,7.1c-5.8,0.4-10.3-1.1-13.4-4.7
					c-3.1-3.6-4.7-8-4.7-13.5c0-4.3,0.9-7.9,2.8-10.5c1.8-2.6,8.3-6.8,8.3-6.8c0-0.8-7.9-8.2-7.9-14.6c0-5.6,1.9-10.2,5.6-14
					c3.8-3.7,8.9-5.8,15.5-6.3c5.9-0.4,10.6,1.1,14,4.3c3.4,3.2,5.1,7.4,5.1,12.5c0,5.4-2.1,10.2-6.2,14.6c2.8,5,4.2,7.5,7,12.5
					C500.8,147.9,502.9,146.5,507.3,143.6z M481,161.3c-2.6-4.2-3.9-6.3-6.4-10.4c-2.5,2.4-3.7,4.9-3.7,7.5c0,1.9,0.4,3.3,1.2,4.1
					c0.8,0.9,1.9,1.3,3.4,1.2C477,163.6,478.9,162.8,481,161.3z M476.5,130.7c0.9-0.1,3.4-5.9,3.4-8.6c0-1.2-0.3-2.2-1-3.1
					c-0.7-0.9-1.6-1.3-2.8-1.3c-1.1,0.1-1.9,0.5-2.5,1.3c-0.6,0.8-0.8,1.9-0.8,3.4C472.8,125.4,476,130.7,476.5,130.7z"/>
			</g>
			<g>
				<path fill="#1186C8" d="M93.1,314.1c-8.3,0.8-12.5,1.1-20.8,1.5c0-5.6,0-8.3,0-13.9c0-4-0.2-6.5-0.7-7.5c-0.4-1-1.4-1.4-2.9-1.4
					c-1.7,0.1-2.8,0.7-3.3,2c-0.5,1.2-0.7,3.9-0.7,7.9c0,14.9,0,22.3,0,37.1c0,3.9,0.2,6.4,0.7,7.6c0.5,1.2,1.5,1.7,3.1,1.6
					c1.5-0.1,2.6-0.7,3-1.9c0.5-1.2,0.7-4,0.7-8.4c0-4,0-6,0-10.1c8.3-0.5,12.5-0.8,20.8-1.5c0,1.2,0,1.9,0,3.1
					c0,8.3-0.6,14.2-1.8,17.8c-1.2,3.6-3.8,6.8-7.8,9.7c-4,2.9-8.9,4.5-14.8,4.8c-6.1,0.3-11.1-0.7-15.1-2.8c-4-2.1-6.6-5.2-7.9-9.1
					c-1.3-3.9-1.9-9.8-1.9-17.6c0-9.3,0-14,0-23.4c0-5.8,0.2-10.1,0.6-13c0.4-2.9,1.6-5.7,3.5-8.3c2-2.7,4.7-4.8,8.2-6.4
					c3.5-1.6,7.5-2.5,12-2.7c6.1-0.3,11.2,0.6,15.2,2.6c4,2.1,6.6,4.8,7.9,8.2c1.3,3.4,1.9,8.9,1.9,16.3
					C93.1,309.5,93.1,311,93.1,314.1z"/>
			</g>
			<g>
				<path fill="#1186C8" d="M121.4,276.1c0,21.3,0,42.6,0,64c5.1-0.7,7.6-1,12.6-1.8c0,6.4,0,9.6,0,16c-13.4,2-20.1,2.9-33.4,4.2
					c0-26.7,0-53.3,0-80C108.9,277.7,113.1,277.2,121.4,276.1z"/>
			</g>
			<g>
				<path fill="#1186C8" d="M177.5,266.7c4,25.9,7.9,51.7,11.9,77.6c-8.5,1.8-12.7,2.6-21.2,4.2c-0.4-5.7-0.7-8.5-1.1-14.2
					c-3,0.6-4.5,0.8-7.4,1.4c-0.5,5.8-0.7,8.8-1.2,14.6c-8.6,1.5-12.9,2.3-21.5,3.6c3.5-27.2,7.1-54.4,10.6-81.7
					C159.5,270.1,165.5,269,177.5,266.7z M166.5,320.2c-1.1-8.9-3.2-33-3.2-33c-0.1,0-3.4,27.1-4,34.3
					C162.2,321,163.6,320.7,166.5,320.2z"/>
			</g>
			<g>
				<path fill="#1186C8" d="M237,277.9c-7.7,1.8-11.6,2.7-19.3,4.4c0-2.4,0-3.6,0-5.9c0-2.8-0.2-4.5-0.7-5.1
					c-0.5-0.6-1.3-0.8-2.5-0.6c-1.3,0.3-2.2,1-2.8,2.2c-0.6,1.2-1,2.8-1,4.9c0,2.7,0.4,4.6,1.1,5.8c0.7,1.2,2.7,2.4,5.9,3.6
					c9.2,3.4,15.1,6.6,17.5,9.5c2.4,3,3.6,8.4,3.6,16.2c0,5.7-0.7,10.1-2,13.1c-1.3,3-3.9,5.9-7.7,8.6c-3.8,2.7-8.3,4.6-13.3,5.8
					c-5.6,1.2-10.3,1.2-14.2,0c-3.9-1.3-6.5-3.4-7.7-6.4c-1.2-3-1.8-7.5-1.8-13.5c0-2.1,0-3.1,0-5.2c7.7-1.6,11.6-2.4,19.3-4.1
					c0,3.9,0,5.8,0,9.7c0,3,0.3,4.9,0.8,5.6c0.5,0.7,1.5,1,2.9,0.6c1.4-0.3,2.4-1.1,3.1-2.3c0.7-1.2,1-2.9,1-5.1
					c0-4.7-0.6-7.7-1.9-8.8c-1.3-1.2-4.6-2.8-9.7-5.1c-5.2-2.3-8.6-4.1-10.3-5.2c-1.7-1.2-3.1-3-4.2-5.5c-1.1-2.5-1.7-5.9-1.7-10.1
					c0-6.1,0.8-10.8,2.3-13.9c1.6-3.2,4.1-5.9,7.6-8.3c3.5-2.3,7.7-4.1,12.6-5.2c5.4-1.2,10-1.4,13.8-0.5c3.8,0.9,6.3,2.5,7.6,4.8
					c1.2,2.4,1.9,6.7,1.9,13.1C237,276,237,276.7,237,277.9z"/>
			</g>
			<g>
				<path fill="#1186C8" d="M289.3,265.5c-7.7,1.8-11.6,2.8-19.3,4.6c0-2.4,0-3.6,0-5.9c0-2.8-0.2-4.5-0.7-5.1
					c-0.5-0.6-1.3-0.8-2.5-0.5c-1.3,0.3-2.2,1-2.8,2.2c-0.6,1.2-1,2.8-1,4.9c0,2.7,0.4,4.6,1.1,5.8c0.7,1.2,2.7,2.3,5.9,3.5
					c9.2,3.3,15.1,6.4,17.5,9.3c2.4,2.9,3.6,8.3,3.6,16.2c0,5.7-0.7,10.1-2,13.1c-1.3,3-3.9,5.9-7.7,8.6c-3.8,2.7-8.3,4.7-13.3,5.9
					c-5.6,1.3-10.3,1.4-14.2,0.2c-3.9-1.2-6.5-3.2-7.7-6.2s-1.8-7.5-1.8-13.4c0-2.1,0-3.1,0-5.2c7.7-1.8,11.6-2.7,19.3-4.6
					c0,3.9,0,5.8,0,9.7c0,3,0.3,4.9,0.8,5.6c0.5,0.7,1.5,0.9,2.9,0.6c1.4-0.3,2.4-1.1,3.1-2.4c0.7-1.2,1-2.9,1-5.1
					c0-4.7-0.6-7.7-1.9-8.8c-1.3-1.1-4.6-2.8-9.7-4.9c-5.2-2.2-8.6-3.9-10.3-5c-1.7-1.2-3.1-3-4.2-5.4c-1.1-2.5-1.7-5.8-1.7-10.1
					c0-6.1,0.8-10.8,2.3-14c1.6-3.2,4.1-6,7.6-8.4c3.5-2.4,7.7-4.2,12.6-5.4c5.4-1.3,10-1.5,13.8-0.7c3.8,0.8,6.3,2.4,7.6,4.8
					c1.2,2.4,1.9,6.7,1.9,13.1C289.3,263.6,289.3,264.2,289.3,265.5z"/>
			</g>
		</g>
		<g>
			<g>
				<path fill="#F1F2F2" d="M43.5,136.2v-82l1,0c13.7,0,20.6-0.3,35.1-1.3l1.1-0.1v18.1l-1,0.1c-5.6,0.4-8.4,0.5-13.5,0.8v13.1
					c4.4-0.2,6.9-0.3,11.7-0.6l1.1-0.1v17.3l-1,0.1c-4.9,0.3-7.4,0.5-11.9,0.7v33.6l-1,0c-8.5,0.4-12.6,0.4-20.8,0.5L43.5,136.2z
					 M45.6,56.2v77.9c7.2,0,11.3-0.1,18.7-0.4v-33.6l1,0c4.8-0.2,7.3-0.3,11.9-0.6V86.3c-4.5,0.3-7,0.4-11.8,0.6l-1.1,0V69.8l1,0
					c5.4-0.2,8.2-0.4,13.4-0.7V55C65.3,55.9,58.4,56.2,45.6,56.2z"/>
			</g>
			<g>
				<path fill="#F1F2F2" d="M104.4,134.2c-2.8,0-5.5-0.4-8-1.2c-3.6-1.1-6.5-3.1-8.7-5.9c-2.2-2.8-3.5-5.9-3.9-9.4
					c-0.4-3.3-0.6-9.1-0.6-17.4V86.8c0-8,0.2-13.8,0.6-17.2c0.4-3.5,1.6-6.9,3.7-9.9c2.1-3,4.9-5.5,8.4-7.4
					c3.5-1.8,7.6-3.1,12.2-3.6c4.4-0.5,8.4-0.3,11.9,0.7c3.6,1,6.5,2.9,8.7,5.5c2.2,2.6,3.5,5.7,3.9,9.1c0.4,3.3,0.6,9.1,0.6,17.3
					V95c0,8-0.2,13.8-0.6,17.3c-0.4,3.5-1.6,7-3.7,10.1c-2.1,3.2-4.9,5.8-8.4,7.8c-3.5,2-7.6,3.3-12.2,3.8
					C107,134.1,105.7,134.2,104.4,134.2z M112.5,50.4c-1.3,0-2.7,0.1-4.1,0.2c-4.4,0.5-8.2,1.6-11.5,3.4c-3.2,1.7-5.8,4-7.7,6.8
					c-1.9,2.8-3,5.8-3.4,9c-0.4,3.3-0.6,9-0.6,17v13.7c0,8.2,0.2,13.9,0.6,17.1c0.4,3.1,1.5,5.9,3.5,8.3c1.9,2.5,4.5,4.2,7.7,5.2
					c3.3,1,7,1.3,11.1,0.8c4.3-0.5,8.2-1.7,11.5-3.6c3.2-1.8,5.8-4.2,7.7-7.1c1.9-2.9,3-6,3.4-9.2c0.4-3.4,0.6-9.1,0.6-17V81.3
					c0-8.1-0.2-13.9-0.6-17.1c-0.4-3-1.5-5.7-3.5-8.1c-1.9-2.3-4.5-3.9-7.7-4.8C117.4,50.7,115.1,50.4,112.5,50.4z M107.7,120.5
					L107.7,120.5c-1.5,0-2.6-0.7-3.1-2c-0.3-0.7-0.6-2.5-0.6-8.9V72.2c0-5.7,0.5-7.3,1-8.1c0.7-1.2,1.9-1.8,3.2-2
					c1.8-0.2,3,0.5,3.6,1.9c0.3,0.7,0.7,2.3,0.7,7.5v36.7c0,4.9-0.2,7.9-0.6,9.3c-0.5,1.7-1.8,2.7-3.6,2.9
					C108.1,120.5,107.9,120.5,107.7,120.5z M108.9,64.2c-0.1,0-0.2,0-0.4,0c-0.8,0.1-1.3,0.4-1.7,1.1c-0.2,0.3-0.7,1.7-0.7,7v37.3
					c0,5.9,0.3,7.7,0.5,8.2c0.1,0.4,0.4,0.7,1.2,0.7h0c0.1,0,0.3,0,0.4,0c1-0.1,1.6-0.6,1.9-1.5c0.3-0.8,0.5-3,0.5-8.7V71.5
					c0-4.7-0.3-6.2-0.5-6.7C109.8,64.4,109.6,64.2,108.9,64.2z"/>
			</g>
			<g>
				<path fill="#F1F2F2" d="M139.1,128.1v-82l0.9-0.1c5.9-0.9,8.8-1.4,14.7-2.4c10.2-1.8,16.2-2.6,19.7-2.6l0.5,0
					c3.8,0.1,6.9,1.6,9.3,4.5c2.4,2.9,3.5,7.8,3.5,14.9c0,6.5-0.8,10.9-2.5,13.6c-1.1,1.7-4.3,3.5-6.7,4.7c3.2,0.7,4.9,1.3,5.7,2.1
					c1.5,1.6,2.5,3.1,2.9,4.6c0.4,1.5,0.6,5.4,0.6,12v21.9l-0.8,0.2c-7.5,1.5-11.4,2.3-19.3,3.8l-1.2,0.2V95.7
					c0-5.6-0.6-6.9-0.8-7.1c-0.1-0.1-0.4-0.4-1.8-0.4c-0.5,0-1.1,0-1.7,0.1v36l-0.8,0.2c-8.6,1.5-12.6,2.2-20.8,3.5L139.1,128.1z
					 M141.1,47.8v77.9c7.1-1.1,11.2-1.8,18.7-3.2V86.5l0.8-0.2c3.4-0.6,5.4-0.3,6.3,0.9c0.6,0.8,1.2,2.4,1.2,8.4V121
					c6.9-1.3,10.7-2,17.3-3.4V97.4c0-7.9-0.3-10.6-0.5-11.5c-0.3-1.2-1.1-2.4-2.4-3.7c-0.3-0.4-1.7-1.1-7.1-2.1
					c-0.8-0.1-1.4-0.2-1.4-1l-0.1-0.8l0.7-0.3c2.8-1.2,7.7-3.7,8.7-5.3c1.4-2.3,2.2-6.5,2.2-12.5c0-6.5-1-11.1-3.1-13.6
					c-2-2.4-4.5-3.7-7.7-3.7l-0.4,0c-3.3,0-9.3,0.8-19.3,2.5C149.4,46.5,146.4,47,141.1,47.8z M159.9,76.1V56.3l0.8-0.2
					c2.7-0.5,4.6-0.4,5.7,0.4c1.2,0.8,1.8,2.7,1.8,5.6v4.4c0,3.9-0.6,6.2-1.8,7.3c-1.1,1-2.9,1.6-5.4,2.1L159.9,76.1z M161.9,58
					v15.6c1.8-0.4,2.8-1,3.2-1.4c0.3-0.3,1.1-1.4,1.1-5.7v-4.4c0-2.9-0.6-3.7-0.9-3.9C164.9,58,163.8,57.7,161.9,58z"/>
			</g>
			<g>
				<path fill="#F1F2F2" d="M193.5,118.1V36l0.8-0.2c10.8-2.3,16.2-3.5,26.9-5.9l1.1-0.2l0.2,1.1c0.8,4.6,1.6,10.1,2.5,16.5
					l1.8,12.3l3.9-31.7l0.7-0.2c10.8-2.5,16.2-3.8,27-6.4l1.3-0.3V103l-0.8,0.2c-7.3,1.7-10.9,2.6-18.2,4.3l-1.3,0.3l0-39.5
					l-5.3,40.7l-0.7,0.2c-5.2,1.2-7.7,1.8-12.9,3l-1.1,0.2l-5.8-38.5l0,39.8l-0.8,0.2c-7.3,1.6-10.9,2.4-18.2,3.9L193.5,118.1z
					 M195.6,37.7v77.9c6.2-1.3,9.8-2.1,16.1-3.5l0-51.9l2-0.2l7.5,49.9c4.2-1,6.8-1.5,11.1-2.5l7.1-55l2,0.1l0,52.7
					c6.2-1.5,9.8-2.3,16.1-3.8V23.5c-9.8,2.3-15.2,3.6-25.1,5.9l-4.7,37.7l-2,0l-3-19.7c-0.8-5.8-1.5-11-2.3-15.4
					C210.9,34.4,205.5,35.6,195.6,37.7z"/>
			</g>
			<g>
				<path fill="#F1F2F2" d="M43.5,249.4v-82l1,0c13.7,0,20.6-0.3,35.1-1.3l1.1-0.1v18.1l-1,0.1c-5.6,0.4-8.4,0.5-13.5,0.8V198
					c4.4-0.2,6.9-0.3,11.7-0.6l1.1-0.1v17.3l-1,0.1c-4.9,0.3-7.4,0.5-11.9,0.7v33.6l-1,0c-8.5,0.4-12.6,0.4-20.8,0.5L43.5,249.4z
					 M45.6,169.4v77.9c7.2,0,11.3-0.1,18.7-0.4v-33.6l1,0c4.8-0.2,7.3-0.3,11.9-0.6v-13.2c-4.5,0.3-7,0.4-11.8,0.6l-1.1,0v-17.2l1,0
					c5.4-0.2,8.2-0.4,13.4-0.7v-13.9C65.3,169.1,58.4,169.4,45.6,169.4z"/>
			</g>
			<g>
				<path fill="#F1F2F2" d="M104.8,247.3c-3.2,0-6.1-0.5-8.7-1.3c-3.8-1.3-6.8-3.2-8.7-5.8c-1.9-2.5-3.1-5.3-3.4-8.3
					c-0.3-2.9-0.5-8.7-0.5-17.8v-48.3l0.9-0.1c8.2-0.6,12.2-1,20.8-1.9l1.1-0.1v61.1c0,4.4,0.3,5.8,0.5,6.2c0.2,0.4,0.5,0.7,1.2,0.6
					c1.2-0.1,1.5-0.7,1.7-1.2c0.2-0.7,0.5-2.5,0.5-7.3v-59.8l0.9-0.1c8.1-1,12.2-1.5,20.8-2.8l1.2-0.2v54.6c0,6.2-0.2,10.4-0.6,13
					c-0.4,2.7-1.7,5.5-3.7,8.5c-2,3-4.7,5.4-8,7.2c-3.3,1.8-7.2,3-11.6,3.5C107.7,247.2,106.2,247.3,104.8,247.3z M85.6,167.7v46.4
					c0,8.9,0.2,14.9,0.5,17.6c0.3,2.6,1.3,5,3,7.3c1.7,2.2,4.3,3.9,7.7,5.1c3.5,1.2,7.6,1.5,12.2,1c4.1-0.5,7.8-1.6,10.9-3.3
					c3-1.7,5.5-3.9,7.3-6.6c1.8-2.7,3-5.3,3.3-7.6c0.4-2.4,0.6-6.7,0.6-12.7v-52.3c-7.5,1.1-11.5,1.6-18.7,2.5v58
					c0,4.2-0.2,6.7-0.6,8c-0.4,1-1.2,2.3-3.4,2.6c-1.6,0.2-2.8-0.5-3.4-1.8c-0.3-0.7-0.6-2.1-0.6-7V166
					C96.8,166.8,92.8,167.2,85.6,167.7z"/>
			</g>
			<g>
				<path fill="#F1F2F2" d="M139.1,241.3v-82l0.9-0.1c6.8-1.1,10.2-1.6,17.4-2.9l0.9-0.2l0.3,0.8c3.9,11.5,6.2,18.1,9.7,28.1v-30.7
					l0.8-0.2c6.9-1.3,10.4-2,17.4-3.4l1.2-0.3v82.1l-0.8,0.2c-7.5,1.5-11.1,2.2-18.2,3.6l-0.9,0.2l-0.3-0.9
					c-3.6-11.4-5.7-18.1-8.8-28v30.5l-0.8,0.2c-7.1,1.3-10.5,1.8-17.4,2.9L139.1,241.3z M141.2,161v77.9c5.8-0.9,9.2-1.5,15.3-2.6
					v-35.5l2-0.3c4.2,13.5,6.4,20.4,10.5,33.5c6.3-1.2,9.8-1.9,16.5-3.2v-77.9c-5.9,1.2-9.3,1.9-15.3,3v35.2l-2,0.3
					c-4.6-13.2-6.9-20-11.4-33C150.6,159.5,147.2,160.1,141.2,161z"/>
			</g>
			<g>
				<path fill="#F1F2F2" d="M210.8,228.3c-2.6,0-5-0.4-7-1.1c-4.2-1.4-7.1-4.2-8.5-8.1c-1.3-3.7-2-9.6-2-17.5v-23.4
					c0-5.8,0.2-10.2,0.6-13.2c0.4-3.1,1.7-6.3,3.7-9.5c2-3.2,4.9-6,8.5-8.4c3.6-2.3,7.7-4.1,12.3-5.1c6.3-1.4,11.6-1.4,15.7,0.1
					c4.3,1.5,7.1,4.1,8.5,7.6c1.3,3.4,1.9,8.8,1.9,16.4v8.4l-0.8,0.2c-8.3,2-12.5,2.9-20.8,4.8l-1.3,0.3v-15.2c0-5.3-0.4-6.6-0.6-7
					c-0.1-0.1-0.2-0.4-0.9-0.4c-0.3,0-0.6,0-0.9,0.1c-1.4,0.3-2.2,0.9-2.5,1.9c-0.3,0.8-0.6,2.8-0.6,7.7v37.1c0,4.6,0.3,6.4,0.6,7
					c0.2,0.5,0.7,0.8,1.9,0.5c1.2-0.3,1.9-0.9,2.3-1.8c0.3-0.8,0.7-2.9,0.7-8.2v-10.9l0.8-0.2c8.3-1.9,12.5-2.9,20.8-4.8l1.3-0.3
					v4.4c0,8.3-0.6,14.5-1.8,18.3c-1.2,3.9-3.9,7.7-8.1,11.4c-4.1,3.6-9.3,6.2-15.2,7.5C216.3,228,213.4,228.3,210.8,228.3z
					 M226.8,143.1c-2.4,0-5.1,0.3-8,1c-4.4,1-8.3,2.6-11.6,4.8c-3.3,2.2-6,4.8-7.8,7.7c-1.9,2.9-3,5.9-3.4,8.7
					c-0.4,2.9-0.6,7.3-0.6,13v23.4c0,7.7,0.6,13.4,1.9,16.9c1.2,3.4,3.5,5.6,7.2,6.9c3.8,1.3,8.7,1.3,14.5-0.1
					c5.7-1.3,10.5-3.7,14.3-7.1c3.8-3.4,6.3-6.9,7.5-10.4c1.1-3.6,1.7-9.6,1.7-17.7v-1.8c-7.2,1.7-11.4,2.7-18.7,4.3v9.2
					c0,4.6-0.3,7.5-0.8,8.9c-0.6,1.6-1.9,2.7-3.8,3.1c-2.1,0.5-3.6-0.1-4.3-1.7c-0.3-0.8-0.8-2.4-0.8-7.9v-37.1c0-4.2,0.2-7,0.7-8.4
					c0.6-1.7,1.9-2.8,4-3.2c2-0.4,3.4,0.1,4.1,1.4c0.3,0.7,0.8,2.2,0.8,7.9v12.6c7.2-1.6,11.4-2.6,18.7-4.3v-6.8
					c0-7.3-0.6-12.6-1.8-15.7c-1.1-3-3.5-5.1-7.2-6.4C231.5,143.5,229.3,143.1,226.8,143.1z"/>
			</g>
			<g>
				<path fill="#F1F2F2" d="M258.6,216.5v-64c-4.1,1-6.6,1.6-11,2.6l-1.3,0.3v-18.1l0.8-0.2c11.2-2.7,19-4.5,27.6-6.6
					c5.3-1.3,10.9-2.6,17.9-4.3l1.3-0.3v18.1l-12.3,3v64L258.6,216.5z M260.7,149.9v64l18.7-4.5v-64l12.3-3v-13.9
					c-6.4,1.5-11.6,2.8-16.6,4c-8.4,2-16,3.8-26.8,6.4v13.9c4.1-1,6.6-1.6,11-2.6L260.7,149.9z"/>
			</g>
			<g>
				<path fill="#F1F2F2" d="M296.5,207.4v-82.1l0.8-0.2c8.3-2,12.5-3,20.8-4.9l1.3-0.3V202l-0.8,0.2c-8.3,1.9-12.5,2.9-20.8,4.9
					L296.5,207.4z M298.6,126.9v77.9c7.2-1.7,11.4-2.7,18.7-4.4v-77.9C310.1,124.2,306,125.2,298.6,126.9z"/>
			</g>
			<g>
				<path fill="#F1F2F2" d="M343,197.6c-1.6,0-3.1-0.1-4.6-0.4c-3.6-0.7-6.6-2.3-8.8-4.8c-2.2-2.5-3.5-5.5-4-8.9
					c-0.4-3.2-0.6-9-0.6-17.3v-13.7c0-8,0.2-13.9,0.6-17.3c0.4-3.6,1.6-7.1,3.7-10.4c2.1-3.3,4.9-6.2,8.4-8.5c3.5-2.3,7.6-4,12.2-5
					c4.4-0.9,8.4-1.1,12-0.3c3.6,0.7,6.6,2.4,8.8,5c2.2,2.5,3.5,5.5,3.9,8.9c0.4,3.2,0.6,9.1,0.6,17.3v13.7c0,8-0.2,13.8-0.6,17.3
					c-0.4,3.6-1.6,7-3.7,10.3c-2.1,3.3-4.9,6.1-8.4,8.3c-3.5,2.2-7.6,3.9-12.2,4.9C347.8,197.3,345.3,197.6,343,197.6z M357,112.7
					c-2.1,0-4.3,0.3-6.7,0.8c-4.4,0.9-8.2,2.5-11.5,4.7c-3.2,2.1-5.9,4.8-7.8,7.9c-1.9,3.1-3,6.3-3.4,9.5c-0.4,3.4-0.6,9.1-0.6,17.1
					v13.7c0,8.2,0.2,13.9,0.6,17c0.4,3,1.5,5.6,3.5,7.7c1.9,2.1,4.5,3.5,7.6,4.1c3.3,0.6,7,0.5,11.1-0.4c4.4-0.9,8.3-2.5,11.5-4.6
					c3.3-2.1,5.9-4.7,7.8-7.7c1.9-3,3-6.2,3.4-9.4c0.4-3.4,0.6-9.1,0.6-17.1v-13.7c0-8.1-0.2-13.9-0.6-17c-0.4-3-1.5-5.6-3.5-7.8
					c-1.9-2.2-4.5-3.6-7.7-4.3C360.1,112.8,358.6,112.7,357,112.7z M349.2,183.3L349.2,183.3c-1.3,0-2.3-0.6-2.7-1.8
					c-0.3-0.7-0.6-2.4-0.6-8.8v-37.3c0-5.8,0.6-7.4,1-8.1c0.7-1.2,1.8-2,3.2-2.3c1.8-0.4,3.1,0.2,3.7,1.6c0.3,0.7,0.7,2.2,0.7,7.4
					v36.7c0,4.9-0.2,7.9-0.6,9.4c-0.5,1.7-1.7,2.8-3.5,3.2C349.9,183.3,349.6,183.3,349.2,183.3z M351,126.9c-0.2,0-0.4,0-0.6,0.1
					c-0.8,0.2-1.4,0.6-1.8,1.3c-0.2,0.4-0.7,1.8-0.7,7.1v37.3c0,5.9,0.3,7.6,0.5,8.1c0.2,0.4,0.6,0.6,1.5,0.4
					c1.1-0.2,1.7-0.8,1.9-1.8c0.3-0.8,0.6-3.1,0.6-8.8v-36.7c0-4.7-0.3-6.1-0.5-6.6C351.7,127,351.5,126.9,351,126.9z"/>
			</g>
			<g>
				<path fill="#F1F2F2" d="M380.9,188.8v-82l0.8-0.2c7.1-1.4,10.6-2,17.4-3.2l0.9-0.1l0.3,0.8c3.9,11.5,6.2,18.2,9.7,28.2v-30.7
					l0.9-0.1c7.1-1.1,10.6-1.6,17.4-2.6l1.2-0.2v82l-0.9,0.1c-7.1,1-10.7,1.5-18.2,2.7l-0.9,0.1l-0.3-0.8
					c-3.6-11.5-5.7-18.3-8.8-28.2v30.5l-0.9,0.1c-6.8,1.2-10.2,1.8-17.4,3.2L380.9,188.8z M383,108.5v77.9c6.1-1.2,9.4-1.8,15.3-2.8
					v-35.5l2-0.3c4.2,13.5,6.4,20.4,10.6,33.7c6.6-1.1,10.2-1.6,16.5-2.5v-77.9c-5.8,0.8-9.2,1.3-15.3,2.3v35.1l-2,0.3
					c-4.6-13.4-6.9-20.2-11.4-33.2C392.6,106.7,389.3,107.3,383,108.5z"/>
			</g>
			<g>
				<path fill="#F1F2F2" d="M468.4,178.2c-5.2,0-9.4-1.7-12.3-5.1c-3.3-3.7-4.9-8.5-4.9-14.1c0-4.5,1-8.3,2.9-11.1
					c1.5-2.2,5.9-5.3,7.7-6.5c-0.2-0.3-0.5-0.6-0.8-1c-2.4-2.9-6.8-8.3-6.8-13.4c0-5.8,2-10.8,5.9-14.7c4-3.9,9.4-6.1,16.2-6.6
					c6.2-0.4,11.1,1.2,14.8,4.6c3.6,3.4,5.4,7.9,5.4,13.3c0,5.4-2,10.3-6,14.7c2.4,4.2,3.8,6.7,6.1,10.9c3.8-2.5,5.9-3.9,10-6.5
					l1.6-1v15.9l-0.5,0.3c-1.9,1.3-3,2-4.8,3.1c2.5,4.8,3.9,7.4,6.5,12.5l0.8,1.5h-1.7c-7.3,0-10.9,0.1-18.4,0.3l-0.6,0l-2.2-3.9
					c-6,4-11.8,6.3-17.2,6.7C469.7,178.2,469,178.2,468.4,178.2z M478.2,107.8c-0.5,0-1.1,0-1.7,0.1c-6.3,0.4-11.3,2.4-14.8,6
					c-3.5,3.5-5.3,8-5.3,13.2c0,4.4,4.1,9.4,6.3,12.1c1.3,1.5,1.6,2,1.6,2.6l0,0.5l-0.4,0.3c-1.7,1.1-6.6,4.5-8,6.5
					c-1.7,2.5-2.6,5.8-2.6,9.9c0,5.2,1.5,9.4,4.4,12.8c2.9,3.3,7,4.7,12.5,4.3c5.3-0.4,11-2.7,17.1-6.9l0.9-0.7l2.6,4.8
					c6.5-0.2,10.1-0.3,16.2-0.3c-2.3-4.4-3.7-7-6.2-11.8l-0.4-0.8l0.8-0.5c2.1-1.4,3.2-2.1,5.1-3.3v-11c-3.4,2.2-5.5,3.6-9.3,6.1
					l-0.9,0.6l-0.5-1c-2.8-5-4.2-7.5-7-12.5l-0.4-0.7l0.5-0.5c4-4.2,5.9-8.7,5.9-13.9c0-4.8-1.6-8.8-4.8-11.8
					C486.9,109.2,483,107.8,478.2,107.8z M475,164.8c-1.6,0-2.9-0.5-3.8-1.5c-0.9-1.1-1.4-2.7-1.4-4.8c0-2.9,1.4-5.7,4-8.3l0.9-0.9
					l0.7,1.1c2.6,4.1,3.9,6.2,6.4,10.4l0.5,0.8l-0.8,0.6c-2.3,1.7-4.3,2.5-6.1,2.6C475.3,164.8,475.2,164.8,475,164.8z M474.4,152.6
					c-1.7,1.9-2.5,3.9-2.5,5.8c0,1.6,0.3,2.8,0.9,3.5c0.6,0.6,1.4,0.9,2.6,0.8c1.2-0.1,2.6-0.6,4.2-1.7
					C477.6,157.7,476.4,155.7,474.4,152.6z M476.6,131.7c-1.8,0-4.8-6.5-4.8-9.4c0-1.7,0.3-3,1-4c0.7-1,1.8-1.6,3.2-1.7l0.3,0
					c1.4,0,2.5,0.6,3.3,1.7c0.8,1.1,1.2,2.3,1.2,3.7C480.9,124.3,478.6,131.5,476.6,131.7L476.6,131.7z M476.4,118.7l-0.2,0
					c-0.8,0-1.3,0.3-1.7,0.8c-0.4,0.6-0.6,1.5-0.6,2.8c0,2.2,1.7,5.5,2.7,6.9c0.9-1.5,2.3-5.2,2.3-7.2c0-0.9-0.3-1.8-0.8-2.5
					C477.7,119,477.1,118.7,476.4,118.7z"/>
			</g>
			<g>
				<path fill="#F1F2F2" d="M66.7,363.7c-5.3,0-9.8-1-13.4-3c-4.2-2.2-7-5.5-8.3-9.7c-1.3-4-2-10-2-17.9v-23.4
					c0-5.8,0.2-10.2,0.6-13.1c0.4-3,1.7-6,3.7-8.8c2-2.8,4.9-5.1,8.5-6.8c3.6-1.7,7.7-2.6,12.4-2.8c6.3-0.3,11.6,0.6,15.7,2.7
					c4.2,2.2,7,5.1,8.3,8.8c1.3,3.6,1.9,9,1.9,16.7v8.5l-0.9,0.1c-8.6,0.8-12.6,1.1-20.8,1.5l-1.1,0.1v-15c0-5.1-0.4-6.6-0.6-7.1
					c-0.1-0.2-0.3-0.8-1.7-0.8l-0.3,0c-1.7,0.1-2.2,0.8-2.3,1.3c-0.3,0.8-0.6,2.7-0.6,7.6v37.1c0,4.7,0.3,6.5,0.6,7.2
					c0.2,0.5,0.6,1,1.9,1l0.2,0c1.5-0.1,1.9-0.7,2.1-1.3c0.3-0.7,0.6-2.8,0.6-8v-11l1-0.1c8.2-0.4,12.2-0.7,20.8-1.5l1.1-0.1v4.2
					c0,8.3-0.6,14.4-1.8,18.1c-1.2,3.8-4,7.2-8.1,10.2c-4.2,3-9.3,4.7-15.3,5C68.1,363.6,67.4,363.7,66.7,363.7z M70.5,280.3
					c-0.7,0-1.5,0-2.2,0.1c-4.4,0.2-8.3,1.1-11.6,2.6c-3.3,1.5-5.9,3.6-7.8,6.1c-1.9,2.5-3,5.2-3.3,7.9c-0.4,2.8-0.6,7.1-0.6,12.8
					v23.4c0,7.7,0.6,13.5,1.9,17.3c1.2,3.6,3.7,6.5,7.4,8.5c3.8,2.1,8.7,3,14.5,2.7c5.6-0.3,10.4-1.8,14.2-4.6
					c3.8-2.8,6.3-5.9,7.4-9.2c1.1-3.4,1.7-9.3,1.7-17.4v-2c-7.5,0.7-11.5,1-18.7,1.4v9.1c0,4.6-0.3,7.4-0.8,8.8
					c-0.4,1.1-1.5,2.5-3.9,2.6l-0.3,0c-2.4,0-3.4-1.2-3.8-2.3c-0.5-1.3-0.8-3.8-0.8-8v-37.1c0-4.2,0.2-6.9,0.8-8.3
					c0.4-1.1,1.5-2.5,4.2-2.6l0.4,0c2.2,0,3.2,1.1,3.6,2c0.3,0.7,0.8,2.3,0.8,8v12.8c7.2-0.4,11.2-0.7,18.7-1.4v-6.7
					c0-7.3-0.6-12.7-1.8-16c-1.2-3.2-3.6-5.7-7.4-7.7C79.6,281.1,75.5,280.3,70.5,280.3z"/>
			</g>
			<g>
				<path fill="#F1F2F2" d="M99.6,359.6v-82l0.9-0.1c8.2-0.8,12.2-1.3,20.8-2.5l1.2-0.2v64c4.3-0.6,6.8-0.9,11.5-1.6l1.2-0.2v18.1
					l-0.9,0.1c-13,2-19.7,2.8-33.5,4.3L99.6,359.6z M101.6,279.4v77.9c12.7-1.3,19.3-2.2,31.4-4v-13.9c-4.3,0.6-6.8,1-11.5,1.6
					l-1.2,0.2v-64C112.9,278.2,108.8,278.7,101.6,279.4z"/>
			</g>
			<g>
				<path fill="#F1F2F2" d="M135.7,355l10.9-83.8l0.8-0.1c12.3-2,18.3-3.2,30-5.5l1.1-0.2l12.2,79.6l-1,0.2
					c-8.3,1.7-12.5,2.6-21.3,4.2l-1.1,0.2l-1.1-14.2c-2,0.4-3.4,0.6-5.6,1l-1.2,14.6l-0.8,0.1c-8.8,1.6-13.1,2.3-21.5,3.6L135.7,355
					z M148.4,273L138,352.6c7.3-1.1,11.5-1.8,19.4-3.2l1.2-14.6l0.8-0.1c3-0.5,4.5-0.8,7.4-1.4l1.1-0.2l1.1,14.2
					c7.7-1.4,11.9-2.3,19.2-3.8l-11.6-75.5C165.8,270,159.8,271.1,148.4,273z M158.2,322.7l0.1-1.3c0.3-4.3,1.6-15.3,2.2-19.9
					c1-8.5,1.5-12.3,1.8-14c0-0.2,0-0.2,0-0.3l0.1,0c0.3-1.1,0.5-1.1,1-1.1l0.9,0l0.1,0.9c0,0.2,2.1,24.2,3.2,33l0.1,1l-0.9,0.2
					c-2.9,0.5-4.3,0.8-7.2,1.3L158.2,322.7z M163.1,296.6c-1,7.8-2.2,18.5-2.7,23.6c1.8-0.3,3-0.6,4.9-0.9
					C164.7,313.9,163.8,304,163.1,296.6z"/>
			</g>
			<g>
				<path fill="#F1F2F2" d="M208,342.2c-2.5,0-4.8-0.3-6.9-1c-4.2-1.4-7-3.7-8.4-7c-1.3-3.2-1.9-7.7-1.9-13.9v-6.1l0.8-0.2
					c7.7-1.6,11.6-2.4,19.3-4.1l1.2-0.3v11c0,3.9,0.5,4.8,0.6,5c0.1,0.1,0.3,0.4,1,0.4c0.3,0,0.6,0,0.9-0.1c1.1-0.2,1.9-0.8,2.4-1.8
					c0.6-1.1,0.9-2.6,0.9-4.6c0-5.8-1-7.5-1.6-8c-1.1-1-4.2-2.6-9.5-4.9c-5-2.2-8.7-4.1-10.5-5.3c-1.8-1.3-3.3-3.3-4.5-6
					c-1.2-2.6-1.7-6.2-1.7-10.5c0-6.3,0.8-11.1,2.5-14.4c1.6-3.3,4.3-6.2,7.9-8.6c3.6-2.4,7.9-4.2,13-5.3c5.6-1.2,10.3-1.4,14.3-0.5
					c4.1,0.9,6.9,2.7,8.2,5.4c1.3,2.5,2,7,2,13.6v4l-0.8,0.2c-7.7,1.8-11.6,2.7-19.3,4.4l-1.2,0.3v-7.2c0-3.6-0.4-4.4-0.5-4.5
					c-0.1-0.2-0.6-0.4-1.4-0.2c-1,0.2-1.7,0.8-2.2,1.7c-0.6,1-0.8,2.5-0.8,4.4c0,3,0.5,4.5,0.9,5.3c0.3,0.6,1.5,1.7,5.3,3.1
					c9.5,3.5,15.4,6.7,17.9,9.8c2.6,3.2,3.8,8.7,3.8,16.8c0,5.8-0.7,10.3-2.1,13.5c-1.4,3.2-4.1,6.2-8.1,9
					c-3.9,2.8-8.5,4.8-13.7,5.9C213.1,341.9,210.4,342.2,208,342.2z M192.9,315.9v4.4c0,5.8,0.6,10.2,1.8,13.1
					c1.1,2.7,3.5,4.7,7.1,5.8c3.7,1.2,8.4,1.2,13.7,0c4.9-1.1,9.3-3,13-5.6c3.6-2.6,6.1-5.3,7.4-8.2c1.3-2.9,1.9-7.1,1.9-12.6
					c0-7.6-1.1-12.8-3.4-15.6c-2.3-2.8-8-5.9-17-9.2c-3.5-1.3-5.6-2.6-6.4-4c-0.8-1.4-1.2-3.5-1.2-6.3c0-2.3,0.4-4,1.1-5.4
					c0.8-1.4,2-2.3,3.5-2.7c1.9-0.4,3,0.3,3.5,1c0.4,0.6,1,1.8,1,5.7v4.6c6.7-1.5,10.5-2.4,17.3-4v-2.3c0-6.2-0.6-10.4-1.7-12.6
					c-1.1-2.1-3.4-3.5-6.9-4.3c-3.6-0.8-8.1-0.7-13.4,0.5c-4.8,1.1-8.9,2.8-12.3,5c-3.3,2.2-5.8,4.9-7.2,7.9
					c-1.5,3-2.2,7.5-2.2,13.5c0,4.1,0.5,7.4,1.6,9.7c1,2.3,2.3,4,3.8,5.1c1.2,0.8,3.9,2.4,10.1,5.1c5.6,2.5,8.7,4.1,10,5.3
					c1.5,1.4,2.3,4.4,2.3,9.6c0,2.3-0.4,4.2-1.1,5.6c-0.8,1.5-2.1,2.5-3.8,2.8c-2.1,0.5-3.4-0.3-3.9-1c-0.5-0.6-1-1.9-1-6.2v-8.5
					C203.5,313.7,199.7,314.5,192.9,315.9z"/>
			</g>
			<g>
				<path fill="#F1F2F2" d="M259.8,330.1c-2.3,0-4.4-0.3-6.4-0.9c-4.2-1.3-7-3.6-8.4-6.8c-1.3-3.1-1.9-7.7-1.9-13.8v-6l0.8-0.2
					c7.7-1.8,11.6-2.7,19.3-4.6l1.3-0.3v11c0,3.9,0.5,4.8,0.6,5c0.1,0.1,0.3,0.3,0.9,0.3c0.3,0,0.6,0,0.9-0.1
					c1.1-0.3,1.9-0.9,2.4-1.9c0.6-1.1,0.9-2.6,0.9-4.6c0-5.8-1-7.5-1.6-8c-1.2-1-4.3-2.6-9.5-4.8c-5.1-2.2-8.7-3.9-10.5-5.1
					c-1.8-1.3-3.4-3.2-4.5-5.9c-1.2-2.6-1.7-6.1-1.7-10.5c0-6.3,0.8-11.1,2.5-14.4c1.6-3.3,4.3-6.3,7.9-8.8c3.6-2.5,8-4.4,13-5.6
					c5.5-1.3,10.3-1.6,14.3-0.7c4.1,0.9,6.9,2.7,8.2,5.3c1.3,2.5,2,7,2,13.5v4l-21.4,5.1v-7.2c0-3.6-0.4-4.4-0.5-4.5
					c-0.1-0.1-0.5-0.4-1.4-0.2c-1,0.2-1.7,0.8-2.2,1.7c-0.6,1-0.8,2.5-0.8,4.4c0,3,0.5,4.5,0.9,5.2c0.3,0.5,1.5,1.7,5.3,3
					c9.5,3.4,15.4,6.5,17.9,9.7c2.6,3.2,3.8,8.7,3.8,16.8c0,5.8-0.7,10.4-2.1,13.5c-1.4,3.2-4.1,6.2-8.1,9.1
					c-3.9,2.8-8.5,4.9-13.7,6.1C265.2,329.8,262.3,330.1,259.8,330.1z M245.2,304.2v4.4c0,5.8,0.6,10.2,1.8,13.1
					c1.1,2.7,3.4,4.5,7.1,5.6c3.7,1.1,8.4,1,13.7-0.3c4.9-1.2,9.3-3.1,13-5.8c3.7-2.6,6.1-5.4,7.4-8.2c1.3-2.9,1.9-7.1,1.9-12.7
					c0-7.6-1.1-12.8-3.4-15.5c-2.3-2.8-8-5.8-17-9c-3.5-1.2-5.6-2.5-6.4-3.9c-0.8-1.4-1.2-3.5-1.2-6.3c0-2.3,0.4-4,1.1-5.4
					c0.8-1.4,2-2.3,3.5-2.7c1.9-0.4,3,0.3,3.5,0.9c0.4,0.6,1,1.7,1,5.7v4.6l17.3-4.1v-2.4c0-6.2-0.6-10.4-1.7-12.6
					c-1.1-2.1-3.4-3.5-6.9-4.3c-3.6-0.8-8.1-0.6-13.3,0.7c-4.8,1.1-8.9,2.9-12.3,5.3c-3.3,2.3-5.8,5-7.2,8c-1.5,3-2.2,7.6-2.2,13.5
					c0,4.1,0.5,7.3,1.6,9.7c1,2.3,2.3,4,3.8,5c1.2,0.8,3.9,2.3,10.1,4.9c5.5,2.3,8.7,3.9,10,5.1c1.6,1.4,2.3,4.4,2.3,9.5
					c0,2.3-0.4,4.2-1.1,5.6c-0.8,1.5-2.1,2.5-3.7,2.9c-2.1,0.5-3.4-0.3-3.9-1c-0.5-0.6-1-1.9-1-6.2v-8.4
					C255.8,301.7,252,302.6,245.2,304.2z"/>
			</g>
		</g>
		<g>
			<g>
				<path fill="#F1F2F2" d="M43.5,136.2v-82l1,0c13.7,0,20.6-0.3,35.1-1.3l1.1-0.1v18.1l-1,0.1c-5.6,0.4-8.4,0.5-13.5,0.8v13.1
					c4.4-0.2,6.9-0.3,11.7-0.6l1.1-0.1v17.3l-1,0.1c-4.9,0.3-7.4,0.5-11.9,0.7v33.6l-1,0c-8.5,0.4-12.6,0.4-20.8,0.5L43.5,136.2z
					 M45.6,56.2v77.9c7.2,0,11.3-0.1,18.7-0.4v-33.6l1,0c4.8-0.2,7.3-0.3,11.9-0.6V86.3c-4.5,0.3-7,0.4-11.8,0.6l-1.1,0V69.8l1,0
					c5.4-0.2,8.2-0.4,13.4-0.7V55C65.3,55.9,58.4,56.2,45.6,56.2z"/>
			</g>
			<g>
				<path fill="#F1F2F2" d="M104.4,134.2c-2.8,0-5.5-0.4-8-1.2c-3.6-1.1-6.5-3.1-8.7-5.9c-2.2-2.8-3.5-5.9-3.9-9.4
					c-0.4-3.3-0.6-9.1-0.6-17.4V86.8c0-8,0.2-13.8,0.6-17.2c0.4-3.5,1.6-6.9,3.7-9.9c2.1-3,4.9-5.5,8.4-7.4
					c3.5-1.8,7.6-3.1,12.2-3.6c4.4-0.5,8.4-0.3,11.9,0.7c3.6,1,6.5,2.9,8.7,5.5c2.2,2.6,3.5,5.7,3.9,9.1c0.4,3.3,0.6,9.1,0.6,17.3
					V95c0,8-0.2,13.8-0.6,17.3c-0.4,3.5-1.6,7-3.7,10.1c-2.1,3.2-4.9,5.8-8.4,7.8c-3.5,2-7.6,3.3-12.2,3.8
					C107,134.1,105.7,134.2,104.4,134.2z M112.5,50.4c-1.3,0-2.7,0.1-4.1,0.2c-4.4,0.5-8.2,1.6-11.5,3.4c-3.2,1.7-5.8,4-7.7,6.8
					c-1.9,2.8-3,5.8-3.4,9c-0.4,3.3-0.6,9-0.6,17v13.7c0,8.2,0.2,13.9,0.6,17.1c0.4,3.1,1.5,5.9,3.5,8.3c1.9,2.5,4.5,4.2,7.7,5.2
					c3.3,1,7,1.3,11.1,0.8c4.3-0.5,8.2-1.7,11.5-3.6c3.2-1.8,5.8-4.2,7.7-7.1c1.9-2.9,3-6,3.4-9.2c0.4-3.4,0.6-9.1,0.6-17V81.3
					c0-8.1-0.2-13.9-0.6-17.1c-0.4-3-1.5-5.7-3.5-8.1c-1.9-2.3-4.5-3.9-7.7-4.8C117.4,50.7,115.1,50.4,112.5,50.4z M107.7,120.5
					L107.7,120.5c-1.5,0-2.6-0.7-3.1-2c-0.3-0.7-0.6-2.5-0.6-8.9V72.2c0-5.7,0.5-7.3,1-8.1c0.7-1.2,1.9-1.8,3.2-2
					c1.8-0.2,3,0.5,3.6,1.9c0.3,0.7,0.7,2.3,0.7,7.5v36.7c0,4.9-0.2,7.9-0.6,9.3c-0.5,1.7-1.8,2.7-3.6,2.9
					C108.1,120.5,107.9,120.5,107.7,120.5z M108.9,64.2c-0.1,0-0.2,0-0.4,0c-0.8,0.1-1.3,0.4-1.7,1.1c-0.2,0.3-0.7,1.7-0.7,7v37.3
					c0,5.9,0.3,7.7,0.5,8.2c0.1,0.4,0.4,0.7,1.2,0.7h0c0.1,0,0.3,0,0.4,0c1-0.1,1.6-0.6,1.9-1.5c0.3-0.8,0.5-3,0.5-8.7V71.5
					c0-4.7-0.3-6.2-0.5-6.7C109.8,64.4,109.6,64.2,108.9,64.2z"/>
			</g>
			<g>
				<path fill="#F1F2F2" d="M139.1,128.1v-82l0.9-0.1c5.9-0.9,8.8-1.4,14.7-2.4c10.2-1.8,16.2-2.6,19.7-2.6l0.5,0
					c3.8,0.1,6.9,1.6,9.3,4.5c2.4,2.9,3.5,7.8,3.5,14.9c0,6.5-0.8,10.9-2.5,13.6c-1.1,1.7-4.3,3.5-6.7,4.7c3.2,0.7,4.9,1.3,5.7,2.1
					c1.5,1.6,2.5,3.1,2.9,4.6c0.4,1.5,0.6,5.4,0.6,12v21.9l-0.8,0.2c-7.5,1.5-11.4,2.3-19.3,3.8l-1.2,0.2V95.7
					c0-5.6-0.6-6.9-0.8-7.1c-0.1-0.1-0.4-0.4-1.8-0.4c-0.5,0-1.1,0-1.7,0.1v36l-0.8,0.2c-8.6,1.5-12.6,2.2-20.8,3.5L139.1,128.1z
					 M141.1,47.8v77.9c7.1-1.1,11.2-1.8,18.7-3.2V86.5l0.8-0.2c3.4-0.6,5.4-0.3,6.3,0.9c0.6,0.8,1.2,2.4,1.2,8.4V121
					c6.9-1.3,10.7-2,17.3-3.4V97.4c0-7.9-0.3-10.6-0.5-11.5c-0.3-1.2-1.1-2.4-2.4-3.7c-0.3-0.4-1.7-1.1-7.1-2.1
					c-0.8-0.1-1.4-0.2-1.4-1l-0.1-0.8l0.7-0.3c2.8-1.2,7.7-3.7,8.7-5.3c1.4-2.3,2.2-6.5,2.2-12.5c0-6.5-1-11.1-3.1-13.6
					c-2-2.4-4.5-3.7-7.7-3.7l-0.4,0c-3.3,0-9.3,0.8-19.3,2.5C149.4,46.5,146.4,47,141.1,47.8z M159.9,76.1V56.3l0.8-0.2
					c2.7-0.5,4.6-0.4,5.7,0.4c1.2,0.8,1.8,2.7,1.8,5.6v4.4c0,3.9-0.6,6.2-1.8,7.3c-1.1,1-2.9,1.6-5.4,2.1L159.9,76.1z M161.9,58
					v15.6c1.8-0.4,2.8-1,3.2-1.4c0.3-0.3,1.1-1.4,1.1-5.7v-4.4c0-2.9-0.6-3.7-0.9-3.9C164.9,58,163.8,57.7,161.9,58z"/>
			</g>
			<g>
				<path fill="#F1F2F2" d="M193.5,118.1V36l0.8-0.2c10.8-2.3,16.2-3.5,26.9-5.9l1.1-0.2l0.2,1.1c0.8,4.6,1.6,10.1,2.5,16.5
					l1.8,12.3l3.9-31.7l0.7-0.2c10.8-2.5,16.2-3.8,27-6.4l1.3-0.3V103l-0.8,0.2c-7.3,1.7-10.9,2.6-18.2,4.3l-1.3,0.3l0-39.5
					l-5.3,40.7l-0.7,0.2c-5.2,1.2-7.7,1.8-12.9,3l-1.1,0.2l-5.8-38.5l0,39.8l-0.8,0.2c-7.3,1.6-10.9,2.4-18.2,3.9L193.5,118.1z
					 M195.6,37.7v77.9c6.2-1.3,9.8-2.1,16.1-3.5l0-51.9l2-0.2l7.5,49.9c4.2-1,6.8-1.5,11.1-2.5l7.1-55l2,0.1l0,52.7
					c6.2-1.5,9.8-2.3,16.1-3.8V23.5c-9.8,2.3-15.2,3.6-25.1,5.9l-4.7,37.7l-2,0l-3-19.7c-0.8-5.8-1.5-11-2.3-15.4
					C210.9,34.4,205.5,35.6,195.6,37.7z"/>
			</g>
			<g>
				<path fill="#F1F2F2" d="M43.5,249.4v-82l1,0c13.7,0,20.6-0.3,35.1-1.3l1.1-0.1v18.1l-1,0.1c-5.6,0.4-8.4,0.5-13.5,0.8V198
					c4.4-0.2,6.9-0.3,11.7-0.6l1.1-0.1v17.3l-1,0.1c-4.9,0.3-7.4,0.5-11.9,0.7v33.6l-1,0c-8.5,0.4-12.6,0.4-20.8,0.5L43.5,249.4z
					 M45.6,169.4v77.9c7.2,0,11.3-0.1,18.7-0.4v-33.6l1,0c4.8-0.2,7.3-0.3,11.9-0.6v-13.2c-4.5,0.3-7,0.4-11.8,0.6l-1.1,0v-17.2l1,0
					c5.4-0.2,8.2-0.4,13.4-0.7v-13.9C65.3,169.1,58.4,169.4,45.6,169.4z"/>
			</g>
			<g>
				<path fill="#F1F2F2" d="M104.8,247.3c-3.2,0-6.1-0.5-8.7-1.3c-3.8-1.3-6.8-3.2-8.7-5.8c-1.9-2.5-3.1-5.3-3.4-8.3
					c-0.3-2.9-0.5-8.7-0.5-17.8v-48.3l0.9-0.1c8.2-0.6,12.2-1,20.8-1.9l1.1-0.1v61.1c0,4.4,0.3,5.8,0.5,6.2c0.2,0.4,0.5,0.7,1.2,0.6
					c1.2-0.1,1.5-0.7,1.7-1.2c0.2-0.7,0.5-2.5,0.5-7.3v-59.8l0.9-0.1c8.1-1,12.2-1.5,20.8-2.8l1.2-0.2v54.6c0,6.2-0.2,10.4-0.6,13
					c-0.4,2.7-1.7,5.5-3.7,8.5c-2,3-4.7,5.4-8,7.2c-3.3,1.8-7.2,3-11.6,3.5C107.7,247.2,106.2,247.3,104.8,247.3z M85.6,167.7v46.4
					c0,8.9,0.2,14.9,0.5,17.6c0.3,2.6,1.3,5,3,7.3c1.7,2.2,4.3,3.9,7.7,5.1c3.5,1.2,7.6,1.5,12.2,1c4.1-0.5,7.8-1.6,10.9-3.3
					c3-1.7,5.5-3.9,7.3-6.6c1.8-2.7,3-5.3,3.3-7.6c0.4-2.4,0.6-6.7,0.6-12.7v-52.3c-7.5,1.1-11.5,1.6-18.7,2.5v58
					c0,4.2-0.2,6.7-0.6,8c-0.4,1-1.2,2.3-3.4,2.6c-1.6,0.2-2.8-0.5-3.4-1.8c-0.3-0.7-0.6-2.1-0.6-7V166
					C96.8,166.8,92.8,167.2,85.6,167.7z"/>
			</g>
			<g>
				<path fill="#F1F2F2" d="M139.1,241.3v-82l0.9-0.1c6.8-1.1,10.2-1.6,17.4-2.9l0.9-0.2l0.3,0.8c3.9,11.5,6.2,18.1,9.7,28.1v-30.7
					l0.8-0.2c6.9-1.3,10.4-2,17.4-3.4l1.2-0.3v82.1l-0.8,0.2c-7.5,1.5-11.1,2.2-18.2,3.6l-0.9,0.2l-0.3-0.9
					c-3.6-11.4-5.7-18.1-8.8-28v30.5l-0.8,0.2c-7.1,1.3-10.5,1.8-17.4,2.9L139.1,241.3z M141.2,161v77.9c5.8-0.9,9.2-1.5,15.3-2.6
					v-35.5l2-0.3c4.2,13.5,6.4,20.4,10.5,33.5c6.3-1.2,9.8-1.9,16.5-3.2v-77.9c-5.9,1.2-9.3,1.9-15.3,3v35.2l-2,0.3
					c-4.6-13.2-6.9-20-11.4-33C150.6,159.5,147.2,160.1,141.2,161z"/>
			</g>
			<g>
				<path fill="#F1F2F2" d="M210.8,228.3c-2.6,0-5-0.4-7-1.1c-4.2-1.4-7.1-4.2-8.5-8.1c-1.3-3.7-2-9.6-2-17.5v-23.4
					c0-5.8,0.2-10.2,0.6-13.2c0.4-3.1,1.7-6.3,3.7-9.5c2-3.2,4.9-6,8.5-8.4c3.6-2.3,7.7-4.1,12.3-5.1c6.3-1.4,11.6-1.4,15.7,0.1
					c4.3,1.5,7.1,4.1,8.5,7.6c1.3,3.4,1.9,8.8,1.9,16.4v8.4l-0.8,0.2c-8.3,2-12.5,2.9-20.8,4.8l-1.3,0.3v-15.2c0-5.3-0.4-6.6-0.6-7
					c-0.1-0.1-0.2-0.4-0.9-0.4c-0.3,0-0.6,0-0.9,0.1c-1.4,0.3-2.2,0.9-2.5,1.9c-0.3,0.8-0.6,2.8-0.6,7.7v37.1c0,4.6,0.3,6.4,0.6,7
					c0.2,0.5,0.7,0.8,1.9,0.5c1.2-0.3,1.9-0.9,2.3-1.8c0.3-0.8,0.7-2.9,0.7-8.2v-10.9l0.8-0.2c8.3-1.9,12.5-2.9,20.8-4.8l1.3-0.3
					v4.4c0,8.3-0.6,14.5-1.8,18.3c-1.2,3.9-3.9,7.7-8.1,11.4c-4.1,3.6-9.3,6.2-15.2,7.5C216.3,228,213.4,228.3,210.8,228.3z
					 M226.8,143.1c-2.4,0-5.1,0.3-8,1c-4.4,1-8.3,2.6-11.6,4.8c-3.3,2.2-6,4.8-7.8,7.7c-1.9,2.9-3,5.9-3.4,8.7
					c-0.4,2.9-0.6,7.3-0.6,13v23.4c0,7.7,0.6,13.4,1.9,16.9c1.2,3.4,3.5,5.6,7.2,6.9c3.8,1.3,8.7,1.3,14.5-0.1
					c5.7-1.3,10.5-3.7,14.3-7.1c3.8-3.4,6.3-6.9,7.5-10.4c1.1-3.6,1.7-9.6,1.7-17.7v-1.8c-7.2,1.7-11.4,2.7-18.7,4.3v9.2
					c0,4.6-0.3,7.5-0.8,8.9c-0.6,1.6-1.9,2.7-3.8,3.1c-2.1,0.5-3.6-0.1-4.3-1.7c-0.3-0.8-0.8-2.4-0.8-7.9v-37.1c0-4.2,0.2-7,0.7-8.4
					c0.6-1.7,1.9-2.8,4-3.2c2-0.4,3.4,0.1,4.1,1.4c0.3,0.7,0.8,2.2,0.8,7.9v12.6c7.2-1.6,11.4-2.6,18.7-4.3v-6.8
					c0-7.3-0.6-12.6-1.8-15.7c-1.1-3-3.5-5.1-7.2-6.4C231.5,143.5,229.3,143.1,226.8,143.1z"/>
			</g>
			<g>
				<path fill="#F1F2F2" d="M258.6,216.5v-64c-4.1,1-6.6,1.6-11,2.6l-1.3,0.3v-18.1l0.8-0.2c11.2-2.7,19-4.5,27.6-6.6
					c5.3-1.3,10.9-2.6,17.9-4.3l1.3-0.3v18.1l-12.3,3v64L258.6,216.5z M260.7,149.9v64l18.7-4.5v-64l12.3-3v-13.9
					c-6.4,1.5-11.6,2.8-16.6,4c-8.4,2-16,3.8-26.8,6.4v13.9c4.1-1,6.6-1.6,11-2.6L260.7,149.9z"/>
			</g>
			<g>
				<path fill="#F1F2F2" d="M296.5,207.4v-82.1l0.8-0.2c8.3-2,12.5-3,20.8-4.9l1.3-0.3V202l-0.8,0.2c-8.3,1.9-12.5,2.9-20.8,4.9
					L296.5,207.4z M298.6,126.9v77.9c7.2-1.7,11.4-2.7,18.7-4.4v-77.9C310.1,124.2,306,125.2,298.6,126.9z"/>
			</g>
			<g>
				<path fill="#F1F2F2" d="M343,197.6c-1.6,0-3.1-0.1-4.6-0.4c-3.6-0.7-6.6-2.3-8.8-4.8c-2.2-2.5-3.5-5.5-4-8.9
					c-0.4-3.2-0.6-9-0.6-17.3v-13.7c0-8,0.2-13.9,0.6-17.3c0.4-3.6,1.6-7.1,3.7-10.4c2.1-3.3,4.9-6.2,8.4-8.5c3.5-2.3,7.6-4,12.2-5
					c4.4-0.9,8.4-1.1,12-0.3c3.6,0.7,6.6,2.4,8.8,5c2.2,2.5,3.5,5.5,3.9,8.9c0.4,3.2,0.6,9.1,0.6,17.3v13.7c0,8-0.2,13.8-0.6,17.3
					c-0.4,3.6-1.6,7-3.7,10.3c-2.1,3.3-4.9,6.1-8.4,8.3c-3.5,2.2-7.6,3.9-12.2,4.9C347.8,197.3,345.3,197.6,343,197.6z M357,112.7
					c-2.1,0-4.3,0.3-6.7,0.8c-4.4,0.9-8.2,2.5-11.5,4.7c-3.2,2.1-5.9,4.8-7.8,7.9c-1.9,3.1-3,6.3-3.4,9.5c-0.4,3.4-0.6,9.1-0.6,17.1
					v13.7c0,8.2,0.2,13.9,0.6,17c0.4,3,1.5,5.6,3.5,7.7c1.9,2.1,4.5,3.5,7.6,4.1c3.3,0.6,7,0.5,11.1-0.4c4.4-0.9,8.3-2.5,11.5-4.6
					c3.3-2.1,5.9-4.7,7.8-7.7c1.9-3,3-6.2,3.4-9.4c0.4-3.4,0.6-9.1,0.6-17.1v-13.7c0-8.1-0.2-13.9-0.6-17c-0.4-3-1.5-5.6-3.5-7.8
					c-1.9-2.2-4.5-3.6-7.7-4.3C360.1,112.8,358.6,112.7,357,112.7z M349.2,183.3L349.2,183.3c-1.3,0-2.3-0.6-2.7-1.8
					c-0.3-0.7-0.6-2.4-0.6-8.8v-37.3c0-5.8,0.6-7.4,1-8.1c0.7-1.2,1.8-2,3.2-2.3c1.8-0.4,3.1,0.2,3.7,1.6c0.3,0.7,0.7,2.2,0.7,7.4
					v36.7c0,4.9-0.2,7.9-0.6,9.4c-0.5,1.7-1.7,2.8-3.5,3.2C349.9,183.3,349.6,183.3,349.2,183.3z M351,126.9c-0.2,0-0.4,0-0.6,0.1
					c-0.8,0.2-1.4,0.6-1.8,1.3c-0.2,0.4-0.7,1.8-0.7,7.1v37.3c0,5.9,0.3,7.6,0.5,8.1c0.2,0.4,0.6,0.6,1.5,0.4
					c1.1-0.2,1.7-0.8,1.9-1.8c0.3-0.8,0.6-3.1,0.6-8.8v-36.7c0-4.7-0.3-6.1-0.5-6.6C351.7,127,351.5,126.9,351,126.9z"/>
			</g>
			<g>
				<path fill="#F1F2F2" d="M380.9,188.8v-82l0.8-0.2c7.1-1.4,10.6-2,17.4-3.2l0.9-0.1l0.3,0.8c3.9,11.5,6.2,18.2,9.7,28.2v-30.7
					l0.9-0.1c7.1-1.1,10.6-1.6,17.4-2.6l1.2-0.2v82l-0.9,0.1c-7.1,1-10.7,1.5-18.2,2.7l-0.9,0.1l-0.3-0.8
					c-3.6-11.5-5.7-18.3-8.8-28.2v30.5l-0.9,0.1c-6.8,1.2-10.2,1.8-17.4,3.2L380.9,188.8z M383,108.5v77.9c6.1-1.2,9.4-1.8,15.3-2.8
					v-35.5l2-0.3c4.2,13.5,6.4,20.4,10.6,33.7c6.6-1.1,10.2-1.6,16.5-2.5v-77.9c-5.8,0.8-9.2,1.3-15.3,2.3v35.1l-2,0.3
					c-4.6-13.4-6.9-20.2-11.4-33.2C392.6,106.7,389.3,107.3,383,108.5z"/>
			</g>
			<g>
				<path fill="#F1F2F2" d="M468.4,178.2c-5.2,0-9.4-1.7-12.3-5.1c-3.3-3.7-4.9-8.5-4.9-14.1c0-4.5,1-8.3,2.9-11.1
					c1.5-2.2,5.9-5.3,7.7-6.5c-0.2-0.3-0.5-0.6-0.8-1c-2.4-2.9-6.8-8.3-6.8-13.4c0-5.8,2-10.8,5.9-14.7c4-3.9,9.4-6.1,16.2-6.6
					c6.2-0.4,11.1,1.2,14.8,4.6c3.6,3.4,5.4,7.9,5.4,13.3c0,5.4-2,10.3-6,14.7c2.4,4.2,3.8,6.7,6.1,10.9c3.8-2.5,5.9-3.9,10-6.5
					l1.6-1v15.9l-0.5,0.3c-1.9,1.3-3,2-4.8,3.1c2.5,4.8,3.9,7.4,6.5,12.5l0.8,1.5h-1.7c-7.3,0-10.9,0.1-18.4,0.3l-0.6,0l-2.2-3.9
					c-6,4-11.8,6.3-17.2,6.7C469.7,178.2,469,178.2,468.4,178.2z M478.2,107.8c-0.5,0-1.1,0-1.7,0.1c-6.3,0.4-11.3,2.4-14.8,6
					c-3.5,3.5-5.3,8-5.3,13.2c0,4.4,4.1,9.4,6.3,12.1c1.3,1.5,1.6,2,1.6,2.6l0,0.5l-0.4,0.3c-1.7,1.1-6.6,4.5-8,6.5
					c-1.7,2.5-2.6,5.8-2.6,9.9c0,5.2,1.5,9.4,4.4,12.8c2.9,3.3,7,4.7,12.5,4.3c5.3-0.4,11-2.7,17.1-6.9l0.9-0.7l2.6,4.8
					c6.5-0.2,10.1-0.3,16.2-0.3c-2.3-4.4-3.7-7-6.2-11.8l-0.4-0.8l0.8-0.5c2.1-1.4,3.2-2.1,5.1-3.3v-11c-3.4,2.2-5.5,3.6-9.3,6.1
					l-0.9,0.6l-0.5-1c-2.8-5-4.2-7.5-7-12.5l-0.4-0.7l0.5-0.5c4-4.2,5.9-8.7,5.9-13.9c0-4.8-1.6-8.8-4.8-11.8
					C486.9,109.2,483,107.8,478.2,107.8z M475,164.8c-1.6,0-2.9-0.5-3.8-1.5c-0.9-1.1-1.4-2.7-1.4-4.8c0-2.9,1.4-5.7,4-8.3l0.9-0.9
					l0.7,1.1c2.6,4.1,3.9,6.2,6.4,10.4l0.5,0.8l-0.8,0.6c-2.3,1.7-4.3,2.5-6.1,2.6C475.3,164.8,475.2,164.8,475,164.8z M474.4,152.6
					c-1.7,1.9-2.5,3.9-2.5,5.8c0,1.6,0.3,2.8,0.9,3.5c0.6,0.6,1.4,0.9,2.6,0.8c1.2-0.1,2.6-0.6,4.2-1.7
					C477.6,157.7,476.4,155.7,474.4,152.6z M476.6,131.7c-1.8,0-4.8-6.5-4.8-9.4c0-1.7,0.3-3,1-4c0.7-1,1.8-1.6,3.2-1.7l0.3,0
					c1.4,0,2.5,0.6,3.3,1.7c0.8,1.1,1.2,2.3,1.2,3.7C480.9,124.3,478.6,131.5,476.6,131.7L476.6,131.7z M476.4,118.7l-0.2,0
					c-0.8,0-1.3,0.3-1.7,0.8c-0.4,0.6-0.6,1.5-0.6,2.8c0,2.2,1.7,5.5,2.7,6.9c0.9-1.5,2.3-5.2,2.3-7.2c0-0.9-0.3-1.8-0.8-2.5
					C477.7,119,477.1,118.7,476.4,118.7z"/>
			</g>
			<g>
				<path fill="#F1F2F2" d="M66.7,363.7c-5.3,0-9.8-1-13.4-3c-4.2-2.2-7-5.5-8.3-9.7c-1.3-4-2-10-2-17.9v-23.4
					c0-5.8,0.2-10.2,0.6-13.1c0.4-3,1.7-6,3.7-8.8c2-2.8,4.9-5.1,8.5-6.8c3.6-1.7,7.7-2.6,12.4-2.8c6.3-0.3,11.6,0.6,15.7,2.7
					c4.2,2.2,7,5.1,8.3,8.8c1.3,3.6,1.9,9,1.9,16.7v8.5l-0.9,0.1c-8.6,0.8-12.6,1.1-20.8,1.5l-1.1,0.1v-15c0-5.1-0.4-6.6-0.6-7.1
					c-0.1-0.2-0.3-0.8-1.7-0.8l-0.3,0c-1.7,0.1-2.2,0.8-2.3,1.3c-0.3,0.8-0.6,2.7-0.6,7.6v37.1c0,4.7,0.3,6.5,0.6,7.2
					c0.2,0.5,0.6,1,1.9,1l0.2,0c1.5-0.1,1.9-0.7,2.1-1.3c0.3-0.7,0.6-2.8,0.6-8v-11l1-0.1c8.2-0.4,12.2-0.7,20.8-1.5l1.1-0.1v4.2
					c0,8.3-0.6,14.4-1.8,18.1c-1.2,3.8-4,7.2-8.1,10.2c-4.2,3-9.3,4.7-15.3,5C68.1,363.6,67.4,363.7,66.7,363.7z M70.5,280.3
					c-0.7,0-1.5,0-2.2,0.1c-4.4,0.2-8.3,1.1-11.6,2.6c-3.3,1.5-5.9,3.6-7.8,6.1c-1.9,2.5-3,5.2-3.3,7.9c-0.4,2.8-0.6,7.1-0.6,12.8
					v23.4c0,7.7,0.6,13.5,1.9,17.3c1.2,3.6,3.7,6.5,7.4,8.5c3.8,2.1,8.7,3,14.5,2.7c5.6-0.3,10.4-1.8,14.2-4.6
					c3.8-2.8,6.3-5.9,7.4-9.2c1.1-3.4,1.7-9.3,1.7-17.4v-2c-7.5,0.7-11.5,1-18.7,1.4v9.1c0,4.6-0.3,7.4-0.8,8.8
					c-0.4,1.1-1.5,2.5-3.9,2.6l-0.3,0c-2.4,0-3.4-1.2-3.8-2.3c-0.5-1.3-0.8-3.8-0.8-8v-37.1c0-4.2,0.2-6.9,0.8-8.3
					c0.4-1.1,1.5-2.5,4.2-2.6l0.4,0c2.2,0,3.2,1.1,3.6,2c0.3,0.7,0.8,2.3,0.8,8v12.8c7.2-0.4,11.2-0.7,18.7-1.4v-6.7
					c0-7.3-0.6-12.7-1.8-16c-1.2-3.2-3.6-5.7-7.4-7.7C79.6,281.1,75.5,280.3,70.5,280.3z"/>
			</g>
			<g>
				<path fill="#F1F2F2" d="M99.6,359.6v-82l0.9-0.1c8.2-0.8,12.2-1.3,20.8-2.5l1.2-0.2v64c4.3-0.6,6.8-0.9,11.5-1.6l1.2-0.2v18.1
					l-0.9,0.1c-13,2-19.7,2.8-33.5,4.3L99.6,359.6z M101.6,279.4v77.9c12.7-1.3,19.3-2.2,31.4-4v-13.9c-4.3,0.6-6.8,1-11.5,1.6
					l-1.2,0.2v-64C112.9,278.2,108.8,278.7,101.6,279.4z"/>
			</g>
			<g>
				<path fill="#F1F2F2" d="M135.7,355l10.9-83.8l0.8-0.1c12.3-2,18.3-3.2,30-5.5l1.1-0.2l12.2,79.6l-1,0.2
					c-8.3,1.7-12.5,2.6-21.3,4.2l-1.1,0.2l-1.1-14.2c-2,0.4-3.4,0.6-5.6,1l-1.2,14.6l-0.8,0.1c-8.8,1.6-13.1,2.3-21.5,3.6L135.7,355
					z M148.4,273L138,352.6c7.3-1.1,11.5-1.8,19.4-3.2l1.2-14.6l0.8-0.1c3-0.5,4.5-0.8,7.4-1.4l1.1-0.2l1.1,14.2
					c7.7-1.4,11.9-2.3,19.2-3.8l-11.6-75.5C165.8,270,159.8,271.1,148.4,273z M158.2,322.7l0.1-1.3c0.3-4.3,1.6-15.3,2.2-19.9
					c1-8.5,1.5-12.3,1.8-14c0-0.2,0-0.2,0-0.3l0.1,0c0.3-1.1,0.5-1.1,1-1.1l0.9,0l0.1,0.9c0,0.2,2.1,24.2,3.2,33l0.1,1l-0.9,0.2
					c-2.9,0.5-4.3,0.8-7.2,1.3L158.2,322.7z M163.1,296.6c-1,7.8-2.2,18.5-2.7,23.6c1.8-0.3,3-0.6,4.9-0.9
					C164.7,313.9,163.8,304,163.1,296.6z"/>
			</g>
			<g>
				<path fill="#F1F2F2" d="M208,342.2c-2.5,0-4.8-0.3-6.9-1c-4.2-1.4-7-3.7-8.4-7c-1.3-3.2-1.9-7.7-1.9-13.9v-6.1l0.8-0.2
					c7.7-1.6,11.6-2.4,19.3-4.1l1.2-0.3v11c0,3.9,0.5,4.8,0.6,5c0.1,0.1,0.3,0.4,1,0.4c0.3,0,0.6,0,0.9-0.1c1.1-0.2,1.9-0.8,2.4-1.8
					c0.6-1.1,0.9-2.6,0.9-4.6c0-5.8-1-7.5-1.6-8c-1.1-1-4.2-2.6-9.5-4.9c-5-2.2-8.7-4.1-10.5-5.3c-1.8-1.3-3.3-3.3-4.5-6
					c-1.2-2.6-1.7-6.2-1.7-10.5c0-6.3,0.8-11.1,2.5-14.4c1.6-3.3,4.3-6.2,7.9-8.6c3.6-2.4,7.9-4.2,13-5.3c5.6-1.2,10.3-1.4,14.3-0.5
					c4.1,0.9,6.9,2.7,8.2,5.4c1.3,2.5,2,7,2,13.6v4l-0.8,0.2c-7.7,1.8-11.6,2.7-19.3,4.4l-1.2,0.3v-7.2c0-3.6-0.4-4.4-0.5-4.5
					c-0.1-0.2-0.6-0.4-1.4-0.2c-1,0.2-1.7,0.8-2.2,1.7c-0.6,1-0.8,2.5-0.8,4.4c0,3,0.5,4.5,0.9,5.3c0.3,0.6,1.5,1.7,5.3,3.1
					c9.5,3.5,15.4,6.7,17.9,9.8c2.6,3.2,3.8,8.7,3.8,16.8c0,5.8-0.7,10.3-2.1,13.5c-1.4,3.2-4.1,6.2-8.1,9
					c-3.9,2.8-8.5,4.8-13.7,5.9C213.1,341.9,210.4,342.2,208,342.2z M192.9,315.9v4.4c0,5.8,0.6,10.2,1.8,13.1
					c1.1,2.7,3.5,4.7,7.1,5.8c3.7,1.2,8.4,1.2,13.7,0c4.9-1.1,9.3-3,13-5.6c3.6-2.6,6.1-5.3,7.4-8.2c1.3-2.9,1.9-7.1,1.9-12.6
					c0-7.6-1.1-12.8-3.4-15.6c-2.3-2.8-8-5.9-17-9.2c-3.5-1.3-5.6-2.6-6.4-4c-0.8-1.4-1.2-3.5-1.2-6.3c0-2.3,0.4-4,1.1-5.4
					c0.8-1.4,2-2.3,3.5-2.7c1.9-0.4,3,0.3,3.5,1c0.4,0.6,1,1.8,1,5.7v4.6c6.7-1.5,10.5-2.4,17.3-4v-2.3c0-6.2-0.6-10.4-1.7-12.6
					c-1.1-2.1-3.4-3.5-6.9-4.3c-3.6-0.8-8.1-0.7-13.4,0.5c-4.8,1.1-8.9,2.8-12.3,5c-3.3,2.2-5.8,4.9-7.2,7.9
					c-1.5,3-2.2,7.5-2.2,13.5c0,4.1,0.5,7.4,1.6,9.7c1,2.3,2.3,4,3.8,5.1c1.2,0.8,3.9,2.4,10.1,5.1c5.6,2.5,8.7,4.1,10,5.3
					c1.5,1.4,2.3,4.4,2.3,9.6c0,2.3-0.4,4.2-1.1,5.6c-0.8,1.5-2.1,2.5-3.8,2.8c-2.1,0.5-3.4-0.3-3.9-1c-0.5-0.6-1-1.9-1-6.2v-8.5
					C203.5,313.7,199.7,314.5,192.9,315.9z"/>
			</g>
			<g>
				<path fill="#F1F2F2" d="M259.8,330.1c-2.3,0-4.4-0.3-6.4-0.9c-4.2-1.3-7-3.6-8.4-6.8c-1.3-3.1-1.9-7.7-1.9-13.8v-6l0.8-0.2
					c7.7-1.8,11.6-2.7,19.3-4.6l1.3-0.3v11c0,3.9,0.5,4.8,0.6,5c0.1,0.1,0.3,0.3,0.9,0.3c0.3,0,0.6,0,0.9-0.1
					c1.1-0.3,1.9-0.9,2.4-1.9c0.6-1.1,0.9-2.6,0.9-4.6c0-5.8-1-7.5-1.6-8c-1.2-1-4.3-2.6-9.5-4.8c-5.1-2.2-8.7-3.9-10.5-5.1
					c-1.8-1.3-3.4-3.2-4.5-5.9c-1.2-2.6-1.7-6.1-1.7-10.5c0-6.3,0.8-11.1,2.5-14.4c1.6-3.3,4.3-6.3,7.9-8.8c3.6-2.5,8-4.4,13-5.6
					c5.5-1.3,10.3-1.6,14.3-0.7c4.1,0.9,6.9,2.7,8.2,5.3c1.3,2.5,2,7,2,13.5v4l-21.4,5.1v-7.2c0-3.6-0.4-4.4-0.5-4.5
					c-0.1-0.1-0.5-0.4-1.4-0.2c-1,0.2-1.7,0.8-2.2,1.7c-0.6,1-0.8,2.5-0.8,4.4c0,3,0.5,4.5,0.9,5.2c0.3,0.5,1.5,1.7,5.3,3
					c9.5,3.4,15.4,6.5,17.9,9.7c2.6,3.2,3.8,8.7,3.8,16.8c0,5.8-0.7,10.4-2.1,13.5c-1.4,3.2-4.1,6.2-8.1,9.1
					c-3.9,2.8-8.5,4.9-13.7,6.1C265.2,329.8,262.3,330.1,259.8,330.1z M245.2,304.2v4.4c0,5.8,0.6,10.2,1.8,13.1
					c1.1,2.7,3.4,4.5,7.1,5.6c3.7,1.1,8.4,1,13.7-0.3c4.9-1.2,9.3-3.1,13-5.8c3.7-2.6,6.1-5.4,7.4-8.2c1.3-2.9,1.9-7.1,1.9-12.7
					c0-7.6-1.1-12.8-3.4-15.5c-2.3-2.8-8-5.8-17-9c-3.5-1.2-5.6-2.5-6.4-3.9c-0.8-1.4-1.2-3.5-1.2-6.3c0-2.3,0.4-4,1.1-5.4
					c0.8-1.4,2-2.3,3.5-2.7c1.9-0.4,3,0.3,3.5,0.9c0.4,0.6,1,1.7,1,5.7v4.6l17.3-4.1v-2.4c0-6.2-0.6-10.4-1.7-12.6
					c-1.1-2.1-3.4-3.5-6.9-4.3c-3.6-0.8-8.1-0.6-13.3,0.7c-4.8,1.1-8.9,2.9-12.3,5.3c-3.3,2.3-5.8,5-7.2,8c-1.5,3-2.2,7.6-2.2,13.5
					c0,4.1,0.5,7.3,1.6,9.7c1,2.3,2.3,4,3.8,5c1.2,0.8,3.9,2.3,10.1,4.9c5.5,2.3,8.7,3.9,10,5.1c1.6,1.4,2.3,4.4,2.3,9.5
					c0,2.3-0.4,4.2-1.1,5.6c-0.8,1.5-2.1,2.5-3.7,2.9c-2.1,0.5-3.4-0.3-3.9-1c-0.5-0.6-1-1.9-1-6.2v-8.4
					C255.8,301.7,252,302.6,245.2,304.2z"/>
			</g>
		</g>
	</g>
	<g>
		<g>
			<path fill="#F04D2F" d="M325,398.8V259.3l25-25l123.3-15.4v46.8l-11,11l11-1.4v85.5l-60.2,67.7l-25.4,25.4L325,398.8z M449.6,376
				l16.2-18.2v-74l-12.1,1.5l-5.4,5.4l-75.4,9.4v8.4l76.8-9.6V376z M401.7,355v-2.1l-2.1,0.3L401.7,355z"/>
			<path fill="#F1F2F2" d="M470.8,221.7v42.9L455.4,280l15.4-1.9v81.7l-0.3,0.4l-59.2,66.5l-23.7,23.7l-60.1-52.7v-36.4l1.9-1.9
				l-1.9,0.2v-99.3l23.7-23.7L470.8,221.7 M370.3,311.3l76.8-9.6v80.8l21.2-23.8v-77.8l-15.8,2l-5.4,5.4l-76.8,9.6V311.3
				 M404.2,360.5V350l-10.2,1.3v0.2L404.2,360.5 M475.8,216l-5.6,0.7l-119.6,14.9l-1.7,0.2l-1.2,1.2l-23.7,23.7l-1.5,1.5v2.1v99.3
				v5.7v32.4v2.3l1.7,1.5l60.1,52.7l3.5,3.1l3.3-3.3l23.7-23.7l0.1-0.1l0.1-0.1l59.2-66.5l0.3-0.4l1.3-1.4v-1.9v-81.7v-5.7l-5.6,0.7
				l-0.9,0.1l5.1-5.1l1.5-1.5v-2.1v-42.9V216L475.8,216z M454.8,287.7l8.5-1.1v70.3l-11.2,12.5v-67.7v-5.7l-5.6,0.7l-71.1,8.9v-3.4
				l72.4-9l1.7-0.2l1.2-1.2L454.8,287.7L454.8,287.7z"/>
		</g>
		<g>
			<polygon fill="#1186C8" points="467,261.2 467,226 355,240 355,331.6 431.7,322 431.7,348.1 411,371.5 390.2,353.3 390.2,336.5 
				355,340.9 355,372.2 411,421.3 467,358.3 467,317.6 467,282.4 467,282.4 390.2,292 390.2,270.8 			"/>
		</g>
		<g>
			<path fill="#F1F2F2" d="M411.1,423l-57.4-50.2v-33l37.8-4.7v17.6l19.4,17l19.6-22.1v-24.2l-76.8,9.6v-94.2l114.5-14.3v37.8
				l-76.8,9.6v18.6l76.8-9.6v77.8l-0.3,0.4L411.1,423z M356.2,371.7l54.6,47.8l54.8-61.7v-74l-76.8,9.6v-23.7l76.8-9.6v-32.7
				l-109.4,13.6v89l76.8-9.6v28l-21.9,24.7l-22.2-19.4V338l-32.7,4.1V371.7z"/>
		</g>
	</g>
	<g>
		<g>
			<path fill="#F04D2F" d="M13.3,458.7l26.3-48.2l17.6-15l41.2-5.3l17.6,27.8c0.3-0.9,0.6-1.8,1-2.7c5-12.5,28.8-33.9,43.5-36.5
				l0.2,0h0.7c0.8-0.2,1.6-0.3,2.4-0.5l5-0.9l1.3-1.1l0.9,0.7l1.5-0.3c2.8-0.5,5.5-0.8,8.1-0.8c11.3,0,19.6,5,24,14.5
				c0.9,1.9,1.6,3.8,2.1,5.9c0-0.1,0-0.1,0-0.2c0.5-3.4,1.7-6.4,3.7-9.1c2-2.8,21.3-19.1,24-20.6c2.7-1.5,6.2-2.8,10.8-3.9l0.3-0.1
				h0.8l8.5-2v1l2-1.7l0.6-0.1c1.1-0.3,2.5-0.5,4-0.8l0.9-0.2c3.7-0.9,6.9-1.3,9.6-1.3c1.3,0,2.4,0.1,3.5,0.3
				c4.3,0.8,7.6,3.2,9.6,6.9c1.6,3.1,2.4,7.5,2.4,13.9c0,8,0.4,9.6,0.4,9.7c0.1,0.2,0.1,0.4,0.2,0.5c0.4,0,0.9-0.1,1.7-0.2l7.1-1.4
				v22.2l-4.5,1.1c-1.8,0.4-2.9,1.1-3.7,2.2c-0.1,0.1-1.3,1.9-1.3,9.4c0,5.2-0.2,9.1-0.6,11.8c-0.5,3.4-1.7,6.4-3.7,9.1
				c-1.5,2.1-3.4,3.9-5.6,5.4c-6,5.4-16.1,13.8-18.3,15c-2.7,1.5-6.2,2.8-10.8,3.9l-9.5,2.3v-1.3l-2.1,1.8l-5.4,1.3
				c-3.7,0.9-6.9,1.3-9.6,1.3c-1.3,0-2.4-0.1-3.5-0.3c-4.3-0.8-7.6-3.2-9.6-6.9c-1.6-3.1-2.4-7.5-2.4-13.9c0-2.3,0-4.1-0.1-5.5
				c-0.4,1.3-0.8,2.5-1.3,3.7c-1.6,4-3.7,7.5-6.3,10.5c-7.6,10.5-26.1,24-40.5,26.5L151,488l-1.9,0.3c-2.8,0.5-5.5,0.8-8.1,0.8
				c-11.3,0-19.6-5-24-14.5c-2.5-5.4-3.5-11.5-3.8-18l-13.9,25.6l-17.6,15l-40.7,5.2L13.3,458.7z M72.7,465.5l8.4-15.4l-14.7-23.2
				L58,442.3L72.7,465.5z M154.1,415.1c-0.6,4.4-0.6,9.6-0.6,14.3c0,6.8,0,15.4,2,19.5c0.6,1.3,1,2.2,4.4,2.2c1.1,0,2.5-0.1,4-0.4
				l0.7-0.1l3.1-0.7c0.5-4.4,0.5-9.5,0.5-14.1c0-6.8,0-15.4-2-19.5c-0.6-1.3-1-2.2-4.4-2.2c-1.1,0-2.5,0.1-4,0.4L154.1,415.1z
				 M241,412.5c0.6,0.7,1.2,1.4,1.6,2.2c1.7,2.8,2.7,6.6,2.9,11.6l0.5,8.9c0.4-0.1,0.9-0.2,1.5-0.3l0.4-0.1c0.2-3.2,0.4-5.5,0.6-7
				c0.5-2.8,1.4-5.5,2.7-8.1c0.4-0.7,0.8-1.5,1.3-2.2c-0.3-0.3-0.6-0.7-0.9-1.1c-1.5-2-2.5-4.4-3-7c-0.4-2.1-0.7-5.6-0.9-10.9
				c-0.1-1.6-0.1-2.9-0.2-3.8c-0.5,0.1-1,0.2-1.6,0.4l-0.3,0.1c-0.1,2.7-0.3,4.7-0.4,6c-0.4,2.7-1.2,5.5-2.4,8.1
				C242.4,410.4,241.7,411.5,241,412.5z"/>
			<path fill="#F1F2F2" d="M271.8,359.9c1.1,0,2.1,0.1,3.1,0.3c3.5,0.6,6.2,2.6,7.8,5.6c1.4,2.6,2.1,6.8,2.1,12.8
				c0,8,0.4,10,0.5,10.4c0.3,0.9,0.7,1.6,1.4,2.2c0.1,0,0.4,0.1,1,0.1c0.7,0,1.5-0.1,2.5-0.3l4.1-0.8v17.2l-2.6,0.6
				c-2.3,0.6-4,1.6-5.1,3.2c-0.5,0.7-1.7,3.3-1.7,10.9c0,5.1-0.2,8.8-0.6,11.5c-0.4,3-1.5,5.7-3.2,8c-1.4,1.9-3.1,3.5-5.2,4.9
				c-6.3,5.7-16.1,13.8-18,14.8c-2.5,1.4-5.8,2.6-10.2,3.6l-6.5,1.5v-3.5l-5.7,4.9l-4.9,1.2c-3.5,0.8-6.5,1.3-9,1.3
				c-1.1,0-2.1-0.1-3.1-0.3c-3.5-0.6-6.2-2.6-7.8-5.6c-1.4-2.6-2.1-6.8-2.1-12.8c0-7.6-0.3-9.7-0.5-10.3c-0.2-0.9-0.7-1.7-1.4-2.4
				c0,0-0.4-0.1-1-0.1c-0.2,0-0.4,0-0.6,0c-0.6,3.4-1.4,6.8-2.7,10c-1.5,3.8-3.5,7.1-6,9.9c-7.5,10.4-25.4,23.2-39,25.6l-4,0.7v-1.3
				l-2,1.7l-2.8,0.5c-2.7,0.5-5.3,0.7-7.6,0.7c-10.2,0-17.8-4.5-21.8-13c-3.6-7.7-3.8-17.5-3.8-26.4l-18.2,33.4l-16.7,14.2
				l-16.7,2.1l0,0l-21.7,2.8l-26-41l25.3-46.5l16.7-14.2l17.1-2.2l21.7-2.8l19.8,31.3c0.5-2.7,1.3-5.4,2.3-8
				c4.8-11.8,27.6-32.5,41.6-35h0.8c0.8-0.2,1.7-0.4,2.6-0.5l4-0.7v1.1l2-1.7l0.2,0.2l2.6-0.5c2.7-0.5,5.2-0.7,7.6-0.7
				c10.2,0,17.8,4.5,21.8,13c3.8,8.1,3.8,18.7,3.8,28.1c0,0,0,0.1,0,0.1c0.3-0.3,0.5-0.5,0.7-0.8c0.5-0.7,1.7-3.2,1.7-10.9
				c0-5.1,0.2-8.8,0.6-11.4c0.4-3,1.5-5.7,3.2-8c1.7-2.3,20.6-18.4,23.2-19.9c2.5-1.4,5.8-2.6,10.2-3.6h0.8l5.7-1.4v3.3l5.6-4.8
				c1.1-0.3,2.5-0.5,3.9-0.7l1-0.2C266.4,360.4,269.3,359.9,271.8,359.9 M243.6,438.1c0.6,0,1.9-0.2,4.5-0.8l2.2-0.5
				c0.2-4.1,0.4-6.9,0.6-8.5c0.4-2.5,1.3-5,2.5-7.4c0.6-1.2,1.5-2.5,2.5-3.6c-0.9-0.7-1.7-1.4-2.3-2.2c-1.3-1.7-2.1-3.7-2.6-6
				c-0.4-1.9-0.7-5.4-0.8-10.5c-0.1-3.8-0.3-5.7-0.4-6.7c-0.7,0.1-2.1,0.3-4.4,0.8l-2.1,0.5c-0.1,3.6-0.3,6.2-0.5,7.7
				c-0.3,2.5-1.1,5-2.2,7.4c-0.7,1.5-1.7,3-3,4.5c1.2,0.9,2.1,2,2.9,3.2c1.5,2.4,2.3,5.8,2.6,10.5L243.6,438.1 M159.9,453.6
				c1.3,0,2.8-0.1,4.4-0.4l0.8-0.1l3.2-0.7l-0.1,0.2l0.1,0v1.1l1.6-1.3c0.9-5,0.9-11,0.9-16.5c0-7.5,0-15.9-2.2-20.6
				c-0.9-1.9-2.1-3.6-6.6-3.6c-1.3,0-2.8,0.1-4.4,0.4l-4,0.7v-5.4c-0.1,0.1-0.1,0.3-0.2,0.4c-2.3,5.6-2.3,14.1-2.3,21.7
				c0,7.5,0,15.9,2.2,20.6C154.2,451.8,155.3,453.6,159.9,453.6 M72.9,470.4L84,449.9l-17.8-28l-11.2,20.5L72.9,470.4 M271.8,354.9
				C271.8,354.9,271.8,354.9,271.8,354.9c-2.9,0-6.2,0.5-10.1,1.4l-0.8,0.2c-1.5,0.2-2.9,0.5-4.1,0.8l-1.2,0.3l-0.3,0.3l-4.2,1
				l-5.1,1.2h-0.2h-0.6l-0.6,0.1c-4.8,1.1-8.5,2.5-11.4,4.1c-3.1,1.7-22.5,18.2-24.8,21.3c-0.7,1-1.3,2-1.9,3.1
				c-4.9-9.8-14.1-15.1-25.9-15.1c-2.3,0-4.8,0.2-7.4,0.6v0l-1.5,0.3l-1.7-1.3l-2.3,2l-0.4,0.1l-4,0.7c-0.8,0.1-1.5,0.3-2.3,0.4
				h-0.2h-0.4l-0.4,0.1c-14.9,2.6-37.9,22.8-44.6,36.2l-14.1-22.3l-1.7-2.7l-3.2,0.4l-21.7,2.8L57.6,393l-1.5,0.2l-1.1,1l-16.7,14.2
				l-0.7,0.6l-0.4,0.8l-25.3,46.5l-1.4,2.6l1.6,2.5l26,41l1.7,2.7l3.2-0.4l21.7-2.8l16.7-2.1l1.5-0.2l1.1-1l16.7-14.2l0.7-0.6
				l0.4-0.8l9.9-18.1c0.6,3.8,1.6,7.5,3.2,10.9c4.8,10.2,14.1,15.9,26.3,15.9c2.3,0,4.8-0.2,7.4-0.6v0l2.5-0.4l1.4-0.2l1.3-0.2l0,0
				l0.6-0.1l4-0.7c15.2-2.7,34-16.3,42.1-27.4c1.3-1.5,2.4-3.1,3.5-4.8c0.4,4,1.2,7.2,2.4,9.6c2.3,4.4,6.4,7.3,11.4,8.2
				c1.2,0.2,2.6,0.3,4,0.3c2.9,0,6.2-0.5,10.1-1.4l4.4-1.1v0l6.2-1.5l6.5-1.5c4.8-1.1,8.5-2.5,11.4-4.1c2.6-1.5,13-10.1,18.7-15.2
				c2.4-1.7,4.5-3.6,6.1-5.9c2.2-3,3.6-6.5,4.1-10.2c0.4-2.9,0.6-6.8,0.6-12.2c0-5.7,0.7-7.7,0.9-8.1c0.2-0.3,0.7-0.8,2.2-1.1
				l2.6-0.6l3.8-0.9v-3.9v-17.2v-6.1l-6,1.2L290,386c-0.1-1.3-0.2-3.6-0.2-7.4c0-6.9-0.8-11.7-2.7-15.1c-2.3-4.4-6.4-7.3-11.4-8.2
				C274.6,355.1,273.2,354.9,271.8,354.9L271.8,354.9L271.8,354.9z M244.1,412.4c0.4-0.7,0.8-1.3,1.1-2c0.3-0.6,0.5-1.2,0.8-1.8
				c0.1,0.5,0.2,1,0.2,1.4c0.6,2.9,1.7,5.5,3.3,7.7c-0.2,0.3-0.3,0.6-0.5,0.8c-0.5,1-1,2.1-1.4,3.1c-0.5-3.4-1.5-6.1-2.9-8.4
				C244.5,413,244.3,412.7,244.1,412.4L244.1,412.4z M156.4,417.2l2-0.3c1.3-0.2,2.5-0.4,3.5-0.4c1.1,0,1.7,0.1,1.8,0.2
				c0,0.1,0.1,0.2,0.3,0.5c1.7,3.7,1.7,11.9,1.7,18.5c0,3.9,0,8.2-0.3,12.1l-1.3,0.3l-0.7,0.1c-1.4,0.2-2.5,0.4-3.5,0.4
				c-1.1,0-1.7-0.1-1.8-0.2c0-0.1-0.1-0.2-0.3-0.5c-1.7-3.7-1.7-11.9-1.7-18.5C156.1,425.3,156.1,421,156.4,417.2L156.4,417.2z
				 M60.9,442.2l5.7-10.4l11.6,18.4l-5.7,10.4L60.9,442.2L60.9,442.2z"/>
		</g>
		<g>
			<g>
				<path fill="#FDD007" d="M219.4,421.5v-10.4c3.1-0.8,5.5-2.3,7.1-4.5c1.6-2.2,2.4-6.5,2.4-12.9c0-4.9,0.2-8.5,0.5-10.9
					c0.4-2.4,1.2-4.6,2.6-6.5c1.4-1.9,3.2-3.5,5.4-4.7c2.2-1.2,5.3-2.3,9.3-3.3l2.3-0.5v10.3c-4.2,1-6.7,2-7.5,3.1
					c-0.8,1.1-1.3,2.8-1.3,5.4c-0.2,7-0.4,11.5-0.7,13.6c-0.3,2.1-0.9,4.3-1.9,6.4c-1,2.1-2.8,4.4-5.5,6.7c2.6,0.9,4.4,2.4,5.6,4.2
					c1.2,1.9,1.8,4.8,2.1,8.8l0.6,12.4c0.3,1.1,0.9,1.9,1.9,2.3c1,0.4,3.2,0.2,6.7-0.7v10.4l-2.2,0.5c-4.6,1.1-8.2,1.4-10.7,1
					c-2.5-0.5-4.3-1.7-5.4-3.9c-1.1-2.1-1.7-5.8-1.7-11.2c0-5.9-0.2-9.6-0.6-11.1c-0.4-1.5-1.2-2.9-2.3-4
					C224.7,421.1,222.6,420.9,219.4,421.5z"/>
			</g>
			<g>
				<path fill="#FDD007" d="M290.9,404.5c-3.1,0.8-5.5,2.3-7.1,4.5c-1.6,2.2-2.4,6.5-2.4,12.8c0,4.9-0.2,8.6-0.5,11
					c-0.3,2.4-1.2,4.6-2.6,6.5c-1.4,1.9-3.2,3.5-5.4,4.7c-2.2,1.2-5.3,2.3-9.3,3.3l-2.3,0.5v-10.4c4-1,6.5-2,7.4-3
					c0.9-1.1,1.4-2.9,1.4-5.4c0.2-7.4,0.4-12.2,0.8-14.4c0.4-2.2,1.1-4.3,2.2-6.4c1.1-2.1,2.8-4.1,5.1-6c-2.5-1-4.2-2.2-5.2-3.5
					c-1-1.3-1.6-2.9-2-4.6c-0.3-1.7-0.6-5.1-0.8-10c-0.2-4.9-0.4-7.7-0.6-8.4c-0.2-0.7-0.8-1.2-1.7-1.5c-0.9-0.3-3.1,0-6.7,0.8
					v-10.3l2.3-0.5c4.6-1.1,8.2-1.4,10.7-1c2.5,0.5,4.3,1.7,5.4,3.9c1.1,2.1,1.7,5.8,1.7,11.2c0,6.1,0.2,9.9,0.7,11.4
					c0.4,1.5,1.2,2.7,2.4,3.8c1.1,1,3.3,1.2,6.4,0.6V404.5z"/>
			</g>
			<g>
				<polygon fill="#FDD007" points="95.4,396.4 81.1,398.2 104.7,435.4 80.9,479 95.2,477.2 119,433.6 				"/>
			</g>
			<g>
				<polygon fill="#FDD007" points="74.7,399.1 60.4,400.9 36.9,444.1 60.6,481.6 74.9,479.8 51.2,442.3 				"/>
			</g>
			<g>
				<g>
					<path fill="#FDD007" d="M173.6,466.8v-12c10-1.8,13-6.2,14.7-10.3c2.5-6.2,2.5-15.1,2.5-22.9c0-7.8,0-16.7-2.5-22
						c-1.6-3.5-4.7-6.9-14.7-5.1v-12c12.8-2.2,21.4,1.2,25.7,10.4c3.5,7.5,3.5,17.6,3.5,26.6c0,9,0,19.2-3.5,27.9
						C195.1,458,186.4,464.5,173.6,466.8z"/>
				</g>
			</g>
			<g>
				<g>
					<path fill="#FDD007" d="M164.9,468.3c-12.8,2.2-21.4-1.2-25.7-10.4c-3.5-7.5-3.5-17.6-3.5-26.6c0-9,0-19.2,3.5-27.9
						c4.3-10.7,12.9-17.2,25.7-19.4c0,0,0,0,0,0l0,12c-10,1.8-13,6.2-14.7,10.3c-2.5,6.2-2.5,15.1-2.5,22.9c0,7.8,0,16.7,2.5,22
						c1.6,3.5,4.7,6.9,14.7,5.1L164.9,468.3z"/>
				</g>
			</g>
		</g>
		<g>
			<g>
				<path fill="#F1F2F2" d="M238.4,453.8c-1,0-1.9-0.1-2.7-0.2c-2.9-0.5-5-2-6.3-4.5c-1.2-2.3-1.8-6.2-1.8-11.8
					c0-7.1-0.3-9.8-0.6-10.8c-0.3-1.3-1-2.4-2-3.4c-0.8-0.8-2.7-0.9-5.4-0.3l-1.5,0.3v-12.9l1-0.2c2.9-0.7,4.9-2,6.4-4
					c1-1.4,2.1-4.6,2.1-12.2c0-5,0.2-8.6,0.6-11.1c0.4-2.6,1.3-5,2.8-7.1c1.5-2.1,3.4-3.8,5.8-5.1c2.3-1.3,5.5-2.4,9.6-3.4l3.9-0.9
					v12.9l-1,0.2c-5.3,1.3-6.5,2.2-6.8,2.6c-0.4,0.6-1,1.8-1.1,4.6c-0.2,7.1-0.4,11.6-0.7,13.8c-0.3,2.3-1,4.5-2,6.8
					c-0.9,1.9-2.4,3.8-4.4,5.8c1.9,1,3.4,2.3,4.4,3.9c1.3,2.1,2,5.2,2.2,9.4l0.6,12.3c0.2,0.9,0.7,1.1,1.1,1.3
					c0.1,0,0.3,0.1,0.8,0.1c1.1,0,2.8-0.3,5.1-0.8l1.6-0.4v13l-3.2,0.8C243.6,453.4,240.7,453.8,238.4,453.8z M222.5,419.9
					c1.9,0,3.3,0.5,4.3,1.4c1.3,1.3,2.2,2.8,2.7,4.6c0.4,1.7,0.6,5.4,0.6,11.4c0,5.1,0.5,8.6,1.5,10.6c0.9,1.8,2.4,2.8,4.5,3.2
					c2.3,0.4,5.7,0.1,10.1-0.9l1.3-0.3v-7.8c-3,0.6-4.8,0.7-5.9,0.3c-1.4-0.5-2.3-1.6-2.6-3.2l0-0.2l-0.6-12.4
					c-0.2-3.8-0.8-6.5-1.9-8.2c-1-1.6-2.7-2.9-5-3.7l-2-0.7l1.6-1.4c2.6-2.2,4.3-4.4,5.2-6.3c0.9-2,1.5-4,1.8-6
					c0.3-2.1,0.5-6.6,0.7-13.5c0.1-2.8,0.6-4.8,1.6-6.1c0.6-0.8,2-2,7.2-3.3v-7.7l-0.7,0.2c-3.9,0.9-6.9,2-9,3.1
					c-2,1.1-3.7,2.6-4.9,4.3c-1.3,1.7-2.1,3.7-2.4,6c-0.3,2.4-0.5,6-0.5,10.8c0,6.7-0.9,11.2-2.6,13.6c-1.6,2.2-3.9,3.8-6.8,4.7v7.9
					C221.3,420,221.9,419.9,222.5,419.9z"/>
			</g>
			<g>
				<path fill="#F1F2F2" d="M260.1,449.5v-13l1-0.2c5.1-1.2,6.4-2.2,6.7-2.6c0.5-0.6,1.1-1.8,1.1-4.6c0.2-7.5,0.4-12.3,0.8-14.6
					c0.4-2.3,1.1-4.6,2.3-6.7c0.9-1.7,2.2-3.4,3.9-5c-1.8-0.9-3-1.9-3.9-3.1c-1.1-1.5-1.8-3.2-2.2-5.1c-0.4-1.8-0.6-5.2-0.8-10.2
					c-0.2-6.6-0.5-7.8-0.5-8c0-0.1-0.1-0.4-0.9-0.7c0,0-0.1-0.1-0.6-0.1c-1.1,0-2.9,0.3-5.4,0.9l-1.6,0.4v-12.9l3.3-0.8
					c4.8-1.1,8.5-1.5,11.2-1c2.9,0.5,5,2,6.3,4.5c1.2,2.3,1.8,6.2,1.8,11.8c0,7.4,0.3,10.1,0.6,11c0.4,1.3,1,2.3,2,3.2
					c0.8,0.7,2.7,0.8,5.3,0.3l1.5-0.3v12.9l-1,0.2c-2.9,0.7-4.9,2-6.4,4c-1.4,2-2.1,6.1-2.1,12.1c0,4.9-0.2,8.7-0.5,11.2
					c-0.4,2.6-1.3,5-2.8,7.1c-1.5,2.1-3.4,3.8-5.8,5.1c-2.3,1.3-5.5,2.4-9.6,3.4L260.1,449.5z M262.7,438.5v7.8l0.7-0.2
					c3.9-0.9,6.9-2,9-3.1c2-1.1,3.7-2.6,4.9-4.3c1.3-1.7,2-3.7,2.4-5.9c0.3-2.4,0.5-6,0.5-10.8c0-6.7,0.9-11.1,2.6-13.6
					c1.6-2.2,3.9-3.8,6.8-4.7v-7.9c-2.8,0.4-4.8,0-6-1.2c-1.3-1.2-2.2-2.7-2.7-4.3c-0.3-1-0.7-3.4-0.7-11.7c0-5.1-0.5-8.7-1.5-10.6
					c-0.9-1.8-2.4-2.8-4.5-3.2c-2.3-0.4-5.7-0.1-10.1,0.9l-1.3,0.3v7.7c3.1-0.7,4.8-0.8,5.9-0.4c1.6,0.6,2.2,1.5,2.4,2.2
					c0.2,0.6,0.4,2.1,0.7,8.8c0.2,4.8,0.4,8.1,0.8,9.8c0.3,1.6,0.9,2.9,1.8,4.1c0.8,1.1,2.4,2.2,4.6,3.1l2,0.8l-1.6,1.3
					c-2.2,1.8-3.8,3.7-4.8,5.6c-1,1.9-1.7,4-2,6c-0.3,2.1-0.6,6.9-0.8,14.2c-0.1,2.9-0.6,4.9-1.8,6.2
					C268.7,436.5,266.4,437.5,262.7,438.5z"/>
			</g>
			<g>
				<path fill="#F1F2F2" d="M78.6,480.6l24.6-45.1L79,397.2l17.1-2.2l24.4,38.5L96,478.4L78.6,480.6z M83.3,399.2l22.9,36.1
					l-22.9,42.1l11.2-1.4l23.1-42.4l-22.7-35.9L83.3,399.2z"/>
			</g>
			<g>
				<path fill="#F1F2F2" d="M60,483l-24.6-38.8l24.2-44.5l17.4-2.2l-24.4,44.8l24.4,38.6L60,483z M38.4,444.1l22.9,36.2l11.5-1.5
					l-23.1-36.5l22.7-41.7l-11.2,1.4L38.4,444.1z"/>
			</g>
			<g>
				<g>
					<path fill="#F1F2F2" d="M172.4,468.3v-14.6l1.1-0.2c9.4-1.7,12.1-5.5,13.7-9.5c2.4-6,2.4-14.7,2.4-22.4c0-7.7,0-16.4-2.4-21.5
						c-1.2-2.5-3-4.8-8.5-4.8c-1.4,0-3,0.2-4.8,0.5l-1.5,0.3v-14.6l1.1-0.2c13.4-2.4,22.6,1.4,27.1,11.1c3.6,7.7,3.6,18.1,3.6,27.2
						c0,9.1,0,19.4-3.6,28.3c-4.5,11.1-13.4,17.9-26.7,20.2L172.4,468.3z M174.9,455.8v9.4c11.5-2.4,19.3-8.6,23.3-18.4
						c3.4-8.5,3.4-18.5,3.4-27.4c0-8.9,0-18.9-3.4-26.1c-3.9-8.3-11.7-11.6-23.3-9.9v9.4c1.3-0.2,2.6-0.3,3.7-0.3
						c7,0,9.5,3.4,10.9,6.3c2.6,5.6,2.6,14.6,2.6,22.6c0,7.9,0,16.9-2.6,23.4C187.8,449.2,184.7,453.8,174.9,455.8z"/>
				</g>
			</g>
			<g>
				<g>
					<path fill="#F1F2F2" d="M157.8,470.2c-9.5,0-16.2-4-19.8-11.8c-3.6-7.7-3.6-18.1-3.6-27.2c0-9.1,0-19.4,3.6-28.3
						c4.5-11.1,13.4-17.9,26.7-20.2l1.5-0.3l0,14.6l-1.1,0.2c-9.4,1.7-12.1,5.5-13.7,9.5c-2.4,6-2.4,14.7-2.4,22.4
						c0,7.7,0,16.4,2.4,21.5c1.2,2.5,3,4.8,8.5,4.8c1.4,0,3-0.2,4.8-0.5l1.5-0.3l0,14.6l-1.1,0.2C162.5,470,160.1,470.2,157.8,470.2
						z M163.6,385.5c-11.5,2.4-19.3,8.6-23.3,18.4c-3.4,8.5-3.4,18.5-3.4,27.4c0,8.9,0,18.9,3.4,26.1c3.3,6.9,9,10.3,17.5,10.3
						c1.8,0,3.7-0.2,5.8-0.5l0-9.4c-1.3,0.2-2.6,0.3-3.7,0.3c-7,0-9.5-3.4-10.9-6.3c-2.6-5.6-2.6-14.6-2.6-22.6
						c0-7.9,0-16.9,2.6-23.4c1.7-4.3,4.8-8.9,14.6-10.8L163.6,385.5z"/>
				</g>
			</g>
		</g>
	</g>
</g>
</svg>
